<svg width="18" height="18" viewBox="0 0 18 18" fill="none" xmlns="http://www.w3.org/2000/svg">
<path d="M0.48794 0.488155C-0.162933 1.13903 -0.162933 2.1943 0.487942 2.84518L6.46319 8.82043L0.487937 14.7957C-0.162936 15.4466 -0.162934 16.5018 0.487939 17.1527C1.13881 17.8036 2.19409 17.8036 2.84496 17.1527L8.82022 11.1775L14.7954 17.1527C15.4463 17.8036 16.5016 17.8036 17.1525 17.1527C17.8033 16.5018 17.8033 15.4465 17.1525 14.7957L11.1772 8.82043L17.1525 2.8452C17.8033 2.19433 17.8033 1.13905 17.1525 0.488179C16.5016 -0.162694 15.4463 -0.162694 14.7954 0.488181L8.82022 6.46341L2.84496 0.488155C2.19409 -0.162719 1.13881 -0.162719 0.48794 0.488155Z" fill="#513C27"/>
</svg>
