<svg width="16" height="16" viewBox="0 0 16 16" fill="none" xmlns="http://www.w3.org/2000/svg">
<path fill-rule="evenodd" clip-rule="evenodd" d="M5.66667 5.66667H14.1667C14.9491 5.66667 15.5833 5.0324 15.5833 4.25V1.41667C15.5833 0.634263 14.9491 0 14.1667 0H1.41667C0.634263 0 0 0.634263 0 1.41667V14.1667C0 14.9491 0.634263 15.5833 1.41667 15.5833H4.25C5.0324 15.5833 5.66667 14.9491 5.66667 14.1667V5.66667ZM4.25 11.3333V9.20834H3.54167C3.15047 9.20834 2.83333 8.8912 2.83333 8.5C2.83333 8.1088 3.15047 7.79167 3.54167 7.79167H4.25V5.66667H3.54167C3.15047 5.66667 2.83333 5.34954 2.83333 4.95833C2.83333 4.56713 3.15047 4.25 3.54167 4.25H4.25V3.54167C4.25 3.15047 4.56713 2.83333 4.95833 2.83333C5.34954 2.83333 5.66667 3.15047 5.66667 3.54167V4.25H7.79167V3.54167C7.79167 3.15047 8.1088 2.83333 8.5 2.83333C8.8912 2.83333 9.20834 3.15047 9.20834 3.54167V4.25H11.3333V3.54167C11.3333 3.15047 11.6505 2.83333 12.0417 2.83333C12.4329 2.83333 12.75 3.15047 12.75 3.54167V4.25H13.4583C13.8495 4.25 14.1667 3.93287 14.1667 3.54167V2.125C14.1667 1.7338 13.8495 1.41667 13.4583 1.41667H2.125C1.7338 1.41667 1.41667 1.7338 1.41667 2.125V13.4583C1.41667 13.8495 1.7338 14.1667 2.125 14.1667H3.54167C3.93287 14.1667 4.25 13.8495 4.25 13.4583V12.75H3.54167C3.15047 12.75 2.83333 12.4329 2.83333 12.0417C2.83333 11.6505 3.15047 11.3333 3.54167 11.3333H4.25Z" fill="#94897C"/>
</svg>
