<svg width="25" height="25" viewBox="0 0 25 25" fill="none" xmlns="http://www.w3.org/2000/svg">
<path d="M12.3437 24.3437C5.76984 24.3437 0.34375 18.9177 0.34375 12.3437C0.34375 5.76984 5.76984 0.34375 12.3437 0.34375C18.9177 0.34375 24.3437 5.76984 24.3437 12.3437C24.3437 18.9177 18.9177 24.3437 12.3437 24.3437Z" stroke="#94897C" stroke-width="0.6875" stroke-miterlimit="10" stroke-linecap="round" stroke-linejoin="round"/>
<path d="M15.652 6.30208C16.1583 6.30208 16.5687 5.89168 16.5687 5.38542C16.5687 4.87916 16.1583 4.46875 15.652 4.46875C15.1458 4.46875 14.7354 4.87916 14.7354 5.38542C14.7354 5.89168 15.1458 6.30208 15.652 6.30208Z" stroke="#94897C" stroke-width="0.6875" stroke-miterlimit="10" stroke-linecap="round" stroke-linejoin="round"/>
<path d="M9.7854 14.7352H11.9854C13.4521 14.7352 14.7354 13.4518 14.7354 11.9852V9.78516C14.7354 8.31849 13.4521 7.03516 11.9854 7.03516H9.7854C8.31873 7.03516 7.0354 8.31849 7.0354 9.78516V11.9852C7.0354 13.5435 8.22707 14.7352 9.7854 14.7352Z" stroke="#94897C" stroke-width="0.6875" stroke-miterlimit="10" stroke-linecap="round" stroke-linejoin="round"/>
</svg>
