<svg width="16" height="15" viewBox="0 0 16 15" fill="none" xmlns="http://www.w3.org/2000/svg">
<path fill-rule="evenodd" clip-rule="evenodd" d="M1.94329 2.83607C1.42928 3.71724 1.26011 4.93994 1.57593 6.2032C1.68958 6.6578 2.01998 7.24224 2.5436 7.91491C3.05707 8.57453 3.71245 9.26408 4.40659 9.92569C5.78294 11.2375 7.26414 12.3948 7.97208 12.9299C8.68001 12.3948 10.1612 11.2375 11.5376 9.92569C12.2317 9.26408 12.8871 8.57453 13.4006 7.91491C13.9242 7.24224 14.2546 6.6578 14.3682 6.2032C14.6841 4.93994 14.5149 3.71724 14.0009 2.83608C13.4992 1.976 12.6614 1.41667 11.5137 1.41667C10.5153 1.41667 9.81155 2.15495 9.31397 3.15011C9.07488 3.62828 8.91236 4.11361 8.80952 4.48385C8.75847 4.66762 8.72303 4.81975 8.70066 4.92413C8.62139 5.29403 8.1947 5.3125 7.97208 5.3125C7.74946 5.3125 7.32202 5.29058 7.2435 4.92414C7.22113 4.81975 7.18568 4.66763 7.13463 4.48385C7.03179 4.11361 6.86927 3.62829 6.63018 3.15011C6.1326 2.15495 5.42885 1.41667 4.4304 1.41667C3.28277 1.41667 2.445 1.976 1.94329 2.83607ZM7.97207 2.6705C7.99624 2.6193 8.02116 2.56796 8.04686 2.51656C8.61178 1.38672 9.67888 0 11.5137 0C13.1994 0 14.4867 0.857334 15.2245 2.12226C15.9501 3.36609 16.1351 4.97673 15.7426 6.5468C15.5566 7.29066 15.0805 8.0631 14.5185 8.78511C13.9463 9.52017 13.2369 10.2631 12.515 10.9512C11.0704 12.328 9.52734 13.5307 8.80863 14.0734C8.31231 14.4481 7.63184 14.4481 7.13553 14.0734C6.41681 13.5307 4.87371 12.328 3.42917 10.9512C2.70727 10.2631 1.99789 9.52017 1.4257 8.78511C0.863676 8.0631 0.387527 7.29066 0.20156 6.5468C-0.190957 4.97673 -0.00596137 3.36609 0.719604 2.12226C1.45747 0.857334 2.7447 0 4.4304 0C6.26526 0 7.33236 1.38672 7.89729 2.51656C7.92299 2.56796 7.94791 2.6193 7.97207 2.6705Z" fill="#94897C"/>
</svg>
