<svg width="50" height="50" viewBox="0 0 50 50" fill="none" xmlns="http://www.w3.org/2000/svg">
<circle opacity="0.06" cx="25" cy="25" r="25" fill="#3B2317"/>
<path fill-rule="evenodd" clip-rule="evenodd" d="M33.8434 30.0592L34.1234 31.3892C34.3887 32.539 34.1267 33.7473 33.409 34.684C32.6912 35.6207 31.5927 36.1879 30.4134 36.2308H19.5867C18.4074 36.1879 17.3089 35.6207 16.5911 34.684C15.8733 33.7473 15.6114 32.539 15.8767 31.3892L16.1567 30.0592C16.4787 28.2587 18.0264 26.9356 19.855 26.8975H30.145C31.9736 26.9356 33.5213 28.2587 33.8434 30.0592ZM30.4134 34.4692C31.0058 34.4623 31.5633 34.1878 31.93 33.7225V33.7342C32.38 33.1697 32.5553 32.4342 32.4084 31.7275L32.1284 30.3975C31.973 29.4119 31.1421 28.6738 30.145 28.6358H19.855C18.858 28.6738 18.0271 29.4119 17.8717 30.3975L17.5917 31.7275C17.4484 32.4305 17.6235 33.1609 18.07 33.7225C18.4368 34.1878 18.9943 34.4623 19.5867 34.4692H30.4134Z" fill="#3B2317"/>
<path fill-rule="evenodd" clip-rule="evenodd" d="M25.5833 24.5641H24.4167C21.8393 24.5641 19.75 22.4748 19.75 19.8975V16.8175C19.7469 15.7769 20.1589 14.778 20.8947 14.0422C21.6305 13.3064 22.6294 12.8944 23.67 12.8975H26.33C27.3706 12.8944 28.3695 13.3064 29.1053 14.0422C29.8411 14.778 30.2531 15.7769 30.25 16.8175V19.8975C30.25 22.4748 28.1607 24.5641 25.5833 24.5641ZM23.67 14.6475C22.4716 14.6475 21.5 15.619 21.5 16.8175V19.8975C21.5 21.5083 22.8058 22.8141 24.4167 22.8141H25.5833C27.1942 22.8141 28.5 21.5083 28.5 19.8975V16.8175C28.5 16.242 28.2714 15.69 27.8644 15.2831C27.4575 14.8761 26.9055 14.6475 26.33 14.6475H23.67Z" fill="#3B2317"/>
</svg>
