<svg width="358" height="365" fill="none" xmlns="http://www.w3.org/2000/svg"><g opacity=".4" clip-path="url(#clip0_2_5724)" fill="#C89663"><path d="M156.454 218.18c-2.953 2.917-5.263 6.261-6.716 10.097-2.717 7.261-3.764 14.874-4.341 22.563-.039.416-.118.82-.177 1.229-.169-.008-.357-.022-.526-.03.181-3.022.173-6.059.576-9.036.528-3.965 1.166-7.94 2.144-11.834 1.659-6.66 5.673-11.97 10.402-16.81 1.239-1.273 2.636-2.007 4.697-1.387-6.22 5.673-8.47 13.373-11.405 20.717 1.199-5.344 2.909-10.536 5.34-15.489l.006-.02zm-.977-42.111c-15.234-17.313-20.343-37.695-18.128-60.234-.363 10.681.527 21.248 3.466 31.618 2.991 10.557 8.392 19.787 14.682 28.622l-.02-.006zm-30.726 17.861c-19.404-.447-38.562-2.423-56.594-10.428 9.046 3.296 18.426 5.41 27.914 6.808 9.522 1.43 19.108 2.431 28.68 3.62zm6.998 12.102c-20.543 3.484-38 13.793-55.442 24.406.24-.227.44-.466.692-.668.26-.221.566-.386.858-.575 11.656-7.737 23.531-15.065 36.843-19.697 5.518-1.91 11.157-3.228 17.055-3.485l-.006.019zm7.263-23.737s-.139.108-.23.124a.43.43 0 01-.239.013c-.079-.023-.189-.014-.236-.071a1.867 1.867 0 01-.398-.312c-10.804-10.832-23.303-19.588-34.89-29.524 4.228 3.023 8.524 5.959 12.683 9.068 4.172 3.134 8.239 6.408 12.3 9.701 8.991 7.253 10.449 8.739 11.016 10.982l-.006.019zm2.467 131.213c-8.048-18.509-8.215-37.747-4.852-57.27-1.342 19.276-3.647 31.788 4.852 57.27zm-20.408-208.802c-2.296 22.023 5.611 41.002 17.967 58.989-4.116-3.395-11.828-17.678-15.217-27.906-3.658-10.971-4.895-24.228-2.75-31.083zM108.245 228.84c11.499-10.134 30.087-20.145 37.006-19.882-3.184 1.265-6.436 2.403-9.544 3.841-3.254 1.5-6.43 3.238-9.566 4.988-3.061 1.708-6.072 3.539-9.063 5.375-2.972 1.841-5.889 3.785-8.833 5.678zm111.978-94.529c-9.85 11.912-19.987 23.566-29.054 36.076 8.109-13.311 18.318-24.922 29.054-36.076zm-43.117 70.696c6.912 12.035 17.217 19.897 27.319 28.083-1.686-1.084-3.44-2.081-5.063-3.231-7.953-5.724-15.392-12.019-20.918-20.261-1.392-2.064-1.403-2.238-1.358-4.597l.02.006zm-91.702 13.677c-6.664 4.942-13.517 9.656-19.959 14.857-6.474 5.234-11.518 11.837-16.147 18.694 8.237-15.302 21.459-25.26 36.111-33.57l-.005.019zm-38.125-32.503l34.956 10.506c-12.377-1.967-24.107-4.809-34.976-10.511l.02.005zm175.292 28.043c-4.028-3.261-8.526-5.596-13.404-7.169-4.824-1.535-9.676-2.908-14.477-4.522 8.597 1.088 16.809 3.385 24.424 7.597 1.174.652 2.22 1.586 3.258 2.475.307.263.387.778.587 1.181-.125.133-.231.272-.363.425l-.025.013z"/><path d="M134.893 143.453c3.359 12.035 9.021 22.818 17.495 32.074-6.418-3.638-15.284-19.423-17.495-32.074zm52.984 15.177c-1.948 3.773-4.027 7.486-5.829 11.346-2.118 4.556-4.091 9.198-5.96 13.85-.603 1.507-.673 3.238-1.201 4.853-.562-1.408-.487-2.796-.01-4.17 1.111-3.127 1.985-6.391 3.457-9.367 2.609-5.263 5.573-10.355 8.4-15.488.24-.441.624-.796.936-1.193.067.063.159.112.226.175l-.019-.006zm-131.275-2.616c3.064-.938 11.427 2.281 26.98 9.989-8.995-3.323-17.985-6.666-26.98-9.989zm172.103-60.819c-4.797 7.276-9.62 14.566-14.51 22.006 1.046-4.194 11.721-20.772 14.51-22.006zM89.89 257.875c-7.587 8.297-16.316 14.626-19.998 14.204 7.592-4.043 13.534-9.501 19.997-14.204zm52.308-72.867c3.71-6.363 15.387-9.542 24.284-5.18-4.738-.399-8.858-1.573-13.074-.575-4.216.998-8.061 2.684-11.216 5.775l.006-.02zm1.564-111.796c.214.64.404.933.345 1.129-1.894 6.375-3.834 12.758-5.625 18.715-.007-4.104 2.918-15.832 5.26-19.85l.02.005zm48.793 45.07c-5.83 6.154-8.247 13.696-11.814 20.295 1.705-8.376 8.067-19.862 11.814-20.295zm-37.828-8.143c.33-7.508 2.631-14.594 5.213-21.617-1.479 7.269-2.951 14.519-4.43 21.788l-.783-.171zm38.605 109.659c-6.084-3.966-14.376-13.189-14.397-16.037 4.79 5.35 9.587 10.681 14.397 16.037zm-66.016.628c6.323-4.232 12.796-8.398 20.259-10.514.082.153.145.3.228.453l-20.487 10.061zm64.576 35.561c-3.511-.564-10.741-9.404-13.355-16.087 4.074 5.669 7.87 11.554 13.355 16.087zm-43.056-54.329c6.938 3.475 14.575 3.483 22.022 4.482-7.643.011-15.261.008-22.022-4.482zm24.822 8.34c-.148 6.472 3.554 11.602 6.011 17.597-4.357-4.301-7.754-14.147-6.011-17.597zm63.327 29.18c-4.725-2.937-9.455-5.854-14.344-8.883 3.408.554 13.154 6.218 14.62 8.39l-.276.493zm-114.623-65.284c7.211 3.492 13.941 8.442 14.822 10.993-5.18-3.843-9.988-7.425-14.822-10.993zm-66.288-38.979c3.091-.246 11.197 3.258 18.314 7.918a8626.307 8626.307 0 01-18.314-7.918z"/><path d="M152.478 181.493c5.864-2.212 11.482-1.464 16.932 1.477-5.548-1.475-11.134-2.684-16.932-1.477zm-1.833 7.526c2.859-1.042 10.852 2.129 15.562 6.109-5.439-1.912-10.037-5.196-15.562-6.109zm22.245-3.1c-.107-6.336 3.073-11.576 5.651-17.02-1.648 5.766-4.906 10.983-5.651 17.02zm32.27 15.531c6.824 1.431 13.246 4.558 13.903 6.572-4.63-2.182-9.279-4.37-13.903-6.572zm-45.501 63.954c-1.954-1.827-3.178-10.571-2.36-14.791.795 5.047 1.578 9.919 2.36 14.791zm20.763-133.099c1.58-6.255 4.04-11.521 6.452-12.783a7845.326 7845.326 0 00-6.452 12.783zM54.768 151.723c2.975-.217 4.997 1.459 7.26 2.118 2.283.664 4.44 1.676 7.215 2.766-4.974-.896-12.662-3.442-14.475-4.884zm29.319 114.706c-2.57 3.352-5.661 6.162-9.346 8.239-.168-.222-.343-.424-.512-.646 3.288-2.537 6.57-5.055 9.877-7.587l-.02-.006zm135.094-163.972c1.323-3.405 3.042-6.564 5.928-9.543.094.755.269 1.17.125 1.363-1.998 2.733-4.035 5.454-6.053 8.18zm-31.172 145.164c3.311 2.085 6.836 5.452 7.59 7.431-3.199-2.03-5.364-4.369-7.59-7.431zM136.363 86.438c-.109-3.196.166-6.318 1.558-9.17.157.048.339.082.502.11-.693 3.017-1.386 6.035-2.073 9.034l.013.026zm-.574 111.707c1.739-3.366 3.608-4.599 5.673-3.851-1.83 1.245-3.602 2.443-5.673 3.851zm18.179-11.568c2.575.261 4.989.987 7.495 2.83l-7.693-2.313a4.91 4.91 0 01.198-.517z"/><path d="M356.723 83.86c-.773.365-1.568.66-2.294 1.083-13.332 7.83-23.885 18.591-32.757 31.095-7.046 9.913-13.82 19.992-20.826 29.917-2.461 3.491-5.194 6.815-7.901 10.125-8.815 10.748-19.909 18.183-32.939 22.943-12.786 4.661-25.985 6.784-39.54 7.24-5.473.193-10.909.91-16.366 1.406-.815.076-1.629.366-2.66.59 4.568 2.462 8.872 4.803 13.188 7.104 6.082 3.26 11.952 6.798 16.143 12.437 5.312 7.174 8.819 15.087 8.868 24.183.079 11.84-8.976 21.106-17.999 23.714-5.604 1.628-11.159 3.378-16.692 5.198-6.277 2.087-12.546 2.725-18.888.327-3.705-1.413-7.085-3.411-10.231-5.831-.663-.499-1.307-.991-2.236-1.676-.221 1.664-.31 3.026-.575 4.335-.701 3.615-2.554 6.647-4.847 9.505-2.836 3.528-5.751 7.032-8.183 10.853-5.12 7.991-7.105 16.946-7.325 26.367-.073 2.734-.335 5.455-.661 8.177-.412 3.295-1.663 6.317-3.704 8.908-2.921 3.738-6.487 4.14-10.334 1.275-2.62-1.963-4.422-4.513-5.615-7.521-1.495-3.783-2.231-7.743-2.451-11.783-.19-3.284-.92-6.409-1.883-9.541-3.077-9.984-4.38-20.248-3.988-30.664.086-2.282.575-4.55.889-7.019-.349.237-.683.35-.863.595-6.592 8.617-15.523 13.839-25.52 17.48-4.373 1.592-8.85 2.746-13.54 2.832-4.005.079-7.915-.584-11.302-2.841-5.796-3.857-12.316-5.945-18.778-8.229-4.934-1.739-8.926-4.691-11.958-8.914-2.883-4.008-3.546-8.352-2.272-13.162 2.171-8.151 7.165-14.086 14.002-18.676 1.849-1.239 3.833-2.288 5.669-3.553 3.042-2.077 6.132-4.097 9.005-6.396 3.83-3.058 7.667-6.072 12.115-8.197.352-.172.654-.466 1.2-.857-.735-.263-1.184-.548-1.645-.58-5.253-.467-9.93-2.706-14.462-5.073-8.826-4.597-16.506-10.73-23.022-18.243-2.942-3.385-5.534-7.006-7.28-11.163-2.776-6.646.004-12.05 7.023-13.616 4.173-.925 8.342-1.766 12.774-2.699-.736-1.183-1.49-2.093-1.962-3.154-4.053-9.231-1.263-19.226 7.9-23.651 7.162-3.467 14.61-4.327 22.477-1.877 10.373 3.224 19.298 8.705 27.258 15.969 1.427 1.305 2.872 2.551 4.324 3.843.165-.122.31-.249.469-.351-.375-.818-.775-1.622-1.13-2.434-1.906-4.482-4.069-8.893-5.634-13.509-2.063-6.026-2.127-12.22-.67-18.492 2.882-12.296 10.143-21.503 19.904-29.06 3.066-2.37 6.229-4.56 9.876-5.943 1.89-.735 3.323-2.014 4.61-3.593 1.732-2.13 3.43-4.29 5.389-6.18 2.809-2.724 6.181-4.189 10.242-3.887 2.3.178 4.078 1.31 5.695 2.694 6.54 5.513 9.998 12.663 10.06 21.143a82.73 82.73 0 01-1.357 15.554c-1.08 5.872-2.916 11.624-4.459 17.399-2.454 9.092-5.189 18.12-6.24 27.527-.116 1.097-.257 2.209-.314 3.324-.022.57.125 1.149.263 2.045 2.64-9.57 6.745-18.101 12.279-25.904 5.266-7.413 11.699-13.578 19.515-18.366 2.73-1.679 5.051-4.059 7.441-6.246 2.391-2.188 4.533-4.685 7.004-6.784 3.445-2.918 7.516-4.43 12.122-4.092 6.224.44 16.254 6.445 15.556 16.171-.273 3.828-.715 7.648-.988 11.477-.454 6.637-.621 13.317-1.264 19.94-.972 10.285-4.403 19.638-11.117 27.663-3.578 4.288-7.834 7.625-12.788 10.153-5.739 2.933-11.418 5.949-16.225 10.337-.505.468-1.003.917-1.494 1.41-.094.1-.088.294-.147.704 1.482-.303 2.917-.448 4.245-.882 7.763-2.475 15.732-3.285 23.837-3.478 12.95-.296 25.565-2.466 37.817-6.775 14.048-4.945 25.915-12.959 34.918-24.827 7.025-9.277 13.752-18.772 20.36-28.368 6.371-9.239 12.79-18.421 20.823-26.348 6.124-6.066 12.89-11.276 20.398-15.537.726-.422 1.555-.686 2.316-1.013l-.595 1.98-.053-.038zm-214.752 95.35a208.153 208.153 0 00-24.383-29.38c-8.371-8.391-17.142-16.305-28.52-20.601-5.994-2.271-12.06-4.159-18.534-2.557-2.729.676-5.498 1.489-8.028 2.715-10.817 5.232-11.083 18.507-5.884 24.706.396.461.602 1.057.904 1.618-2.593.653-4.889 1.245-7.193 1.791-2.42.576-4.856 1.062-7.257 1.644-5.965 1.477-8.52 6.136-6.025 11.715a44.575 44.575 0 005.382 9.011c6.315 8.18 14.217 14.572 23.243 19.571 4.734 2.619 9.712 4.713 15.096 5.669 2.378.416 4.693.62 7.087-.156 12.859-4.191 25.988-6.933 39.572-7.274 1.335-.026 2.674-.137 3.547-.195 1.086-2.259 1.951-4.071 3.115-6.521.038-4.326 1.214-6.173 7.917-11.744l-.039-.012zm-10.536 19.462c-.235-.071-.392-.118-.561-.126-10.281.457-20.476 1.624-30.594 3.604-11.626 2.297-21.96 6.99-30.813 15.013-2.826 2.57-6.25 4.49-9.445 6.649-2.477 1.691-5.09 3.192-7.487 4.972-5.502 4.137-9.3 9.513-11.134 16.184-1.215 4.399-.61 8.513 2.139 12.181 2.926 3.935 6.663 6.81 11.373 8.44 6.63 2.291 13.345 4.373 19.318 8.284 1.785 1.177 4.078 1.738 6.225 2.213 4.38.952 8.713.204 12.943-.982 10.426-2.935 19.785-7.729 27.344-15.65 2.935-3.071 5.21-6.511 6.361-10.695.553-2.056 1.446-4.031 2.406-5.943 5.87-11.698 14.579-20.811 25.556-27.854.451-.292.842-.666 1.323-1.056-2.108-.89-3.981-1.709-5.896-2.455a13.058 13.058 0 00-2.721-.775c-7.427-1.207-13.048-4.862-16.325-12.043l-.012.039zm50.608-.56c1.355-1.729 2.297-3.156 3.479-4.382 1.182-1.226 2.61-2.207 3.906-3.313.196-.155.345-.366.514-.572 4.276-5.04 9.583-8.744 15.348-11.904 2.615-1.437 5.106-3.103 7.577-4.775 5.963-4.105 8.705-10.097 10.066-16.974 1.021-5.249 1.049-10.54 1.083-15.85.038-7.745 1.534-15.073 4.985-22.07 2.236-4.521 3.854-9.334 4.504-14.416.304-2.366-.071-4.466-2.018-6.034-1.322-1.08-2.671-2.148-4.1-3.09-3.762-2.435-7.423-2.574-11.162.256-3.58 2.727-6.721 5.843-9.387 9.444-1.937 2.601-3.861 5.228-5.871 7.786-2.459 3.129-5.631 5.209-9.482 6.274a187.634 187.634 0 00-6.148 1.871c-3.794 1.231-6.752 3.526-9.084 6.799-4.794 6.765-8.469 14.079-11.229 21.839-1.058 2.952-1.565 6.133-1.944 9.245-.86 7.135 1.646 13.679 4.124 20.171.31.82 1.152 1.436 1.782 2.117 1.414 1.493 3.023 2.832 4.2 4.468 1.516 2.079 3.029 4.094 4.828 5.938 1.272 1.322 2.059 3.119 3.009 4.729.363.643.599 1.355 1.032 2.404l-.012.039zm-21.509-88.857c.167-1.125.407-2.207.472-3.278.151-3.565.989-6.924 2.703-10.063 1.474-2.698 2.915-5.427 4.495-8.05 1.871-3.092 2.853-6.43 2.726-9.994-.047-1.552-.381-3.362-1.229-4.6-1.723-2.526-3.689-4.955-5.937-7.019-2.82-2.578-6.355-3.064-9.837-1.375-1.808.888-3.533 2.143-4.982 3.545-1.7 1.669-2.938 3.797-4.572 5.528-1.325 1.418-2.756 2.975-4.477 3.718-6.008 2.618-11.002 6.63-15.725 11.022-6.601 6.157-11.222 13.487-13.588 22.284-1.682 6.311-1.579 12.517.231 18.745 1.997 6.882 5.249 13.223 8.833 19.385 1.032 1.763 2.288 3.423 3.644 4.963 6.196 7.012 12.31 14.084 17.632 21.795.712 1.047 1.59 1.973 2.445 3.042 5.812-2.676 11.754-3.219 17.923-2.028-.041-.504-.002-.705-.096-.819-.387-.565-.799-1.116-1.211-1.668-5.547-7.607-10.027-15.769-12.931-24.762-3.207-9.981-3.702-19.937-.104-29.988 2.385-6.655 6.148-9.777 13.56-10.37l.025-.013zm76.982 129.29c.11-.651.287-1.666.483-2.676 1.012-5.358-.57-9.851-4.701-13.336-1.83-1.532-3.859-2.826-5.869-4.114-2.559-1.667-4.734-3.688-6.272-6.329-.944-1.63-2.01-3.211-2.781-4.917-2.491-5.386-6.145-9.817-10.606-13.701-5.906-5.129-14.261-5.311-20.073-.071-1.579 1.406-2.894 3.148-4.138 4.867-4.007 5.57-8.119 11.065-13.419 15.455-3.048 2.524-5.575 5.376-7.133 8.924-2.845 6.475-3.169 13.108 1.115 19.075a56.912 56.912 0 0015.373 14.642c1.435.922 3.308 1.314 5.041 1.6 2.755.443 5.23-.672 7.598-1.926 6.552-3.501 13.469-4.798 20.878-3.747 2.526.354 5.148.458 7.674.17 7.934-.906 14.272-5.689 16.87-13.904l-.04-.012zm-67.348-26.053c-.089-.134-.171-.287-.259-.42-2.073.488-4.13 1.28-6.246 1.414-4.342.276-7.84 2.302-11.196 4.712a75.515 75.515 0 00-14.494 13.763c-7.787 9.604-12.173 20.637-12.688 32.961-.411 9.983 1.092 19.794 3.988 29.382.857 2.843 1.401 5.806 1.75 8.774.481 4.097.928 8.163 2.478 12.048 1.229 3.104 3.071 5.731 5.921 7.57 2.593 1.698 4.67 1.553 6.947-.54 2.157-1.98 3.07-4.591 2.952-7.404-.102-2.723-.592-5.434-1.114-8.112-.969-5.035-2.514-10.008-3.043-15.082-.889-8.365 1.669-15.737 8.029-21.518 2.411-2.182 5.002-4.181 7.459-6.305 2.079-1.79 4.224-3.517 6.069-5.527 1.908-2.076 3.273-4.55 3.585-7.512-1.768-1.878-3.501-3.659-5.152-5.501-2.22-2.441-3.929-5.156-4.818-8.393-2.143-7.823 1.509-17.837 7.981-22.708.659-.486 1.25-1.099 1.862-1.641l-.011.039zm-4.583-34.241c.006-.233.065-.429.022-.57a63.943 63.943 0 00-.779-2.179c-3.603-9.587-4.549-19.401-3.229-29.56 1.179-9.047 3.631-17.776 6.226-26.483 2.154-7.238 4.262-14.467 5.189-21.966.633-5.024 1.091-10.036.147-15.085-.132-.702-.399-1.38-.681-2.362-.34.56-.528.76-.573.981-.829 4.11-2.782 7.69-4.971 11.199-2.954 4.774-5.214 9.8-4.92 15.658.043.782-.432 1.579-.697 2.461-.82.096-1.489.258-2.151.251-3.871-.009-6.884 1.756-8.784 4.946-1.554 2.609-2.893 5.498-3.608 8.445-1.765 7.44-1.473 14.942.56 22.348 2.288 8.337 6.009 16.037 10.701 23.28 1.537 2.364 3.201 4.659 4.897 6.921.628.829 1.281 1.859 2.632 1.709l.019.006zm15.285 21.987c-.826-4.372-2.708-7.651-5.882-10.122-5.272-4.106-11.29-5.017-17.728-3.961-.741.119-1.47.477-2.147.808-2.279 1.174-4.558 2.348-6.809 3.573-1.109.629-2.249 1.29-3.19 2.14-6.14 5.548-4.119 12.993 1.673 15.652 1.559.725 3.152 1.332 4.668 2.13 6.337 3.336 12.706 2.793 19.058.172 1.076-.446 2.224-1.063 2.996-1.92 2.542-2.762 4.93-5.655 7.366-8.492l-.005.02zm-9.388 51.388l-.624-.059c-.853 6.325-5.287 9.971-9.827 13.542-.671.525-1.376 1.018-2.02 1.594-2.122 1.862-4.324 3.636-6.319 5.644-3.089 3.088-5.129 6.813-6.036 11.113-.799 3.798-.844 7.652-.042 11.462 1.199 5.766 2.488 11.517 3.752 17.281.021.071.223.11.545.249.153-2.218.356-4.316.434-6.429.234-5.122.409-10.262 1.796-15.23 2.173-7.872 6.02-14.835 11.33-21.039 1.779-2.072 3.51-4.201 5.063-6.448 1.894-2.743 2.673-5.906 2.599-9.219-.012-.816-.451-1.632-.702-2.433l.051-.028zm49.221-84.523c.21-.13.459-.247.616-.413.471-.5.909-1.031 1.341-1.542 6.782-8.111 9.909-17.663 10.736-28.034.515-6.555.757-13.127 1.162-19.672.212-3.483.514-6.982.727-10.466.027-.59-.179-1.186-.281-1.772-.602.652-.797 1.299-.991 1.946-.807 2.685-1.483 5.43-2.421 8.054-1.203 3.293-2.768 6.433-3.991 9.72-2.103 5.714-2.337 11.691-2.343 17.693-.004 8.417-.576 16.729-4.542 24.511l-.013-.025zm-48.565 18.823c-1.132-3.14-6.121-6.263-9.519-7.348-7.436-2.385-14.536-1.335-21.241 2.462-2.607 1.482-4.338 3.825-5.685 6.454-.722 1.407-.942 2.922.173 4.625.64.149 1.497.642 2.231.478 2.34-.451 4.725-.909 6.902-1.815 2.969-1.265 5.819-2.845 8.622-4.481 2.542-1.48 5.292-2.085 8.132-1.851 3.465.293 6.882.957 10.385 1.476zm65.095 38.965c-1.509-6.586-4.096-12.577-8.543-17.717-3.976-4.571-12.849-10.721-16.184-11.018 3.162 3.151 5.15 6.933 7.087 10.741.924 1.838 1.862 3.701 3.091 5.31 1.269 1.685 2.726 3.319 4.404 4.571 3.462 2.579 7.322 4.615 10.151 8.094l-.006.019zm-51.787 34.671c.244.116.54.269.848.383 5.309 2.13 10.675 2.076 16.077.409 6.532-2.011 13.084-4.016 19.603-6.053.918-.28 1.774-.706 2.652-1.062-4.097.671-8.083.69-12.079.173-7.211-.928-13.903.544-20.345 3.822-2.094 1.058-4.451 1.568-6.781 2.342l.025-.014zm30.976-166.438c-2.941.74-5.145 2.022-7.057 3.755-2.208 2.007-4.309 4.154-6.323 6.369-2.559 2.82-5.39 5.26-8.725 7.1-4.233 2.339-7.812 5.558-11.237 8.909-.302.294-.452.719-.76 1.246 3.427-1.149 6.572-2.213 9.769-3.239a16.283 16.283 0 007.404-4.912c1.241-1.422 2.448-2.875 3.53-4.409 3.717-5.25 7.708-10.269 13.033-14.032.108-.074.142-.256.391-.801l-.025.014zM140.894 195.04c-.675-1.741-1.953-1.121-2.995-1.285-1.14-.193-2.257-.464-3.38-.716-2.055 2.566-2.228 5.206-.509 8.031 1.358 2.245 3.233 3.984 5.49 5.303 1.181.697 2.214 1.819 4.157 1.762-4.018-4.006-3.743-8.624-2.743-13.089l-.02-.006z"/></g><defs><clipPath id="clip0_2_5724"><path fill="#fff" transform="rotate(-73.272 189.875 141.2)" d="M0 0h294.877v284.485H0z"/></clipPath></defs></svg>