<svg width="368" height="484" fill="none" xmlns="http://www.w3.org/2000/svg"><g opacity=".4" clip-path="url(#clip0_2_522)" fill="#C89663"><path d="M217.187 596c-.104-3.062-.26-6.107-.295-9.17-.07-7.951-.852-15.85-1.912-23.698-1.461-10.752-3.651-21.349-6.815-31.736-2.312-7.604-5.355-14.929-8.658-22.132-4.624-10.057-9.37-20.044-13.769-30.188-6.223-14.337-10.5-29.283-13.056-44.699-1.39-8.387-2.798-16.791-3.755-25.229-.921-8.161-1.269-16.391-1.86-24.603-.035-.435 0-.87.4-1.444.278.556.678 1.096.782 1.687.192 1.149.226 2.314.313 3.48.591 7.395 1.078 14.807 1.808 22.184 1.13 11.362 3.095 22.62 5.511 33.773 3.39 15.659 8.936 30.553 15.664 45.047 4.381 9.43 8.814 18.861 12.969 28.396 4.85 11.118 7.875 22.81 9.961 34.729 1.252 7.221 2.278 14.511 2.973 21.819.626 6.438.661 12.945.956 19.418.035.8.087 1.6.122 2.401h-1.304l-.035-.035zM86.871 63.63c-1.182-4.177-2.416-7.813-3.233-11.52-1.287-5.793-1.895-11.692-.696-17.555.487-2.35 1.478-4.68 2.608-6.803a373.117 373.117 0 018.727-15.416c1.374-2.28 2.938-4.524 4.781-6.438C103.822.974 109.628-.94 116.443.487c9.301 1.948 16.828 6.437 21.713 14.824 2.469 4.245 3.686 8.926 4.451 13.71 1.478 9.257 2.103 18.618 1.756 27.979-.139 3.863-1.252 7.69-1.947 11.518-.122.662-.331 1.288-.591 2.28.539-.348.799-.47 1.008-.644 10.674-9.03 22.983-14.72 36.699-16.895 10.848-1.705 21.714-1.2 32.11 3.028 3.233 1.305 6.241 2.958 8.657 5.515.783.835 1.548 1.723 2.156 2.68 2.469 3.793 1.999 7.308-1.582 10.126-1.669 1.305-3.633 2.262-5.563 3.167-2.364 1.079-4.85 1.896-7.267 2.888-2.66 1.096-5.111 2.593-6.902 4.855-3.025 3.81-7.075 5.829-11.595 7.012-5.702 1.479-11.474 2.697-17.176 4.175-4.225 1.114-8.449 2.245-12.517 3.811-3.616 1.392-7.006 3.393-10.501 5.15-.382.192-.695.557-.939 1.131.609-.139 1.235-.226 1.843-.4 8.345-2.627 16.881-2.767 25.486-1.844 10.118 1.078 19.523 4.471 28.616 8.821 4.746 2.262 8.97 5.307 12.812 8.874 3.494 3.254 6.015 7.134 7.528 11.675.295.87.573 1.757.712 2.662.731 4.976-.765 7.638-5.389 9.691-1.547.679-3.094 1.323-4.659 1.984-3.042 1.288-5.181 3.445-6.554 6.455-1.147 2.506-2.434 4.959-3.633 7.43-3.756 7.795-10.553 10.474-18.585 10.996-6.223.4-12.186-1.131-18.028-2.993-11.056-3.532-21.226-8.769-30.266-16.129-.505-.417-1.096-.731-1.808-1.183.434 1.844.817 3.445 1.182 5.046.678 3.062.034 5.95-1.322 8.7-.504 1.026-1.043 2.07-1.755 2.957-2.4 2.993-2.886 6.508-3.043 10.162-.782 19.557 3.738 38.035 11.318 55.887 3.911 9.169 7.979 18.269 11.908 27.439 3.547 8.282 5.876 16.947 7.458 25.786.644 3.601.748 7.307 1.078 10.979.435 4.732.869 9.465 1.234 14.198.087 1.026.661 2.227-.695 3.271-.73-1.793-.747-3.498-.904-5.203-.852-8.543-1.495-17.103-2.642-25.612-1.096-8.003-3.669-15.659-6.833-23.089-4.033-9.535-8.327-18.965-12.308-28.517-4.138-9.918-7.493-20.097-9.231-30.763-1.235-7.586-1.93-15.207-1.652-22.915.035-.904 0-1.809-.417-2.818-.365.8-.765 1.6-1.078 2.418-3.738 9.518-11.37 14.32-20.653 17.086-2.712.801-5.424 0-7.614-1.67-2.052-1.566-3.825-3.515-5.598-5.394-.783-.818-1.322-1.879-1.913-2.871-2.99-4.941-6.293-9.622-10.066-14.006-3.65-4.246-6.414-9.031-7.597-14.546-.66-3.132-.851-6.368-1.216-9.552-.088-.731 0-1.479 0-2.645-.992.678-1.617 1.079-2.208 1.531-4.764 3.654-10.17 5.411-16.099 6.125-8.205.991-16.011-.366-23.678-3.15-5.893-2.14-11.804-4.297-17.975-5.55-2.539-.522-5.094-1.149-7.476-2.105C2.173 142.17.122 138.568 0 133.697c-.156-6.421 2.59-11.014 8.258-13.989 3.46-1.827 7.18-2.854 11.004-2.993 6.276-.244 12.57-.192 18.863-.035 2.33.052 4.641.766 7.423 1.253-.608-.661-.921-1.114-1.321-1.444-5.146-4.263-9.301-9.326-12.378-15.277-2-3.863-4.746-7.134-7.928-10.074-2.712-2.506-5.441-4.96-8.083-7.534-5.372-5.255-8.64-11.675-10.084-19.018-.295-1.479-.26-3.08-.121-4.576.26-2.523 2.207-4.106 4.972-4.193 3.285-.105 6.363.852 9.353 2.036 1.773.695 3.494 1.478 5.493 2.331-.052-1.235-.07-2.192-.156-3.15-.296-2.853.886-5.063 2.955-6.907 2.973-2.645 6.589-4.002 10.431-4.42 17.402-1.861 32.527 3.237 45.322 15.19.887.836 1.756 1.67 2.886 2.732h-.017zm36.613 76.278c4.555 2.193 7.979 5.533 11.213 9.187 1.808 2.053 3.911 3.932 6.119 5.551 9.023 6.646 18.898 11.675 29.676 14.772 6.345 1.827 12.743 3.288 19.454 2.035 5.771-1.078 10.639-3.427 13.49-8.873 1.426-2.715 2.903-5.394 4.19-8.178 1.547-3.376 3.929-5.811 7.319-7.29 1.547-.679 3.094-1.323 4.642-2.001 4.52-2.001 5.215-4.333 4.52-9.083-.105-.748-.418-1.461-.678-2.192a26.72 26.72 0 00-6.972-10.683c-3.598-3.376-7.545-6.299-11.978-8.474-10.031-4.907-20.444-8.508-31.692-9.43-6.867-.557-13.56 0-20.271 1.444-6.189 1.322-10.917 4.611-14.603 9.604-.435.592-.643 1.357-.887 2.053-.851 2.454-1.286 5.133-2.573 7.343-2.207 3.828-4.85 7.412-7.475 10.996-.869 1.201-2.208 2.071-3.459 3.202l-.035.017zM26.79 61.889c-1.165-.47-1.86-.73-2.538-1.009-2.121-.887-4.225-1.844-6.363-2.627-2.451-.905-5.007-1.462-7.65-1.236-1.981.174-3.111 1.131-3.459 3.063-.156.887-.296 1.861-.104 2.731.608 2.75 1.304 5.499 2.086 8.213.539 1.88 1.773 3.323 3.216 4.68a28.914 28.914 0 0010.553 6.351c1.947.679 3.911 1.305 5.876 1.949 5.858 1.931 10.97 5.046 15.246 9.535 3.755 3.95 6.38 8.612 8.745 13.45 1.547 3.166 3.042 6.368 4.606 9.517 1.53 3.062 3.669 5.655 6.329 7.812 1.634 1.323 3.39 2.401 5.51 2.68 7.406.957 14.778 1.287 22.096-.679.818-.208 1.635-.4 2.47-.504 1.39-.192 2.78-.296 3.928-.418-1.443-3.167-3.094-6.211-4.242-9.43-1.825-5.064-1.964-10.423-1.304-15.695.626-4.941 2.208-9.604 7.006-12.301.105-.052.14-.261.209-.4-.556-4.141-1.79-8.056-4.05-11.623-5.13-8.056-11.405-15.033-19.332-20.41-10.692-7.255-22.635-9.882-35.396-9.012-3.911.26-7.701 1.444-10.83 4.036-2.486 2.053-3.825 4.541-2.886 7.9.26.956.19 2 .313 3.427h-.035zm98.902 40.019c.956-2.558 1.808-4.837 2.712-7.273-.296-2.297-1.426-4.89.834-7.116h2.66c2.764-3.898 5.076-8.056 7.006-12.389 3.303-7.395 4.885-15.137 4.381-23.263-.33-5.359-.626-10.718-1.026-16.06-.417-5.446-1.356-10.805-3.268-15.92C134.784 8.612 122.667.504 110.967 1.235c-6.015.383-10.57 3.201-12.5 9.152-1.06 3.254-1.738 6.664-2.312 10.04-.782 4.523-2.347 8.438-6.102 11.448-4.885 3.915-6.432 9.553-6.067 15.45.243 3.985 1.512 7.952 2.694 11.815 1.235 4.037 3.269 7.743 5.807 11.17 3.355 4.524 6.224 9.31 7.162 14.999.122.73.296 1.444.435 2.157.487.035.782.07 1.095.087 2.643.105 3.616.696 4.207 3.289.331 1.427.365 3.08-.017 4.489-.678 2.505.069 4.576 1.043 6.577 1.895-.783 3.651-1.496 5.65-2.314 1.2-2.001 3.338-2.47 5.633-1.827 1.808.504 3.546 1.374 5.25 2.227 1.008.505 1.86 1.288 2.781 1.931l-.034-.017zm11.265 58.149c-.33-1.653-.522-3.323-.991-4.924-2.104-7.082-7.249-11.362-13.578-14.459-.521-.261-1.199-.279-1.79-.261-5.615.174-10.17-2.158-13.786-6.194-1.947-2.193-4.155-4.037-6.293-5.986-1.217-1.096-2.59-1.601-4.173-1.601-4.572 0-8.57 1.584-11.943 4.611-7.823 7.03-10.483 15.712-8.362 25.995 1.234 5.933 3.911 11.066 7.666 15.764a255.14 255.14 0 017.632 10.092c1.53 2.105 2.695 4.489 4.294 6.524 1.496 1.914 3.217 3.724 5.094 5.255 2.695 2.192 5.911 2.645 9.11 1.322 2.955-1.235 5.876-2.644 8.605-4.315 3.86-2.383 6.85-5.707 8.623-9.935 2.138-5.098 4.52-10.057 7.615-14.667 1.425-2.123 2.207-4.542 2.294-7.221h-.017zm.904-46.526c.591-.522 1.026-.801 1.321-1.201 1.095-1.479 2.208-2.958 3.164-4.524 3.599-5.881 8.536-10.126 14.847-12.927 6.484-2.889 13.264-4.176 20.288-4.472 3.668-.157 7.371-.035 11.039-.07 4.433-.035 8.223-1.496 11.109-5.046 2.121-2.61 4.833-4.471 7.945-5.724 2.555-1.026 5.18-1.931 7.684-3.08 1.79-.817 3.598-1.757 5.128-2.992 2.921-2.384 3.251-5.168 1.252-8.37-1.408-2.244-3.251-4.123-5.546-5.428-2.051-1.166-4.19-2.28-6.397-3.097-9.962-3.637-20.201-4.107-30.563-2.401-12.656 2.088-23.939 7.412-34.109 15.12-1.564 1.183-3.059 2.68-4.033 4.35-2.851 4.889-5.441 9.935-8.188 15.033 5.268 7.29 5.441 15.833 5.042 24.794l.017.035zm-52.624 15.033c-2.433 0-4.798.052-7.162 0-3.286-.07-6.606 0-9.857-.383-5.233-.609-10.049-2.61-14.62-5.185-4.643-2.61-9.493-4.837-14.865-5.046-6.502-.243-13.038-.191-19.54.052-3.599.122-7.076 1.131-10.344 2.784-6.433 3.254-8.45 8.648-7.51 15.294.26 1.914 1.269 3.184 3.216 3.741 2.242.644 4.468 1.062 6.78.47 3.546-.905 7.11-1.775 10.657-2.732 6.189-1.67 12.395-1.861 18.584-.139 4.26 1.201 7.927 3.619 11.543 6.073 2.417 1.635 4.799 3.323 7.337 4.732 3.303 1.827 6.815 2.384 10.326.574 2.504-1.287 4.729-2.644 5.563-5.881.696-2.731 2.347-5.324 3.981-7.69 1.635-2.349 3.808-4.333 5.894-6.647l.017-.017zM12.813 77.531c-.14.157-.279.313-.418.453 1.06 1.287 2.017 2.662 3.2 3.845 2.329 2.332 4.71 4.628 7.179 6.803 4.346 3.845 7.98 8.195 10.813 13.328 6.154 11.153 15.664 18.478 27.312 23.228.678.279 1.408.418 2.573.766-.487-.626-.626-.887-.835-1.044-3.511-2.68-5.806-6.281-7.684-10.196-1.686-3.532-3.373-7.064-5.128-10.544-4.99-9.883-12.674-16.6-23.33-19.8-4.938-1.48-9.77-3.202-13.683-6.821v-.018zm52.206 73.791c-.452-.209-.713-.4-.991-.452-4.05-.679-7.354-2.888-10.657-5.15-2.59-1.775-5.198-3.567-7.927-5.081-5.685-3.149-11.805-4.158-18.202-3.045-3.077.54-6.12 1.357-9.145 2.14-3.407.888-6.78 1.914-10.378 1.618-1.043-.087-2.069-.243-3.112-.348-.07.14-.122.279-.191.418 1.095.609 2.138 1.427 3.32 1.792 2.764.835 5.65 1.34 8.414 2.175 5.424 1.618 10.866 3.184 16.186 5.098 8.153 2.923 16.428 4.28 25.034 2.941 2.555-.401 5.11-.818 7.649-2.123v.017zm54.953-11.57c-.782-4.246-1.408-8.091-2.225-11.902-1.356-6.35-4.451-11.501-10.362-14.702-.799-.435-1.356-1.409-1.912-2.192-.8-1.114-1.443-2.349-2.277-3.428-.609-.8-1.461-1.479-2.573-1.096-1.148.4-1.565 1.409-1.721 2.523-.07.522-.07 1.078-.07 1.6 0 6.595 1.808 12.702 5.146 18.339 3.129 5.272 7.493 9.066 13.595 10.527.713.174 1.443.209 2.382.348l.017-.017zm1.008-.331c3.773-1.409 5.911-3.776 7.458-6.786 1.078-2.088 1.356-4.332 1.635-6.629.678-5.672-.47-10.962-3.06-15.973-.609-1.2-1.547-2.314-2.573-3.184-2.243-1.896-3.964-1.252-4.607 1.566-.087.366-.209.748-.191 1.131.087 1.862-.644 3.393-1.617 4.924-1.443 2.245-1.791 4.872-1.008 7.308 1.338 4.106 2.103 8.282 2.677 12.528.208 1.618.782 3.201 1.286 5.132v-.017zm-27.207-24.324a6.89 6.89 0 00.574-.122c.017-.453.052-.905.07-1.357.034-4.455 1.408-8.369 4.485-11.693 1.512-1.618 2.816-3.427 4.12-5.22 1.06-1.444 1.686-3.097 1.495-4.941-.278-2.732-2.051-3.863-4.66-3.045-2.26.714-3.737 2.262-4.832 4.298-2.625 4.854-2.973 10.057-2.382 15.398.244 2.245.748 4.455 1.148 6.682h-.018zm49.06-6.316c.661-.192.747-.192.817-.227.365-.278.73-.574 1.078-.852 4.815-3.88 10.048-7.082 16.011-8.822 6.45-1.896 12.969-3.619 19.471-5.359 2.625-.696 5.302-1.235 7.962-1.844 0-.174-.034-.348-.052-.522-.8 0-1.599-.035-2.399 0-3.286.122-6.589.296-9.874.4a48.937 48.937 0 00-16.099 3.306c-6.258 2.436-11.804 5.881-15.542 11.675-.4.609-.747 1.253-1.338 2.245h-.035zm-8.553 13.032c.139.087.278.156.434.243.226-.626.504-1.235.678-1.861 1.791-6.838 1.965-13.763.817-20.706-.504-3.01-1.443-5.95-3.181-8.543-.765-1.148-1.617-2.192-3.025-2.488-1.234 1.566-1.53 2.123-.974 3.828a119.372 119.372 0 003.338 9.013c.956 2.297 1.721 4.559 1.513 7.099a21.674 21.674 0 00.087 4.124c.347 3.097 1.182 6.159.313 9.326v-.035zm-12.187-17.104c4.868 1.183 6.137 5.533 7.962 9.587.122-.4.226-.556.209-.696-1.217-6.681-4.52-11.796-11.005-14.459-.904-.365-1.912-.522-2.886-.643-3.216-.366-4.624 2.366-3.372 5.202.278.626.852 1.201.904 1.827.226 2.732 2.242 3.306 4.398 4.054.817-2.001.939-4.35 3.773-4.889l.017.017zM83.429 41.915c.922-4.402 2.851-8.23 6.363-11.101 2.834-2.314 4.26-5.342 5.024-8.787.835-3.88 1.687-7.76 2.504-11.658 0-.07-.14-.174-.296-.348-.365.522-.747.975-1.043 1.497-3.46 6.055-6.971 12.075-10.361 18.165-2.121 3.81-2.347 8.004-2.19 12.232zm18.741 85.988c-.4-1.01-.678-1.775-.991-2.506-1.964-4.454-3.147-9.1-3.199-13.989 0-1.201.07-2.488.435-3.619.695-2.14 2.382-2.697 4.346-1.67.435.226.887.417 1.339.626 1.425-4.472 1.425-4.507-.591-8.822-1.356 1.636-2.538 3.306-3.947 4.768-6.675 6.942-5.84 19.139 2.608 25.212zm8.901-26.882c-3.477.73-5.528 2.818-5.841 6.002-.244 2.662 1.495 4.872 5.007 6.438.904-.661 1.773-1.253 2.59-1.879 1.339-1.027 1.617-2.053 1.078-3.376-.974-2.383-1.895-4.784-2.851-7.203l.017.018zm20.166 10.491c1.061-2.07 1.808-4.193 1.374-6.385-.609-3.132-2.452-5.777-3.651-8.7-.174.017-.33.052-.504.07l-1.982 5.707c1.686 3.323 3.164 6.211 4.746 9.308h.017zm.105 1.793c.104.087.191.174.295.261-.174 4.906-.365 9.813-.539 14.719 3.095-5.637 3.025-11.535 1.739-17.921-.609 1.201-1.043 2.088-1.495 2.958v-.017z"/><path d="M23.695 351.903c.453-.121.904-.33 1.374-.348 6.85-.226 13.56-1.531 20.34-2.453 6.328-.87 12.726-1.305 19.088-1.949a87.213 87.213 0 0117.437.035c16.307 1.671 31.762 5.846 45.009 16.042 6.12 4.716 11.161 10.475 14.864 17.278 2.904 5.324 6.259 10.335 9.962 15.12 7.093 9.135 11.995 19.401 15.959 30.188 2.903 7.917 6.032 15.764 9.04 23.646.174.435.261.922.035 1.531-.591-.87-1.235-1.722-1.791-2.61-5.146-8.282-10.187-16.651-15.437-24.864-5.79-9.03-12.5-17.364-19.767-25.264-11.039-12.04-24.252-20.426-40.002-25.02-14.934-4.35-29.937-8.369-45.01-12.197-8.379-2.123-16.689-4.472-25.05-6.716-1.548-.418-3.112-.748-4.642-1.183-.505-.139-.974-.435-1.46-.661.034-.192.052-.401.086-.592l-.035.017zM35.31 354.2l-.053.261c.66.226 1.322.505 2 .696 5.823 1.583 11.613 3.236 17.471 4.698 15.577 3.915 31.102 7.986 46.487 12.632 13.438 4.071 25.295 10.701 35.221 20.67 2.921 2.941 5.703 6.038 8.536 9.066.505.539 1.009 1.078 1.495 1.618l.348-.296c-.417-.661-.765-1.357-1.234-1.966-5.024-6.508-9.927-13.137-15.16-19.488-6.189-7.499-13.803-13.31-22.322-18.008-10.796-5.951-22.6-7.76-34.613-8.734-3.546-.296-7.11-.453-10.674-.557-9.162-.244-18.323-.435-27.485-.627l-.017.035zm133.132 78.472c.121-.505.174-.575.156-.627l-2.138-5.95c-3.79-10.631-8.71-20.654-15.646-29.614a123.455 123.455 0 01-9.997-15.103c-6.119-10.857-14.846-18.965-26.129-24.29-12.691-6.002-26.147-8.769-40.106-9.099-3.564-.087-7.128.121-10.692.4-5.285.417-10.57.939-15.838 1.566-4.607.556-9.196 1.305-13.803 1.948-1.79.244-3.599.418-5.39.627 3.721.452 7.424.644 11.127.731 7.858.174 15.716.278 23.574.452 7.127.157 14.238.609 21.279 1.775 6.675 1.113 13.264 2.54 19.453 5.428 18.967 8.874 34.387 21.958 46.4 39.079 5.841 8.317 10.413 17.348 14.812 26.448.956 1.966 1.86 3.932 2.92 6.194l.018.035zm-.991 1.165c-9.231-22.236-21.105-42.611-40.489-57.661.121.487.4.887.713 1.218 6.432 6.768 12.308 14.024 17.489 21.784 7.197 10.77 14.046 21.784 21.052 32.676.418.661.818 1.322 1.235 1.966v.017zm-5.721-140.744c-.139-.383-.313-.748-.382-1.131-.991-4.663-.331-9.274.469-13.885.226-1.357.383-2.731.469-4.106.574-8.212.939-16.442 1.739-24.62 1.026-10.44 3.772-20.444 8.71-29.771 3.598-6.803 8.136-13.014 13.595-18.391 6.536-6.438 13.368-12.58 20.235-18.669 6.728-5.951 14.464-10.562 21.836-15.642 8.831-6.09 17.367-12.528 24.912-20.184.973-.992 2.017-1.896 3.094-2.766.522-.435 1.2-.696 1.791-1.044.887 1.148.33 2.036-.017 2.853-3.338 7.743-6.589 15.555-10.136 23.211-5.076 10.944-11.213 21.28-18.827 30.658-8.988 11.066-19.28 20.844-30.615 29.509-3.929 3.01-7.927 5.968-11.613 9.274-8.988 8.074-16.22 17.469-20.74 28.831-2.016 5.063-2.973 10.335-3.72 15.66-.365 2.662-.365 5.359-.522 8.038-.034.713 0 1.427 0 2.14-.104.018-.191.035-.295.052l.017-.017zm1.93-23.994c.139.035.295.07.434.105.087-.105.226-.174.279-.296a4.64 4.64 0 00.347-.801c3.06-8.734 8.067-16.268 14.065-23.21 5.319-6.16 11.63-11.206 18.097-16.06 12.065-9.048 22.965-19.331 32.284-31.18 12.047-15.311 20.166-32.815 27.38-50.771.174-.435.226-.923.348-1.392-1.043.452-1.825 1.078-2.503 1.792-7.736 7.882-16.481 14.511-25.573 20.757-7.371 5.064-15.108 9.692-21.818 15.642-6.485 5.76-12.986 11.501-19.123 17.609-7.441 7.394-13.421 15.885-17.315 25.751-2.834 7.151-4.486 14.581-5.407 22.184-.243 1.984-.33 3.967-.504 6.142.347-.191.452-.226.469-.278.122-.418.244-.835.348-1.253 1.825-7.725 5.163-14.807 9.353-21.523 4.416-7.082 9.37-13.763 15.264-19.627 7.371-7.342 14.811-14.667 22.669-21.488 13.161-11.414 26.13-23.019 37.169-36.574.139-.174.365-.278.539-.417-6.207 8.369-12.952 16.199-20.636 23.158-7.458 6.751-15.09 13.294-22.531 20.027-8.918 8.074-17.61 16.356-24.981 25.925-8.606 11.171-15.177 23.263-17.437 37.374-.452 2.784-.8 5.586-1.2 8.369l-.017.035zM129.968 87.292c5.042-16.338 5.216-33.146 5.007-49.988 2.243 16.599-.747 45.012-5.007 49.988zm-13.073-34.276c1.877 14.893 2.156 29.944 1.008 44.994l-.556.053c-.087-.522-.244-1.062-.244-1.584.105-5.289.313-10.579.348-15.868a779.98 779.98 0 00-.069-19.105c-.035-2.836-.331-5.654-.504-8.473l.017-.017zm54.101 83.1c-12.395-4.229-24.738-8.457-37.881-9.762 0-.243.035-.469.052-.713.695-.07 1.391-.244 2.069-.209 9.248.54 27.207 5.916 35.76 10.684zm15.403-18.949c4.381 0 8.64.8 12.865 1.775 5.059 1.166 10.135 2.296 14.829 4.611 2.382 1.183 4.642 2.662 6.867 4.123 1.182.783 2.121 1.862 2.886 3.689-.765-.296-1.165-.313-1.374-.539-4.12-4.229-9.283-6.699-14.777-8.474-6.971-2.262-14.099-3.88-21.296-5.185zM57.422 66.326c12.465 7.36 32.161 22.845 35.186 31.336-2.555-2.94-4.99-6.002-7.684-8.821-2.764-2.871-5.702-5.585-8.71-8.178-2.955-2.54-6.084-4.906-9.196-7.273-3.164-2.401-6.398-4.715-9.596-7.081v.017zm2.747 17.764c11.578 8.492 23.33 16.774 32.84 27.718-.296.313-.331.4-.4.435a.3.3 0 01-.21.035c-.19-.105-.4-.192-.573-.331-.226-.191-.434-.435-.643-.661-2.66-2.645-5.163-5.498-8.015-7.917-6.536-5.55-13.264-10.91-19.905-16.338-1.113-.904-2.295-1.757-3.442-2.627.122-.104.226-.209.348-.313zm128.142-9.847c-17.297 4.663-33.083 12.145-46.034 24.864 12.534-13.52 28.319-21.001 46.034-24.864zM102.622 3.114c-.209 1.41-.556 2.819-.591 4.246-.104 4.732-.226 9.465-.07 14.18.122 3.428.644 6.838 1.061 10.248.487 3.933 1.043 7.865 1.582 11.797.087.679.191 1.357-.052 2.088-.609-3.428-1.322-6.82-1.826-10.266-.678-4.68-1.321-9.378-1.756-14.076-.486-5.324-.869-10.683.313-15.99.174-.783.435-1.548.661-2.331l.678.104zm-3.982 44.23c4.469 14.755 8.241 29.666 10.519 44.943-3.512-14.981-7.006-29.962-10.518-44.943zm37.778 87.518c14.116 4.942 26.303 13.346 38.455 21.837-12.534-7.761-24.93-15.729-38.455-21.837zm-35.378 34.504c-.417-10.492 5.702-30.536 10.083-32.677-.156.575-.191 1.01-.382 1.358-4.694 8.612-7.58 17.851-9.492 27.439-.244 1.27-.139 2.592-.209 3.897v-.017zm-20.827-41.759c-2.799 2.123-27.746 6.386-34.613 6.177 11.544-2.053 23.07-4.123 34.613-6.177zm59.16-10.44c7.337-3.08 14.777-4.176 22.288-4.593 7.492-.418 14.985-.07 22.443 1.113h-2.468c-.835-.017-1.687-.087-2.521-.104-6.415-.104-12.865-.522-19.262-.226-6.711.313-13.317 1.548-19.68 3.862-.122.035-.278-.017-.782-.069l-.018.017z"/><path d="M77.223 91.781c4.711 4.559 9.422 9.1 14.395 13.902.4-4.349 3.216-6.942 6.067-9.552-2.469 3.62-5.998 6.786-5.007 11.762-.156.087-.209.139-.278.157-.07.017-.174.035-.209 0-.504-.47-1.008-.922-1.478-1.427-4.59-4.82-9.161-9.64-13.75-14.459.086-.122.173-.261.277-.383h-.017zm48.086 70.381c.921 4.907 1.547 9.813.835 14.807-.4 2.784-.592 5.62-1.096 8.387-.365 2.018-.956 2.749-2.242 3.88.678-2.958 1.564-5.812 1.964-8.735.417-3.01.435-6.09.522-9.152.087-3.062.017-6.125.017-9.187zm56.309-76.209c6.815-3.654 22.426-7.273 27.086-6.16-4.555.87-9.127 1.619-13.647 2.645-4.52 1.027-8.954 2.332-13.439 3.515zm6.276-23.315c6.763-3.376 23.157-5.412 28.859-3.585-1.2.47-2.504.261-3.755.261-1.374 0-2.764-.035-4.138 0a46.757 46.757 0 00-4.12.261c-1.443.157-2.869.453-4.294.661-1.356.21-2.729.348-4.068.592-1.356.244-2.695.54-4.033.835-1.322.279-2.643.592-4.451.992v-.017zM88.61 33.459c.539 9.535 3.825 18.46 5.98 27.647-1.982-4.436-3.303-9.082-4.537-13.763-1.2-4.576-2.538-9.134-2.417-13.867.33 0 .644-.017.974-.035v.018zm48.19 66.257c.226-.644.348-1.392.731-1.949 1.269-1.896 2.468-3.897 3.998-5.568 4.033-4.42 8.553-8.3 13.386-11.831a5.37 5.37 0 011.565-.818c-6.884 6.35-14.69 11.814-19.106 20.496a9.851 9.851 0 01-.574-.33zM80.04 169c.069-.818 0-1.67.225-2.436 1.965-6.803 4.59-13.311 8.293-19.366.07-.121.243-.174.626-.452-1.67 3.932-3.32 7.551-4.746 11.275-1.391 3.654-2.556 7.412-3.808 11.136a7.025 7.025 0 00-.59-.14V169zM38.56 45.917c3.337.14 15.559 8.178 20.757 13.484a23887.64 23887.64 0 01-20.758-13.484zM6.258 62.76c7.389 5.411 15.647 9.343 23.505 13.971-7.997-3.584-15.925-7.272-23.053-12.457-.347-.261-.504-.784-.747-1.184l.313-.313-.018-.017zm115.105 8.316c.834 12.215.295 25.16-1.391 27.874.487-9.865.991-19.592 1.391-27.874zm7.423-44.403l-2.034-21.87c.122-.053.243-.088.382-.14.209.278.557.522.591.835a104.027 104.027 0 011.044 21.193l.017-.018zM22.791 127.729c-6.502 1.27-13.873 2.732-21.313 4.176-.418-.592-.052-.87.573-1.009 2.382-.54 4.729-1.166 7.128-1.619 4.798-.922 9.614-1.635 13.612-1.548zm51.233-12.284c-6.502.261-19.384-3.584-21.974-6.734 1.756-.156 2.799 1.131 4.155 1.584 1.512.487 2.973 1.165 4.485 1.705 1.426.504 2.886.957 4.346 1.392 1.53.47 3.043.957 4.607 1.322 1.478.331 2.99.522 4.381.748v-.017zm-2.816 4.019c8.032.922 15.994 2.523 24.443 2.053-3.164 1.775-17.02.557-24.443-2.053zm141.998 29.266l-16.845-6.942c.034-.105.069-.227.104-.331 1.947.592 3.911 1.131 5.841 1.775 1.965.644 3.929 1.287 5.807 2.122 1.877.818 4.12 1.062 5.424 2.906-.105.157-.209.331-.313.487l-.018-.017zm-58.412-22.811c-6.798-.695-13.456-1.809-20.323-1.444.278-1.2 1.165-.939 1.843-.974 5.372-.209 10.639.383 15.837 1.705.887.226 1.756.47 2.625.713h.018zm27.954 32.189c5.616 2.332 13.908 8.805 14.656 11.728-1.808-1.566-3.217-2.836-4.677-4.037-1.599-1.305-3.251-2.54-4.885-3.793-1.547-1.201-3.112-2.384-5.094-3.898zm-97.18-29.527c-6.242 2.575-12.743 4.072-19.454 4.82a36180.98 36180.98 0 0119.314-5.377c.053.192.105.383.14.557zm20.148-17.591c1.061 5.69 2.069 11.101 3.13 16.825-2.417-5.098-3.286-10.265-3.703-15.537-.035-.348.313-.714.573-1.288zm7.459 26.326a16444.64 16444.64 0 00-5.668 15.903c-.278-3.079 3.529-14.406 5.668-15.903zM68.983 140.5c-3.53 2.662-11.892 5.637-14.552 4.994 4.712-1.619 9.44-3.237 14.552-4.994zm60.238 26.935c1.06 4.924.504 12.997-1.287 15.311.452-5.376.904-10.683 1.287-15.311zm18.271-84.962c-4.068 4.576-8.64 8.717-11.717 14.145-.139-1.687.765-2.923 1.703-4.088 2.973-3.707 6.242-7.134 10.014-10.057zm-20.966 53.573c.782-5.724-.834-11.066-2.364-16.442 2.833 3.88 4.363 13.867 2.364 16.442zM58.117 54.182c-4.555-2.906-8.762-5.603-13.3-8.509 2.66-.052 9.945 4.733 13.3 8.509zm146.102 87.623c5.65.678 12.291 3.027 13.716 4.61-.035.07-.052.14-.104.192-.052.052-.139.139-.174.122-4.485-1.636-8.953-3.289-13.438-4.942v.018zm-67.14-30.971c-.209-4.715-2.313-8.386-3.842-12.249 3.042 3.288 5.267 9.796 3.842 12.249zm70.356-48.805c4.346-.679 8.692-1.218 13.003-.174v.556c-4.328-.121-8.675-.26-13.003-.382zM.26 135.107c3.13-1.479 6.468-2.175 9.997-2.175-3.268.939-6.554 1.879-9.822 2.818-.053-.208-.105-.417-.174-.626v-.017zm82.16 36.59c.157-3.289 1.34-6.246 2.939-9.065-.73 3.097-1.339 6.246-2.938 9.065zm25.07-59.123c.33 1.653.678 3.306 1.008 4.959.33 1.705.626 3.41.974 5.289-1.548-2.575-2.834-8.421-1.982-10.248zM130.472 6.716c1.2 3.306 1.13 6.75.991 10.77-.556-3.932-1.043-7.308-1.53-10.7.174-.018.348-.053.522-.07h.017zm-2.764 117.515c.991 2.993 2.173 5.934.887 9.083l-.887-9.083zm-9.388-22.706c-1.755 1.601-3.32 3.028-4.798 4.368-.121-1.723 1.339-3.132 4.798-4.368zm-9.092 5.481c3.008.905 4.242 2.227 4.068 4.141-1.304-1.322-2.677-2.749-4.068-4.141zm.226-1.548c2.365.644 4.155 1.496 4.99 3.689-1.565-1.166-3.129-2.332-4.99-3.689zm166.685 257.111c-.278.487-.522.905-.834 1.427.452.243.799.487 1.199.626 5.32 1.949 10.761 3.567 16.359 4.385 6.658.974 13.369 1.67 20.079 2.279 4.903.435 9.858.505 14.777.783-15.003.94-29.814-.504-44.4-4.106-3.008-.748-6.033-1.566-8.971-3.428 2.365-4.663 1.982-9.535 1.13-14.441 1.235 3.654 1.982 7.342 1.096 11.431 10.761 2.854 21.748 4.002 32.718 5.133-11.144.122-22.114-1.218-33.136-4.037l-.017-.052z"/><path d="M279.616 356.028h2.034c3.633-.035 7.301.226 10.9-.174 6.398-.714 12.813-1.549 19.141-2.819 11.526-2.314 22.756-5.759 33.848-9.639.121-.035.278 0 .504.208-1.686.714-3.338 1.497-5.059 2.106-12.239 4.419-24.704 7.986-37.568 10.004-6.885 1.079-13.839 1.705-20.845 1.392-1.008-.052-1.999-.313-3.007-.487 0-.209.017-.417.034-.626l.018.035zM235.441 247.02c-.156 2.609-.243 5.219-.469 7.812a212.914 212.914 0 00-.834 23.559c.086 3.915.573 7.812.851 11.727.174 2.453.348 4.907.452 7.36.244 5.011.435 10.022.435 15.033-.522-5.081-1.095-10.144-1.547-15.225a419.483 419.483 0 01-.939-13.223c-.191-3.41-.487-6.838-.348-10.248.296-6.891.8-13.781 1.322-20.671.156-2.053.608-4.089.938-6.124h.139zm50.347 174.655c3.424 6.09 5.528 12.649 7.336 19.313 1.373 5.046 2.503 10.144 2.99 15.364.33 3.584-.122 7.116-.869 10.614-.035.208-.191.4-.33.556-.087.087-.244.122-.592.279-.052-.575-.226-1.131-.104-1.618 1.513-6.473.696-12.859-.73-19.209-1.93-8.631-4.416-17.104-7.701-25.299zm-42.28-22.793c-5.894 15.903-7.754 32.38-7.302 49.205-1.547-16.981.087-33.511 7.302-49.205zm-19.593 31.128c2.33-13.711 7.267-26.361 15.455-37.67.452-.627.869-1.549 2.382-1.288-1.478 2.088-2.903 3.967-4.155 5.933a85.927 85.927 0 00-3.616 6.229c-1.113 2.123-2.104 4.315-3.06 6.508a148.376 148.376 0 00-2.712 6.664 135.501 135.501 0 00-2.364 6.786c-.713 2.262-1.304 4.558-1.947 6.838h.017zm54.328-31.737c10.743 8.961 17.767 20.323 21.835 33.581 1.721 5.586 2.434 12.128 1.634 14.546-.278-9.587-3.251-18.13-7.267-26.412s-9.944-15.138-16.185-21.715h-.017zm-27.312-139.821c-2.868 14.232-4.05 28.656-5.789 43.063.139-2.819.243-5.637.4-8.456.139-2.54.295-5.081.539-7.604.852-8.508 1.53-17.051 3.459-25.42.139-.592.383-1.166.591-1.74.261.052.522.104.783.174l.017-.017zm-18.15 96.67c2.069-3.967 13.317-14.32 18.619-17.103a4928.2 4928.2 0 00-4.433 4.019c.591 1.374-.156 2.366-1.025 3.236-2.747 2.714-5.494 5.394-8.328 8.021-1.582 1.479-3.303 2.819-5.041 4.159 4.068-4.977 9.248-8.909 13.369-13.815a5.321 5.321 0 00-.435-.453c-2.173 1.966-4.381 3.898-6.519 5.899-2.104 1.983-4.155 4.036-6.224 6.055l.017-.018zm55.127 26.952c13.335 6.386 27.399 8.717 41.063 11.727-9.04.522-38.42-7.568-41.063-11.727zm65.628 4.506c-6.519.209-13.039.662-19.558.592-8.779-.104-17.489-.992-25.903-3.776-.261-.087-.522-.191-.73-.487 5.006.905 9.996 2.088 15.037 2.645 5.111.557 10.275.591 15.421.696 5.232.104 10.448.017 15.681.017 0 .105.034.209.034.313h.018zm-14.516-96.81c-3.269 4.036-25.921 16.929-32.962 18.739 11.248-5.881 21.94-12.023 32.162-18.948.104-.07.382.104.8.209zm-84.003 102.552c5.597 13.311 5.441 27.457 5.997 41.498-1.321-13.92-1.564-28.013-5.997-41.498zm12.586-74.852c.296-.609.522-1.27.904-1.827.939-1.287 1.878-2.592 2.955-3.775 6.016-6.525 12.483-12.58 19.645-17.852.209-.157.435-.296.748-.348-8.188 7.743-16.846 14.998-23.696 24.063a8.473 8.473 0 01-.556-.278v.017zm-48.729-19.401c-.418-.887-.956-1.74-1.217-2.662-1.478-5.376-3.043-10.753-4.259-16.199-1.096-4.871-1.774-9.848-2.608-14.772-.087-.556 0-1.148 0-2.018 2.59 12.075 4.711 23.976 8.675 35.443l-.574.208h-.017zm-77.919 39.776c5.303-2.262 25.591-2.071 35.135-.087-5.824-.226-11.752-.627-17.68-.627-5.824 0-11.648.453-17.455.714zm216.492-8.369c-.347.313-.452.487-.556.47-6.154-.331-11.856 1.757-17.628 3.428-3.946 1.148-7.875 2.383-11.909 3.323 1.357-.574 2.695-1.201 4.069-1.705 6.588-2.488 13.281-4.629 20.218-5.934 1.547-.295 3.181-.156 4.781-.156.295 0 .591.313 1.043.574h-.018zm-98.588-10.266c-.557-2.453-1.096-4.924-1.704-7.621 1.13-9.013 3.546-17.991 6.745-26.795-.626 2.714-1.234 5.429-1.86 8.143-1.373 6.072-2.747 12.145-4.085 18.217-.105.435.139.94.208 1.409.365 2.193.748 4.368 1.113 6.56-.139.017-.278.052-.435.07l.018.017zm35.656-70.677c-6.242 4.124-9.892 10.301-14.065 16.025-1.356 1.862-2.607 3.828-4.137 5.637.139-.417.243-.852.452-1.252 3.285-6.195 7.319-11.867 11.908-17.139 1.095-1.235 2.434-2.279 3.755-3.288.487-.366 1.183-.957 2.069 0l.018.017zm-114.896 21.384c3.494 9.204 8.31 17.225 13.491 24.881-4.746-3.41-14.465-20.74-13.491-24.881zm17.993 119.639c8.988-3.445 15.629-10.109 22.652-16.234.105.105.209.226.313.331-2.19 2.175-4.259 4.489-6.571 6.525-3.981 3.514-8.049 6.959-13.004 9.1-1.704.73-1.704.73-3.39.278zm-15.055-25.038c9.701-1.618 20.479-3.41 31.258-5.203-3.269 2.28-25.034 5.725-31.258 5.203zm78.927-7.952c-1.026 6.125-2.382 12.128-7.267 16.617l2.59 3.758c-.122.105-.243.226-.365.331-1.008-1.096-2.034-2.21-3.042-3.324-.197.627.249 2.355 1.338 5.185-.486-.678-1.025-1.322-1.477-2.018-.47-.731-.87-1.496-1.304-2.262-.73.07-1.408.122-2.347.209 1.46-.992 2.781-1.74 3.911-2.697 2.782-2.366 4.52-5.446 5.685-8.874.783-2.296 1.513-4.61 2.26-6.925h.018zm19.297-7.447c9.04-2.783 17.628-6.681 26.407-10.143-3.79 3.166-23.191 10.77-26.407 10.143zm-12.726 75.845c2.225 12.092 4.033 24.185 1.843 36.469 0-6.09.243-12.214-.07-18.287-.313-6.072-1.164-12.127-1.773-18.182zm-15.368-33.32c2.677 4.106 4.885 20.757 4.537 31.058-.469-4.072-.956-9.466-1.738-14.825-.765-5.307-1.808-10.561-2.799-16.233zm-18.741 69.911c-2.225-2.836-2.486-16.042-.713-24.481.018 8.282-.504 16.408.713 24.481zm-12.413-116.35c.47-7.864 8.728-18.234 15.073-21.001a53.843 53.843 0 00-9.318 9.465c-2.677 3.48-3.912 7.656-5.755 11.536zm60.1 35.982c-8.102-1.601-20.201-7.325-22.601-10.875 3.895 2.088 7.337 4.107 10.918 5.829 3.668 1.758 7.458 3.237 11.683 5.046zm-37.986-138.326c-1.008 8.213-2.017 16.425-3.077 24.968-.417-7.638 1.304-23.228 3.077-24.968zm14.273 92.409c3.442 4.054 3.112 15.729-.348 21.836 1.234-7.291 3.008-14.511.348-21.836zm17.437-68.728c1.721-7.273 8.622-17.365 12.551-18.461-.399 1.636-1.947 2.123-2.764 3.202-.869 1.165-1.877 2.227-2.729 3.392-.904 1.236-1.704 2.541-2.521 3.828-.765 1.236-1.53 2.471-2.243 3.741-.712 1.253-1.373 2.558-2.312 4.315l.018-.017zm-41.358 62.324c1.164-1.026 2.26-2.157 3.511-3.079 3.373-2.471 7.024-4.35 11.179-5.098 1.529-.279 2.955-.087 4.398 1.287-.643.105-1.008.279-1.269.174-2.295-.835-4.468-.174-6.554.644a53.815 53.815 0 00-11.265 6.072zm72.963 66.623c-5.215-.539-19.732-6.751-20.896-8.926 6.971 2.976 13.994 5.968 20.896 8.926z"/><path d="M290.273 446.034c1.999 8.056 2.277 20.914.26 23.124.174-2.471.452-4.924.47-7.395 0-2.61-.226-5.237-.348-7.847l-.382-7.882zm-68.009-98.219c-1.774.069-2.851-.557-3.755-1.323a370.116 370.116 0 01-9.997-8.786c-1.06-.975-1.895-2.21-2.677-3.463 2.573 2.349 5.076 4.802 7.754 7.03 2.677 2.209 5.528 4.193 8.657 6.542h.018zm50.12-3.48c.591 2.14 1.269 4.263 1.738 6.42.991 4.524 1.165 9.048-.573 13.485-.47 1.183-.974 2.331-2.417 2.993 4.52-9.657 2.903-13.172 1.252-22.898zm-64.324 13.154c-7.805 1.914-15.75 1.374-23.556 1.357 7.754-.626 15.594-1.27 23.452-1.879 0 0 .052.226.104.539v-.017zm21.158-54.93c1.981 6.055 2.329 12.04 2.712 18.008.017.331-.331.679-.922.992-.591-6.194-1.165-12.389-1.79-19zm-1.635 65.717c.366 3.532-5.91 12.18-10.552 14.842 3.877-4.68 8.258-8.995 10.552-14.842zm-17.28-88.493c2.399 7.447 4.798 14.877 7.232 22.411-1.964-1.897-5.963-14.39-7.232-22.411zm53.163 112.452c.347.209.764.331.956.609.591.905 1.164 1.827 1.634 2.801a73.502 73.502 0 015.128 13.798c.07.261.035.557.052.574-2.503-5.759-5.111-11.709-7.77-17.799v.017zm2.573-75.843c.417-3.097 6.536-11.675 10.622-14.738-3.686 5.116-7.128 9.883-10.622 14.738zm77.622 59.888c5.616-.818 11.422-1.67 17.681-2.575-1.965 1.862-11.248 3.01-17.681 2.575zm-184.66-44.351c-4.486.383-10.188.888-16.029 1.392 2.121-1.914 9.388-2.384 16.029-1.392zm51.215 11.206c4.172 2.366 8.345 4.732 12.9 7.307-.783.087-1.2.261-1.513.14-4.294-1.758-8.223-4.107-11.387-7.465v.018zm125.64-57.976c-.731 1.671-7.18 6.56-11.474 8.7 3.598-3.654 10.065-8.543 11.474-8.7zm-151.613 4.159c-3.737-4.35-7.145-10.979-7.041-13.659 2.469 4.785 4.764 9.222 7.041 13.659zm68.548-27.439c.122 5.289-1.043 10.457-1.686 15.677-.4-3.376.591-13.537 1.686-15.677zm4.416 62.499c-.296-1.862-.591-4.159-1.043-6.421-.452-2.244-1.043-4.454-1.565-6.629 2.052 1.218 3.112 6.682 2.591 13.05h.017zm-10.9 51.815c.73 3.498 1.443 6.995 2.173 10.51-1.426-2.088-2.956-8.265-2.173-10.51zm27.659 66.153c1.165 3.462 1.495 6.994 1.147 10.561a4.11 4.11 0 00-.469.035c-.226-3.532-.452-7.064-.696-10.614l.018.018zm-10.535-114.888c.956-2.576 4.276-3.689 9.492-3.306-3.425.696-6.641 1.165-9.492 3.306zm89.618 44.42c2.59-.661 4.989-1.549 7.927-1.618-1.668 1.392-4.015 1.809-7.927 1.618zM244.62 382.3c-.382-1.984-.747-3.967-1.13-5.951.209-.034.418-.087.609-.121.817 1.896.487 4.036 1.06 5.985-.191.035-.365.052-.556.087h.017z"/><path d="M52.45 596c.66-1.113 1.234-2.296 1.981-3.358 4.868-6.838 11.04-12.388 17.629-17.486 8.153-6.299 17.071-11.397 26.077-16.338 17.75-9.727 35.517-19.418 53.232-29.196 4.085-2.245 8.031-4.716 12.047-7.099 16.95-10.11 28.442-24.638 35.118-43.168 4.154-11.536 7.232-23.35 9.526-35.356 1.495-7.778 2.608-15.642 3.877-23.454.765-4.664 1.443-9.327 2.295-13.972.33-1.758 1.026-3.445 1.651-5.429-1.269.279-2.329.453-3.355.714-6.902 1.826-13.821 1.67-20.722.104-4.242-.957-8.084-2.958-11.422-5.742-3.077-2.558-6.015-5.289-8.901-8.056-4.155-3.984-8.171-8.091-12.326-12.092-3.703-3.55-7.875-6.473-12.447-8.805-1.165-.591-2.313-1.235-3.46-1.861-6.78-3.689-9.37-11.449-7.458-18.165 2.069-7.256 5.285-14.042 9.631-20.218 4.346-6.177 10.64-9.326 17.837-10.858 6.519-1.392 13.125-1.548 19.766-1.061.209 0 .418-.035.887-.07-.33-.661-.574-1.218-.869-1.74-4.851-8.125-7.232-16.947-7.319-26.394-.035-3.498.121-6.96.765-10.44.852-4.628 3.042-8.439 6.31-11.727 3.86-3.88 7.597-7.865 11.509-11.658 2.503-2.436 5.129-4.767 7.91-6.873 5.615-4.228 11.717-7.638 18.602-9.361 5.441-1.374 10.848-.87 16.098 1.01 5.111 1.826 8.901 5.237 11.196 10.143 1.217 2.628 2.121 5.412 3.112 8.143 1.599 4.35 3.164 8.717 4.867 13.398.626-.853.991-1.375 1.374-1.879 6.519-8.665 14.742-15.068 25.086-18.513 4.694-1.566 9.614-1.897 14.447-.905 9.127 1.897 14.846 10.318 13.473 19.505a176.23 176.23 0 00-.887 6.699c-.069.661.122 1.339.209 2.209 1.043-.069 1.825-.104 2.59-.174 6.519-.539 12.83.174 18.602 3.445 5.18 2.958 9.196 7.03 10.135 13.224.869 5.724-.174 11.17-3.164 16.181-3.199 5.377-7.475 9.709-12.986 12.667-3.912 2.088-7.997 3.845-12.013 5.742-.713.331-1.443.626-2.156 1.288.435.052.887.104 1.321.139 1.947.156 3.912.226 5.859.469 2.225.261 4.329-.086 6.467-.661 5.841-1.583 11.752-2.714 17.82-2.905 4.172-.122 8.292.226 12.308 1.374 8.292 2.384 12.917 8.247 13.351 16.843.226 4.558-.33 9.03-1.616 13.38-1.13 3.828-2.313 7.673-3.79 11.379-1.165 2.889-1.13 5.498.521 8.108.435.679.765 1.41 1.165 2.106 2.086 3.497 1.999 7.081.278 10.648-2.208 4.611-5.389 8.474-9.353 11.675-6.084 4.907-13.091 7.76-20.705 9.309-6.467 1.305-13.004 1.583-19.558 1.27-2.677-.139-5.32-.644-8.066-1.009 0 .209-.053.452.052.574 2.99 4.089 4.05 8.856 4.572 13.728 1.095 10.527-.904 20.584-5.233 30.188-.382.87-.834 1.705-1.269 2.54-3.946 7.743-10.483 11.554-18.932 12.667-6.189.818-12.204.07-18.132-1.566-8.154-2.244-16.446-3.654-24.843-4.645-3.703-.435-7.284-1.358-10.726-2.836-4.92-2.123-8.606-5.655-11.509-10.057-4.103-6.229-6.537-13.137-7.962-20.41-.052-.278-.052-.574-.122-.87-.156-.713-.313-1.409-.73-2.157-.348 2.053-.678 4.106-1.026 6.176-2.938 17.243-6.728 34.26-13.456 50.494-6.328 15.241-16.254 27.595-30.232 36.382-9.109 5.724-18.48 11.101-27.885 16.338-16.028 8.926-32.231 17.538-48.26 26.43-9.961 5.533-19.349 11.901-27.572 19.887-3.72 3.619-7.197 7.412-9.84 11.936h-1.303l.052.052zm164.946-195.308c-.261.626-.539 1.218-.748 1.844-2.903 8.909-4.015 18.026-2.625 27.335 1.182 7.864 3.895 15.207 8.38 21.818 2.99 4.403 6.815 7.83 11.908 9.501 3.164 1.044 6.433 1.861 9.718 2.296 7.789 1.044 15.542 2.175 23.122 4.315 5.789 1.636 11.665 2.454 17.68 1.879 8.293-.782 14.882-4.228 18.828-11.901 5.511-10.718 7.858-22.01 6.172-34.016-.452-3.253-1.252-6.437-2.921-9.326-1.391-2.383-3.181-4.123-6.05-4.924-3.564-.992-7.023-2.366-10.448-3.775-6.398-2.628-11.978-6.543-16.516-11.032-3.477-.609-6.484-1.096-9.457-1.67-4.085-.783-8.153-1.357-12.326-.592-1.495.279-3.042.227-4.572.261-3.911.07-7.458-.991-10.5-3.566-.365-.314-.817-.522-1.2-.749-6.693 6.282-4.259 5.829-18.445 12.267v.035zm57.856-6.142c1.635 1.27 3.338 2.488 4.903 3.845 4.694 4.019 10.222 5.255 16.22 5.255 5.111 0 10.17-.609 15.159-1.531a62.622 62.622 0 0122.774 0c3.877.695 7.841 1.426 11.665.087 3.425-1.184 6.833-2.576 9.945-4.385 3.65-2.123 6.223-5.429 7.788-9.431 1.078-2.749 1.06-5.393-.47-7.969-.556-.939-1.025-1.931-1.582-2.87-1.703-2.837-1.738-5.655-.521-8.752 1.547-3.915 2.799-7.952 3.981-12.006 1.147-3.932 1.773-7.969 1.53-12.075-.487-8.404-4.642-13.485-11.683-15.642-3.025-.922-6.258-1.427-9.422-1.601-7.041-.4-13.891 1.009-20.671 2.784-2.573.678-5.128.957-7.771.539-4.728-.731-9.422-.47-14.029.905-2.712.818-5.441 1.653-8.067 2.68a115.987 115.987 0 00-9.161 4.054c-1.93.957-3.547 2.505-4.051 4.645-.643 2.732-1.043 5.551-1.286 8.369-.505 5.777-2.608 10.701-7.059 14.512-.417.348-.938.591-1.547.974 2.138 1.618 4.086 2.123 6.067 2.61 1.687.417 3.408.8 5.025 1.427 2.26.852 4.015 2.418 4.867 4.732 2.191 5.899 1.2 11.571-4.607 14.998-2.416 1.427-5.076 2.454-8.014 3.846h.017zm33.431-116.855c-.139-1.374-.4-2.297-.313-3.184.226-2.54.591-5.063.904-7.586.974-7.847-4.363-15.694-12.117-17.33-6.45-1.357-12.778-.452-18.706 2.401-7.371 3.532-13.751 8.439-18.984 14.772-1.878 2.28-3.181 4.489-2.712 7.865.748 5.429-.156 10.909-1.426 16.234-1.077 4.523-2.538 8.943-3.772 13.432-.574 2.088-1.113 4.211-.574 6.386 6.693-.731 12.674.365 17.281 5.898 3.911.678 7.336 2.366 9.544 6.003 1.947 3.219 3.216 6.664 3.599 10.422.086.8.278 1.601.521 2.906.748-1.323 1.217-2.14 1.686-2.958 5.355-9.187 12.796-15.625 23.557-17.452 4.867-.818 9.805-1.253 14.69-1.966 4.242-.626 8.466-1.375 12.326-3.428 2.034-1.061 3.563-2.54 4.241-4.75.574-1.879 1.217-3.758 1.478-5.689.765-5.62-.417-10.684-4.642-14.825-2.555-2.488-5.441-4.367-8.779-5.533-4.676-1.635-9.492-2.053-14.412-1.635-.973.087-1.964 0-3.355 0l-.035.017zm-95.79-29.527c-.278.714-.504 1.149-.626 1.636-.538 2.105-.956 4.263-1.616 6.333-1.808 5.673-5.494 8.352-11.405 8.787-3.911.278-7.805.8-11.7 1.305-4.989.644-8.275 3.271-9.353 8.352-.121.574-.313 1.113-.434 1.687-1.148 5.394-1.095 10.84-.487 16.286 1.06 9.344 4.45 17.73 10.205 25.16.556.731 1.234 1.374 2.156 2.418.208-1.357.365-2.279.469-3.184.504-4.263 1.617-8.299 4.259-11.762 2.486-3.253 5.72-3.532 8.571-.609 1.338 1.375 2.468 3.097 3.251 4.855 1.095 2.523 1.895 5.202 2.59 7.864 1.026 3.88 2.712 7.36 5.424 10.336.296.33.678.556 1.182.974 0-.8.07-1.305 0-1.792-1.39-7.517-.817-14.929 1.235-22.254 1.199-4.298 2.694-8.456 5.441-12.058 1.582-2.07 3.46-3.741 5.911-4.68 2.781-1.062 4.815-.348 6.154 2.349.713 1.426 1.043 3.027 1.704 4.471.556 1.236 1.182 2.506 2.086 3.48 2.295 2.523 4.155 5.272 4.989 8.595.487 1.949.835 3.933 1.252 5.934h3.807l1.582-1.218c-.278-4.298.748-8.161 2.017-11.971 1.791-5.394 3.268-10.857 3.859-16.53.626-6.02.4-11.883-2.155-17.538-1.339-2.975-2.26-6.142-3.39-9.204-.939-2.523-1.791-5.081-2.921-7.517-1.808-3.88-4.711-6.751-8.501-8.787-4.781-2.557-9.231-2.035-13.439 1.166-1.512 1.148-2.868 2.471-4.311 3.706-2.26 1.931-4.364 4.263-7.823 3.393l.017.017zm-28.006 68.311c-.696-.122-1.548-.366-2.4-.383-6.258-.105-12.517-.035-18.671 1.27-7.788 1.653-14.29 5.342-18.567 12.284a84.266 84.266 0 00-7.927 16.738c-1.095 3.167-1.182 6.403-.209 9.657.47 1.566 1.304 2.662 2.73 3.48 3.685 2.07 7.649 3.149 11.821 3.427 4.572.314 9.145.522 13.717.853 5.737.4 10.883 2.488 15.472 5.916 3.808 2.853 7.284 6.055 10.118 9.883 2.295 3.097 4.538 6.246 6.659 9.465 2.503 3.793 5.702 6.768 9.683 8.961 3.146 1.74 6.484 2.366 9.857 1.026 3.234-1.287 6.432-2.749 9.457-4.437 3.251-1.827 5.824-4.523 8.119-7.325-.087-.33-.104-.487-.174-.609-3.807-5.289-5.911-11.309-7.371-17.591-.157-.696-.33-1.444-.695-2.035-1.322-2.14-2.73-4.228-4.208-6.508-1.043.105-2.416.418-3.772.331-8.188-.626-14.934-4.037-19.975-10.614-2.869-3.741-4.729-7.986-6.189-12.44-1.739-5.307-2.364-10.771-2.643-16.13-1.599-1.722-3.077-3.323-4.832-5.219zm-44.94 44.559c.348.435.626.975 1.078 1.288 1.86 1.253 3.703 2.61 5.685 3.619a60.708 60.708 0 0114.516 10.37c3.251 3.132 6.45 6.334 9.683 9.465a388.586 388.586 0 007.754 7.378c6.849 6.316 15.003 8.995 24.217 8.595 2.329-.104 4.711-.139 7.023-.974-.208-.244-.278-.366-.4-.435-.174-.122-.382-.209-.573-.296-4.851-1.966-8.78-5.098-11.752-9.431-1.113-1.618-2.174-3.271-3.286-4.906-3.668-5.394-7.823-10.335-13.004-14.355-3.912-3.045-8.206-5.289-13.16-6.002-2.938-.418-5.928-.609-8.884-.801-6.38-.4-12.83-.47-18.932-3.532l.035.017zm105.734-16.512c.243-1.444 1.095-2.47 2.051-3.445 1.061-1.096 2.173-2.157 3.13-3.34 1.999-2.506 1.79-4.785-.818-7.378-1.251.313-2.712.661-4.172 1.027-9.214 2.331-15.837 8.073-20.583 16.06-3.338 5.585-2.573 11.274.539 16.773 1.303 2.296 3.285 3.044 5.858 2.836 3.929-.331 7.423-1.949 10.97-3.411 9.423-3.88 13.282-15.624 12.639-23.036-.087-1.079-.47-1.984-1.826-2.21-2.972 1.496-5.111 4.123-7.788 6.159v-.035zm25.834 23.507c-2.904 1.096-5.407 2.471-8.067 2.923-3.077.522-5.719 1.636-8.484 3.01-7.736 3.846-14.133 3.237-20.062-1.931-1.182-1.044-2.138-2.349-3.337-3.689-.974-.069-2.121-.139-3.199-.209-.105.331-.209.488-.174.609 1.408 5.446 3.077 10.805 6.276 15.503 1.251 1.827 2.851 3.532 4.624 4.855 3.408 2.575 7.215 2.157 10.222-.922 1.009-1.027 1.791-2.297 2.608-3.498 1.46-2.175 2.834-4.402 4.329-6.559 1.93-2.784 6.971-4.159 10.187-.94 1.391 1.392 2.678 2.871 4.034 4.28.886.923 1.825 1.793 2.729 2.645 2.382-1.235 4.59-1.218 6.85-.696a31.62 31.62 0 002.572.47c2.382.348 3.738-.696 4.625-2.941 1.112-2.818-1.078-7.168-3.442-8.212-1.843-.8-3.79-1.479-5.755-1.931-2.434-.575-4.781-1.236-6.502-2.75l-.034-.017zm-49.408-8.804v-6.96c0-.209-.069-.435-.139-.626-.852-2.297-.782-4.698-.834-7.099a15.863 15.863 0 00-.591-3.828c-1.235-4.28-3.634-7.952-6.537-11.24-3.425-3.863-5.615-8.23-6.832-13.224a37.366 37.366 0 00-2.747-7.551c-.782-1.566-2.086-3.01-3.494-4.071-2.052-1.566-3.46-.957-4.225 1.461-1.338 4.228-1.043 8.352 1.043 12.249.991 1.845 2.295 3.532 3.408 5.324 1.077 1.723 2.207 3.428 3.164 5.22 1.686 3.202 1.686 6.386-.261 9.535-.539.87-.887 1.879-1.356 2.923.539.07.747.139.956.139 3.025 0 4.016.714 4.798 3.62.331 1.252.591 2.54.852 3.827.522 2.593 1.304 5.064 2.973 7.169 2.694 3.41 5.702 4.35 9.857 3.132h-.035zm11.266 9.065c2.52 4.211 8.344 7.36 13.038 6.855 8.067-.852 14.047-4.767 17.315-12.423 2.504-5.863 3.043-11.953 1.93-18.182-.435-2.419-1.13-4.837-2.816-6.769-1.182-1.357-2.486-2.488-4.885-1.774-.296.87-.852 1.896-1.009 2.992-.4 2.732-.417 5.516-.956 8.213-1.773 8.769-6.258 15.416-15.107 18.426-2.469.835-4.903 1.74-7.51 2.662zm17.697-39.079c1.182-1.148 1.582-2.575 1.6-4.159.017-1.6 0-3.201.173-4.784.452-4.02-1.39-6.212-5.424-6.438-3.633-.209-6.919.87-9.909 2.784-7.354 4.732-12.221 11.327-14.203 19.887-.661 2.819-1.009 5.725-1.269 8.613-.139 1.514.191 3.08.313 4.611 7.666-14.598 19.471-19.522 28.719-20.497v-.017zm-7.997-16.356c-.174-.904-.347-1.67-.487-2.47-.678-4.194-2.19-8.021-5.25-11.032-1.46-1.444-2.364-3.079-2.955-4.976-.435-1.374-.869-2.801-1.6-4.036-1.216-2.123-2.99-2.228-4.207-.157-1.008 1.723-1.895 3.671-2.19 5.62-.47 3.219-.47 6.507-.539 9.778-.087 4.611-.695 9.118-2.312 13.468-.852 2.314-1.565 4.68-2.33 7.029-.956 2.941-1.269 5.951-1.06 9.03.087 1.357.504 2.558 1.338 3.985 2.66-12.737 9.319-21.784 21.575-26.239h.017zm38.699 26.674l.469.209c1.739-2.106 4.103-3.254 6.502-4.281 2.677-1.131 5.389-2.209 8.136-3.114 8.779-2.889 17.385-6.194 25.608-10.422 4.328-2.228 8.118-5.098 11.213-8.874.33-.4.574-.888.852-1.323-4.625 1.845-9.371 2.576-14.082 3.272-3.946.591-7.927.904-11.874 1.496-7.284 1.096-13.542 4.193-18.549 9.709-3.216 3.532-5.807 7.464-7.823 11.762-.226.487-.296 1.044-.435 1.566h-.017zm-21.123 30.64c.33.087.556.209.748.192.712-.105 1.443-.192 2.138-.401 8.31-2.488 14.047-7.499 15.594-16.39.643-3.741.556-7.534-.191-11.292-.643-3.271-2.017-6.229-3.964-8.909-1.338-1.861-3.007-3.393-5.285-4.036-2.712-.766-4.45.278-4.954 3.027-.487 2.575.156 5.046.817 7.499.608 2.245 1.338 4.489 1.599 6.769.921 8.264-.574 15.955-5.911 22.602-.208.261-.365.591-.591.939zm-59.317-27.387c.279-1.009.4-1.687.661-2.314a67.945 67.945 0 011.808-3.967c.852-1.74 1.008-3.514.191-5.254a69.659 69.659 0 00-3.146-5.968c-.922-1.566-2.086-2.976-3.06-4.507-2.086-3.288-3.181-6.855-2.782-10.77.139-1.322.47-2.627.731-4.141-1.895 2.018-3.251 5.063-3.947 8.595-1.025 5.203-.852 10.422.018 15.607 1.043 6.229 3.007 12.128 6.432 17.47 3.042 4.715 7.058 8.264 12.361 10.283.573.226 1.182.365 1.773.556-2.608-3.184-3.599-6.872-4.329-10.683-.209-1.061-.452-2.14-.817-3.149-.695-1.966-1.895-2.593-3.894-2.175-.539.104-1.061.226-2.017.417h.017zm10.883-95.557c3.408.905 5.407-.992 7.441-2.802 1.095-.974 2.104-2.018 3.268-2.888 1.513-1.131 3.13-2.105 4.712-3.132.399-.261.817-.469 1.564-.904-4.502-.522-8.379.278-12.134 1.757-8.606 3.393-15.994 8.578-22.444 15.172-3.355 3.445-6.728 6.873-10.083 10.301-.487.504-.939 1.044-1.478 1.635.33.087.487.192.591.157 4.937-1.705 10.101-1.932 15.229-2.454 6.12-.626 9.353-2.94 11.109-8.786.452-1.531.748-3.115 1.147-4.646.279-1.026.626-2.036 1.061-3.41h.017zm34.839 143.719c.07.139.157.261.226.4.539.035 1.078.139 1.6.105 1.947-.14 3.911-.331 5.858-.488 4.26-.365 8.362.627 12.5 1.479 2.712.557 5.424.957 8.206.279 3.372-.835 6.467-2.21 9.074-4.524 1.2-1.061 2.4-2.245 2.573-4.28-2.312 1.322-4.502 1.096-6.745.626-1.999-.417-4.016-.696-5.998.105-.991.4-1.877.139-2.607-.592-.765-.766-1.495-1.583-2.243-2.366-1.252-1.305-2.503-2.628-3.807-3.898-2.591-2.523-6.711-1.444-8.345.731-.904 1.218-1.756 2.505-2.608 3.758-2.173 3.219-3.755 6.943-7.684 8.682v-.017zm44.94 13.467c0 .122 0 .226-.018.348.157.139.313.313.505.383 8.188 3.41 16.654 5.707 25.555 5.811 4.485.053 9.023-.278 13.473-.87 7.285-.974 14.117-3.375 20.236-7.586.696-.469 1.339-.991 2.017-1.496-.348-.209-.556-.209-.748-.139-.4.156-.817.313-1.199.504-5.737 3.115-11.787 3.219-18.011 1.932-7.284-1.497-14.568-1.375-21.87-.07-5.076.922-10.205 1.601-15.385 1.496-1.513-.034-3.008-.226-4.52-.33l-.035.017zm-64.689-114.331a9.672 9.672 0 00-.434-.418c-.817.661-1.826 1.183-2.434 2.018-1.53 2.106-3.216 4.194-4.259 6.56-4.312 9.709-5.425 19.87-3.391 30.31.313 1.635.574 3.41 2.104 4.906.278-4.819 1.582-9.134 3.147-13.345 1.947-5.255 2.868-10.648 2.677-16.251-.157-4.75.209-9.448 2.573-13.78h.017zm53.284 52.424c0-2.175.105-4.35-.017-6.525-.243-4.402-1.234-8.612-3.494-12.458-2.365-4.036-6.015-5.759-10.483-5.968-.956-.052-2.034.296-2.904.731-2.034 1.009-2.729 3.463-1.529 5.411 1.025 1.653 2.242 3.184 3.39 4.82 2.225-.957 4.328-.626 6.328.47 1.947 1.078 3.425 2.697 4.624 4.541 1.791 2.766 2.973 5.777 4.103 8.978h-.018zm-14.307-26.29c-2.799-4.159-12.291-6.108-16.481-3.202 4.033 1.288 4.207 4.472 4.016 7.83-.156 2.958.156 5.968-1.286 8.752.625.417 1.077.783 1.582 1.061 2.294 1.34 3.563 1.27 5.493-.539 1.147-1.079 2.121-2.349 3.147-3.498-4.503-5.776-1.687-9.482 3.529-10.404z"/></g><defs><clipPath id="clip0_2_522"><path fill="#fff" d="M0 0h368v484H0z"/></clipPath></defs></svg>