<svg width="511" height="502" fill="none" xmlns="http://www.w3.org/2000/svg"><g opacity=".4" clip-path="url(#clip0_2_1027)" fill="#C89663"><path d="M253.015 275.527c-3.042-1.213-5.539-2.147-7.993-3.206-3.374-1.47-5.54-4.213-7.444-7.217-4.667-7.318-11.445-12.479-18.346-17.387-11.266-8.062-24.079-13.148-36.885-18.129-13.688-5.325-27.176-11.065-39.902-18.468-8.754-5.115-17.412-10.377-25.322-16.723-7.26-5.811-14.574-11.637-21.329-17.99-6.605-6.223-12.79-12.931-18.773-19.791-11.607-13.308-22.537-27.205-32.782-41.586-7.377-10.337-14.32-20.985-21.547-31.42C16.204 74.245 8.955 65.526.96 57.4c-9.463-9.6-19.686-18.293-30.754-26.018-.828-.592-1.63-1.29-2.376-1.975-.205-.179-.245-.509-.348-.73.79-1.243 1.426-.393 2.052.054 8.544 5.883 16.521 12.451 24.257 19.333 15.159 13.524 27.4 29.45 38.435 46.42 12.111 18.632 25.573 36.279 39.736 53.423 7.445 9.02 15.07 17.871 23.566 25.875 6.906 6.518 14.288 12.566 21.732 18.505 11.591 9.231 24.169 17.028 37.526 23.408 11.094 5.29 22.521 9.822 33.891 14.533 9.658 4.004 19.248 8.047 27.996 13.845 3.503 2.337 6.931 4.836 10.518 7.377-1.002-1.858-1.948-3.667-2.962-5.436-3.42-5.967-5.122-12.434-5.359-19.228-.246-7.686.287-15.25 3.631-22.427 5.893-12.653 19.545-18.338 31.411-16.864 7.08.869 14.151 1.862 21.24 2.608 7.953.845 15.275 3.204 20.798 9.203 3.045 3.313 5.415 7.249 8.031 10.941.641.92 1.096 1.94 1.837 3.307 1.008-1.643 1.805-3.045 2.714-4.35 2.742-3.931 6.635-6.401 10.833-8.505 4.604-2.307 9.281-4.584 13.589-7.379 9.687-6.327 16.432-15.221 21.378-25.587 1.408-2.966 3.067-5.844 4.819-8.641 2.132-3.383 4.995-6.063 8.583-7.881 5.01-2.509 9.003-1.221 11.737 3.688 1.874 3.34 2.628 6.948 2.502 10.738-.148 4.491-1.058 8.842-2.629 13.01-1.735 4.581-2.729 9.253-3.378 14.094-1.609 12.065-5.252 23.569-10.703 34.476-1.233 2.464-2.897 4.748-4.519 7.396.754-.226 1.393-.357 1.937-.604 16.17-7.781 32.875-8.245 49.876-3.372 5.589 1.6 10.41 4.758 13.553 9.763 4.418 7.001 10.449 12.493 16.333 18.153 4.478 4.301 7.383 9.392 8.722 15.411 1.323 6.038-.134 11.354-4.111 16.174-6.484 7.844-14.948 11.83-24.748 13.438-2.753.449-5.541.637-8.31 1.105-4.084.696-8.173 1.323-12.164 2.363-5.916 1.555-11.84 3.006-17.995 3.107-.386-.009-.76.156-1.52.313.603.624.902 1.147 1.358 1.414 7.011 4.217 11.971 10.447 16.482 17.005 7.657 11.106 13.122 23.184 15.162 36.631.36 2.445.497 4.956.385 7.415-.394 7.817-6.01 12.223-13.707 10.783-2.643-.504-5.219-1.311-7.848-1.868-2.611-.541-5.282-.938-7.992-1.403-.058.179-.318.477-.25.7 2.965 11.861-6.47 26.732-22.881 25.618-11.309-.758-19.875-5.939-27.503-13.809-8.474-8.705-13.999-19.098-18.673-30.092-.378-.919-.842-1.816-1.271-2.715-.225.033-.434.047-.66.08-.017 1.034-.015 2.084-.032 3.118-.12 5.663.061 11.393-.429 17.028-.763 8.543-4.171 16.056-9.668 22.73-7.258 8.806-16.376 14.745-27.093 18.305-7.379 2.442-14.849 4.313-22.776 4.114-2.245-.059-4.564 1.096-6.748 1.944-2.863 1.139-5.554 2.756-8.478 3.777-4.343 1.519-8.691 1.428-12.908-.843-2.544-1.369-3.956-3.584-5.104-6.027-4.403-9.349-4.566-18.896-.373-28.248 2.551-5.705 5.709-11.241 9.279-16.384 4.112-5.915 8.995-11.322 13.587-16.884 7.142-8.712 14.618-17.165 20.36-26.902 1.036-1.75 1.925-3.596 2.721-5.523-6.714 7.806-14.421 14.42-23.026 19.921-10.316 6.597-21.489 10.906-33.761 12.454-3.75.464-7.384 1.847-10.998 3.019-3.819 1.256-7.48 3.01-11.362 4.112-5.117 1.467-10.199 1.128-15.093-1.308-9.208-4.594-13.69-16.633-9.279-25.86 1.945-4.07 4.485-7.883 6.628-11.88 3.823-7.086 7.338-14.309 11.307-21.3 6.175-10.834 14.586-19.42 25.941-24.915 6.048-2.947 12.401-4.515 19.103-4.828 7.766-.367 15.508-.821 22.975-3.251.959-.31 1.9-.636 3.252-1.095l.072.03zm64.921 26.667c-2.484 5.928-8.407 7.641-14.607 8.883 3.545 18.563 8.516 36.469 15.889 53.652 4.333 10.106 9.422 19.758 17.332 27.644 5.41 5.377 10.977 10.497 18.765 11.984 3.547.671 7.173 1.213 10.754 1.094 14.342-.462 21.296-15.008 18.48-24.446-.182-.618-.056-1.327-.069-2.026 5.591 1.11 10.961 2.06 16.275 3.224 8.762 1.911 14-2.137 13.787-11.139-.109-3.897-.71-7.83-1.618-11.638-2.362-9.959-6.665-19.121-12.238-27.656-4.672-7.124-10.037-13.641-17.115-18.572-2.666-1.868-5.445-3.081-8.781-3.468-15.459-1.791-30.581-5.058-44.985-11.139-1.875-.784-3.812-1.458-5.233-2.01-2.234 1.884-4.088 3.445-6.636 5.613zm6.636-7.153c11.667 4.97 23.472 8.619 35.559 11.531 14.097 3.388 28.001 3.429 41.909-1.083 4.385-1.417 9.104-1.789 13.671-2.588 3.478-.602 6.975-.926 10.39-1.682 8.228-1.8 15.146-5.856 20.564-12.402 3.346-4.061 4.747-8.672 3.743-13.874-1.158-5.926-3.802-11.052-8.241-15.286-6.198-5.901-12.661-11.574-17.264-18.966-1.456-2.352-3.544-4.207-6.01-5.703a34.088 34.088 0 00-11.459-4.495c-13.362-2.615-26.554-2.231-39.43 2.526-5.413 1.994-10.077 4.97-13.957 9.417-2.484 2.846-5.501 5.326-8.588 7.548-11.675 8.492-24.777 13.51-39.091 15.406-.486.067-.948.221-1.998.485 3.953 2.761 6.318 6.365 9.91 8.976 6.631 4.804 10.607 11.485 10.243 20.245l.049-.055zm-55.459-24.769c-1.303.666-1.807.98-2.334 1.208-2.965 1.181-5.915 2.343-8.88 3.524-.664.272-1.41.375-2.037.68-6.957 3.237-14.317 4.68-21.889 5.314-3.794.327-7.574.862-11.329 1.519-8.721 1.5-14.838 6.78-19.75 13.8-3.415 4.853-5.96 10.137-8.395 15.483-4.045 8.957-9.423 16.849-17.204 23.134-4.646 3.746-8.719 8.188-11.938 13.342-1.595 2.542-2.26 5.107-.844 7.883.914 1.846 1.846 3.709 2.979 5.418 2.891 4.391 6.741 6.407 12.137 5.184a57.455 57.455 0 0015.04-5.621c3.341-1.836 6.658-3.759 10.039-5.528 4.53-2.372 9.341-3.187 14.425-2.323 2.445.43 4.932.699 7.384.971 4.674.507 8.984-.485 13.074-2.88 8.722-5.071 16.504-11.357 23.449-18.601 2.679-2.808 4.867-6.142 6.862-9.48 4.382-7.352 4.828-15.68 5.33-23.96.056-.966-.35-2.042-.846-2.901-1.772-3.119-2.565-6.532-2.98-10.04-.101-.711-.033-1.503-.338-2.131-2.039-4.203-3.071-8.545-1.988-13.958l.033-.037zm-21.069 108.705c-.587.898-1.317 1.997-2.066 3.081-1.641 2.369-2.961 5.085-5.019 6.992-3.606 3.342-7.565 6.376-11.608 9.205-3.308 2.325-5.862 5.176-7.831 8.635-1.251 2.186-2.119 4.608-1.492 7.121.894 3.599 1.739 7.253 3.179 10.64 1.666 3.879 5.025 6.155 9.299 6.181 2.626-.002 5.358-.502 7.857-1.336 2.704-.919 5.122-2.675 7.795-3.784 2.162-.899 4.507-1.933 6.75-1.909 7.903.113 15.372-1.792 22.767-4.253 10.321-3.446 19.049-9.201 26.05-17.675 5.093-6.174 8.084-13.134 9.193-20.982 1.196-8.361.782-16.719-.017-25.085-.251-2.645-.872-5.316-1.641-7.855-3.269-10.686-6.436-21.413-8.432-32.43-.279-1.522-.747-2.978-1.055-4.165-3.941-.784-7.694-1.143-11.187-2.29-3.402-1.101-6.544-3.024-10.145-4.724.289 1.399.497 2.4.706 3.401 1.968 9.583 2.837 19.223 2.229 29.016-.9 14.486-5.317 27.477-15.782 38.041-5.422 5.461-11.324 6.963-18.565 4.249-.179-.058-.404-.026-1.018-.037l.033-.037zm56.166-127.99c4.633-5.985 7.676-12.178 6.053-19.526-1.871-8.417-4.941-16.438-9.624-23.736-1.116-1.728-2.978-3.09-4.739-4.267-2.806-1.858-6.059-1.813-9.305-1.664-7.348.339-14.444-.511-20.997-4.165a705.21 705.21 0 01-6.192-3.503c-5.652-3.294-11.75-4.65-18.18-3.445-6.621 1.236-11.616 5.005-15.29 10.68-3.277 5.071-4.035 10.374-1.609 15.9 1.244 2.822 2.896 5.476 4.578 8.058 2.132 3.27 3.544 6.764 3.932 10.641.224 2.261.572 4.531.588 6.806.035 7.175 1.945 13.856 4.942 20.306 3.739 8.08 12.759 12.477 21.304 9.939 2.538-.767 4.995-1.966 7.303-3.295 8.132-4.734 16.496-8.906 25.675-11.382 4.692-1.28 8.371-4.33 11.579-7.33l-.018-.017zm-15.256 9.628c.012.174.024.348.07.52 2.574.509 5.265.694 7.69 1.598 4.798 1.794 9.565 1.367 14.349.396 8.047-1.63 15.741-4.321 23.088-8.004 13.541-6.797 23.928-16.971 30.618-30.501a99.795 99.795 0 009.65-32.217c.584-4.766 1.799-9.277 3.22-13.837 1.325-4.187 2.161-8.602 2.702-12.981.488-3.867-.555-7.595-2.691-10.934-1.957-3.019-4.222-3.881-7.653-2.844-3.414 1.018-5.734 3.451-7.046 6.534-1.329 3.101-2.116 6.445-2.923 9.738-1.434 5.927-2.225 12.02-4.088 17.801-3.165 9.79-9.716 16.658-19.703 19.872-3.649 1.174-7.351 2.072-11.026 3.126-2.885.825-5.793 1.565-8.592 2.629-3.532 1.342-6.405 3.619-8.723 6.84.985 2.892 1.947 5.698 2.893 8.522 1.264 3.889 2.024 7.829 1.113 11.917-2.486 11.005-9.449 17.743-20.105 20.897-.943.291-1.868.599-2.792.907l-.051.021zm-41.42 116.541c1.162.359 1.96.498 2.683.834 4.354 1.964 8.626 1.465 12.368-1.169 2.841-1.978 5.568-4.35 7.729-7.052 3.805-4.774 6.71-10.17 8.513-16.069 5.167-16.859 3.89-33.736-.01-50.577-.243-.999-.986-1.876-1.487-2.805-.207.049-.43.116-.637.165-.081 1.109-.198 2.22-.264 3.31-.813 12.432-4.711 23.777-11.323 34.36-5.776 9.249-12.754 17.547-19.863 25.73-5.972 6.881-11.891 13.777-16.646 21.556-3.117 5.113-6.125 10.288-7.63 16.184-.233.944-.359 1.915-.546 3.031.532-.159.795-.159.892-.271 3.409-4.694 8.111-7.866 12.756-11.121 4.863-3.392 9.122-7.409 11.43-13.097.421-1.009 1.221-1.851 2.016-3.025l.019.016zm23.572-108.455c-1.186 4.667-.97 8.854.842 12.828 3.607 7.932 10.084 12.274 18.283 14.415.875.239 1.851.173 2.775.128 2.879-.142 5.758-.285 8.63-.531 1.636-.146 3.325-.278 4.886-.751 3.224-.988 6.082-2.722 7.62-5.837 2.001-4.022 1.657-8.025-1.113-11.654-1.383-1.797-3.066-3.364-4.465-5.143-5.623-7.2-13.275-9.781-22.059-9.713-1.12.006-2.314.209-3.317.645-4.045 1.779-8.046 3.695-12.1 5.597l.018.016zm89.422-108.144c-.216-.091-.414-.165-.63-.255-1.214 2.217-2.535 4.408-3.658 6.672-2.837 5.619-5.656 11.254-9.7 16.114-6.311 7.569-14.044 13.274-22.97 17.414-2.903 1.334-5.761 2.806-8.486 4.425-3.568 2.097-6.01 5.309-7.679 9.063-.426.939-.98 2.062.172 3.034 1.209-1.272 2.283-2.465 3.466-3.595 3.255-3.091 7.424-4.336 11.617-5.495 4.365-1.205 8.79-2.292 13.126-3.654 9.565-2.992 16.04-9.435 18.877-18.888 2.438-8.13 3.965-16.531 5.884-24.819l-.019-.016zm-196.4 185.632l.489.229c.489-.523 1.09-.949 1.436-1.533 2.785-4.845 7.122-8.237 11.16-11.923 3.807-3.461 7.778-6.846 10.261-11.496 2.699-5.084 5.379-10.185 7.968-15.332 3.434-6.867 7.239-13.444 13.214-18.487.829-.686 1.618-1.44 2.857-2.522-1.001.208-1.403.218-1.777.383-9.159 4.068-16.724 10.182-22.578 18.28-4.848 6.683-8.635 14.029-12.334 21.387-2.913 5.782-6.134 11.427-9.173 17.164-.635 1.216-1.016 2.555-1.488 3.847l-.035.003zm109.628-57.937c-.215.435-.378.621-.366.795.01.402.109.816.188 1.213 1.084 4.584 3.531 8.357 6.947 11.47 6.257 5.722 13.799 7.978 22.146 7.921 4.323-.029 8.045-1.664 11.408-4.202 1.68-1.287 2.916-2.929 2.333-5.568-2.914-2.674-6.8-2.919-10.548-2.945-4.204-.031-8.419.551-12.618.59-2.205.009-4.555-.305-6.634-1.004-4.048-1.337-7.774-3.344-10.771-6.45-.621-.641-1.34-1.17-2.066-1.803l-.019-.017zm-52.041-75.139c-4.917 12.062 2.176 37.195 11.637 42.928-.453-4.066-.948-8.234-1.374-12.407-.291-2.974-.305-6.002-.838-8.925-.443-2.385-1.207-4.855-2.384-6.964-2.592-4.621-5.876-8.863-7.041-14.632zm27.703-24.491c.028.155.073.292.101.448 2.058.649 4.159 1.172 6.157 1.965 2.088.839 4.184 1.783 6.119 2.947 7.049 4.25 14.524 6.809 22.885 6.436 3.683-.162 7.385-.307 10.971 1.184-2.084-2.048-4.067-4.172-6.415-5.729-4.127-2.749-8.932-3.632-13.769-4.216-7.257-.892-14.534-1.836-21.791-2.728-1.394-.168-2.817-.23-4.223-.31l-.035.003zm-70.36 179.771c3.083 1.052 6.157.687 9.069-.246 3.547-1.132 7.007-2.504 10.428-3.943 3.931-1.649 7.938-2.97 12.204-3.311 5.816-.464 11.381-2.03 16.829-4.027.718-.258 1.391-.654 2.645-1.264-3.435-.31-6.219-.315-8.918-.868-7.102-1.445-13.485.194-19.593 3.811-7.099 4.226-14.376 8.167-22.699 9.85l.035-.002zm137.241-89.617c2.072 6.232-.673 11.145-4.146 15.914 1.074 2.903 4.967 2.237 5.772 5.037 3.379-1.279 5.247-3.909 5.111-7.436-.214-5.43-2.924-9.729-6.72-13.534l-.017.019z"/><path d="M66.168 141.278c2.83 4.01 4.42 8.577 5.581 13.261 1.933 7.782 5.262 14.98 8.727 22.133 7.278 15.037 16.62 28.76 26.116 42.421 9.824 14.112 14.777 29.971 17.113 46.724 1.73 12.488 2.627 25.102 4.322 37.592 1.572 11.466 3.699 22.859 5.582 34.269.451 2.753.936 5.504 1.283 8.264.115.92-.15 1.901-.225 2.851-.258.07-.498.156-.755.226-.685-.794-1.523-1.525-2.022-2.419-4.82-8.533-9.912-16.942-14.31-25.695-8.776-17.491-19.385-33.861-30.044-50.209-6.163-9.475-11.328-19.454-14.764-30.286-2.08-6.6-2.875-13.356-2.503-20.209.382-6.713 1.063-13.394 1.444-20.108.486-8.261 1.094-16.512 1.09-24.775-.017-11.256-1.732-22.257-6.895-32.464-.221-.423-.255-.911-.374-1.375.188-.066.411-.133.6-.198l.034-.003zm62.403 196.723c.186-.1.353-.217.555-.335-.21-.774-.388-1.585-.634-2.356-9.429-28.056-16.884-56.683-23.839-85.431-3.661-15.124-9.081-29.62-16.33-43.451-4.65-8.876-9.1-17.872-12.479-27.342-.175-.513-.538-.961-1.189-2.02-.092 1.722-.127 2.739-.18 3.776-.398 7.222-.797 14.444-1.266 21.671-.369 5.872-.912 11.756-1.227 17.642-.426 7.855.777 15.459 3.436 22.859 3.39 9.382 8.032 18.119 13.317 26.533 7.566 12.076 15.351 24.014 22.564 36.306 5.589 9.531 10.402 19.5 15.587 29.268.522.98 1.112 1.921 1.667 2.864l.018.016zm3.702 6.507c.26-.035.536-.089.796-.124-.187-1.213-.322-2.411-.561-3.603-1.393-7.311-3.15-14.58-4.127-21.955-2.225-16.918-3.946-33.888-6.085-50.83-2.247-17.758-7.402-34.513-17.922-49.33-10.406-14.685-19.952-29.866-27.77-46.126-.144-.323-.526-.525-.789-.787-.17.081-.374.165-.543.247.853 2.743 1.432 5.575 2.589 8.158 3.926 8.768 7.784 17.575 12.117 26.141 7.118 13.979 12.476 28.585 16.299 43.785 4.16 16.543 8.234 33.109 12.671 49.598 3.756 13.961 7.96 27.822 12.009 41.711.318 1.064.858 2.061 1.295 3.064l.021.051zm232.64-180.256c-2.634 33.161-18.415 59.7-42.066 82.255 3.069-3.516 6.191-7.019 9.222-10.567 11.135-13.06 19.897-27.536 25.811-43.709a106.71 106.71 0 005.941-25.261c.108-.988.304-1.964.43-2.935.216.09.414.164.63.255l.032-.038zm44.624 117.727c-26.247 5.083-52.624 6.972-79.221 2.835l.004-.718c3.663.313 7.349.711 11.023.935 3.817.25 7.642.377 11.465.468 3.823.092 7.638.079 11.468.013 3.725-.06 7.445-.188 11.159-.422 3.817-.241 7.628-.586 11.436-.966s7.609-.864 11.392-1.365c3.731-.48 7.476-1.013 11.224-1.512l.05.732z"/><path d="M316.754 278.256c7.141-.29 13.717-.385 20.247-.914 6.58-.55 13.139-1.413 19.672-2.398 6.516-.966 12.977-2.243 19.494-3.209-18.493 5.557-37.45 7.925-57.131 7.89 2.932 4.721 2.888 9.205.5 13.709 1.118-5.153 1.389-10.161-2.782-15.078zm37.745-58.661c-3.441 4.469-6.563 9.249-10.395 13.377-8.84 9.491-17.806 18.938-28.942 25.836-3.645 2.26-7.739 3.832-11.663 5.586-.901.393-2.028.294-3.053.416-.052-.242-.106-.518-.157-.76.492-.225.945-.519 1.458-.693 7.656-2.234 14.214-6.441 20.391-11.34 8.835-7.005 16.523-15.175 24.285-23.28 2.779-2.884 5.034-6.258 7.55-9.404.182.092.363.185.542.243l-.016.019zm-38.035 83.347c23.946 8.377 43.819 23 61.775 40.571-6.43-5.185-12.894-10.368-19.308-15.571-6.429-5.185-13.355-9.689-20.605-13.558-7.288-3.902-14.853-7.259-22.312-10.851.163-.186.288-.405.448-.626l.002.035zm-31.36 101.593c15.908-25.445 21.799-52.716 15.275-82.334 3.984 14.226 4.422 28.57 1.804 43.032-2.62 14.428-8.668 27.372-17.079 39.302zm2.339-32.108c2.139-10.193 3.607-20.482 4.558-30.892.988-10.904.602-21.662-2.864-32.159-.112-.36-.173-.741-.234-1.122.202-.119.406-.203.608-.321.454.757 1.134 1.481 1.296 2.31.986 4.433 2.127 8.838 2.679 13.317 1.183 9.619-.16 19.163-1.434 28.703-.916 6.837-2.31 13.584-4.593 20.145l-.016.019zm62.46-61.049c22.057 9.187 41.989 21.337 56.412 41.003-15.339-18.466-35.171-30.693-56.412-41.003zm-153.251 6.562c.327-.6.396-.867.531-.946 17.248-9.167 34.256-18.772 50.496-29.639.099-.077.334.03.897.062-16.163 12.244-33.461 21.957-51.943 30.507l.019.016zm160.503 57.512c-15.213-15.866-28.848-32.976-40.339-51.754 12.47 17.994 26.372 34.911 40.339 51.754zm24.025-136.408c-15.129 5.347-30.532 10.782-45.797 16.173 4.141-3.956 36.723-15.472 45.797-16.173zm-108.952 44.008c-.414 1.113-.473 1.782-.851 2.141-10.424 10.403-21.919 19.478-34.233 27.576 11.484-9.74 22.971-19.445 35.068-29.699l.016-.018zm-108.294 74.371c15.31-8.072 29.737-17.539 44.298-27.346-5.992 6.602-37.927 26.548-44.298 27.346z"/><path d="M323.473 289.198c3.134 1.031 6.243 2.204 9.435 3.056 3.372.91 6.817 1.622 10.257 2.265 3.352.631 6.727 1.086 10.1 1.505 3.48.448 6.971.807 10.459 1.131 3.401.313 6.778.54 10.262 1.057-.59.075-1.189.273-1.787.244a183.846 183.846 0 01-37.784-4.396c-3.396-.768-6.659-2.141-9.977-3.299-.484-.16-.882-.606-1.306-.91l.287-.667.054.014zm-54.322-90.566c5.077 3.578 14.535 26.678 15.28 36.799-2.258-6.132-4.311-12.348-6.789-18.378-2.495-6.011-5.451-11.869-8.472-18.405l-.019-.016zm18.358 62.361c.513-.7.631-1.023.865-1.179 4.002-2.669 6.282-6.447 7.313-11.086 1.391-6.291 1.777-12.672 1.583-19.102-.02-.804-.075-1.605-.095-2.409.191-.031.397-.08.588-.11.277 1.749.643 3.51.799 5.286.51 5.917-.071 11.769-1.355 17.563-.883 3.981-3.118 7.143-6.028 9.914-.905.848-1.914 1.442-3.704 1.125l.034-.002zm-31.313-16.02c-9.191-12.281-15.849-25.924-21.595-40.049 7.199 13.362 14.38 26.706 21.595 40.049zm128.975 135.395c-8.273-11.152-17.34-21.621-26.581-31.553 8.954 6.765 26.166 26.767 26.581 31.553zM264.285 227.06c6.984 8.946 11.384 19.013 14.563 29.652.474 1.561.607 3.25.719 4.888.029.681-.43 1.395-1.126 1.967-.497-2.663-.79-5.409-1.561-7.983-2.818-9.21-6.709-17.981-11.365-26.402-.398-.708-.832-1.414-1.23-2.122zm-18.844 101.044c-4.853 6.351-10.952 12.4-17.634 17.876a135.844 135.844 0 01-8.09 6.114c-1.388.952-2.96 1.776-4.892 1.434 11.987-6.745 21.196-16.734 30.632-25.443l-.016.019zm7.847-69.839c-9.382-7.139-16.926-15.82-22.4-26.234l.536-.614c.46.337 1.123.554 1.363.993 3.949 7.314 9.465 13.471 14.765 19.8 1.79 2.12 3.813 4.049 5.72 6.073l.016-.018zm197.282 24.423c-.705.433-1.364 1.038-2.135 1.283-9.909 3.086-20.064 4.612-30.473 4.476 10.824-1.73 21.677-3.304 32.144-6.655.161.304.304.592.464.896zM338.872 204.09c-6.057 10.248-11.167 21.028-18.19 30.728 4.881-9.275 9.724-18.584 14.677-27.83.683-1.271 1.911-2.265 2.885-3.381.205.179.407.323.628.483zm4.155 170.602c9.514 14.955 13.094 20.963 22.938 30.766-1.295 1.033-2.045.051-2.778-.687a88.563 88.563 0 01-12.705-16.298c-2.465-4.052-4.71-8.207-7.041-12.339-.18-.32-.206-.703-.414-1.442zm-91.926 50.017a169.584 169.584 0 0022.884-28.403c-2.516 7.768-17.294 26.432-22.884 28.403zm99.514-153.347c-8.558 3.117-31.22 6.085-35.361 4.667l35.361-4.667zm-35.878 33.973c9.961 6.136 19.167 13.252 26.79 22.33-3.686-3.217-7.226-6.601-11.092-9.614-4.456-3.462-9.202-6.555-13.804-9.851-.884-.64-1.657-1.446-2.476-2.161l.617-.707-.035.003zm-12.913-.913c-10.943 2.543-23.338-.768-26.336-8.006 3.802 2.86 7.363 6.295 12.289 6.89 4.767.588 9.559.772 14.047 1.116zm100.842-52.002c8.441-4.563 22.171-8.345 26.391-7.317-3.186 1.546-6.202 1.47-8.929 2.302-2.95.9-5.944 1.662-8.896 2.527l-8.55 2.469-.016.019zM241.485 397.506c-6.385 7.767-14.675 13.772-20.529 22.133-.124-1.812.736-3.323 1.91-4.593 2.398-2.561 4.834-5.089 7.402-7.468 3.671-3.417 7.472-6.72 11.217-10.072zm38.412-132.112c6.22.84 11.329 2.578 15.395 6.487 3.543 3.42 6.823 7.102 10.204 10.707.472.511.748 1.21.837 2.009-1.813-1.943-3.708-3.793-5.422-5.813-5.351-6.308-11.707-10.938-19.962-12.603-.161-.042-.296-.225-1.052-.787zm22.859 30.895c-1.268.401-1.918.62-2.741.885-3.146-2.483-6.461-4.885-9.55-7.547-3.072-2.681-5.968-5.601-8.747-8.617 6.743 5.164 12.457 11.657 21.022 15.297l.016-.018zm-49.872 10.093c6.475-6.442 13.08-13.034 19.458-19.364-.325 2.928-12.607 15.347-19.458 19.364zm65.139 26.006c-4.363-4.396-11.701-18.764-11.218-22.21 3.765 7.448 7.431 14.711 11.218 22.21z"/><path d="M275.593 265.44c1.77.528 3.599.912 5.294 1.637 6.114 2.616 11.862 5.764 16.131 11.095.498.631 1.115 1.202 1.583 1.906-6.843-6.365-14.515-11.291-23.752-13.748.457-.486.67-.693.884-.9l-.105.007-.035.003zm17.011 43.947c2.275 2.543 4.68 15.948 4.459 25.784-1.556-8.928-2.992-17.392-4.459-25.784z"/><path d="M275.698 265.433c-1.864-6.509-3.745-13.035-5.723-19.939 3.705 6.052 5.489 12.427 7.034 18.887-.599.461-1.017.752-1.4 1.04l.105-.007-.016.019zm-17.697 158.546l11.934-13.674c-3.105 5.287-6.136 10.639-11.412 14.129l-.522-.455zm118.706-60.108c5.339 4.856 9.632 10.535 13.293 16.713-2.165-1.202-3.09-3.45-4.526-5.261-1.458-1.863-2.868-3.781-4.291-5.645a714.927 714.927 0 00-4.476-5.807zM275.714 201.148c3.194 1.902 6.755 9.434 8.129 16.466a7105.184 7105.184 0 00-8.129-16.466zm-93.13 151.479c-5.118 3.497-10.268 7.031-16.363 8.792 5.097-3.549 10.735-6.101 16.363-8.792zm39.277 1.896c4.244-3.473 8.489-6.946 13.281-10.859-4.907 6.336-10.086 10.731-13.281 10.859zm127.53 37.193c3.931 4.741 7.745 9.315 11.692 14.037-3.677-1.799-9.992-9.408-11.692-14.037zm-22.968-174.074c1.517-4.444 3.38-8.684 6.67-12.041.219.126.456.267.658.411-2.447 3.894-4.878 7.77-7.326 11.665l-.002-.035zm98.985 24.276c-4.018 1.147-8.034 2.329-12.053 3.476 3.67-2.401 7.562-4.118 11.861-4.496l.192 1.02z"/></g><defs><clipPath id="clip0_2_1027"><path fill="#fff" transform="rotate(-48.89 256.085 116.407)" d="M0 0h309v408.228H0z"/></clipPath></defs></svg>