<svg width="358" height="365" viewBox="0 0 358 365" fill="none" xmlns="http://www.w3.org/2000/svg">
<g opacity="0.4" clip-path="url(#clip0_2_5724)">
<path d="M156.454 218.18C153.501 221.097 151.191 224.441 149.738 228.277C147.021 235.538 145.974 243.151 145.397 250.84C145.358 251.256 145.279 251.66 145.22 252.069C145.051 252.061 144.863 252.047 144.694 252.039C144.875 249.017 144.867 245.98 145.27 243.003C145.798 239.038 146.436 235.063 147.414 231.169C149.073 224.509 153.087 219.199 157.816 214.359C159.055 213.086 160.452 212.352 162.513 212.972C156.293 218.645 154.043 226.345 151.108 233.689C152.307 228.345 154.017 223.153 156.448 218.2L156.454 218.18Z" fill="#C89663"/>
<path d="M155.477 176.069C140.243 158.756 135.134 138.374 137.349 115.835C136.986 126.516 137.876 137.083 140.815 147.453C143.806 158.01 149.207 167.24 155.497 176.075L155.477 176.069Z" fill="#C89663"/>
<path d="M124.751 193.93C105.347 193.483 86.1886 191.507 68.1572 183.502C77.2034 186.798 86.5834 188.912 96.0713 190.31C105.593 191.74 115.179 192.741 124.751 193.93Z" fill="#C89663"/>
<path d="M131.749 206.032C111.206 209.516 93.7487 219.825 76.3066 230.438C76.5461 230.211 76.7463 229.972 76.9995 229.77C77.2587 229.549 77.5649 229.384 77.8573 229.195C89.5129 221.458 101.388 214.13 114.7 209.498C120.218 207.588 125.857 206.27 131.755 206.013L131.749 206.032Z" fill="#C89663"/>
<path d="M139.012 182.295C139.012 182.295 138.873 182.403 138.782 182.419C138.712 182.44 138.621 182.456 138.543 182.432C138.464 182.409 138.354 182.418 138.307 182.361C138.162 182.275 138.023 182.169 137.909 182.049C127.105 171.217 114.606 162.461 103.019 152.525C107.247 155.548 111.543 158.484 115.702 161.593C119.874 164.727 123.941 168.001 128.002 171.294C136.993 178.547 138.451 180.033 139.018 182.276L139.012 182.295Z" fill="#C89663"/>
<path d="M141.479 313.508C133.431 294.999 133.264 275.761 136.627 256.238C135.285 275.514 132.98 288.026 141.479 313.508Z" fill="#C89663"/>
<path d="M121.071 104.706C118.775 126.729 126.682 145.708 139.038 163.695C134.922 160.3 127.21 146.017 123.821 135.789C120.163 124.818 118.926 111.561 121.071 104.706Z" fill="#C89663"/>
<path d="M108.245 228.84C119.744 218.706 138.332 208.695 145.251 208.958C142.067 210.223 138.815 211.361 135.707 212.799C132.453 214.299 129.277 216.037 126.141 217.787C123.08 219.495 120.069 221.326 117.078 223.162C114.106 225.003 111.189 226.947 108.245 228.84Z" fill="#C89663"/>
<path d="M220.223 134.311C210.373 146.223 200.236 157.877 191.169 170.387C199.278 157.076 209.487 145.465 220.223 134.311Z" fill="#C89663"/>
<path d="M177.106 205.007C184.018 217.042 194.323 224.904 204.425 233.09C202.739 232.006 200.985 231.009 199.362 229.859C191.409 224.135 183.97 217.84 178.444 209.598C177.052 207.534 177.041 207.36 177.086 205.001L177.106 205.007Z" fill="#C89663"/>
<path d="M85.4036 218.684C78.7397 223.626 71.8873 228.34 65.445 233.541C58.9714 238.775 53.9266 245.378 49.2979 252.235C57.5348 236.933 70.7568 226.975 85.4095 218.665L85.4036 218.684Z" fill="#C89663"/>
<path d="M47.2786 186.181L82.2348 196.687C69.8577 194.72 58.1284 191.878 47.259 186.176L47.2786 186.181Z" fill="#C89663"/>
<path d="M222.571 214.224C218.543 210.963 214.045 208.628 209.167 207.055C204.343 205.52 199.491 204.147 194.69 202.533C203.287 203.621 211.499 205.918 219.114 210.13C220.288 210.782 221.334 211.716 222.372 212.605C222.679 212.868 222.759 213.383 222.959 213.786C222.834 213.919 222.728 214.058 222.596 214.211L222.571 214.224Z" fill="#C89663"/>
<path d="M134.893 143.453C138.252 155.488 143.914 166.271 152.388 175.527C145.97 171.889 137.104 156.104 134.893 143.453Z" fill="#C89663"/>
<path d="M187.877 158.63C185.929 162.403 183.85 166.116 182.048 169.976C179.93 174.532 177.957 179.174 176.088 183.826C175.485 185.333 175.415 187.064 174.887 188.679C174.325 187.271 174.4 185.883 174.877 184.509C175.988 181.382 176.862 178.118 178.334 175.142C180.943 169.879 183.907 164.787 186.734 159.654C186.974 159.213 187.358 158.858 187.67 158.461C187.737 158.524 187.829 158.573 187.896 158.636L187.877 158.63Z" fill="#C89663"/>
<path d="M56.6023 156.014C59.6662 155.076 68.0294 158.295 83.5818 166.003C74.5867 162.68 65.5974 159.337 56.6023 156.014Z" fill="#C89663"/>
<path d="M228.705 95.1947C223.908 102.471 219.085 109.761 214.195 117.201C215.241 113.007 225.916 96.4291 228.705 95.1947Z" fill="#C89663"/>
<path d="M89.8894 257.875C82.3027 266.172 73.5737 272.501 69.8916 272.079C77.4839 268.036 83.4256 262.578 89.8894 257.875Z" fill="#C89663"/>
<path d="M142.198 185.008C145.908 178.645 157.585 175.466 166.482 179.828C161.744 179.429 157.624 178.255 153.408 179.253C149.192 180.251 145.347 181.937 142.192 185.028L142.198 185.008Z" fill="#C89663"/>
<path d="M143.762 73.2115C143.976 73.8527 144.166 74.1449 144.107 74.3409C142.213 80.716 140.273 87.0988 138.482 93.0564C138.475 88.9516 141.4 77.224 143.742 73.2056L143.762 73.2115Z" fill="#C89663"/>
<path d="M192.555 118.282C186.725 124.436 184.308 131.978 180.741 138.577C182.446 130.201 188.808 118.715 192.555 118.282Z" fill="#C89663"/>
<path d="M154.727 110.139C155.057 102.631 157.358 95.5448 159.94 88.5215C158.461 95.7908 156.989 103.041 155.51 110.31C155.249 110.253 154.988 110.196 154.727 110.139Z" fill="#C89663"/>
<path d="M193.332 219.798C187.248 215.832 178.956 206.609 178.935 203.761C183.725 209.111 188.522 214.442 193.332 219.798Z" fill="#C89663"/>
<path d="M127.316 220.426C133.639 216.194 140.112 212.028 147.575 209.912C147.657 210.065 147.72 210.212 147.803 210.365C140.974 213.719 134.145 217.073 127.316 220.426Z" fill="#C89663"/>
<path d="M191.892 255.987C188.381 255.423 181.151 246.583 178.537 239.9C182.611 245.569 186.407 251.454 191.892 255.987Z" fill="#C89663"/>
<path d="M148.836 201.658C155.774 205.133 163.411 205.141 170.858 206.14C163.215 206.151 155.597 206.148 148.836 201.658Z" fill="#C89663"/>
<path d="M173.658 209.998C173.51 216.47 177.212 221.6 179.669 227.595C175.312 223.294 171.915 213.448 173.658 209.998Z" fill="#C89663"/>
<path d="M236.985 239.178C232.26 236.241 227.53 233.324 222.641 230.295C226.049 230.849 235.795 236.513 237.261 238.685C237.169 238.849 237.077 239.014 236.985 239.178Z" fill="#C89663"/>
<path d="M122.362 173.894C129.573 177.386 136.303 182.336 137.184 184.887C132.004 181.044 127.196 177.462 122.362 173.894Z" fill="#C89663"/>
<path d="M56.0738 134.915C59.1651 134.669 67.2711 138.173 74.3878 142.833C68.3446 140.227 62.3211 137.626 56.0738 134.915Z" fill="#C89663"/>
<path d="M152.478 181.493C158.342 179.281 163.96 180.029 169.41 182.97C163.862 181.495 158.276 180.286 152.478 181.493Z" fill="#C89663"/>
<path d="M150.645 189.019C153.504 187.977 161.497 191.148 166.207 195.128C160.768 193.216 156.17 189.932 150.645 189.019Z" fill="#C89663"/>
<path d="M172.89 185.919C172.783 179.583 175.963 174.343 178.541 168.899C176.893 174.665 173.635 179.882 172.89 185.919Z" fill="#C89663"/>
<path d="M205.16 201.45C211.984 202.881 218.406 206.008 219.063 208.022C214.433 205.84 209.784 203.652 205.16 201.45Z" fill="#C89663"/>
<path d="M159.659 265.404C157.705 263.577 156.481 254.833 157.299 250.613C158.094 255.66 158.877 260.532 159.659 265.404Z" fill="#C89663"/>
<path d="M180.422 132.305C182.002 126.05 184.462 120.784 186.874 119.522C184.66 123.9 182.44 128.296 180.422 132.305Z" fill="#C89663"/>
<path d="M54.7677 151.723C57.7432 151.506 59.7648 153.182 62.0278 153.841C64.3105 154.505 66.4675 155.517 69.2427 156.607C64.2691 155.711 56.5811 153.165 54.7677 151.723Z" fill="#C89663"/>
<path d="M84.0868 266.429C81.5173 269.781 78.4257 272.591 74.7415 274.668C74.5727 274.446 74.398 274.244 74.2292 274.022C77.5171 271.485 80.799 268.967 84.1065 266.435L84.0868 266.429Z" fill="#C89663"/>
<path d="M219.181 102.457C220.504 99.0517 222.223 95.8933 225.109 92.9144C225.203 93.6692 225.378 94.0849 225.234 94.2769C223.236 97.0096 221.199 99.7306 219.181 102.457Z" fill="#C89663"/>
<path d="M188.009 247.621C191.32 249.706 194.845 253.073 195.599 255.052C192.4 253.022 190.235 250.683 188.009 247.621Z" fill="#C89663"/>
<path d="M136.363 86.4376C136.254 83.2422 136.529 80.1197 137.921 77.2688C138.078 77.316 138.26 77.3495 138.423 77.3771C137.73 80.3953 137.037 83.4135 136.35 86.4121L136.363 86.4376Z" fill="#C89663"/>
<path d="M135.789 198.145C137.528 194.779 139.397 193.546 141.462 194.294C139.632 195.539 137.86 196.737 135.789 198.145Z" fill="#C89663"/>
<path d="M153.968 186.577C156.543 186.838 158.957 187.564 161.463 189.407L153.77 187.094C153.823 186.918 153.895 186.747 153.968 186.577Z" fill="#C89663"/>
<path d="M356.723 83.8591C355.95 84.225 355.155 84.5203 354.429 84.943C341.097 92.7739 330.544 103.534 321.672 116.038C314.626 125.951 307.852 136.03 300.846 145.955C298.385 149.446 295.652 152.77 292.945 156.08C284.13 166.828 273.036 174.263 260.006 179.023C247.22 183.684 234.021 185.807 220.466 186.263C214.993 186.456 209.557 187.173 204.1 187.669C203.285 187.745 202.471 188.035 201.44 188.259C206.008 190.721 210.312 193.062 214.628 195.363C220.71 198.623 226.58 202.161 230.771 207.8C236.083 214.974 239.59 222.887 239.639 231.983C239.718 243.823 230.663 253.089 221.64 255.697C216.036 257.325 210.481 259.075 204.948 260.895C198.671 262.982 192.402 263.62 186.06 261.222C182.355 259.809 178.975 257.811 175.829 255.391C175.166 254.892 174.522 254.4 173.593 253.715C173.372 255.379 173.283 256.741 173.018 258.05C172.317 261.665 170.464 264.697 168.171 267.555C165.335 271.083 162.42 274.587 159.988 278.408C154.868 286.399 152.883 295.354 152.663 304.775C152.59 307.509 152.328 310.23 152.002 312.952C151.59 316.247 150.339 319.269 148.298 321.86C145.377 325.598 141.811 326 137.964 323.135C135.344 321.172 133.542 318.622 132.349 315.614C130.854 311.831 130.118 307.871 129.898 303.831C129.708 300.547 128.978 297.422 128.015 294.29C124.938 284.306 123.635 274.042 124.027 263.626C124.113 261.344 124.602 259.076 124.916 256.607C124.567 256.844 124.233 256.957 124.053 257.202C117.461 265.819 108.53 271.041 98.5335 274.682C94.1603 276.274 89.6831 277.428 84.9921 277.514C80.988 277.593 77.0782 276.93 73.6906 274.673C67.8948 270.816 61.3747 268.728 54.9134 266.444C49.9791 264.705 45.987 261.753 42.9549 257.53C40.0719 253.522 39.4088 249.178 40.683 244.368C42.8544 236.217 47.8482 230.282 54.6848 225.692C56.5339 224.453 58.5183 223.404 60.3536 222.139C63.3961 220.062 66.4856 218.042 69.3593 215.743C73.1889 212.685 77.0263 209.671 81.4741 207.546C81.8255 207.374 82.1278 207.08 82.6735 206.689C81.9394 206.426 81.49 206.141 81.0287 206.109C75.7764 205.642 71.0992 203.403 66.5674 201.036C57.7411 196.439 50.0612 190.306 43.5454 182.793C40.6035 179.408 38.0109 175.787 36.2644 171.63C33.4895 164.984 36.2692 159.58 43.2882 158.014C47.4611 157.089 51.6301 156.248 56.0621 155.315C55.3262 154.132 54.5725 153.222 54.0996 152.161C50.0471 142.93 52.837 132.935 61.9996 128.51C69.162 125.043 76.6108 124.183 84.4774 126.633C94.8504 129.857 103.775 135.338 111.735 142.602C113.162 143.907 114.607 145.153 116.059 146.445C116.224 146.323 116.369 146.196 116.528 146.094C116.153 145.276 115.753 144.472 115.398 143.66C113.492 139.178 111.329 134.767 109.764 130.151C107.701 124.125 107.637 117.931 109.094 111.659C111.976 99.3628 119.237 90.1561 128.998 82.5984C132.064 80.2292 135.227 78.0386 138.874 76.656C140.764 75.9207 142.197 74.6419 143.484 73.0631C145.216 70.9338 146.914 68.7732 148.873 66.8833C151.682 64.1591 155.054 62.694 159.115 62.9957C161.415 63.1742 163.193 64.3069 164.81 65.6904C171.35 71.2028 174.808 78.3531 174.87 86.8333C174.917 92.0183 174.447 97.2832 173.513 102.387C172.433 108.259 170.597 114.011 169.054 119.786C166.6 128.878 163.865 137.906 162.814 147.313C162.698 148.41 162.557 149.522 162.5 150.637C162.478 151.207 162.625 151.786 162.763 152.682C165.403 143.112 169.508 134.581 175.042 126.778C180.308 119.365 186.741 113.2 194.557 108.412C197.287 106.733 199.608 104.353 201.998 102.166C204.389 99.9785 206.531 97.4811 209.002 95.3819C212.447 92.4643 216.518 90.9527 221.124 91.2901C227.348 91.7291 237.378 97.7347 236.68 107.461C236.407 111.289 235.965 115.109 235.692 118.938C235.238 125.575 235.071 132.255 234.428 138.878C233.456 149.163 230.025 158.516 223.311 166.541C219.733 170.829 215.477 174.166 210.523 176.694C204.784 179.627 199.105 182.643 194.298 187.031C193.793 187.499 193.295 187.948 192.804 188.441C192.71 188.541 192.716 188.735 192.657 189.145C194.139 188.842 195.574 188.697 196.902 188.263C204.665 185.788 212.634 184.978 220.739 184.785C233.689 184.489 246.304 182.319 258.556 178.01C272.604 173.065 284.471 165.051 293.474 153.183C300.499 143.906 307.226 134.411 313.834 124.815C320.205 115.576 326.624 106.394 334.657 98.4666C340.781 92.4012 347.547 87.1911 355.055 82.9304C355.781 82.5077 356.61 82.2438 357.371 81.9171L356.776 83.8964L356.723 83.8591ZM141.971 179.211C134.68 168.58 126.567 158.833 117.588 149.831C109.217 141.44 100.446 133.526 89.0681 129.23C83.074 126.959 77.0072 125.071 70.5339 126.673C67.8055 127.349 65.036 128.162 62.5059 129.388C51.6887 134.62 51.4227 147.895 56.6216 154.094C57.018 154.555 57.2241 155.151 57.5263 155.712C54.9334 156.365 52.637 156.957 50.3326 157.503C47.9125 158.079 45.4766 158.565 43.0761 159.147C37.1111 160.624 34.5553 165.283 37.0515 170.862C38.4703 174.045 40.3073 177.119 42.4327 179.873C48.7483 188.053 56.65 194.445 65.6764 199.444C70.4104 202.063 75.3878 204.157 80.7717 205.113C83.1505 205.529 85.4646 205.733 87.8592 204.957C100.718 200.766 113.847 198.024 127.431 197.683C128.766 197.657 130.105 197.546 130.978 197.488C132.064 195.229 132.929 193.417 134.093 190.967C134.131 186.641 135.307 184.794 142.01 179.223L141.971 179.211ZM131.435 198.673C131.2 198.602 131.043 198.555 130.874 198.547C120.593 199.004 110.398 200.171 100.28 202.151C88.6542 204.448 78.3198 209.141 69.4671 217.164C66.6405 219.734 63.2173 221.654 60.0218 223.813C57.5446 225.504 54.9321 227.005 52.5354 228.785C47.0334 232.922 43.235 238.298 41.4013 244.969C40.186 249.368 40.7902 253.482 43.5398 257.15C46.466 261.085 50.2029 263.96 54.9134 265.59C61.5435 267.881 68.258 269.963 74.2305 273.874C76.0165 275.051 78.309 275.612 80.4562 276.087C84.8351 277.039 89.1689 276.291 93.3988 275.105C103.825 272.17 113.184 267.376 120.743 259.455C123.678 256.384 125.953 252.944 127.104 248.76C127.657 246.704 128.55 244.729 129.51 242.817C135.38 231.119 144.089 222.006 155.066 214.963C155.517 214.671 155.908 214.297 156.389 213.907C154.281 213.017 152.408 212.198 150.493 211.452C149.614 211.102 148.711 210.831 147.772 210.677C140.345 209.47 134.724 205.815 131.447 198.634L131.435 198.673ZM182.043 198.113C183.398 196.384 184.34 194.957 185.522 193.731C186.704 192.505 188.132 191.524 189.428 190.418C189.624 190.263 189.773 190.052 189.942 189.846C194.218 184.806 199.525 181.102 205.29 177.942C207.905 176.505 210.396 174.839 212.867 173.167C218.83 169.062 221.572 163.07 222.933 156.193C223.954 150.944 223.982 145.653 224.016 140.343C224.054 132.598 225.55 125.27 229.001 118.273C231.237 113.752 232.855 108.939 233.505 103.857C233.809 101.491 233.434 99.3915 231.487 97.8234C230.165 96.7421 228.816 95.6745 227.387 94.7323C223.625 92.2981 219.964 92.1595 216.225 94.9886C212.645 97.716 209.504 100.832 206.838 104.433C204.901 107.034 202.977 109.661 200.967 112.219C198.508 115.348 195.336 117.428 191.485 118.493C189.428 119.072 187.372 119.715 185.337 120.364C181.543 121.595 178.585 123.89 176.253 127.163C171.459 133.928 167.784 141.242 165.024 149.002C163.966 151.954 163.459 155.135 163.08 158.247C162.22 165.382 164.726 171.926 167.204 178.418C167.514 179.238 168.356 179.854 168.986 180.535C170.4 182.028 172.009 183.367 173.186 185.003C174.702 187.082 176.215 189.097 178.014 190.941C179.286 192.263 180.073 194.06 181.023 195.67C181.386 196.313 181.622 197.025 182.055 198.074L182.043 198.113ZM160.534 109.256C160.701 108.131 160.941 107.049 161.006 105.978C161.157 102.413 161.995 99.0537 163.709 95.9149C165.183 93.217 166.624 90.4876 168.204 87.8642C170.075 84.7726 171.057 81.4352 170.93 77.8713C170.883 76.3187 170.549 74.509 169.701 73.2713C167.978 70.7449 166.012 68.3163 163.764 66.252C160.944 63.6736 157.409 63.1882 153.927 64.8767C152.119 65.765 150.394 67.02 148.945 68.4222C147.245 70.0908 146.007 72.2185 144.373 73.9499C143.048 75.368 141.617 76.9251 139.896 77.6684C133.888 80.2858 128.894 84.2978 124.171 88.6904C117.57 94.8475 112.949 102.177 110.583 110.974C108.901 117.285 109.004 123.491 110.814 129.719C112.811 136.601 116.063 142.942 119.647 149.104C120.679 150.867 121.935 152.527 123.291 154.067C129.487 161.079 135.601 168.151 140.923 175.862C141.635 176.909 142.513 177.835 143.368 178.904C149.18 176.228 155.122 175.685 161.291 176.876C161.25 176.372 161.289 176.171 161.195 176.057C160.808 175.492 160.396 174.941 159.984 174.389C154.437 166.782 149.957 158.62 147.053 149.627C143.846 139.646 143.351 129.69 146.949 119.639C149.334 112.984 153.097 109.862 160.509 109.269L160.534 109.256ZM237.516 238.546C237.626 237.895 237.803 236.88 237.999 235.87C239.011 230.512 237.429 226.019 233.298 222.534C231.468 221.002 229.439 219.708 227.429 218.42C224.87 216.753 222.695 214.732 221.157 212.091C220.213 210.461 219.147 208.88 218.376 207.174C215.885 201.788 212.231 197.357 207.77 193.473C201.864 188.344 193.509 188.162 187.697 193.402C186.118 194.808 184.803 196.55 183.559 198.269C179.552 203.839 175.44 209.334 170.14 213.724C167.092 216.248 164.565 219.1 163.007 222.648C160.162 229.123 159.838 235.756 164.122 241.723C168.285 247.525 173.458 252.456 179.495 256.365C180.93 257.287 182.803 257.679 184.536 257.965C187.291 258.408 189.766 257.293 192.134 256.039C198.686 252.538 205.603 251.241 213.012 252.292C215.538 252.646 218.16 252.75 220.686 252.462C228.62 251.556 234.958 246.773 237.556 238.558L237.516 238.546ZM170.168 212.493C170.079 212.359 169.997 212.206 169.909 212.073C167.836 212.561 165.779 213.353 163.663 213.487C159.321 213.763 155.823 215.789 152.467 218.199C147.024 222.14 142.197 226.736 137.973 231.962C130.186 241.566 125.8 252.599 125.285 264.923C124.874 274.906 126.377 284.717 129.273 294.305C130.13 297.148 130.674 300.111 131.023 303.079C131.504 307.176 131.951 311.242 133.501 315.127C134.73 318.231 136.572 320.858 139.422 322.697C142.015 324.395 144.092 324.25 146.369 322.157C148.526 320.177 149.439 317.566 149.321 314.753C149.219 312.03 148.729 309.319 148.207 306.641C147.238 301.606 145.693 296.633 145.164 291.559C144.275 283.194 146.833 275.822 153.193 270.041C155.604 267.859 158.195 265.86 160.652 263.736C162.731 261.946 164.876 260.219 166.721 258.209C168.629 256.133 169.994 253.659 170.306 250.697C168.538 248.819 166.805 247.038 165.154 245.196C162.934 242.755 161.225 240.04 160.336 236.803C158.193 228.98 161.845 218.966 168.317 214.095C168.976 213.609 169.567 212.996 170.179 212.454L170.168 212.493ZM165.585 178.252C165.591 178.019 165.65 177.823 165.607 177.682C165.358 176.945 165.102 176.227 164.828 175.503C161.225 165.916 160.279 156.102 161.599 145.943C162.778 136.896 165.23 128.167 167.825 119.46C169.979 112.222 172.087 104.993 173.014 97.4936C173.647 92.47 174.105 87.458 173.161 82.4094C173.029 81.7075 172.762 81.029 172.48 80.0466C172.14 80.607 171.952 80.8067 171.907 81.0282C171.078 85.1381 169.125 88.7178 166.936 92.2266C163.982 97.0012 161.722 102.027 162.016 107.885C162.059 108.667 161.584 109.464 161.319 110.346C160.499 110.442 159.83 110.604 159.168 110.597C155.297 110.588 152.284 112.353 150.384 115.543C148.83 118.152 147.491 121.041 146.776 123.988C145.011 131.428 145.303 138.93 147.336 146.336C149.624 154.673 153.345 162.373 158.037 169.616C159.574 171.98 161.238 174.275 162.934 176.537C163.562 177.366 164.215 178.396 165.566 178.246L165.585 178.252ZM180.87 200.239C180.044 195.867 178.162 192.588 174.988 190.117C169.716 186.011 163.698 185.1 157.26 186.156C156.519 186.275 155.79 186.633 155.113 186.964C152.834 188.138 150.555 189.312 148.304 190.537C147.195 191.166 146.055 191.827 145.114 192.677C138.974 198.225 140.995 205.67 146.787 208.329C148.346 209.054 149.939 209.661 151.455 210.459C157.792 213.795 164.161 213.252 170.513 210.631C171.589 210.185 172.737 209.568 173.509 208.711C176.051 205.949 178.439 203.056 180.875 200.219L180.87 200.239ZM171.482 251.627C171.274 251.607 171.066 251.588 170.858 251.568C170.005 257.893 165.571 261.539 161.031 265.11C160.36 265.635 159.655 266.128 159.011 266.704C156.889 268.566 154.687 270.34 152.692 272.348C149.603 275.436 147.563 279.161 146.656 283.461C145.857 287.259 145.812 291.113 146.614 294.923C147.813 300.689 149.102 306.44 150.366 312.204C150.387 312.275 150.589 312.314 150.911 312.453C151.064 310.235 151.267 308.137 151.345 306.024C151.579 300.902 151.754 295.762 153.141 290.794C155.314 282.922 159.161 275.959 164.471 269.755C166.25 267.683 167.981 265.554 169.534 263.307C171.428 260.564 172.207 257.401 172.133 254.088C172.121 253.272 171.682 252.456 171.431 251.655L171.482 251.627ZM220.703 167.104C220.913 166.974 221.162 166.857 221.319 166.691C221.79 166.191 222.228 165.66 222.66 165.149C229.442 157.038 232.569 147.486 233.396 137.115C233.911 130.56 234.153 123.988 234.558 117.443C234.77 113.96 235.072 110.461 235.285 106.977C235.312 106.387 235.106 105.791 235.004 105.205C234.402 105.857 234.207 106.504 234.013 107.151C233.206 109.836 232.53 112.581 231.592 115.205C230.389 118.498 228.824 121.638 227.601 124.925C225.498 130.639 225.264 136.616 225.258 142.618C225.254 151.035 224.682 159.347 220.716 167.129L220.703 167.104ZM172.138 185.927C171.006 182.787 166.017 179.664 162.619 178.579C155.183 176.194 148.083 177.244 141.378 181.041C138.771 182.523 137.04 184.866 135.693 187.495C134.971 188.902 134.751 190.417 135.866 192.12C136.506 192.269 137.363 192.762 138.097 192.598C140.437 192.147 142.822 191.689 144.999 190.783C147.968 189.518 150.818 187.938 153.621 186.302C156.163 184.822 158.913 184.217 161.753 184.451C165.218 184.744 168.635 185.408 172.138 185.927ZM237.233 224.892C235.724 218.306 233.137 212.315 228.69 207.175C224.714 202.604 215.841 196.454 212.506 196.157C215.668 199.308 217.656 203.09 219.593 206.898C220.517 208.736 221.455 210.599 222.684 212.208C223.953 213.893 225.41 215.527 227.088 216.779C230.55 219.358 234.41 221.394 237.239 224.873L237.233 224.892ZM185.446 259.563C185.69 259.679 185.986 259.832 186.294 259.946C191.603 262.076 196.969 262.022 202.371 260.355C208.903 258.344 215.455 256.339 221.974 254.302C222.892 254.022 223.748 253.596 224.626 253.24C220.529 253.911 216.543 253.93 212.547 253.413C205.336 252.485 198.644 253.957 192.202 257.235C190.108 258.293 187.751 258.803 185.421 259.577L185.446 259.563ZM216.422 93.1246C213.481 93.8649 211.277 95.1468 209.365 96.8799C207.157 98.8872 205.056 101.034 203.042 103.249C200.483 106.069 197.652 108.509 194.317 110.349C190.084 112.688 186.505 115.907 183.08 119.258C182.778 119.552 182.628 119.977 182.32 120.504C185.747 119.355 188.892 118.291 192.089 117.265C195.029 116.311 197.495 114.659 199.493 112.353C200.734 110.931 201.941 109.478 203.023 107.944C206.74 102.694 210.731 97.6751 216.056 93.9123C216.164 93.8379 216.198 93.6556 216.447 93.1109L216.422 93.1246ZM140.894 195.041C140.219 193.3 138.941 193.92 137.899 193.756C136.759 193.563 135.642 193.292 134.519 193.04C132.464 195.606 132.291 198.246 134.01 201.071C135.368 203.316 137.243 205.055 139.5 206.374C140.681 207.071 141.714 208.193 143.657 208.136C139.639 204.13 139.914 199.512 140.914 195.047L140.894 195.041Z" fill="#C89663"/>
</g>
<defs>
<clipPath id="clip0_2_5724">
<rect width="294.877" height="284.485" fill="white" transform="translate(0 282.399) rotate(-73.2724)"/>
</clipPath>
</defs>
</svg>
