<svg width="368" height="484" viewBox="0 0 368 484" fill="none" xmlns="http://www.w3.org/2000/svg">
<g opacity="0.4" clip-path="url(#clip0_2_522)">
<path d="M217.187 596C217.083 592.938 216.927 589.893 216.892 586.83C216.822 578.879 216.04 570.98 214.98 563.132C213.519 552.38 211.329 541.783 208.165 531.396C205.853 523.792 202.81 516.467 199.507 509.264C194.883 499.207 190.137 489.22 185.738 479.076C179.515 464.739 175.238 449.793 172.682 434.377C171.292 425.99 169.884 417.586 168.927 409.148C168.006 400.987 167.658 392.757 167.067 384.545C167.032 384.11 167.067 383.675 167.467 383.101C167.745 383.657 168.145 384.197 168.249 384.788C168.441 385.937 168.475 387.102 168.562 388.268C169.153 395.663 169.64 403.075 170.37 410.452C171.5 421.814 173.465 433.072 175.881 444.225C179.271 459.884 184.817 474.778 191.545 489.272C195.926 498.702 200.359 508.133 204.514 517.668C209.364 528.786 212.389 540.478 214.475 552.397C215.727 559.618 216.753 566.908 217.448 574.216C218.074 580.654 218.109 587.161 218.404 593.634C218.439 594.434 218.491 595.234 218.526 596.035H217.222L217.187 596Z" fill="#C89663"/>
<path d="M86.8715 63.6292C85.6893 59.4533 84.455 55.8168 83.6379 52.1107C82.3515 46.3167 81.743 40.4183 82.9425 34.5547C83.4293 32.2058 84.4202 29.8743 85.5502 27.7515C88.3318 22.5491 91.2524 17.3989 94.2774 12.3357C95.6508 10.0563 97.2154 7.8118 99.0582 5.89787C103.822 0.97383 109.628 -0.940108 116.443 0.486645C125.744 2.43538 133.271 6.92443 138.156 15.311C140.625 19.5564 141.842 24.2369 142.607 29.0217C144.085 38.2782 144.71 47.6391 144.363 57C144.224 60.8627 143.111 64.6905 142.416 68.5184C142.294 69.1796 142.085 69.806 141.825 70.7977C142.364 70.4497 142.624 70.3279 142.833 70.1539C153.507 61.1236 165.816 55.434 179.532 53.2591C190.38 51.554 201.246 52.0585 211.642 56.2866C214.875 57.5916 217.883 59.2445 220.299 61.8022C221.082 62.6374 221.847 63.5248 222.455 64.4817C224.924 68.2748 224.454 71.7895 220.873 74.6082C219.204 75.9132 217.24 76.8701 215.31 77.7749C212.946 78.8537 210.46 79.6714 208.043 80.6632C205.383 81.7594 202.932 83.2557 201.141 85.5176C198.116 89.3281 194.066 91.3465 189.546 92.5296C183.844 94.0086 178.072 95.2265 172.37 96.7055C168.145 97.819 163.921 98.95 159.853 100.516C156.237 101.908 152.847 103.909 149.352 105.666C148.97 105.858 148.657 106.223 148.413 106.797C149.022 106.658 149.648 106.571 150.256 106.397C158.601 103.77 167.137 103.63 175.742 104.553C185.86 105.631 195.265 109.024 204.358 113.374C209.104 115.636 213.328 118.681 217.17 122.248C220.664 125.502 223.185 129.382 224.698 133.923C224.993 134.793 225.271 135.68 225.41 136.585C226.141 141.561 224.645 144.223 220.021 146.276C218.474 146.955 216.927 147.599 215.362 148.26C212.32 149.548 210.181 151.705 208.808 154.715C207.661 157.221 206.374 159.674 205.175 162.145C201.419 169.94 194.622 172.619 186.59 173.141C180.367 173.541 174.404 172.01 168.562 170.148C157.506 166.616 147.336 161.379 138.296 154.019C137.791 153.602 137.2 153.288 136.488 152.836C136.922 154.68 137.305 156.281 137.67 157.882C138.348 160.944 137.704 163.832 136.348 166.582C135.844 167.608 135.305 168.652 134.593 169.539C132.193 172.532 131.707 176.047 131.55 179.701C130.768 199.258 135.288 217.736 142.868 235.588C146.779 244.757 150.847 253.857 154.776 263.027C158.323 271.309 160.652 279.974 162.234 288.813C162.878 292.414 162.982 296.12 163.312 299.792C163.747 304.524 164.181 309.257 164.546 313.99C164.633 315.016 165.207 316.217 163.851 317.261C163.121 315.468 163.104 313.763 162.947 312.058C162.095 303.515 161.452 294.955 160.305 286.446C159.209 278.443 156.636 270.787 153.472 263.357C149.439 253.822 145.145 244.392 141.164 234.84C137.026 224.922 133.671 214.743 131.933 204.077C130.698 196.491 130.003 188.87 130.281 181.162C130.316 180.258 130.281 179.353 129.864 178.344C129.499 179.144 129.099 179.944 128.786 180.762C125.048 190.28 117.416 195.082 108.133 197.848C105.421 198.649 102.709 197.848 100.519 196.178C98.4671 194.612 96.6939 192.663 94.9206 190.784C94.1383 189.966 93.5994 188.905 93.0083 187.913C90.0181 182.972 86.715 178.291 82.9425 173.907C79.2917 169.661 76.5276 164.876 75.3454 159.361C74.6848 156.229 74.4936 152.993 74.1285 149.809C74.0415 149.078 74.1285 148.33 74.1285 147.164C73.1375 147.842 72.5117 148.243 71.9206 148.695C67.1572 152.349 61.7505 154.106 55.8224 154.82C47.6168 155.811 39.811 154.454 32.1443 151.67C26.2509 149.53 20.3401 147.373 14.1685 146.12C11.6304 145.598 9.07481 144.971 6.6931 144.015C2.17307 142.17 0.121669 138.568 -2.39094e-05 133.697C-0.156486 127.276 2.5903 122.683 8.25772 119.708C11.7173 117.881 15.4376 116.854 19.2623 116.715C25.5381 116.471 31.8314 116.523 38.1247 116.68C40.4542 116.732 42.7664 117.446 45.548 117.933C44.9395 117.272 44.6266 116.819 44.2267 116.489C39.0809 112.226 34.9259 107.163 31.8488 101.212C29.8496 97.3493 27.1028 94.0782 23.9214 91.1377C21.2093 88.6321 18.4799 86.1788 15.8375 83.6037C10.4656 78.3491 7.19726 71.9287 5.75432 64.5861C5.45878 63.1072 5.49355 61.5064 5.63263 60.0101C5.8934 57.4872 7.84049 55.9038 10.6047 55.8168C13.8904 55.7124 16.9675 56.6694 19.9576 57.8526C21.7309 58.5485 23.452 59.3315 25.4512 60.1841C25.3991 58.9487 25.3817 57.9917 25.2948 57.0348C24.9992 54.1813 26.1814 51.9715 28.2502 50.1272C31.223 47.4825 34.839 46.1253 38.681 45.7078C56.0831 43.846 71.2078 48.944 84.003 60.8975C84.8896 61.7326 85.7589 62.5678 86.8889 63.6292H86.8715ZM123.484 139.908C128.039 142.101 131.463 145.441 134.697 149.095C136.505 151.148 138.608 153.027 140.816 154.646C149.839 161.292 159.714 166.321 170.492 169.418C176.837 171.245 183.235 172.706 189.946 171.453C195.717 170.375 200.585 168.026 203.436 162.58C204.862 159.865 206.339 157.186 207.626 154.402C209.173 151.026 211.555 148.591 214.945 147.112C216.492 146.433 218.039 145.789 219.587 145.111C224.107 143.11 224.802 140.778 224.107 136.028C224.002 135.28 223.689 134.567 223.429 133.836C221.968 129.712 219.639 126.145 216.457 123.153C212.859 119.777 208.912 116.854 204.479 114.679C194.448 109.772 184.035 106.171 172.787 105.249C165.92 104.692 159.227 105.249 152.516 106.693C146.327 108.015 141.599 111.304 137.913 116.297C137.478 116.889 137.27 117.654 137.026 118.35C136.175 120.804 135.74 123.483 134.453 125.693C132.246 129.521 129.603 133.105 126.978 136.689C126.109 137.89 124.77 138.76 123.519 139.891L123.484 139.908ZM26.7898 61.8892C25.6251 61.4194 24.9297 61.1584 24.2517 60.8801C22.1307 59.9927 20.0272 59.0357 17.8889 58.2527C15.4376 57.348 12.8821 56.7912 10.2396 57.0174C8.25772 57.1914 7.12772 58.1483 6.78002 60.0797C6.62356 60.967 6.48448 61.9414 6.67571 62.8114C7.28418 65.5605 7.97957 68.3096 8.76188 71.0239C9.30081 72.9031 10.5351 74.3472 11.9781 75.7044C15.0552 78.5927 18.5669 80.698 22.5306 82.0552C24.4777 82.7337 26.4422 83.3601 28.4066 84.0039C34.2653 85.9352 39.3764 89.0497 43.653 93.5388C47.4081 97.4884 50.0332 102.151 52.3976 106.989C53.9448 110.155 55.4399 113.357 57.0045 116.506C58.5344 119.568 60.6727 122.161 63.3326 124.318C64.9667 125.641 66.7226 126.719 68.8435 126.998C76.2494 127.955 83.6205 128.285 90.9395 126.319C91.7566 126.111 92.5737 125.919 93.4081 125.815C94.7989 125.623 96.1897 125.519 97.3371 125.397C95.8942 122.23 94.2426 119.186 93.0952 115.967C91.2698 110.903 91.1307 105.544 91.7914 100.272C92.4172 95.3309 93.9992 90.6679 98.7974 87.971C98.9017 87.9188 98.9365 87.71 99.006 87.5708C98.4497 83.4297 97.2154 79.5148 94.9554 75.948C89.8269 67.892 83.551 60.9149 75.6236 55.5384C64.932 48.2829 52.9886 45.6556 40.2282 46.5255C36.3167 46.7865 32.5268 47.9697 29.3976 50.5622C26.9115 52.6153 25.5729 55.1034 26.5117 58.4615C26.7725 59.4185 26.7029 60.4625 26.8246 61.8892H26.7898ZM125.692 101.908C126.648 99.3502 127.5 97.0709 128.404 94.6349C128.108 92.3382 126.978 89.7457 129.238 87.5186H131.898C134.662 83.6211 136.974 79.4626 138.904 75.1302C142.207 67.7354 143.789 59.9927 143.285 51.8672C142.955 46.5081 142.659 41.1491 142.259 35.8075C141.842 30.3615 140.903 25.0024 138.991 19.887C134.784 8.61218 122.667 0.504045 110.967 1.23482C104.952 1.61761 100.397 4.43631 98.4671 10.3869C97.4066 13.6406 96.7286 17.0509 96.1549 20.4264C95.3726 24.9502 93.808 28.8651 90.0529 31.8752C85.1678 35.7901 83.6205 41.4275 83.9856 47.3259C84.229 51.3104 85.4981 55.2774 86.6803 59.1401C87.9146 63.1768 89.9486 66.8829 92.4868 70.3105C95.842 74.8344 98.7105 79.6192 99.6493 85.3088C99.771 86.0396 99.9448 86.753 100.084 87.4664C100.571 87.5012 100.866 87.536 101.179 87.5534C103.822 87.6578 104.795 88.2494 105.386 90.8419C105.717 92.2686 105.751 93.9216 105.369 95.3309C104.691 97.8364 105.438 99.907 106.412 101.908C108.307 101.125 110.063 100.412 112.062 99.5938C113.262 97.5928 115.4 97.1231 117.695 97.7668C119.503 98.2714 121.241 99.1414 122.945 99.994C123.953 100.499 124.805 101.282 125.726 101.925L125.692 101.908ZM136.957 160.057C136.627 158.404 136.435 156.734 135.966 155.133C133.862 148.051 128.717 143.771 122.388 140.674C121.867 140.413 121.189 140.395 120.598 140.413C114.983 140.587 110.428 138.255 106.812 134.219C104.865 132.026 102.657 130.182 100.519 128.233C99.3016 127.137 97.9282 126.632 96.3462 126.632C91.774 126.632 87.7755 128.216 84.4028 131.243C76.5797 138.273 73.9199 146.955 76.0408 157.238C77.2751 163.171 79.9524 168.304 83.7075 173.002C86.3326 176.29 88.8707 179.666 91.3394 183.094C92.8692 185.199 94.034 187.583 95.6334 189.618C97.1285 191.532 98.8496 193.342 100.727 194.873C103.422 197.065 106.638 197.518 109.837 196.195C112.792 194.96 115.713 193.551 118.442 191.88C122.302 189.497 125.292 186.173 127.065 181.945C129.203 176.847 131.585 171.888 134.68 167.278C136.105 165.155 136.887 162.736 136.974 160.057H136.957ZM137.861 113.531C138.452 113.009 138.887 112.73 139.182 112.33C140.277 110.851 141.39 109.372 142.346 107.806C145.945 101.925 150.882 97.6798 157.193 94.8785C163.677 91.9902 170.457 90.7027 177.481 90.4069C181.149 90.2503 184.852 90.3721 188.52 90.3373C192.953 90.3025 196.743 88.8409 199.629 85.2915C201.75 82.6815 204.462 80.8198 207.574 79.567C210.129 78.5405 212.754 77.6357 215.258 76.4873C217.048 75.6696 218.856 74.73 220.386 73.4946C223.307 71.1109 223.637 68.327 221.638 65.1255C220.23 62.881 218.387 61.0019 216.092 59.6969C214.041 58.5311 211.902 57.4176 209.695 56.5998C199.733 52.9633 189.494 52.4935 179.132 54.1987C166.476 56.2866 155.193 61.6108 145.023 69.3188C143.459 70.5019 141.964 71.9983 140.99 73.6686C138.139 78.5579 135.549 83.6037 132.802 88.7017C138.07 95.9921 138.243 104.535 137.844 113.496L137.861 113.531ZM85.2373 128.564C82.8035 128.564 80.4391 128.616 78.0748 128.564C74.7891 128.494 71.4686 128.564 68.2177 128.181C62.9849 127.572 58.1693 125.571 53.5971 122.996C48.9554 120.386 44.105 118.159 38.7332 117.95C32.2313 117.707 25.6946 117.759 19.1927 118.002C15.5941 118.124 12.1171 119.133 8.8488 120.786C2.41645 124.04 0.399825 129.434 1.3386 136.08C1.59937 137.994 2.60769 139.264 4.55478 139.821C6.79741 140.465 9.02265 140.883 11.3348 140.291C14.8813 139.386 18.4452 138.516 21.9917 137.559C28.1806 135.889 34.387 135.698 40.5759 137.42C44.8352 138.621 48.5034 141.039 52.1194 143.493C54.5359 145.128 56.9176 146.816 59.4558 148.225C62.7589 150.052 66.2706 150.609 69.7823 148.799C72.2857 147.512 74.5109 146.155 75.3454 142.918C76.0408 140.187 77.6923 137.594 79.3265 135.228C80.9607 132.879 83.1338 130.895 85.2199 128.581L85.2373 128.564ZM12.8125 77.5313C12.6734 77.6879 12.5344 77.8445 12.3953 77.9837C13.4558 79.2712 14.4119 80.6458 15.5941 81.829C17.9236 84.1605 20.3053 86.4572 22.774 88.6321C27.1202 92.4774 30.7536 96.8273 33.5873 101.96C39.7415 113.113 49.2509 120.438 60.8987 125.188C61.5767 125.467 62.3069 125.606 63.4716 125.954C62.9849 125.328 62.8458 125.067 62.6372 124.91C59.1255 122.23 56.8307 118.629 54.9531 114.714C53.2668 111.182 51.5805 107.65 49.8246 104.17C44.8352 94.2869 37.1511 87.5708 26.4943 84.3693C21.557 82.8903 16.7241 81.1678 12.8125 77.5487V77.5313ZM65.0189 151.322C64.5669 151.113 64.3061 150.922 64.0279 150.87C59.9773 150.191 56.6742 147.982 53.3711 145.72C50.7808 143.945 48.1731 142.153 45.4437 140.639C39.7589 137.49 33.6394 136.481 27.2418 137.594C24.1648 138.134 21.1224 138.951 18.0975 139.734C14.6901 140.622 11.3174 141.648 7.7188 141.352C6.67571 141.265 5.65001 141.109 4.60693 141.004C4.53739 141.144 4.48524 141.283 4.4157 141.422C5.51094 142.031 6.55402 142.849 7.73618 143.214C10.5004 144.049 13.3862 144.554 16.1504 145.389C21.5744 147.007 27.0159 148.573 32.3356 150.487C40.489 153.41 48.7642 154.767 57.3696 153.428C59.9251 153.027 62.4807 152.61 65.0189 151.305V151.322ZM119.972 139.752C119.19 135.506 118.564 131.661 117.747 127.85C116.391 121.5 113.296 116.349 107.385 113.148C106.586 112.713 106.029 111.739 105.473 110.956C104.673 109.842 104.03 108.607 103.196 107.528C102.587 106.728 101.735 106.049 100.623 106.432C99.4754 106.832 99.0582 107.841 98.9017 108.955C98.8322 109.477 98.8322 110.033 98.8322 110.555C98.8322 117.15 100.64 123.257 103.978 128.894C107.107 134.166 111.471 137.96 117.573 139.421C118.286 139.595 119.016 139.63 119.955 139.769L119.972 139.752ZM120.98 139.421C124.753 138.012 126.891 135.645 128.438 132.635C129.516 130.547 129.794 128.303 130.073 126.006C130.751 120.334 129.603 115.044 127.013 110.033C126.404 108.833 125.466 107.719 124.44 106.849C122.197 104.953 120.476 105.597 119.833 108.415C119.746 108.781 119.624 109.163 119.642 109.546C119.729 111.408 118.998 112.939 118.025 114.47C116.582 116.715 116.234 119.342 117.017 121.778C118.355 125.884 119.12 130.06 119.694 134.306C119.902 135.924 120.476 137.507 120.98 139.438V139.421ZM93.7732 115.097C93.9645 115.062 94.1557 115.027 94.3469 114.975C94.3643 114.522 94.3991 114.07 94.4165 113.618C94.4512 109.163 95.8246 105.249 98.9017 101.925C100.414 100.307 101.718 98.4976 103.022 96.7055C104.082 95.2613 104.708 93.6084 104.517 91.764C104.239 89.0323 102.466 87.9014 99.8579 88.7191C97.5979 89.4325 96.1202 90.9811 95.0249 93.0168C92.3998 97.8712 92.0521 103.074 92.6432 108.415C92.8866 110.66 93.3908 112.87 93.7906 115.097H93.7732ZM142.833 108.781C143.494 108.589 143.58 108.589 143.65 108.554C144.015 108.276 144.38 107.98 144.728 107.702C149.543 103.822 154.776 100.62 160.739 98.8804C167.189 96.9839 173.708 95.2613 180.21 93.5214C182.835 92.8254 185.512 92.286 188.172 91.677C188.172 91.503 188.138 91.329 188.12 91.1551C187.32 91.1551 186.521 91.1203 185.721 91.1551C182.435 91.2768 179.132 91.4508 175.847 91.5552C170.283 91.7466 164.912 92.8602 159.748 94.8611C153.49 97.2971 147.944 100.742 144.206 106.536C143.806 107.145 143.459 107.789 142.868 108.781H142.833ZM134.28 121.813C134.419 121.9 134.558 121.969 134.714 122.056C134.94 121.43 135.218 120.821 135.392 120.195C137.183 113.357 137.357 106.432 136.209 99.4894C135.705 96.4793 134.766 93.5388 133.028 90.9463C132.263 89.7979 131.411 88.7539 130.003 88.4581C128.769 90.0241 128.473 90.5809 129.029 92.286C130.02 95.3309 131.133 98.341 132.367 101.299C133.323 103.596 134.088 105.858 133.88 108.398C133.775 109.772 133.81 111.164 133.967 112.522C134.314 115.619 135.149 118.681 134.28 121.848V121.813ZM122.093 104.709C126.961 105.892 128.23 110.242 130.055 114.296C130.177 113.896 130.281 113.74 130.264 113.6C129.047 106.919 125.744 101.804 119.259 99.1414C118.355 98.776 117.347 98.6194 116.373 98.4976C113.157 98.1322 111.749 100.864 113.001 103.7C113.279 104.326 113.853 104.901 113.905 105.527C114.131 108.259 116.147 108.833 118.303 109.581C119.12 107.58 119.242 105.231 122.076 104.692L122.093 104.709ZM83.4293 41.9147C84.3507 37.5126 86.2804 33.6847 89.7921 30.8138C92.6258 28.4997 94.0514 25.4722 94.8163 22.0271C95.6508 18.1471 96.5026 14.267 97.3197 10.3695C97.3197 10.2999 97.1806 10.1955 97.0242 10.0215C96.6591 10.5435 96.2766 10.9959 95.9811 11.5179C92.5215 17.5729 89.0098 23.5931 85.6198 29.6829C83.4988 33.4934 83.2729 37.6866 83.4293 41.9147ZM102.17 127.903C101.77 126.893 101.492 126.128 101.179 125.397C99.2146 120.943 98.0325 116.297 97.9803 111.408C97.9803 110.207 98.0499 108.92 98.4149 107.789C99.1103 105.649 100.797 105.092 102.761 106.119C103.196 106.345 103.648 106.536 104.1 106.745C105.525 102.273 105.525 102.238 103.509 97.9234C102.153 99.559 100.971 101.229 99.5623 102.691C92.8866 109.633 93.7211 121.83 102.17 127.903ZM111.071 101.021C107.594 101.751 105.543 103.839 105.23 107.023C104.986 109.685 106.725 111.895 110.237 113.461C111.141 112.8 112.01 112.208 112.827 111.582C114.166 110.555 114.444 109.529 113.905 108.206C112.931 105.823 112.01 103.422 111.054 101.003L111.071 101.021ZM131.237 111.512C132.298 109.442 133.045 107.319 132.611 105.127C132.002 101.995 130.159 99.3502 128.96 96.4271C128.786 96.4445 128.63 96.4793 128.456 96.4967C127.743 98.5498 127.03 100.603 126.474 102.204C128.16 105.527 129.638 108.415 131.22 111.512H131.237ZM131.342 113.305C131.446 113.392 131.533 113.479 131.637 113.566C131.463 118.472 131.272 123.379 131.098 128.285C134.193 122.648 134.123 116.75 132.837 110.364C132.228 111.565 131.794 112.452 131.342 113.322V113.305Z" fill="#C89663"/>
<path d="M23.6955 351.903C24.1475 351.782 24.5995 351.573 25.0689 351.555C31.9184 351.329 38.629 350.024 45.409 349.102C51.737 348.232 58.1346 347.797 64.4974 347.153C70.3039 346.579 76.1278 346.597 81.9343 347.188C98.2412 348.859 113.696 353.034 126.943 363.23C133.063 367.946 138.104 373.705 141.807 380.508C144.711 385.832 148.066 390.843 151.769 395.628C158.862 404.763 163.764 415.029 167.728 425.816C170.631 433.733 173.76 441.58 176.768 449.462C176.942 449.897 177.029 450.384 176.803 450.993C176.212 450.123 175.568 449.271 175.012 448.383C169.866 440.101 164.825 431.732 159.575 423.519C153.785 414.489 147.075 406.155 139.808 398.255C128.769 386.215 115.556 377.829 99.8058 373.235C84.8723 368.885 69.8693 364.866 54.7967 361.038C46.4173 358.915 38.1074 356.566 29.7454 354.322C28.1981 353.904 26.6335 353.574 25.1036 353.139C24.5995 353 24.1301 352.704 23.6433 352.478C23.6781 352.286 23.6955 352.077 23.7302 351.886L23.6955 351.903ZM35.3085 354.2C35.2911 354.287 35.2737 354.374 35.2563 354.461C35.9169 354.687 36.5776 354.966 37.2556 355.157C43.0794 356.74 48.8686 358.393 54.7272 359.855C70.3039 363.77 85.8285 367.841 101.214 372.487C114.652 376.558 126.509 383.188 136.435 393.157C139.356 396.098 142.138 399.195 144.971 402.223C145.476 402.762 145.98 403.301 146.466 403.841C146.588 403.736 146.692 403.649 146.814 403.545C146.397 402.884 146.049 402.188 145.58 401.579C140.556 395.071 135.653 388.442 130.42 382.091C124.231 374.592 116.617 368.781 108.098 364.083C97.3024 358.132 85.4982 356.323 73.4853 355.349C69.9389 355.053 66.375 354.896 62.8111 354.792C53.6494 354.548 44.4876 354.357 35.3258 354.165L35.3085 354.2ZM168.441 432.672C168.562 432.167 168.615 432.097 168.597 432.045C167.884 430.062 167.172 428.078 166.459 426.095C162.669 415.464 157.749 405.441 150.813 396.481C147.11 391.696 143.789 386.667 140.816 381.378C134.697 370.521 125.97 362.413 114.687 357.088C101.996 351.086 88.5405 348.319 74.5806 347.989C71.0167 347.902 67.4528 348.11 63.889 348.389C58.604 348.806 53.319 349.328 48.0515 349.955C43.4445 350.511 38.855 351.26 34.248 351.903C32.4574 352.147 30.6494 352.321 28.8587 352.53C32.5791 352.982 36.282 353.174 39.985 353.261C47.8429 353.435 55.7008 353.539 63.5587 353.713C70.6864 353.87 77.7967 354.322 84.8376 355.488C91.5133 356.601 98.1021 358.028 104.291 360.916C123.258 369.79 138.678 382.874 150.691 399.995C156.532 408.312 161.104 417.343 165.503 426.443C166.459 428.409 167.363 430.375 168.423 432.637L168.441 432.672ZM167.45 433.837C158.219 411.601 146.345 391.226 126.961 376.176C127.082 376.663 127.361 377.063 127.674 377.394C134.106 384.162 139.982 391.418 145.163 399.178C152.36 409.948 159.209 420.962 166.215 431.854C166.633 432.515 167.033 433.176 167.45 433.82V433.837Z" fill="#C89663"/>
<path d="M161.73 293.093C161.591 292.71 161.417 292.345 161.348 291.962C160.357 287.299 161.017 282.688 161.817 278.077C162.043 276.72 162.2 275.346 162.286 273.971C162.86 265.759 163.225 257.529 164.025 249.351C165.051 238.911 167.797 228.907 172.735 219.58C176.333 212.777 180.871 206.566 186.33 201.189C192.866 194.751 199.698 188.609 206.565 182.52C213.293 176.569 221.029 171.958 228.401 166.878C237.232 160.788 245.768 154.35 253.313 146.694C254.286 145.702 255.33 144.798 256.407 143.928C256.929 143.493 257.607 143.232 258.198 142.884C259.085 144.032 258.528 144.92 258.181 145.737C254.843 153.48 251.592 161.292 248.045 168.948C242.969 179.892 236.832 190.228 229.218 199.606C220.23 210.672 209.938 220.45 198.603 229.115C194.674 232.125 190.676 235.083 186.99 238.389C178.002 246.463 170.77 255.858 166.25 267.22C164.234 272.283 163.277 277.555 162.53 282.88C162.165 285.542 162.165 288.239 162.008 290.918C161.974 291.631 162.008 292.345 162.008 293.058C161.904 293.076 161.817 293.093 161.713 293.11L161.73 293.093ZM163.66 269.099C163.799 269.134 163.955 269.169 164.094 269.204C164.181 269.099 164.32 269.03 164.373 268.908C164.512 268.647 164.633 268.386 164.72 268.107C167.78 259.373 172.787 251.839 178.785 244.897C184.104 238.737 190.415 233.691 196.882 228.837C208.947 219.789 219.847 209.506 229.166 197.657C241.213 182.346 249.332 164.842 256.546 146.886C256.72 146.451 256.772 145.963 256.894 145.494C255.851 145.946 255.069 146.572 254.391 147.286C246.655 155.168 237.91 161.797 228.818 168.043C221.447 173.107 213.71 177.735 207 183.685C200.515 189.445 194.014 195.186 187.877 201.294C180.436 208.688 174.456 217.179 170.562 227.045C167.728 234.196 166.076 241.626 165.155 249.229C164.912 251.213 164.825 253.196 164.651 255.371C164.998 255.18 165.103 255.145 165.12 255.093C165.242 254.675 165.364 254.258 165.468 253.84C167.293 246.115 170.631 239.033 174.821 232.317C179.237 225.235 184.191 218.554 190.085 212.69C197.456 205.348 204.896 198.023 212.754 191.202C225.915 179.788 238.884 168.183 249.923 154.628C250.062 154.454 250.288 154.35 250.462 154.211C244.255 162.58 237.51 170.41 229.826 177.369C222.368 184.12 214.736 190.663 207.295 197.396C198.377 205.47 189.685 213.752 182.314 223.321C173.708 234.492 167.137 246.584 164.877 260.695C164.425 263.479 164.077 266.281 163.677 269.064L163.66 269.099Z" fill="#C89663"/>
<path d="M129.968 87.2923C135.01 70.9542 135.184 54.1464 134.975 37.3037C137.218 53.9028 134.228 82.316 129.968 87.2923Z" fill="#C89663"/>
<path d="M116.895 53.0156C118.772 67.9095 119.051 82.96 117.903 98.0105C117.712 98.0279 117.538 98.0453 117.347 98.0627C117.26 97.5408 117.103 97.0014 117.103 96.4794C117.208 91.19 117.416 85.9005 117.451 80.6111C117.503 74.2429 117.486 67.8747 117.382 61.5065C117.347 58.6704 117.051 55.8517 116.878 53.033L116.895 53.0156Z" fill="#C89663"/>
<path d="M170.996 136.116C158.601 131.887 146.258 127.659 133.115 126.354C133.115 126.111 133.15 125.885 133.167 125.641C133.862 125.571 134.558 125.397 135.236 125.432C144.484 125.972 162.443 131.348 170.996 136.116Z" fill="#C89663"/>
<path d="M186.399 117.167C190.78 117.167 195.039 117.967 199.264 118.942C204.323 120.108 209.399 121.238 214.093 123.553C216.475 124.736 218.735 126.215 220.96 127.676C222.142 128.459 223.081 129.538 223.846 131.365C223.081 131.069 222.681 131.052 222.472 130.826C218.352 126.597 213.189 124.127 207.695 122.352C200.724 120.09 193.596 118.472 186.399 117.167Z" fill="#C89663"/>
<path d="M57.4216 66.326C69.8865 73.6859 89.5834 89.1714 92.6083 97.6624C90.0528 94.7219 87.6189 91.6596 84.9243 88.8409C82.1601 85.9699 79.2221 83.2556 76.2145 80.6631C73.2591 78.1228 70.1299 75.7565 67.018 73.3902C63.854 70.989 60.6204 68.6749 57.4216 66.3086V66.326Z" fill="#C89663"/>
<path d="M60.1685 84.0908C71.7467 92.5817 83.4988 100.864 93.0083 111.808C92.7127 112.121 92.6779 112.208 92.6084 112.243C92.5563 112.278 92.4519 112.295 92.3998 112.278C92.2086 112.173 91.9999 112.086 91.8261 111.947C91.6001 111.756 91.3915 111.512 91.1829 111.286C88.523 108.641 86.0196 105.788 83.1685 103.369C76.6318 97.819 69.9039 92.4599 63.263 87.0313C62.1504 86.1266 60.9682 85.274 59.8208 84.404C59.9425 84.2996 60.0468 84.1952 60.1685 84.0908Z" fill="#C89663"/>
<path d="M188.311 74.2432C171.014 78.9062 155.228 86.388 142.277 99.1069C154.811 85.5876 170.596 78.1058 188.311 74.2432Z" fill="#C89663"/>
<path d="M102.622 3.11416C102.413 4.52352 102.066 5.93287 102.031 7.35962C101.927 12.0923 101.805 16.8249 101.961 21.5402C102.083 24.9678 102.605 28.3781 103.022 31.7884C103.509 35.7207 104.065 39.653 104.604 43.5852C104.691 44.2638 104.795 44.9424 104.552 45.6732C103.943 42.2455 103.23 38.8526 102.726 35.4075C102.048 30.7271 101.405 26.0292 100.97 21.3314C100.484 16.0071 100.101 10.6481 101.283 5.34129C101.457 4.55831 101.718 3.79274 101.944 3.00977C102.17 3.04456 102.396 3.07936 102.622 3.11416Z" fill="#C89663"/>
<path d="M98.6409 47.3438C103.109 62.0985 106.881 77.0098 109.159 92.2865C105.647 77.3056 102.153 62.3247 98.6409 47.3438Z" fill="#C89663"/>
<path d="M136.418 134.862C150.534 139.804 162.721 148.208 174.873 156.699C162.339 148.938 149.943 140.97 136.418 134.862Z" fill="#C89663"/>
<path d="M101.04 169.366C100.623 158.874 106.742 138.83 111.123 136.689C110.967 137.264 110.932 137.699 110.741 138.047C106.047 146.659 103.161 155.898 101.249 165.486C101.005 166.756 101.11 168.078 101.04 169.383V169.366Z" fill="#C89663"/>
<path d="M80.2131 127.607C77.4141 129.73 52.4671 133.993 45.6001 133.784C57.1435 131.731 68.6696 129.661 80.2131 127.607Z" fill="#C89663"/>
<path d="M139.373 117.167C146.71 114.087 154.15 112.991 161.661 112.574C169.153 112.156 176.646 112.504 184.104 113.687C183.287 113.687 182.453 113.687 181.636 113.687C180.801 113.67 179.949 113.6 179.115 113.583C172.7 113.479 166.25 113.061 159.853 113.357C153.142 113.67 146.536 114.905 140.173 117.219C140.051 117.254 139.895 117.202 139.391 117.15L139.373 117.167Z" fill="#C89663"/>
<path d="M77.2229 91.7812C81.9342 96.3399 86.6455 100.881 91.6175 105.683C92.0173 101.334 94.8337 98.741 97.6848 96.1311C95.2161 99.7502 91.687 102.917 92.678 107.893C92.5215 107.98 92.4693 108.032 92.3998 108.05C92.3303 108.067 92.226 108.085 92.1912 108.05C91.687 107.58 91.1829 107.128 90.7135 106.623C86.1239 101.803 81.5517 96.9837 76.9622 92.164C77.0491 92.0422 77.136 91.903 77.2403 91.7812H77.2229Z" fill="#C89663"/>
<path d="M125.309 162.162C126.23 167.069 126.856 171.975 126.144 176.969C125.744 179.753 125.552 182.589 125.048 185.356C124.683 187.374 124.092 188.105 122.806 189.236C123.484 186.278 124.37 183.424 124.77 180.501C125.187 177.491 125.205 174.411 125.292 171.349C125.379 168.287 125.309 165.224 125.309 162.162Z" fill="#C89663"/>
<path d="M181.618 85.9532C188.433 82.2993 204.044 78.6802 208.704 79.7938C204.149 80.6638 199.577 81.4119 195.057 82.4385C190.537 83.4651 186.103 84.77 181.618 85.9532Z" fill="#C89663"/>
<path d="M187.894 62.6375C194.657 59.262 211.051 57.2263 216.753 59.0532C215.553 59.523 214.249 59.3142 212.998 59.3142C211.624 59.3142 210.234 59.2794 208.86 59.3142C207.487 59.349 206.113 59.4186 204.74 59.5752C203.297 59.7318 201.871 60.0276 200.446 60.2364C199.09 60.4452 197.717 60.5844 196.378 60.828C195.022 61.0716 193.683 61.3673 192.345 61.6631C191.023 61.9415 189.702 62.2547 187.894 62.6549V62.6375Z" fill="#C89663"/>
<path d="M88.6099 33.4588C89.1489 42.9937 92.4346 51.9196 94.5903 61.1065C92.6084 56.6696 91.2872 52.024 90.0529 47.3435C88.8533 42.7675 87.5147 38.2088 87.6364 33.4762C87.9667 33.4762 88.2796 33.4588 88.6099 33.4414V33.4588Z" fill="#C89663"/>
<path d="M136.8 99.7157C137.026 99.072 137.148 98.3238 137.531 97.767C138.8 95.8705 139.999 93.8695 141.529 92.1992C145.562 87.7797 150.082 83.8997 154.915 80.3676C155.385 80.0196 155.889 79.7412 156.48 79.5498C149.596 85.9006 141.79 91.364 137.374 100.046C137.183 99.9419 136.992 99.8375 136.8 99.7157Z" fill="#C89663"/>
<path d="M80.0393 169C80.1088 168.182 80.0393 167.33 80.2653 166.564C82.2298 159.761 84.8549 153.253 88.5578 147.198C88.6274 147.077 88.8012 147.024 89.1837 146.746C87.5147 150.678 85.8632 154.297 84.4376 158.021C83.0469 161.675 81.8821 165.433 80.6304 169.157C80.4392 169.104 80.2305 169.052 80.0393 169.017V169Z" fill="#C89663"/>
<path d="M38.5593 45.917C41.8972 46.0562 54.1186 54.0947 59.3167 59.4015C52.4497 54.9473 45.6523 50.5278 38.5593 45.917Z" fill="#C89663"/>
<path d="M6.25842 62.7598C13.6469 68.171 21.9047 72.1033 29.7626 76.7315C21.7656 73.1472 13.8382 69.4585 6.71042 64.2735C6.36272 64.0125 6.20626 63.4905 5.96288 63.0904C6.06718 62.986 6.17149 62.8816 6.2758 62.7772L6.25842 62.7598Z" fill="#C89663"/>
<path d="M121.363 71.0762C122.197 83.2906 121.658 96.2357 119.972 98.9501C120.459 89.0846 120.963 79.3583 121.363 71.0762Z" fill="#C89663"/>
<path d="M128.786 26.6734C128.108 19.383 127.43 12.0926 126.752 4.80228C126.874 4.75008 126.995 4.71528 127.134 4.66309C127.343 4.94148 127.691 5.18507 127.725 5.49826C128.786 12.5102 129.151 19.5744 128.769 26.6908L128.786 26.6734Z" fill="#C89663"/>
<path d="M22.7913 127.729C16.2894 128.999 8.91832 130.461 1.47766 131.905C1.06042 131.313 1.4255 131.035 2.05135 130.896C4.43306 130.356 6.78 129.73 9.17909 129.277C13.9773 128.355 18.7928 127.642 22.7913 127.729Z" fill="#C89663"/>
<path d="M74.0242 115.445C67.5223 115.706 54.6402 111.861 52.0499 108.711C53.8057 108.555 54.8488 109.842 56.2048 110.295C57.7173 110.782 59.1776 111.46 60.6901 112C62.1156 112.504 63.5759 112.957 65.0362 113.392C66.5661 113.862 68.0786 114.349 69.6432 114.714C71.1209 115.045 72.6334 115.236 74.0242 115.462V115.445Z" fill="#C89663"/>
<path d="M71.2078 119.464C79.2395 120.386 87.2017 121.987 95.6507 121.517C92.4867 123.292 78.631 122.074 71.2078 119.464Z" fill="#C89663"/>
<path d="M213.206 148.73C207.591 146.416 201.976 144.102 196.361 141.788C196.395 141.683 196.43 141.561 196.465 141.457C198.412 142.049 200.376 142.588 202.306 143.232C204.271 143.876 206.235 144.519 208.113 145.354C209.99 146.172 212.233 146.416 213.537 148.26C213.432 148.417 213.328 148.591 213.224 148.747L213.206 148.73Z" fill="#C89663"/>
<path d="M154.794 125.919C147.996 125.224 141.338 124.11 134.471 124.475C134.749 123.275 135.636 123.536 136.314 123.501C141.686 123.292 146.953 123.884 152.151 125.206C153.038 125.432 153.907 125.676 154.776 125.919H154.794Z" fill="#C89663"/>
<path d="M182.748 158.108C188.364 160.44 196.656 166.913 197.404 169.836C195.596 168.27 194.187 167 192.727 165.799C191.128 164.494 189.476 163.259 187.842 162.006C186.295 160.805 184.73 159.622 182.748 158.108Z" fill="#C89663"/>
<path d="M85.5676 128.581C79.3265 131.156 72.8246 132.653 66.1141 133.401C72.5464 131.609 78.9788 129.817 85.4285 128.024C85.4807 128.216 85.5328 128.407 85.5676 128.581Z" fill="#C89663"/>
<path d="M105.716 110.99C106.777 116.68 107.785 122.091 108.846 127.815C106.429 122.717 105.56 117.55 105.143 112.278C105.108 111.93 105.456 111.564 105.716 110.99Z" fill="#C89663"/>
<path d="M113.175 137.316C111.193 142.867 109.315 148.139 107.507 153.219C107.229 150.14 111.036 138.813 113.175 137.316Z" fill="#C89663"/>
<path d="M68.9826 140.5C65.4535 143.162 57.0914 146.137 54.4315 145.494C59.1428 143.875 63.8715 142.257 68.9826 140.5Z" fill="#C89663"/>
<path d="M129.221 167.435C130.281 172.359 129.725 180.432 127.934 182.746C128.386 177.37 128.838 172.063 129.221 167.435Z" fill="#C89663"/>
<path d="M147.492 82.4727C143.424 87.0487 138.852 91.1898 135.775 96.6184C135.636 94.9306 136.54 93.6953 137.478 92.5295C140.451 88.8234 143.72 85.3958 147.492 82.4727Z" fill="#C89663"/>
<path d="M126.526 136.046C127.308 130.322 125.692 124.98 124.162 119.604C126.995 123.484 128.525 133.471 126.526 136.046Z" fill="#C89663"/>
<path d="M58.1171 54.1816C53.5623 51.2759 49.3552 48.579 44.8178 45.6733C47.4777 45.6211 54.7619 50.4059 58.1171 54.1816Z" fill="#C89663"/>
<path d="M204.219 141.805C209.869 142.483 216.51 144.832 217.935 146.415C217.9 146.485 217.883 146.555 217.831 146.607C217.779 146.659 217.692 146.746 217.657 146.729C213.172 145.093 208.704 143.44 204.219 141.787V141.805Z" fill="#C89663"/>
<path d="M137.079 110.834C136.87 106.119 134.766 102.448 133.237 98.585C136.279 101.873 138.504 108.381 137.079 110.834Z" fill="#C89663"/>
<path d="M207.435 62.0288C211.781 61.3502 216.127 60.8108 220.438 61.8548C220.438 62.0462 220.438 62.2201 220.438 62.4115C216.11 62.2897 211.763 62.1506 207.435 62.0288Z" fill="#C89663"/>
<path d="M0.260727 135.107C3.38998 133.628 6.72785 132.932 10.2569 132.932C6.98862 133.871 3.7029 134.811 0.434574 135.75C0.38242 135.542 0.330266 135.333 0.260727 135.124V135.107Z" fill="#C89663"/>
<path d="M82.4209 171.697C82.5774 168.408 83.7595 165.451 85.3589 162.632C84.6288 165.729 84.0203 168.878 82.4209 171.697Z" fill="#C89663"/>
<path d="M107.49 112.574C107.82 114.227 108.168 115.88 108.498 117.533C108.828 119.238 109.124 120.943 109.472 122.822C107.924 120.247 106.638 114.401 107.49 112.574Z" fill="#C89663"/>
<path d="M130.472 6.71582C131.672 10.0217 131.602 13.4668 131.463 17.4861C130.907 13.5538 130.42 10.1783 129.933 6.78542C130.107 6.76802 130.281 6.73322 130.455 6.71582H130.472Z" fill="#C89663"/>
<path d="M127.708 124.231C128.699 127.224 129.881 130.165 128.595 133.314C128.299 130.286 128.004 127.259 127.708 124.231Z" fill="#C89663"/>
<path d="M118.32 101.525C116.565 103.126 115 104.553 113.522 105.893C113.401 104.17 114.861 102.761 118.32 101.525Z" fill="#C89663"/>
<path d="M109.228 107.006C112.236 107.911 113.47 109.233 113.296 111.147C111.992 109.825 110.619 108.398 109.228 107.006Z" fill="#C89663"/>
<path d="M109.454 105.458C111.819 106.102 113.609 106.954 114.444 109.147C112.879 107.981 111.315 106.815 109.454 105.458Z" fill="#C89663"/>
<path d="M276.139 362.569C275.861 363.056 275.617 363.474 275.305 363.996C275.757 364.239 276.104 364.483 276.504 364.622C281.824 366.571 287.265 368.189 292.863 369.007C299.521 369.981 306.232 370.677 312.942 371.286C317.845 371.721 322.8 371.791 327.719 372.069C312.716 373.009 297.905 371.565 283.319 367.963C280.311 367.215 277.286 366.397 274.348 364.535C276.713 359.872 276.33 355 275.478 350.094C276.713 353.748 277.46 357.436 276.574 361.525C287.335 364.379 298.322 365.527 309.292 366.658C298.148 366.78 287.178 365.44 276.156 362.621L276.139 362.569Z" fill="#C89663"/>
<path d="M279.616 356.028C280.294 356.028 280.972 356.028 281.65 356.028C285.283 355.993 288.951 356.254 292.55 355.854C298.948 355.14 305.363 354.305 311.691 353.035C323.217 350.721 334.447 347.276 345.539 343.396C345.66 343.361 345.817 343.396 346.043 343.604C344.357 344.318 342.705 345.101 340.984 345.71C328.745 350.129 316.28 353.696 303.416 355.714C296.531 356.793 289.577 357.419 282.571 357.106C281.563 357.054 280.572 356.793 279.564 356.619C279.564 356.41 279.581 356.202 279.598 355.993L279.616 356.028Z" fill="#C89663"/>
<path d="M235.441 247.02C235.285 249.629 235.198 252.239 234.972 254.832C234.259 262.662 233.981 270.526 234.138 278.391C234.224 282.306 234.711 286.203 234.989 290.118C235.163 292.571 235.337 295.025 235.441 297.478C235.685 302.489 235.876 307.5 235.876 312.511C235.354 307.43 234.781 302.367 234.329 297.286C233.946 292.884 233.633 288.465 233.39 284.063C233.199 280.653 232.903 277.225 233.042 273.815C233.338 266.924 233.842 260.034 234.364 253.144C234.52 251.091 234.972 249.055 235.302 247.02C235.354 247.02 235.389 247.02 235.441 247.02Z" fill="#C89663"/>
<path d="M285.788 421.675C289.212 427.765 291.316 434.324 293.124 440.988C294.497 446.034 295.627 451.132 296.114 456.352C296.444 459.936 295.992 463.468 295.245 466.966C295.21 467.174 295.054 467.366 294.915 467.522C294.828 467.609 294.671 467.644 294.323 467.801C294.271 467.226 294.097 466.67 294.219 466.183C295.732 459.71 294.915 453.324 293.489 446.974C291.559 438.343 289.073 429.87 285.788 421.675Z" fill="#C89663"/>
<path d="M243.508 398.882C237.614 414.785 235.754 431.262 236.206 448.087C234.659 431.106 236.293 414.576 243.508 398.882Z" fill="#C89663"/>
<path d="M223.915 430.01C226.245 416.299 231.182 403.649 239.37 392.34C239.822 391.713 240.239 390.791 241.752 391.052C240.274 393.14 238.849 395.019 237.597 396.985C236.311 399.004 235.094 401.092 233.981 403.214C232.868 405.337 231.877 407.529 230.921 409.722C229.965 411.914 229.061 414.141 228.209 416.386C227.357 418.63 226.575 420.892 225.845 423.172C225.132 425.434 224.541 427.73 223.898 430.01H223.915Z" fill="#C89663"/>
<path d="M278.243 398.273C288.986 407.234 296.01 418.596 300.078 431.854C301.799 437.44 302.512 443.982 301.712 446.4C301.434 436.813 298.461 428.27 294.445 419.988C290.429 411.706 284.501 404.85 278.26 398.273H278.243Z" fill="#C89663"/>
<path d="M250.931 258.452C248.063 272.684 246.881 287.108 245.142 301.515C245.281 298.696 245.385 295.878 245.542 293.059C245.681 290.519 245.837 287.978 246.081 285.455C246.933 276.947 247.611 268.404 249.54 260.035C249.679 259.443 249.923 258.869 250.131 258.295C250.392 258.347 250.653 258.399 250.914 258.469L250.931 258.452Z" fill="#C89663"/>
<path d="M232.781 355.122C234.85 351.155 246.098 340.802 251.4 338.019C249.94 339.341 248.462 340.681 246.967 342.038C247.558 343.412 246.811 344.404 245.942 345.274C243.195 347.988 240.448 350.668 237.614 353.295C236.032 354.774 234.311 356.114 232.573 357.454C236.641 352.477 241.821 348.545 245.942 343.639C245.803 343.482 245.663 343.325 245.507 343.186C243.334 345.152 241.126 347.084 238.988 349.085C236.884 351.068 234.833 353.121 232.764 355.14L232.781 355.122Z" fill="#C89663"/>
<path d="M287.908 382.074C301.243 388.46 315.307 390.791 328.971 393.801C319.931 394.323 290.551 386.233 287.908 382.074Z" fill="#C89663"/>
<path d="M353.536 386.58C347.017 386.789 340.497 387.242 333.978 387.172C325.199 387.068 316.489 386.18 308.075 383.396C307.814 383.309 307.553 383.205 307.345 382.909C312.351 383.814 317.341 384.997 322.382 385.554C327.493 386.111 332.657 386.145 337.803 386.25C343.035 386.354 348.251 386.267 353.484 386.267C353.484 386.372 353.518 386.476 353.518 386.58H353.536Z" fill="#C89663"/>
<path d="M339.02 289.77C335.751 293.806 313.099 306.699 306.058 308.509C317.306 302.628 327.998 296.486 338.22 289.561C338.324 289.491 338.602 289.665 339.02 289.77Z" fill="#C89663"/>
<path d="M255.017 392.322C260.614 405.633 260.458 419.779 261.014 433.82C259.693 419.9 259.45 405.807 255.017 392.322Z" fill="#C89663"/>
<path d="M267.603 317.47C267.899 316.861 268.125 316.2 268.507 315.643C269.446 314.356 270.385 313.051 271.462 311.868C277.478 305.343 283.945 299.288 291.107 294.016C291.316 293.859 291.542 293.72 291.855 293.668C283.667 301.411 275.009 308.666 268.159 317.731C267.968 317.644 267.794 317.557 267.603 317.453V317.47Z" fill="#C89663"/>
<path d="M218.874 298.069C218.456 297.182 217.918 296.329 217.657 295.407C216.179 290.031 214.614 284.654 213.398 279.208C212.302 274.337 211.624 269.36 210.79 264.436C210.703 263.88 210.79 263.288 210.79 262.418C213.38 274.493 215.501 286.394 219.465 297.861C219.274 297.93 219.082 298 218.891 298.069H218.874Z" fill="#C89663"/>
<path d="M140.955 337.845C146.258 335.583 166.546 335.774 176.09 337.758C170.266 337.532 164.338 337.131 158.41 337.131C152.586 337.131 146.762 337.584 140.955 337.845Z" fill="#C89663"/>
<path d="M357.447 329.476C357.1 329.789 356.995 329.963 356.891 329.946C350.737 329.615 345.035 331.703 339.263 333.374C335.317 334.522 331.388 335.757 327.354 336.697C328.711 336.123 330.049 335.496 331.423 334.992C338.011 332.504 344.704 330.363 351.641 329.058C353.188 328.763 354.822 328.902 356.422 328.902C356.717 328.902 357.013 329.215 357.465 329.476H357.447Z" fill="#C89663"/>
<path d="M258.859 319.21C258.302 316.757 257.763 314.286 257.155 311.589C258.285 302.576 260.701 293.598 263.9 284.794C263.274 287.508 262.666 290.223 262.04 292.937C260.667 299.009 259.293 305.082 257.955 311.154C257.85 311.589 258.094 312.094 258.163 312.563C258.528 314.756 258.911 316.931 259.276 319.123C259.137 319.14 258.998 319.175 258.841 319.193L258.859 319.21Z" fill="#C89663"/>
<path d="M294.515 248.533C288.273 252.657 284.623 258.834 280.45 264.558C279.094 266.42 277.843 268.386 276.313 270.195C276.452 269.778 276.556 269.343 276.765 268.943C280.05 262.748 284.084 257.076 288.673 251.804C289.768 250.569 291.107 249.525 292.428 248.516C292.915 248.15 293.611 247.559 294.497 248.516L294.515 248.533Z" fill="#C89663"/>
<path d="M179.619 269.917C183.113 279.121 187.929 287.142 193.11 294.798C188.364 291.388 178.645 274.058 179.619 269.917Z" fill="#C89663"/>
<path d="M197.612 389.556C206.6 386.111 213.241 379.447 220.264 373.322C220.369 373.427 220.473 373.548 220.577 373.653C218.387 375.828 216.318 378.142 214.006 380.178C210.025 383.692 205.957 387.137 201.002 389.278C199.298 390.008 199.298 390.008 197.612 389.556Z" fill="#C89663"/>
<path d="M182.557 364.518C192.258 362.9 203.036 361.108 213.815 359.315C210.546 361.595 188.781 365.04 182.557 364.518Z" fill="#C89663"/>
<path d="M261.484 356.566C260.458 362.691 259.102 368.694 254.217 373.183C255.103 374.47 255.955 375.706 256.807 376.941C256.685 377.046 256.564 377.167 256.442 377.272C255.434 376.176 254.408 375.062 253.4 373.948C253.203 374.575 253.649 376.303 254.738 379.133C254.252 378.455 253.713 377.811 253.261 377.115C252.791 376.384 252.391 375.619 251.957 374.853C251.227 374.923 250.549 374.975 249.61 375.062C251.07 374.07 252.391 373.322 253.521 372.365C256.303 369.999 258.041 366.919 259.206 363.491C259.989 361.195 260.719 358.881 261.466 356.566H261.484Z" fill="#C89663"/>
<path d="M280.781 349.119C289.821 346.336 298.409 342.438 307.188 338.976C303.398 342.142 283.997 349.746 280.781 349.119Z" fill="#C89663"/>
<path d="M268.055 424.964C270.28 437.056 272.088 449.149 269.898 461.433C269.898 455.343 270.141 449.219 269.828 443.146C269.515 437.074 268.664 431.019 268.055 424.964Z" fill="#C89663"/>
<path d="M252.687 391.644C255.364 395.75 257.572 412.401 257.224 422.702C256.755 418.63 256.268 413.236 255.486 407.877C254.721 402.57 253.678 397.316 252.687 391.644Z" fill="#C89663"/>
<path d="M233.946 461.555C231.721 458.719 231.46 445.513 233.233 437.074C233.251 445.356 232.729 453.482 233.946 461.555Z" fill="#C89663"/>
<path d="M221.533 345.205C222.003 337.341 230.261 326.971 236.606 324.204C232.973 327.092 229.948 330.207 227.288 333.669C224.611 337.149 223.376 341.325 221.533 345.205Z" fill="#C89663"/>
<path d="M281.633 381.187C273.531 379.586 261.432 373.862 259.032 370.312C262.927 372.4 266.369 374.419 269.95 376.141C273.618 377.899 277.408 379.378 281.633 381.187Z" fill="#C89663"/>
<path d="M243.647 242.861C242.639 251.074 241.63 259.286 240.57 267.829C240.153 260.191 241.874 244.601 243.647 242.861Z" fill="#C89663"/>
<path d="M257.92 335.27C261.362 339.324 261.032 350.999 257.572 357.106C258.806 349.815 260.58 342.595 257.92 335.27Z" fill="#C89663"/>
<path d="M275.357 266.542C277.078 259.269 283.979 249.177 287.908 248.081C287.509 249.717 285.961 250.204 285.144 251.283C284.275 252.448 283.267 253.51 282.415 254.675C281.511 255.911 280.711 257.216 279.894 258.503C279.129 259.739 278.364 260.974 277.651 262.244C276.939 263.497 276.278 264.802 275.339 266.559L275.357 266.542Z" fill="#C89663"/>
<path d="M233.999 328.866C235.163 327.84 236.259 326.709 237.51 325.787C240.883 323.316 244.534 321.437 248.689 320.689C250.218 320.41 251.644 320.602 253.087 321.976C252.444 322.081 252.079 322.255 251.818 322.15C249.523 321.315 247.35 321.976 245.264 322.794C241.283 324.36 237.545 326.378 233.999 328.866Z" fill="#C89663"/>
<path d="M306.962 395.489C301.747 394.95 287.23 388.738 286.066 386.563C293.037 389.539 300.06 392.531 306.962 395.489Z" fill="#C89663"/>
<path d="M290.273 446.034C292.272 454.09 292.55 466.948 290.533 469.158C290.707 466.687 290.985 464.234 291.003 461.763C291.003 459.153 290.777 456.526 290.655 453.916C290.533 451.411 290.412 448.905 290.273 446.034Z" fill="#C89663"/>
<path d="M222.264 347.815C220.49 347.884 219.413 347.258 218.509 346.492C215.119 343.621 211.798 340.698 208.512 337.706C207.452 336.731 206.617 335.496 205.835 334.243C208.408 336.592 210.911 339.045 213.589 341.273C216.266 343.482 219.117 345.466 222.246 347.815H222.264Z" fill="#C89663"/>
<path d="M272.384 344.335C272.975 346.475 273.653 348.598 274.122 350.755C275.113 355.279 275.287 359.803 273.549 364.24C273.079 365.423 272.575 366.571 271.132 367.233C275.652 357.576 274.035 354.061 272.384 344.335Z" fill="#C89663"/>
<path d="M208.06 357.489C200.255 359.403 192.31 358.863 184.504 358.846C192.258 358.22 200.098 357.576 207.956 356.967C207.956 356.967 208.008 357.193 208.06 357.506V357.489Z" fill="#C89663"/>
<path d="M229.218 302.559C231.199 308.614 231.547 314.599 231.93 320.567C231.947 320.898 231.599 321.246 231.008 321.559C230.417 315.365 229.843 309.17 229.218 302.559Z" fill="#C89663"/>
<path d="M227.583 368.276C227.949 371.808 221.673 380.456 217.031 383.118C220.908 378.438 225.289 374.123 227.583 368.276Z" fill="#C89663"/>
<path d="M210.303 279.783C212.702 287.23 215.101 294.66 217.535 302.194C215.571 300.297 211.572 287.804 210.303 279.783Z" fill="#C89663"/>
<path d="M263.466 392.235C263.813 392.444 264.23 392.566 264.422 392.844C265.013 393.749 265.586 394.671 266.056 395.645C268.229 400.065 269.933 404.676 271.184 409.443C271.254 409.704 271.219 410 271.236 410.017C268.733 404.258 266.125 398.308 263.466 392.218V392.235Z" fill="#C89663"/>
<path d="M266.039 316.392C266.456 313.295 272.575 304.717 276.661 301.654C272.975 306.77 269.533 311.537 266.039 316.392Z" fill="#C89663"/>
<path d="M343.661 376.28C349.277 375.462 355.083 374.61 361.342 373.705C359.377 375.567 350.094 376.715 343.661 376.28Z" fill="#C89663"/>
<path d="M159.001 331.929C154.515 332.312 148.813 332.817 142.972 333.321C145.093 331.407 152.36 330.937 159.001 331.929Z" fill="#C89663"/>
<path d="M210.216 343.135C214.388 345.501 218.561 347.867 223.116 350.442C222.333 350.529 221.916 350.703 221.603 350.582C217.309 348.824 213.38 346.475 210.216 343.117V343.135Z" fill="#C89663"/>
<path d="M335.856 285.159C335.125 286.83 328.676 291.719 324.382 293.859C327.98 290.205 334.447 285.316 335.856 285.159Z" fill="#C89663"/>
<path d="M184.243 289.318C180.506 284.968 177.098 278.339 177.202 275.659C179.671 280.444 181.966 284.881 184.243 289.318Z" fill="#C89663"/>
<path d="M252.791 261.879C252.913 267.168 251.748 272.336 251.105 277.556C250.705 274.18 251.696 264.019 252.791 261.879Z" fill="#C89663"/>
<path d="M257.207 324.378C256.911 322.516 256.616 320.219 256.164 317.957C255.712 315.713 255.121 313.503 254.599 311.328C256.651 312.546 257.711 318.01 257.19 324.378H257.207Z" fill="#C89663"/>
<path d="M246.307 376.193C247.037 379.691 247.75 383.188 248.48 386.703C247.054 384.615 245.524 378.438 246.307 376.193Z" fill="#C89663"/>
<path d="M273.966 442.346C275.131 445.808 275.461 449.34 275.113 452.907C274.957 452.907 274.8 452.924 274.644 452.942C274.418 449.41 274.192 445.878 273.948 442.328L273.966 442.346Z" fill="#C89663"/>
<path d="M263.431 327.458C264.387 324.882 267.707 323.769 272.923 324.152C269.498 324.848 266.282 325.317 263.431 327.458Z" fill="#C89663"/>
<path d="M353.049 371.878C355.639 371.217 358.038 370.329 360.976 370.26C359.308 371.652 356.961 372.069 353.049 371.878Z" fill="#C89663"/>
<path d="M244.62 382.3C244.238 380.316 243.873 378.333 243.49 376.349C243.699 376.315 243.908 376.262 244.099 376.228C244.916 378.124 244.586 380.264 245.159 382.213C244.968 382.248 244.794 382.265 244.603 382.3H244.62Z" fill="#C89663"/>
<path d="M52.4496 596C53.1102 594.887 53.6839 593.704 54.4315 592.642C59.2992 585.804 65.4708 580.254 72.0596 575.156C80.213 568.857 89.1314 563.759 98.1367 558.818C115.887 549.091 133.654 539.4 151.369 529.622C155.454 527.377 159.4 524.906 163.416 522.523C180.366 512.413 191.858 497.885 198.534 479.355C202.688 467.819 205.766 456.005 208.06 443.999C209.555 436.221 210.668 428.357 211.937 420.545C212.702 415.881 213.38 411.218 214.232 406.573C214.562 404.815 215.258 403.128 215.883 401.144C214.614 401.423 213.554 401.597 212.528 401.858C205.626 403.684 198.707 403.528 191.806 401.962C187.564 401.005 183.722 399.004 180.384 396.22C177.307 393.662 174.369 390.931 171.483 388.164C167.328 384.18 163.312 380.073 159.157 376.072C155.454 372.522 151.282 369.599 146.71 367.267C145.545 366.676 144.397 366.032 143.25 365.406C136.47 361.717 133.88 353.957 135.792 347.241C137.861 339.985 141.077 333.199 145.423 327.023C149.769 320.846 156.063 317.697 163.26 316.165C169.779 314.773 176.385 314.617 183.026 315.104C183.235 315.104 183.444 315.069 183.913 315.034C183.583 314.373 183.339 313.816 183.044 313.294C178.193 305.169 175.812 296.347 175.725 286.9C175.69 283.402 175.846 279.94 176.49 276.46C177.342 271.832 179.532 268.021 182.8 264.733C186.66 260.853 190.397 256.868 194.309 253.075C196.812 250.639 199.438 248.308 202.219 246.202C207.834 241.974 213.936 238.564 220.821 236.841C226.262 235.467 231.669 235.971 236.919 237.851C242.03 239.677 245.82 243.088 248.115 247.994C249.332 250.622 250.236 253.406 251.227 256.137C252.826 260.487 254.391 264.854 256.094 269.535C256.72 268.682 257.085 268.16 257.468 267.656C263.987 258.991 272.21 252.588 282.554 249.143C287.248 247.577 292.168 247.246 297.001 248.238C306.128 250.135 311.847 258.556 310.474 267.743C310.143 269.97 309.831 272.214 309.587 274.442C309.518 275.103 309.709 275.781 309.796 276.651C310.839 276.582 311.621 276.547 312.386 276.477C318.905 275.938 325.216 276.651 330.988 279.922C336.168 282.88 340.184 286.952 341.123 293.146C341.992 298.87 340.949 304.316 337.959 309.327C334.76 314.704 330.484 319.036 324.973 321.994C321.061 324.082 316.976 325.839 312.96 327.736C312.247 328.067 311.517 328.362 310.804 329.024C311.239 329.076 311.691 329.128 312.125 329.163C314.072 329.319 316.037 329.389 317.984 329.632C320.209 329.893 322.313 329.546 324.451 328.971C330.292 327.388 336.203 326.257 342.271 326.066C346.443 325.944 350.563 326.292 354.579 327.44C362.871 329.824 367.496 335.687 367.93 344.283C368.156 348.841 367.6 353.313 366.314 357.663C365.184 361.491 364.001 365.336 362.524 369.042C361.359 371.931 361.394 374.54 363.045 377.15C363.48 377.829 363.81 378.56 364.21 379.256C366.296 382.753 366.209 386.337 364.488 389.904C362.28 394.515 359.099 398.378 355.135 401.579C349.051 406.486 342.044 409.339 334.43 410.888C327.963 412.193 321.426 412.471 314.872 412.158C312.195 412.019 309.552 411.514 306.806 411.149C306.806 411.358 306.753 411.601 306.858 411.723C309.848 415.812 310.908 420.579 311.43 425.451C312.525 435.978 310.526 446.035 306.197 455.639C305.815 456.509 305.363 457.344 304.928 458.179C300.982 465.922 294.445 469.733 285.996 470.846C279.807 471.664 273.792 470.916 267.864 469.28C259.71 467.036 251.418 465.626 243.021 464.635C239.318 464.2 235.737 463.277 232.295 461.799C227.375 459.676 223.689 456.144 220.786 451.742C216.683 445.513 214.249 438.605 212.824 431.332C212.772 431.054 212.772 430.758 212.702 430.462C212.546 429.749 212.389 429.053 211.972 428.305C211.624 430.358 211.294 432.411 210.946 434.481C208.008 451.724 204.218 468.741 197.49 484.975C191.162 500.216 181.236 512.57 167.258 521.357C158.149 527.081 148.778 532.458 139.373 537.695C123.345 546.621 107.142 555.233 91.1133 564.125C81.1518 569.658 71.7641 576.026 63.5411 584.012C59.8207 587.631 56.3438 591.424 53.7013 595.948H52.3975L52.4496 596ZM217.396 400.692C217.135 401.318 216.857 401.91 216.648 402.536C213.745 411.445 212.633 420.562 214.023 429.871C215.205 437.735 217.918 445.078 222.403 451.689C225.393 456.092 229.218 459.519 234.311 461.19C237.475 462.234 240.744 463.051 244.029 463.486C251.818 464.53 259.571 465.661 267.151 467.801C272.94 469.437 278.816 470.255 284.831 469.68C293.124 468.898 299.713 465.452 303.659 457.779C309.17 447.061 311.517 435.769 309.831 423.763C309.379 420.51 308.579 417.326 306.91 414.437C305.519 412.054 303.729 410.314 300.86 409.513C297.296 408.521 293.837 407.147 290.412 405.738C284.014 403.11 278.434 399.195 273.896 394.706C270.419 394.097 267.412 393.61 264.439 393.036C260.354 392.253 256.286 391.679 252.113 392.444C250.618 392.723 249.071 392.671 247.541 392.705C243.63 392.775 240.083 391.714 237.041 389.139C236.676 388.825 236.224 388.617 235.841 388.39C229.148 394.672 231.582 394.219 217.396 400.657V400.692ZM275.252 394.55C276.887 395.82 278.59 397.038 280.155 398.395C284.849 402.414 290.377 403.65 296.375 403.65C301.486 403.65 306.545 403.041 311.534 402.119C319.131 400.727 326.711 400.727 334.308 402.119C338.185 402.814 342.149 403.545 345.973 402.206C349.398 401.022 352.806 399.63 355.918 397.821C359.568 395.698 362.141 392.392 363.706 388.39C364.784 385.641 364.766 382.997 363.236 380.421C362.68 379.482 362.211 378.49 361.654 377.551C359.951 374.714 359.916 371.896 361.133 368.799C362.68 364.884 363.932 360.847 365.114 356.793C366.261 352.861 366.887 348.824 366.644 344.718C366.157 336.314 362.002 331.233 354.961 329.076C351.936 328.154 348.703 327.649 345.539 327.475C338.498 327.075 331.648 328.484 324.868 330.259C322.295 330.937 319.74 331.216 317.097 330.798C312.369 330.067 307.675 330.328 303.068 331.703C300.356 332.521 297.627 333.356 295.001 334.383C291.89 335.6 288.83 336.958 285.84 338.437C283.91 339.394 282.293 340.942 281.789 343.082C281.146 345.814 280.746 348.633 280.503 351.451C279.998 357.228 277.895 362.152 273.444 365.963C273.027 366.311 272.506 366.554 271.897 366.937C274.035 368.555 275.983 369.06 277.964 369.547C279.651 369.964 281.372 370.347 282.989 370.974C285.249 371.826 287.004 373.392 287.856 375.706C290.047 381.605 289.056 387.277 283.249 390.704C280.833 392.131 278.173 393.158 275.235 394.55H275.252ZM308.683 277.695C308.544 276.321 308.283 275.398 308.37 274.511C308.596 271.971 308.961 269.448 309.274 266.925C310.248 259.078 304.911 251.231 297.157 249.595C290.707 248.238 284.379 249.143 278.451 251.996C271.08 255.528 264.7 260.435 259.467 266.768C257.589 269.048 256.286 271.257 256.755 274.633C257.503 280.062 256.599 285.542 255.329 290.867C254.252 295.39 252.791 299.81 251.557 304.299C250.983 306.387 250.444 308.51 250.983 310.685C257.676 309.954 263.657 311.05 268.264 316.583C272.175 317.261 275.6 318.949 277.808 322.586C279.755 325.805 281.024 329.25 281.407 333.008C281.493 333.808 281.685 334.609 281.928 335.914C282.676 334.591 283.145 333.774 283.614 332.956C288.969 323.769 296.41 317.331 307.171 315.504C312.038 314.686 316.976 314.251 321.861 313.538C326.103 312.912 330.327 312.163 334.187 310.11C336.221 309.049 337.75 307.57 338.428 305.36C339.002 303.481 339.645 301.602 339.906 299.671C340.671 294.051 339.489 288.987 335.264 284.846C332.709 282.358 329.823 280.479 326.485 279.313C321.809 277.678 316.993 277.26 312.073 277.678C311.1 277.765 310.109 277.678 308.718 277.678L308.683 277.695ZM212.893 248.168C212.615 248.882 212.389 249.317 212.267 249.804C211.729 251.909 211.311 254.067 210.651 256.137C208.843 261.81 205.157 264.489 199.246 264.924C195.335 265.202 191.441 265.724 187.546 266.229C182.557 266.873 179.271 269.5 178.193 274.581C178.072 275.155 177.88 275.694 177.759 276.268C176.611 281.662 176.664 287.108 177.272 292.554C178.332 301.898 181.722 310.284 187.477 317.714C188.033 318.445 188.711 319.088 189.633 320.132C189.841 318.775 189.998 317.853 190.102 316.948C190.606 312.685 191.719 308.649 194.361 305.186C196.847 301.933 200.081 301.654 202.932 304.577C204.27 305.952 205.4 307.674 206.183 309.432C207.278 311.955 208.078 314.634 208.773 317.296C209.799 321.176 211.485 324.656 214.197 327.632C214.493 327.962 214.875 328.188 215.379 328.606C215.379 327.806 215.449 327.301 215.379 326.814C213.989 319.297 214.562 311.885 216.614 304.56C217.813 300.262 219.308 296.104 222.055 292.502C223.637 290.432 225.515 288.761 227.966 287.822C230.747 286.76 232.781 287.474 234.12 290.171C234.833 291.597 235.163 293.198 235.824 294.642C236.38 295.878 237.006 297.148 237.91 298.122C240.205 300.645 242.065 303.394 242.899 306.717C243.386 308.666 243.734 310.65 244.151 312.651H247.958C248.567 312.181 249.088 311.781 249.54 311.433C249.262 307.135 250.288 303.272 251.557 299.462C253.348 294.068 254.825 288.605 255.416 282.932C256.042 276.912 255.816 271.049 253.261 265.394C251.922 262.419 251.001 259.252 249.871 256.19C248.932 253.667 248.08 251.109 246.95 248.673C245.142 244.793 242.239 241.922 238.449 239.886C233.668 237.329 229.218 237.851 225.01 241.052C223.498 242.2 222.142 243.523 220.699 244.758C218.439 246.689 216.335 249.021 212.876 248.151L212.893 248.168ZM184.887 316.479C184.191 316.357 183.339 316.113 182.487 316.096C176.229 315.991 169.97 316.061 163.816 317.366C156.028 319.019 149.526 322.708 145.249 329.65C141.998 334.939 139.339 340.525 137.322 346.388C136.227 349.555 136.14 352.791 137.113 356.045C137.583 357.611 138.417 358.707 139.843 359.525C143.528 361.595 147.492 362.674 151.664 362.952C156.236 363.266 160.809 363.474 165.381 363.805C171.118 364.205 176.264 366.293 180.853 369.721C184.661 372.574 188.137 375.776 190.971 379.604C193.266 382.701 195.509 385.85 197.63 389.069C200.133 392.862 203.332 395.837 207.313 398.03C210.459 399.77 213.797 400.396 217.17 399.056C220.404 397.769 223.602 396.307 226.627 394.619C229.878 392.792 232.451 390.096 234.746 387.294C234.659 386.964 234.642 386.807 234.572 386.685C230.765 381.396 228.661 375.376 227.201 369.094C227.044 368.398 226.871 367.65 226.506 367.059C225.184 364.919 223.776 362.831 222.298 360.551C221.255 360.656 219.882 360.969 218.526 360.882C210.338 360.256 203.592 356.845 198.551 350.268C195.682 346.527 193.822 342.282 192.362 337.828C190.623 332.521 189.998 327.057 189.719 321.698C188.12 319.976 186.642 318.375 184.887 316.479ZM139.947 361.038C140.295 361.473 140.573 362.013 141.025 362.326C142.885 363.579 144.728 364.936 146.71 365.945C152.064 368.694 156.897 372.139 161.226 376.315C164.477 379.447 167.676 382.649 170.909 385.78C173.465 388.269 176.038 390.739 178.663 393.158C185.512 399.474 193.666 402.153 202.88 401.753C205.209 401.649 207.591 401.614 209.903 400.779C209.695 400.535 209.625 400.413 209.503 400.344C209.329 400.222 209.121 400.135 208.93 400.048C204.079 398.082 200.15 394.95 197.178 390.617C196.065 388.999 195.004 387.346 193.892 385.711C190.224 380.317 186.069 375.376 180.888 371.356C176.976 368.311 172.682 366.067 167.728 365.354C164.79 364.936 161.8 364.745 158.844 364.553C152.464 364.153 146.014 364.083 139.912 361.021L139.947 361.038ZM245.681 344.526C245.924 343.082 246.776 342.056 247.732 341.081C248.793 339.985 249.905 338.924 250.862 337.741C252.861 335.235 252.652 332.956 250.044 330.363C248.793 330.676 247.332 331.024 245.872 331.39C236.658 333.721 230.035 339.463 225.289 347.45C221.951 353.035 222.716 358.724 225.828 364.223C227.131 366.519 229.113 367.267 231.686 367.059C235.615 366.728 239.109 365.11 242.656 363.648C252.079 359.768 255.938 348.024 255.295 340.612C255.208 339.533 254.825 338.628 253.469 338.402C250.497 339.898 248.358 342.525 245.681 344.561V344.526ZM271.515 368.033C268.611 369.129 266.108 370.504 263.448 370.956C260.371 371.478 257.729 372.592 254.964 373.966C247.228 377.812 240.831 377.203 234.902 372.035C233.72 370.991 232.764 369.686 231.565 368.346C230.591 368.277 229.444 368.207 228.366 368.137C228.261 368.468 228.157 368.625 228.192 368.746C229.6 374.192 231.269 379.551 234.468 384.249C235.719 386.076 237.319 387.781 239.092 389.104C242.5 391.679 246.307 391.261 249.314 388.182C250.323 387.155 251.105 385.885 251.922 384.684C253.382 382.509 254.756 380.282 256.251 378.125C258.181 375.341 263.222 373.966 266.438 377.185C267.829 378.577 269.116 380.056 270.472 381.465C271.358 382.388 272.297 383.258 273.201 384.11C275.583 382.875 277.791 382.892 280.051 383.414C280.902 383.606 281.754 383.762 282.623 383.884C285.005 384.232 286.361 383.188 287.248 380.943C288.36 378.125 286.17 373.775 283.806 372.731C281.963 371.931 280.016 371.252 278.051 370.8C275.617 370.225 273.27 369.564 271.549 368.05L271.515 368.033ZM222.107 359.229C222.107 356.88 222.107 354.566 222.107 352.269C222.107 352.06 222.038 351.834 221.968 351.643C221.116 349.346 221.186 346.945 221.134 344.544C221.099 343.256 220.89 341.951 220.543 340.716C219.308 336.436 216.909 332.764 214.006 329.476C210.581 325.613 208.391 321.246 207.174 316.252C206.531 313.66 205.609 311.085 204.427 308.701C203.645 307.135 202.341 305.691 200.933 304.63C198.881 303.064 197.473 303.673 196.708 306.091C195.37 310.319 195.665 314.443 197.751 318.34C198.742 320.185 200.046 321.872 201.159 323.664C202.236 325.387 203.366 327.092 204.323 328.884C206.009 332.086 206.009 335.27 204.062 338.419C203.523 339.289 203.175 340.298 202.706 341.342C203.245 341.412 203.453 341.481 203.662 341.481C206.687 341.481 207.678 342.195 208.46 345.101C208.791 346.353 209.051 347.641 209.312 348.928C209.834 351.521 210.616 353.992 212.285 356.097C214.979 359.507 217.987 360.447 222.142 359.229H222.107ZM233.373 368.294C235.893 372.505 241.717 375.654 246.411 375.149C254.478 374.297 260.458 370.382 263.726 362.726C266.23 356.863 266.769 350.773 265.656 344.544C265.221 342.125 264.526 339.707 262.84 337.775C261.658 336.418 260.354 335.287 257.955 336.001C257.659 336.871 257.103 337.897 256.946 338.993C256.546 341.725 256.529 344.509 255.99 347.206C254.217 355.975 249.732 362.622 240.883 365.632C238.414 366.467 235.98 367.372 233.373 368.294ZM251.07 329.215C252.252 328.067 252.652 326.64 252.67 325.056C252.687 323.456 252.67 321.855 252.843 320.272C253.295 316.252 251.453 314.06 247.419 313.834C243.786 313.625 240.5 314.704 237.51 316.618C230.156 321.35 225.289 327.945 223.307 336.505C222.646 339.324 222.298 342.23 222.038 345.118C221.899 346.632 222.229 348.198 222.351 349.729C230.017 335.131 241.822 330.207 251.07 329.232V329.215ZM243.073 312.859C242.899 311.955 242.726 311.189 242.586 310.389C241.908 306.195 240.396 302.368 237.336 299.357C235.876 297.913 234.972 296.278 234.381 294.381C233.946 293.007 233.512 291.58 232.781 290.345C231.565 288.222 229.791 288.117 228.574 290.188C227.566 291.911 226.679 293.859 226.384 295.808C225.914 299.027 225.914 302.315 225.845 305.586C225.758 310.197 225.15 314.704 223.533 319.054C222.681 321.368 221.968 323.734 221.203 326.083C220.247 329.024 219.934 332.034 220.143 335.113C220.23 336.47 220.647 337.671 221.481 339.098C224.141 326.361 230.8 317.314 243.056 312.859H243.073ZM281.772 339.533L282.241 339.742C283.98 337.636 286.344 336.488 288.743 335.461C291.42 334.33 294.132 333.252 296.879 332.347C305.658 329.458 314.264 326.153 322.487 321.925C326.815 319.697 330.605 316.827 333.7 313.051C334.03 312.651 334.274 312.163 334.552 311.728C329.927 313.573 325.181 314.304 320.47 315C316.524 315.591 312.543 315.904 308.596 316.496C301.312 317.592 295.054 320.689 290.047 326.205C286.831 329.737 284.24 333.669 282.224 337.967C281.998 338.454 281.928 339.011 281.789 339.533H281.772ZM260.649 370.173C260.979 370.26 261.205 370.382 261.397 370.365C262.109 370.26 262.84 370.173 263.535 369.964C271.845 367.476 277.582 362.465 279.129 353.574C279.772 349.833 279.685 346.04 278.938 342.282C278.295 339.011 276.921 336.053 274.974 333.373C273.636 331.512 271.967 329.98 269.689 329.337C266.977 328.571 265.239 329.615 264.735 332.364C264.248 334.939 264.891 337.41 265.552 339.863C266.16 342.108 266.89 344.352 267.151 346.632C268.072 354.896 266.577 362.587 261.24 369.234C261.032 369.495 260.875 369.825 260.649 370.173ZM201.332 342.786C201.611 341.777 201.732 341.099 201.993 340.472C202.549 339.133 203.158 337.81 203.801 336.505C204.653 334.765 204.809 332.991 203.992 331.251C203.036 329.215 201.993 327.214 200.846 325.283C199.924 323.717 198.76 322.307 197.786 320.776C195.7 317.488 194.605 313.921 195.004 310.006C195.143 308.684 195.474 307.379 195.735 305.865C193.84 307.883 192.484 310.928 191.788 314.46C190.763 319.663 190.936 324.882 191.806 330.067C192.849 336.296 194.813 342.195 198.238 347.537C201.28 352.252 205.296 355.801 210.599 357.82C211.172 358.046 211.781 358.185 212.372 358.376C209.764 355.192 208.773 351.504 208.043 347.693C207.834 346.632 207.591 345.553 207.226 344.544C206.531 342.578 205.331 341.951 203.332 342.369C202.793 342.473 202.271 342.595 201.315 342.786H201.332ZM212.215 247.229C215.623 248.134 217.622 246.237 219.656 244.427C220.751 243.453 221.76 242.409 222.924 241.539C224.437 240.408 226.054 239.434 227.636 238.407C228.035 238.146 228.453 237.938 229.2 237.503C224.698 236.981 220.821 237.781 217.066 239.26C208.46 242.653 201.072 247.838 194.622 254.432C191.267 257.877 187.894 261.305 184.539 264.733C184.052 265.237 183.6 265.777 183.061 266.368C183.391 266.455 183.548 266.56 183.652 266.525C188.589 264.82 193.753 264.593 198.881 264.071C205.001 263.445 208.234 261.131 209.99 255.285C210.442 253.754 210.738 252.17 211.137 250.639C211.416 249.613 211.763 248.603 212.198 247.229H212.215ZM247.054 390.948C247.124 391.087 247.211 391.209 247.28 391.348C247.819 391.383 248.358 391.487 248.88 391.453C250.827 391.313 252.791 391.122 254.738 390.965C258.998 390.6 263.1 391.592 267.238 392.444C269.95 393.001 272.662 393.401 275.444 392.723C278.816 391.888 281.911 390.513 284.518 388.199C285.718 387.138 286.918 385.954 287.091 383.919C284.779 385.241 282.589 385.015 280.346 384.545C278.347 384.128 276.33 383.849 274.348 384.65C273.357 385.05 272.471 384.789 271.741 384.058C270.976 383.292 270.246 382.475 269.498 381.692C268.246 380.387 266.995 379.064 265.691 377.794C263.1 375.271 258.98 376.35 257.346 378.525C256.442 379.743 255.59 381.03 254.738 382.283C252.565 385.502 250.983 389.226 247.054 390.965V390.948ZM291.994 404.415C291.994 404.537 291.994 404.641 291.976 404.763C292.133 404.902 292.289 405.076 292.481 405.146C300.669 408.556 309.135 410.853 318.036 410.957C322.521 411.01 327.059 410.679 331.509 410.087C338.794 409.113 345.626 406.712 351.745 402.501C352.441 402.032 353.084 401.51 353.762 401.005C353.414 400.796 353.206 400.796 353.014 400.866C352.614 401.022 352.197 401.179 351.815 401.37C346.078 404.485 340.028 404.589 333.804 403.302C326.52 401.805 319.236 401.927 311.934 403.232C306.858 404.154 301.729 404.833 296.549 404.728C295.036 404.694 293.541 404.502 292.029 404.398L291.994 404.415ZM227.305 290.084C227.166 289.944 227.027 289.805 226.871 289.666C226.054 290.327 225.045 290.849 224.437 291.684C222.907 293.79 221.221 295.878 220.178 298.244C215.866 307.953 214.753 318.114 216.787 328.554C217.1 330.189 217.361 331.964 218.891 333.46C219.169 328.641 220.473 324.326 222.038 320.115C223.985 314.86 224.906 309.467 224.715 303.864C224.558 299.114 224.924 294.416 227.288 290.084H227.305ZM280.589 342.508C280.589 340.333 280.694 338.158 280.572 335.983C280.329 331.581 279.338 327.371 277.078 323.525C274.713 319.489 271.063 317.766 266.595 317.557C265.639 317.505 264.561 317.853 263.691 318.288C261.657 319.297 260.962 321.751 262.162 323.699C263.187 325.352 264.404 326.883 265.552 328.519C267.777 327.562 269.88 327.893 271.88 328.989C273.827 330.067 275.305 331.686 276.504 333.53C278.295 336.296 279.477 339.307 280.607 342.508H280.589ZM266.282 316.218C263.483 312.059 253.991 310.11 249.801 313.016C253.834 314.304 254.008 317.488 253.817 320.846C253.661 323.804 253.973 326.814 252.531 329.598C253.156 330.015 253.608 330.381 254.113 330.659C256.407 331.999 257.676 331.929 259.606 330.12C260.753 329.041 261.727 327.771 262.753 326.622C258.25 320.846 261.066 317.14 266.282 316.218Z" fill="#C89663"/>
</g>
<defs>
<clipPath id="clip0_2_522">
<rect width="368" height="484" fill="white"/>
</clipPath>
</defs>
</svg>
