<svg width="387" height="362" viewBox="0 0 387 362" fill="none" xmlns="http://www.w3.org/2000/svg">
<g opacity="0.4">
<g clip-path="url(#clip0_2_5806)">
<path d="M178.37 212.336C175.552 217.001 173.687 222.005 173.072 227.36C171.948 237.483 173.062 247.517 174.798 257.498C174.882 258.04 174.911 258.58 174.968 259.121C174.751 259.165 174.507 259.208 174.289 259.252C173.548 255.344 172.563 251.478 172.119 247.556C171.517 242.335 171.052 237.066 171.045 231.791C171.015 222.774 174.415 214.717 178.875 207.03C180.042 205.01 181.584 203.625 184.404 203.751C178.314 212.98 177.926 223.512 176.552 233.813C176.361 226.618 176.869 219.455 178.369 212.363L178.37 212.336Z" fill="#C89663"/>
<path d="M163.601 159.01C138.663 141.86 125.617 117.542 121.194 88.1172C124.163 101.84 128.69 115.014 135.76 127.278C142.955 139.763 152.79 149.782 163.628 159.011L163.601 159.01Z" fill="#C89663"/>
<path d="M130.256 191.651C105.432 197.328 80.4288 200.978 54.9226 196.586C67.4875 197.872 80.0972 197.546 92.6146 196.273C105.184 195.03 117.699 193.218 130.256 191.651Z" fill="#C89663"/>
<path d="M143.045 204.816C118.036 215.867 99.1422 234.619 80.3662 253.752C80.5978 253.385 80.7757 253.017 81.033 252.678C81.2915 252.313 81.6282 252.005 81.9392 251.669C94.2791 238.062 107.03 224.904 122.474 214.719C128.878 210.51 135.627 207.016 143.047 204.789L143.045 204.816Z" fill="#C89663"/>
<path d="M144.657 172.242C144.657 172.242 144.515 172.424 144.405 172.473C144.322 172.523 144.212 172.572 144.104 172.567C143.997 172.563 143.86 172.61 143.782 172.553C143.57 172.49 143.358 172.4 143.175 172.284C125.953 161.963 107.243 154.832 89.3128 145.906C95.6611 148.395 102.069 150.753 108.358 153.375C114.672 156.024 120.896 158.885 127.119 161.772C140.885 168.118 143.217 169.54 144.658 172.215L144.657 172.242Z" fill="#C89663"/>
<path d="M189.945 338.59C173.763 317.604 167.37 293.151 165.377 267.199C169.862 292.186 170.95 308.866 189.945 338.59Z" fill="#C89663"/>
<path d="M96.913 79.178C101.067 107.971 117.221 129.602 138.715 148.537C132.39 145.537 117.991 129.825 110.395 117.887C102.218 105.089 96.3857 88.601 96.913 79.178Z" fill="#C89663"/>
<path d="M120.477 241.436C131.847 224.825 152.274 206.088 161.158 204.196C157.515 206.833 153.744 209.33 150.254 212.161C146.597 215.121 143.115 218.357 139.688 221.595C136.344 224.756 133.102 228.057 129.887 231.359C126.699 234.661 123.613 238.077 120.477 241.436Z" fill="#C89663"/>
<path d="M232.538 84.9743C223.836 103.318 214.687 121.427 207.173 140.281C213.211 120.715 222.467 102.638 232.538 84.9743Z" fill="#C89663"/>
<path d="M200.406 188.907C213.063 202.012 228.698 208.71 244.176 215.885C241.683 215.048 239.131 214.342 236.697 213.399C224.743 208.669 213.26 203.044 203.583 194.324C201.15 192.143 201.079 191.925 200.379 188.906L200.406 188.907Z" fill="#C89663"/>
<path d="M88.1603 235.852C81.2715 244.292 74.0701 252.503 67.5466 261.201C60.9939 269.952 56.6985 279.988 53.0137 290.212C58.5749 268.068 72.1936 251.127 88.1615 235.825L88.1603 235.852Z" fill="#C89663"/>
<path d="M29.2267 206.718L77.0637 208.848C60.6887 210.326 44.8569 210.482 29.1998 206.717L29.2267 206.718Z" fill="#C89663"/>
<path d="M261.196 186.017C255.026 183.159 248.554 181.633 241.845 181.199C235.215 180.797 228.603 180.61 221.978 180.099C233.263 178.718 244.446 179.001 255.485 181.914C257.187 182.367 258.818 183.22 260.424 184.018C260.898 184.255 261.166 184.886 261.549 185.333C261.432 185.543 261.342 185.755 261.224 185.992L261.196 186.017Z" fill="#C89663"/>
<path d="M126.939 124.087C135.079 138.337 145.744 150.249 159.497 159.312C150.164 156.744 133.816 139.491 126.939 124.087Z" fill="#C89663"/>
<path d="M199.207 126.362C197.942 131.796 196.491 137.195 195.438 142.692C194.208 149.177 193.19 155.725 192.307 162.253C192.024 164.366 192.49 166.594 192.337 168.821C191.171 167.208 190.82 165.416 190.986 163.513C191.394 159.171 191.457 154.733 192.374 150.468C194.002 142.924 196.136 135.484 198.083 128.035C198.246 127.396 198.621 126.821 198.89 126.214C198.995 126.272 199.129 126.305 199.234 126.363L199.207 126.362Z" fill="#C89663"/>
<path d="M31.3943 165.289C34.9901 163.107 46.6615 164.515 68.9194 169.328C56.4107 167.99 43.9031 166.626 31.3943 165.289Z" fill="#C89663"/>
<path d="M230.761 32.415C226.996 43.2278 223.203 54.0663 219.374 65.1185C219.357 59.4391 227.61 34.8853 230.761 32.415Z" fill="#C89663"/>
<path d="M106.455 284.329C99.4707 297.34 90.4013 308.213 85.582 308.859C93.9402 301.265 99.7445 292.4 106.455 284.329Z" fill="#C89663"/>
<path d="M149.582 174.668C152.257 165.368 166.088 157.56 178.806 160.253C172.651 161.27 167.034 161.101 161.992 163.729C156.95 166.357 152.601 169.743 149.581 174.695L149.582 174.668Z" fill="#C89663"/>
<path d="M115.656 31.7577C116.134 32.5056 116.47 32.8166 116.458 33.0852C116.097 41.8158 115.68 50.5709 115.316 58.7362C113.988 53.5098 113.942 37.6291 115.629 31.7565L115.656 31.7577Z" fill="#C89663"/>
<path d="M192.197 73.463C186.759 83.1786 186.108 93.5649 183.691 103.119C183.168 91.8999 187.571 75.2216 192.197 73.463Z" fill="#C89663"/>
<path d="M141.467 75.2677C139.475 65.598 140.125 55.8307 141.153 46.0532C141.607 55.789 142.063 65.498 142.518 75.2338C142.167 75.2451 141.817 75.2564 141.467 75.2677Z" fill="#C89663"/>
<path d="M225.797 202.526C216.784 199.434 203.274 190.354 202.332 186.733C210.144 192.006 217.958 197.252 225.797 202.526Z" fill="#C89663"/>
<path d="M142.03 224.579C148.712 217.153 155.608 209.763 164.42 204.665C164.574 204.833 164.702 205 164.856 205.169C157.247 211.639 149.639 218.109 142.03 224.579Z" fill="#C89663"/>
<path d="M235.592 249.091C230.945 249.503 218.909 240.57 213.437 232.899C220.44 238.808 227.158 245.082 235.592 249.091Z" fill="#C89663"/>
<path d="M163.373 193.745C173.314 195.937 183.03 193.49 192.823 192.365C183.105 194.838 173.415 197.287 163.373 193.745Z" fill="#C89663"/>
<path d="M197.623 196.373C199.515 204.666 205.871 210.009 210.922 216.854C203.998 212.778 196.515 201.33 197.623 196.373Z" fill="#C89663"/>
<path d="M287.546 213.161C280.593 210.94 273.64 208.747 266.448 206.462C270.96 206.071 285.177 210.149 287.739 212.443C287.675 212.682 287.61 212.921 287.546 213.161Z" fill="#C89663"/>
<path d="M120.781 166.9C131.075 169.027 141.225 173.166 143.165 176.132C135.343 172.904 128.076 169.889 120.781 166.9Z" fill="#C89663"/>
<path d="M23.9447 138.582C27.7977 137.273 39.2338 139.128 49.7829 142.774C41.2589 141.398 32.7618 140.024 23.9447 138.582Z" fill="#C89663"/>
<path d="M161.528 166.885C168.278 162.179 175.663 161.324 183.54 163.317C176.009 163.223 168.516 163.482 161.528 166.885Z" fill="#C89663"/>
<path d="M161.613 177.061C164.916 174.813 176.1 176.279 183.37 179.833C175.838 179.147 168.934 176.445 161.613 177.061Z" fill="#C89663"/>
<path d="M188.913 165.951C186.741 157.914 189.103 150.215 190.633 142.451C190.39 150.326 187.921 158.021 188.913 165.951Z" fill="#C89663"/>
<path d="M234.946 175.348C244.087 174.975 253.259 176.89 254.742 179.244C248.152 177.955 241.535 176.664 234.946 175.348Z" fill="#C89663"/>
<path d="M197.618 271.46C194.544 269.763 190.178 259.018 189.864 253.38C192.496 259.552 195.057 265.506 197.618 271.46Z" fill="#C89663"/>
<path d="M181.27 95.2327C181.271 86.7552 182.708 79.2566 185.371 76.8723C183.961 83.1609 182.549 89.4765 181.27 95.2327Z" fill="#C89663"/>
<path d="M27.6822 160.413C31.3973 159.179 34.5069 160.663 37.597 160.774C40.7139 160.886 43.7824 161.48 47.6627 161.976C41.0486 162.435 30.4522 161.667 27.6822 160.413Z" fill="#C89663"/>
<path d="M101.823 297.095C99.6314 302.191 96.6018 306.766 92.5827 310.597C92.2968 310.369 92.0097 310.168 91.7238 309.94C95.0906 305.649 98.4562 301.385 101.85 297.096L101.823 297.095Z" fill="#C89663"/>
<path d="M220.981 44.7363C221.57 39.9721 222.743 35.3953 225.456 30.6718C225.818 31.6029 226.174 32.0763 226.054 32.3669C224.39 36.4913 222.672 40.6132 220.981 44.7363Z" fill="#C89663"/>
<path d="M227.964 239.681C232.845 241.271 238.41 244.425 240.004 246.703C235.283 245.147 231.778 242.865 227.964 239.681Z" fill="#C89663"/>
<path d="M110.494 50.9857C109.328 46.9507 108.675 42.8847 109.53 38.8051C109.745 38.8146 109.987 38.7985 110.204 38.7813C110.292 42.849 110.38 46.9168 110.469 50.9577L110.494 50.9857Z" fill="#C89663"/>
<path d="M145.649 193.467C146.781 188.618 148.762 186.445 151.629 186.734C149.702 188.91 147.832 191.007 145.649 193.467Z" fill="#C89663"/>
<path d="M165.056 172.882C168.415 172.385 171.719 172.532 175.499 174.073L164.97 173.604C164.98 173.363 165.018 173.122 165.056 172.882Z" fill="#C89663"/>
<path d="M389.952 -23.2305C389.086 -22.5155 388.17 -21.8834 387.382 -21.1111C372.941 -6.84444 362.975 10.259 355.706 29.0435C349.929 43.9382 344.551 58.9584 338.828 73.8555C336.818 79.0948 334.411 84.2087 332.031 89.2969C324.271 105.826 312.548 118.868 297.505 129.125C282.739 139.179 266.632 146.131 249.537 151.076C242.639 153.083 235.954 155.746 229.173 158.135C228.161 158.494 227.218 159.125 225.979 159.742C232.58 161.409 238.806 163.005 245.035 164.547C253.819 166.741 262.422 169.358 269.563 175.193C278.625 182.621 285.628 191.572 288.611 203.143C292.516 218.2 283.975 232.917 273.336 239.145C266.731 243.022 260.228 247.039 253.775 251.138C246.461 255.818 238.692 258.648 229.856 257.636C224.689 257.029 219.748 255.571 214.969 253.501C213.965 253.08 212.988 252.659 211.587 252.086C211.839 254.277 212.164 256.041 212.248 257.794C212.517 262.623 211.134 267.083 209.136 271.461C206.662 276.868 204.08 282.271 202.213 287.92C198.269 299.748 198.621 311.793 201.366 323.865C202.152 327.372 202.694 330.921 203.154 334.494C203.688 338.824 203.068 343.076 201.304 347.034C198.789 352.735 194.382 354.396 188.569 351.984C184.606 350.327 181.495 347.659 179.011 344.211C175.894 339.874 173.686 335.066 172.109 329.99C170.812 325.868 168.879 322.122 166.648 318.443C159.527 306.715 154.573 294.061 151.725 280.666C151.102 277.732 150.995 274.686 150.602 271.439C150.233 271.853 149.845 272.105 149.694 272.475C144.078 285.574 134.396 295.1 122.851 302.956C117.799 306.391 112.476 309.303 106.537 310.923C101.469 312.312 96.2831 312.727 91.2491 310.942C82.6382 307.894 73.6742 307.333 64.7222 306.504C57.8874 305.877 51.8614 303.401 46.648 298.998C41.6936 294.821 39.4546 289.5 39.5303 282.964C39.6739 271.882 44.119 262.714 51.3402 254.666C53.294 252.492 55.4811 250.517 57.4093 248.316C60.6118 244.69 63.8926 241.122 66.8093 237.269C70.6978 232.14 74.6108 227.067 79.5856 222.928C79.9772 222.596 80.2673 222.124 80.8356 221.45C79.8173 221.351 79.1542 221.133 78.5573 221.241C71.7265 222.336 65.0582 220.99 58.5338 219.434C45.8306 216.419 34.0921 211.079 23.3906 203.606C18.5615 200.242 14.1007 196.464 10.5437 191.73C4.87929 184.158 6.67894 176.379 15.1037 172.125C20.1142 169.603 25.1467 167.19 30.4842 164.575C29.1682 163.305 27.9172 162.388 26.9748 161.189C18.8551 150.735 19.1929 137.105 29.4254 128.518C37.4218 121.796 46.62 118.303 57.4128 118.891C71.6425 119.66 84.7545 123.769 97.2133 130.46C99.4473 131.663 101.685 132.785 103.947 133.962C104.118 133.755 104.262 133.546 104.431 133.365C103.692 132.444 102.924 131.549 102.212 130.629C98.3477 125.532 94.1801 120.609 90.7055 115.234C86.1465 108.222 84.0748 100.352 83.9131 91.8937C83.6292 75.3027 89.9072 61.2376 99.8953 48.4682C103.034 44.4633 106.352 40.6549 110.547 37.7198C112.715 36.1746 114.127 34.0844 115.257 31.6588C116.776 28.3892 118.241 25.0903 120.126 22.0523C122.824 17.678 126.642 14.7261 131.904 13.8032C134.887 13.2901 137.513 14.1606 140.015 15.4023C150.103 20.3191 156.798 28.3143 159.602 39.0966C161.327 45.6864 162.421 52.5441 162.872 59.3462C163.384 67.1738 162.897 75.0914 162.79 82.9452C162.589 95.3162 162.01 107.697 163.696 120.018C163.901 121.453 164.078 122.914 164.364 124.353C164.519 125.087 164.892 125.776 165.355 126.874C165.64 113.834 168.12 101.645 172.652 89.9242C176.97 78.7861 183.171 68.8622 191.574 60.2475C194.508 57.2293 196.694 53.4512 199.033 49.8951C201.371 46.3391 203.293 42.4685 205.762 38.999C209.206 34.1735 213.898 30.9376 219.866 29.8846C227.924 28.4402 242.61 32.8619 244.847 45.476C245.729 50.4404 246.394 55.4489 247.277 60.4132C248.831 69.0139 250.765 77.5775 252.075 86.2211C254.142 99.635 252.782 112.654 246.821 125.038C243.647 131.652 239.306 137.271 233.817 142.087C227.459 147.671 221.205 153.34 216.5 160.478C216.009 161.236 215.519 161.968 215.053 162.755C214.965 162.912 215.035 163.158 215.092 163.698C216.88 162.836 218.658 162.188 220.209 161.208C229.288 155.557 239.163 151.96 249.41 149.106C265.787 144.56 281.135 137.735 295.335 128.301C311.614 117.481 324.134 103.451 331.772 85.4369C337.728 71.3575 343.234 57.0966 348.556 42.7467C353.693 28.9269 358.908 15.1645 366.578 2.48013C372.419 -7.21753 379.351 -16.0323 387.532 -23.8765C388.32 -24.6488 389.289 -25.2516 390.153 -25.9128L390.032 -23.2L389.952 -23.2305ZM147.431 167.36C134.743 156.164 121.292 146.361 106.979 137.785C93.6368 129.789 79.9383 122.532 64.0864 120.723C55.7325 119.759 47.4096 119.307 39.6904 123.431C36.4372 125.17 33.1757 127.097 30.3516 129.474C18.2735 139.621 22.1995 156.616 30.8037 162.84C31.4561 163.299 31.9096 163.992 32.4742 164.609C29.3858 166.275 26.655 167.768 23.8996 169.207C21.0064 170.719 18.0642 172.122 15.1979 173.637C8.08511 177.437 6.33091 184.195 11.2982 190.499C14.1254 194.096 17.4492 197.42 21.0374 200.244C31.6982 208.631 43.8019 214.23 56.8889 217.692C63.7517 219.505 70.7555 220.57 77.9104 220.055C81.0697 219.819 84.0786 219.334 86.8752 217.574C101.884 208.096 117.703 200.377 134.872 195.571C136.561 195.108 138.228 194.536 139.32 194.181C139.976 190.954 140.494 188.366 141.188 184.871C139.846 179.348 140.748 176.616 147.485 167.362L147.431 167.36ZM140.283 195.542C139.96 195.528 139.745 195.518 139.528 195.563C126.598 199.454 114.006 204.222 101.772 210.002C87.7228 216.67 76.0858 225.975 67.403 239.045C64.6332 243.228 60.8958 246.775 57.5249 250.554C54.9174 253.506 52.0766 256.26 49.5999 259.298C43.9307 266.339 40.8263 274.409 40.6369 283.497C40.5045 289.493 42.5944 294.538 47.27 298.326C52.2561 302.396 57.9328 304.856 64.4477 305.415C73.617 306.2 82.8263 306.691 91.679 309.75C94.3291 310.675 97.4251 310.651 100.309 310.564C106.184 310.369 111.456 308.02 116.455 305.147C128.774 298.053 139.138 288.933 146.209 276.41C148.955 271.554 150.744 266.439 150.863 260.739C150.907 257.942 151.408 255.139 152.015 252.393C155.723 235.603 163.873 221.191 175.572 208.686C176.053 208.169 176.429 207.567 176.916 206.916C173.949 206.461 171.304 206.02 168.628 205.686C167.397 205.523 166.161 205.468 164.919 205.574C155.084 206.428 146.76 203.582 140.285 195.489L140.283 195.542ZM204.473 178.539C205.641 175.9 206.381 173.78 207.49 171.837C208.599 169.895 210.102 168.186 211.394 166.359C211.594 166.099 211.716 165.782 211.864 165.465C215.683 157.669 221.244 151.242 227.562 145.361C230.426 142.689 233.059 139.765 235.665 136.84C241.931 129.691 243.495 121.176 243.016 111.977C242.629 104.962 240.965 98.2139 239.302 91.4386C236.862 81.5606 236.411 71.7442 238.553 61.7203C239.944 55.2425 240.456 48.5908 239.65 41.9074C239.277 38.7959 238.126 36.2417 235.146 34.871C233.116 33.9194 231.058 32.9935 228.938 32.2532C223.37 30.3636 218.67 31.3653 214.823 36.1729C211.145 40.7996 208.151 45.7798 205.917 51.2244C204.288 55.1619 202.685 59.1275 200.951 63.0333C198.827 67.81 195.461 71.4817 190.905 74.0778C188.474 75.4767 186.067 76.9573 183.686 78.4392C179.256 81.2293 176.231 85.1046 174.316 90.0252C170.392 100.185 168.067 110.685 167.049 121.459C166.651 125.559 167.029 129.774 167.547 133.861C168.744 143.226 174.034 150.755 179.272 158.228C179.93 159.172 181.199 159.686 182.219 160.351C184.496 161.798 186.973 162.984 188.996 164.689C191.591 166.85 194.163 168.929 197.045 170.699C199.087 171.975 200.665 174.009 202.39 175.755C203.059 176.457 203.587 177.288 204.476 178.485L204.473 178.539ZM148.57 72.2735C148.421 70.7866 148.378 69.3314 148.117 67.9473C147.164 63.3565 147.151 58.8077 148.323 54.2578C149.331 50.3465 150.287 46.4059 151.455 42.5555C152.841 38.0151 153.017 33.4478 151.711 28.949C151.152 26.9864 150.146 24.7886 148.67 23.4849C145.667 20.8213 142.386 18.3607 138.864 16.4545C134.449 14.078 129.797 14.5975 125.91 17.8693C123.896 19.5828 122.105 21.7368 120.712 23.9893C119.086 26.662 118.194 29.7711 116.673 32.5023C115.443 34.7352 114.124 37.1793 112.173 38.6803C105.371 43.9484 100.309 50.6665 95.7127 57.7822C89.2942 67.7502 85.7711 78.5738 85.5881 90.5419C85.4751 99.122 87.6006 106.995 91.9023 114.345C96.654 122.469 102.827 129.499 109.365 136.195C111.244 138.109 113.375 139.819 115.595 141.344C125.728 148.281 135.776 155.322 145.023 163.431C146.265 164.536 147.679 165.433 149.11 166.52C155.643 161.24 163.026 158.635 171.255 158.167C171.041 157.538 171.026 157.269 170.869 157.154C170.196 156.559 169.495 155.989 168.794 155.42C159.295 147.515 150.974 138.559 144.392 128.039C137.107 116.358 133.278 103.834 134.626 89.8727C135.522 80.6276 139.306 75.4404 148.542 72.2992L148.57 72.2735ZM288.02 212.186C287.951 211.322 287.849 209.972 287.775 208.623C287.34 201.471 283.885 196.258 277.51 193.148C274.691 191.785 271.695 190.79 268.725 189.797C264.934 188.498 261.519 186.623 258.713 183.753C256.989 181.981 255.125 180.31 253.596 178.385C248.699 172.327 242.627 167.858 235.705 164.347C226.546 159.714 215.86 162.172 210.15 170.718C208.595 173.017 207.481 175.659 206.451 178.25C203.144 186.634 199.678 194.958 194.348 202.256C191.281 206.452 188.984 210.898 188.141 215.92C186.603 225.083 188.321 233.637 195.688 239.859C202.846 245.91 211.01 250.526 219.945 253.561C222.066 254.275 224.574 254.171 226.87 253.977C230.518 253.655 233.308 251.438 235.916 249.078C243.125 242.51 251.506 238.63 261.268 237.585C264.594 237.222 267.963 236.511 271.084 235.331C280.884 231.622 287.409 223.489 288.074 212.189L288.02 212.186ZM193.987 200.679C193.832 200.537 193.678 200.369 193.523 200.228C191.043 201.517 188.681 203.188 186.033 204.039C180.599 205.788 176.801 209.495 173.306 213.645C167.649 220.417 162.986 227.826 159.292 235.843C152.472 250.584 150.438 266.049 153.742 281.913C156.426 294.762 161.489 306.776 168.253 318.057C170.257 321.403 171.9 325.002 173.298 328.67C175.225 333.735 177.1 338.771 180.32 343.22C182.88 346.779 186.067 349.531 190.283 350.957C194.126 352.285 196.721 351.432 198.945 348.032C201.053 344.816 201.375 341.197 200.322 337.652C199.318 334.216 197.823 330.92 196.299 327.676C193.448 321.575 189.887 315.737 187.583 309.445C183.766 299.075 184.651 288.86 190.884 279.449C193.249 275.894 195.902 272.514 198.345 269.016C200.414 266.067 202.589 263.177 204.29 260.023C206.05 256.764 206.99 253.173 206.436 249.3C203.584 247.477 200.807 245.766 198.116 243.95C194.509 241.556 191.462 238.648 189.292 234.811C184.053 225.535 185.481 211.603 192.147 203.315C192.83 202.484 193.385 201.513 193.99 200.625L193.987 200.679ZM177.159 158.537C177.092 158.238 177.104 157.97 177.004 157.804C176.45 156.945 175.895 156.113 175.313 155.28C167.65 144.227 163.295 132.03 161.71 118.664C160.303 106.76 160.618 94.8516 161.122 82.9247C161.536 73.0123 161.896 63.1244 160.666 53.2733C159.857 46.6705 158.829 40.1388 156.006 34.0115C155.614 33.1597 155.056 32.3813 154.381 31.2209C154.129 32.044 153.954 32.3592 153.968 32.6558C154.234 38.1579 152.9 43.3465 151.243 48.5208C149.019 55.5536 147.759 62.6833 150.015 70.0502C150.321 71.0327 149.973 72.2014 149.919 73.4101C148.906 73.7956 148.107 74.2175 147.264 74.4222C142.337 75.6561 139.072 78.8748 137.68 83.5495C136.541 87.3742 135.766 91.4843 135.803 95.4691C135.948 105.514 138.73 114.977 143.694 123.756C149.283 133.64 156.489 142.25 164.784 149.966C167.498 152.482 170.352 154.87 173.235 157.205C174.301 158.06 175.463 159.162 177.132 158.536L177.159 158.537ZM203.663 181.625C201.208 176.321 197.761 172.75 192.93 170.624C184.906 167.091 176.959 167.867 169.11 171.286C168.204 171.676 167.393 172.366 166.638 173.006C164.117 175.235 161.595 177.464 159.125 179.749C157.916 180.906 156.678 182.116 155.755 183.502C149.728 192.545 154.69 201.378 162.912 202.901C165.127 203.323 167.349 203.583 169.532 204.111C178.665 206.321 186.592 203.579 193.829 198.196C195.054 197.281 196.316 196.127 197.022 194.785C199.368 190.449 201.477 185.995 203.664 181.598L203.663 181.625ZM208.23 250.106C207.959 250.148 207.688 250.19 207.417 250.231C208.365 258.563 203.896 264.635 199.269 270.645C198.583 271.53 197.846 272.385 197.212 273.326C195.111 276.381 192.88 279.35 190.988 282.549C188.05 287.478 186.652 292.879 186.88 298.648C187.084 303.744 188.264 308.668 190.508 313.262C193.885 320.221 197.372 327.132 200.831 334.068C200.882 334.151 201.151 334.136 201.606 334.21C201.088 331.334 200.671 328.597 200.093 325.88C198.745 319.281 197.316 312.677 197.483 305.902C197.719 295.175 200.376 285.066 205.137 275.455C206.733 272.243 208.251 268.973 209.504 265.611C211.033 261.507 211.008 257.227 209.849 253.031C209.572 251.996 208.751 251.098 208.174 250.157L208.23 250.106ZM243.684 126.594C243.91 126.361 244.189 126.132 244.335 125.869C244.774 125.081 245.16 124.264 245.545 123.474C251.566 110.958 252.475 97.7846 250.196 84.3074C248.745 75.7921 246.941 67.3419 245.354 58.8743C244.505 54.369 243.766 49.8147 242.917 45.3093C242.762 44.5489 242.308 43.8559 241.99 43.142C241.433 44.1668 241.394 45.0532 241.354 45.9396C241.191 49.6193 241.214 53.3343 240.863 56.9788C240.39 61.5599 239.409 66.0645 238.909 70.6443C238.07 78.6001 239.692 86.2887 241.613 93.9367C244.311 104.661 246.253 115.432 243.71 126.622L243.684 126.594ZM187.96 166.204C185.511 162.57 178.162 160.197 173.492 159.908C163.267 159.265 154.574 162.887 147.265 169.882C144.426 172.609 142.976 176.15 142.108 179.933C141.641 181.958 141.848 183.959 143.813 185.769C144.675 185.753 145.924 186.105 146.805 185.66C149.636 184.332 152.522 182.981 155 181.126C158.371 178.558 161.488 175.629 164.528 172.643C167.286 169.939 170.589 168.283 174.277 167.667C178.777 166.926 183.337 166.671 187.96 166.204ZM283.273 194.885C279.238 186.981 274.024 180.183 266.716 175.067C260.19 170.524 246.928 165.546 242.591 166.241C247.625 169.238 251.369 173.414 255.056 177.642C256.822 179.686 258.613 181.757 260.693 183.411C262.849 185.148 265.226 186.761 267.763 187.816C272.995 189.987 278.56 191.338 283.274 194.858L283.273 194.885ZM228.542 255.72C228.888 255.79 229.315 255.889 229.743 255.935C237.18 256.939 243.988 255.143 250.324 251.281C257.986 246.616 265.676 241.953 273.312 237.26C274.391 236.608 275.343 235.789 276.344 235.054C271.349 237.226 266.285 238.535 261.036 239.162C251.566 240.302 243.528 244.331 236.387 250.579C234.063 252.602 231.228 254.01 228.514 255.746L228.542 255.72ZM214.474 33.7352C210.972 35.6247 208.58 37.9673 206.705 40.7904C204.541 44.0581 202.559 47.4685 200.709 50.9386C198.359 55.3554 195.543 59.3746 191.892 62.7914C187.258 67.1334 183.74 72.3863 180.46 77.7573C180.17 78.2289 180.117 78.8186 179.894 79.5891C183.884 77.0217 187.542 74.6547 191.279 72.3182C194.713 70.1566 197.318 67.2583 199.119 63.6784C200.24 61.4676 201.308 59.2276 202.191 56.9255C205.234 49.0409 208.698 41.3635 214.262 34.8561C214.376 34.7266 214.36 34.4837 214.502 33.7096L214.474 33.7352ZM151.147 187.872C149.729 185.871 148.303 187.072 146.925 187.199C145.412 187.32 143.905 187.334 142.396 187.374C140.606 191.305 141.234 194.724 144.328 197.768C146.777 200.191 149.719 201.803 153.014 202.757C154.741 203.264 156.414 204.361 158.868 203.663C152.471 199.853 151.337 193.882 151.174 187.873L151.147 187.872Z" fill="#C89663"/>
</g>
<g clip-path="url(#clip1_2_5806)">
<path d="M178.37 212.336C175.552 217.001 173.687 222.005 173.072 227.36C171.948 237.483 173.062 247.517 174.798 257.498C174.882 258.04 174.911 258.58 174.968 259.121C174.751 259.165 174.507 259.208 174.289 259.252C173.548 255.344 172.563 251.478 172.119 247.556C171.517 242.335 171.052 237.066 171.045 231.791C171.015 222.774 174.415 214.717 178.875 207.03C180.042 205.01 181.584 203.625 184.404 203.751C178.314 212.98 177.926 223.512 176.552 233.813C176.361 226.618 176.869 219.455 178.369 212.363L178.37 212.336Z" fill="#C89663"/>
<path d="M163.601 159.01C138.663 141.86 125.617 117.542 121.194 88.1172C124.163 101.84 128.69 115.014 135.76 127.278C142.955 139.763 152.79 149.782 163.628 159.011L163.601 159.01Z" fill="#C89663"/>
<path d="M130.256 191.651C105.432 197.328 80.4288 200.978 54.9226 196.586C67.4875 197.872 80.0972 197.546 92.6146 196.273C105.184 195.03 117.699 193.218 130.256 191.651Z" fill="#C89663"/>
<path d="M143.045 204.816C118.036 215.867 99.1422 234.619 80.3662 253.752C80.5978 253.385 80.7757 253.017 81.033 252.678C81.2915 252.313 81.6282 252.005 81.9392 251.669C94.2791 238.062 107.03 224.904 122.474 214.719C128.878 210.51 135.627 207.016 143.047 204.789L143.045 204.816Z" fill="#C89663"/>
<path d="M144.657 172.242C144.657 172.242 144.515 172.424 144.405 172.473C144.322 172.523 144.212 172.572 144.104 172.567C143.997 172.563 143.86 172.61 143.782 172.553C143.57 172.49 143.358 172.4 143.175 172.284C125.953 161.963 107.243 154.832 89.3128 145.906C95.6611 148.395 102.069 150.753 108.358 153.375C114.672 156.024 120.896 158.885 127.119 161.772C140.885 168.118 143.217 169.54 144.658 172.215L144.657 172.242Z" fill="#C89663"/>
<path d="M189.945 338.59C173.763 317.604 167.37 293.151 165.377 267.199C169.862 292.186 170.95 308.866 189.945 338.59Z" fill="#C89663"/>
<path d="M96.913 79.178C101.067 107.971 117.221 129.602 138.715 148.537C132.39 145.537 117.991 129.825 110.395 117.887C102.218 105.089 96.3857 88.601 96.913 79.178Z" fill="#C89663"/>
<path d="M120.477 241.436C131.847 224.825 152.274 206.088 161.158 204.196C157.515 206.833 153.744 209.33 150.254 212.161C146.597 215.121 143.115 218.357 139.688 221.595C136.344 224.756 133.102 228.057 129.887 231.359C126.699 234.661 123.613 238.077 120.477 241.436Z" fill="#C89663"/>
<path d="M232.538 84.9743C223.836 103.318 214.687 121.427 207.173 140.281C213.211 120.715 222.467 102.638 232.538 84.9743Z" fill="#C89663"/>
<path d="M200.406 188.907C213.063 202.012 228.698 208.71 244.176 215.885C241.683 215.048 239.131 214.342 236.697 213.399C224.743 208.669 213.26 203.044 203.583 194.324C201.15 192.143 201.079 191.925 200.379 188.906L200.406 188.907Z" fill="#C89663"/>
<path d="M88.1603 235.852C81.2715 244.292 74.0701 252.503 67.5466 261.201C60.9939 269.952 56.6985 279.988 53.0137 290.212C58.5749 268.068 72.1936 251.127 88.1615 235.825L88.1603 235.852Z" fill="#C89663"/>
<path d="M29.2267 206.718L77.0637 208.848C60.6887 210.326 44.8569 210.482 29.1998 206.717L29.2267 206.718Z" fill="#C89663"/>
<path d="M261.196 186.017C255.026 183.159 248.554 181.633 241.845 181.199C235.215 180.797 228.603 180.61 221.978 180.099C233.263 178.718 244.446 179.001 255.485 181.914C257.187 182.367 258.818 183.22 260.424 184.018C260.898 184.255 261.166 184.886 261.549 185.333C261.432 185.543 261.342 185.755 261.224 185.992L261.196 186.017Z" fill="#C89663"/>
<path d="M126.939 124.087C135.079 138.337 145.744 150.249 159.497 159.312C150.164 156.744 133.816 139.491 126.939 124.087Z" fill="#C89663"/>
<path d="M199.207 126.362C197.942 131.796 196.491 137.195 195.438 142.692C194.208 149.177 193.19 155.725 192.307 162.253C192.024 164.366 192.49 166.594 192.337 168.821C191.171 167.208 190.82 165.416 190.986 163.513C191.394 159.171 191.457 154.733 192.374 150.468C194.002 142.924 196.136 135.484 198.083 128.035C198.246 127.396 198.621 126.821 198.89 126.214C198.995 126.272 199.129 126.305 199.234 126.363L199.207 126.362Z" fill="#C89663"/>
<path d="M31.3943 165.289C34.9901 163.107 46.6615 164.515 68.9194 169.328C56.4107 167.99 43.9031 166.626 31.3943 165.289Z" fill="#C89663"/>
<path d="M230.761 32.415C226.996 43.2278 223.203 54.0663 219.374 65.1185C219.357 59.4391 227.61 34.8853 230.761 32.415Z" fill="#C89663"/>
<path d="M106.455 284.329C99.4707 297.34 90.4013 308.213 85.582 308.859C93.9402 301.265 99.7445 292.4 106.455 284.329Z" fill="#C89663"/>
<path d="M149.582 174.668C152.257 165.368 166.088 157.56 178.806 160.253C172.651 161.27 167.034 161.101 161.992 163.729C156.95 166.357 152.601 169.743 149.581 174.695L149.582 174.668Z" fill="#C89663"/>
<path d="M115.656 31.7577C116.134 32.5056 116.47 32.8166 116.458 33.0852C116.097 41.8158 115.68 50.5709 115.316 58.7362C113.988 53.5098 113.942 37.6291 115.629 31.7565L115.656 31.7577Z" fill="#C89663"/>
<path d="M192.197 73.463C186.759 83.1786 186.108 93.5649 183.691 103.119C183.168 91.8999 187.571 75.2216 192.197 73.463Z" fill="#C89663"/>
<path d="M141.467 75.2677C139.475 65.598 140.125 55.8307 141.153 46.0532C141.607 55.789 142.063 65.498 142.518 75.2338C142.167 75.2451 141.817 75.2564 141.467 75.2677Z" fill="#C89663"/>
<path d="M225.797 202.526C216.784 199.434 203.274 190.354 202.332 186.733C210.144 192.006 217.958 197.252 225.797 202.526Z" fill="#C89663"/>
<path d="M142.03 224.579C148.712 217.153 155.608 209.763 164.42 204.665C164.574 204.833 164.702 205 164.856 205.169C157.247 211.639 149.639 218.109 142.03 224.579Z" fill="#C89663"/>
<path d="M235.592 249.091C230.945 249.503 218.909 240.57 213.437 232.899C220.44 238.808 227.158 245.082 235.592 249.091Z" fill="#C89663"/>
<path d="M163.373 193.745C173.314 195.937 183.03 193.49 192.823 192.365C183.105 194.838 173.415 197.287 163.373 193.745Z" fill="#C89663"/>
<path d="M197.623 196.373C199.515 204.666 205.871 210.009 210.922 216.854C203.998 212.778 196.515 201.33 197.623 196.373Z" fill="#C89663"/>
<path d="M287.546 213.161C280.593 210.94 273.64 208.747 266.448 206.462C270.96 206.071 285.177 210.149 287.739 212.443C287.675 212.682 287.61 212.921 287.546 213.161Z" fill="#C89663"/>
<path d="M120.781 166.9C131.075 169.027 141.225 173.166 143.165 176.132C135.343 172.904 128.076 169.889 120.781 166.9Z" fill="#C89663"/>
<path d="M23.9447 138.582C27.7977 137.273 39.2338 139.128 49.7829 142.774C41.2589 141.398 32.7618 140.024 23.9447 138.582Z" fill="#C89663"/>
<path d="M161.528 166.885C168.278 162.179 175.663 161.324 183.54 163.317C176.009 163.223 168.516 163.482 161.528 166.885Z" fill="#C89663"/>
<path d="M161.613 177.061C164.916 174.813 176.1 176.279 183.37 179.833C175.838 179.147 168.934 176.445 161.613 177.061Z" fill="#C89663"/>
<path d="M188.913 165.951C186.741 157.914 189.103 150.215 190.633 142.451C190.39 150.326 187.921 158.021 188.913 165.951Z" fill="#C89663"/>
<path d="M234.946 175.348C244.087 174.975 253.259 176.89 254.742 179.244C248.152 177.955 241.535 176.664 234.946 175.348Z" fill="#C89663"/>
<path d="M197.618 271.46C194.544 269.763 190.178 259.018 189.864 253.38C192.496 259.552 195.057 265.506 197.618 271.46Z" fill="#C89663"/>
<path d="M181.27 95.2327C181.271 86.7552 182.708 79.2566 185.371 76.8723C183.961 83.1609 182.549 89.4765 181.27 95.2327Z" fill="#C89663"/>
<path d="M27.6822 160.413C31.3973 159.179 34.5069 160.663 37.597 160.774C40.7139 160.886 43.7824 161.48 47.6627 161.976C41.0486 162.435 30.4522 161.667 27.6822 160.413Z" fill="#C89663"/>
<path d="M101.823 297.095C99.6314 302.191 96.6018 306.766 92.5827 310.597C92.2968 310.369 92.0097 310.168 91.7238 309.94C95.0906 305.649 98.4562 301.385 101.85 297.096L101.823 297.095Z" fill="#C89663"/>
<path d="M220.981 44.7363C221.57 39.9721 222.743 35.3953 225.456 30.6718C225.818 31.6029 226.174 32.0763 226.054 32.3669C224.39 36.4913 222.672 40.6132 220.981 44.7363Z" fill="#C89663"/>
<path d="M227.964 239.681C232.845 241.271 238.41 244.425 240.004 246.703C235.283 245.147 231.778 242.865 227.964 239.681Z" fill="#C89663"/>
<path d="M110.494 50.9857C109.328 46.9507 108.675 42.8847 109.53 38.8051C109.745 38.8146 109.987 38.7985 110.204 38.7813C110.292 42.849 110.38 46.9168 110.469 50.9577L110.494 50.9857Z" fill="#C89663"/>
<path d="M145.649 193.467C146.781 188.618 148.762 186.445 151.629 186.734C149.702 188.91 147.832 191.007 145.649 193.467Z" fill="#C89663"/>
<path d="M165.056 172.882C168.415 172.385 171.719 172.532 175.499 174.073L164.97 173.604C164.98 173.363 165.018 173.122 165.056 172.882Z" fill="#C89663"/>
<path d="M389.952 -23.2305C389.086 -22.5155 388.17 -21.8834 387.382 -21.1111C372.941 -6.84444 362.975 10.259 355.706 29.0435C349.929 43.9382 344.551 58.9584 338.828 73.8555C336.818 79.0948 334.411 84.2087 332.031 89.2969C324.271 105.826 312.548 118.868 297.505 129.125C282.739 139.179 266.632 146.131 249.537 151.076C242.639 153.083 235.954 155.746 229.173 158.135C228.161 158.494 227.218 159.125 225.979 159.742C232.58 161.409 238.806 163.005 245.035 164.547C253.819 166.741 262.422 169.358 269.563 175.193C278.625 182.621 285.628 191.572 288.611 203.143C292.516 218.2 283.975 232.917 273.336 239.145C266.731 243.022 260.228 247.039 253.775 251.138C246.461 255.818 238.692 258.648 229.856 257.636C224.689 257.029 219.748 255.571 214.969 253.501C213.965 253.08 212.988 252.659 211.587 252.086C211.839 254.277 212.164 256.041 212.248 257.794C212.517 262.623 211.134 267.083 209.136 271.461C206.662 276.868 204.08 282.271 202.213 287.92C198.269 299.748 198.621 311.793 201.366 323.865C202.152 327.372 202.694 330.921 203.154 334.494C203.688 338.824 203.068 343.076 201.304 347.034C198.789 352.735 194.382 354.396 188.569 351.984C184.606 350.327 181.495 347.659 179.011 344.211C175.894 339.874 173.686 335.066 172.109 329.99C170.812 325.868 168.879 322.122 166.648 318.443C159.527 306.715 154.573 294.061 151.725 280.666C151.102 277.732 150.995 274.686 150.602 271.439C150.233 271.853 149.845 272.105 149.694 272.475C144.078 285.574 134.396 295.1 122.851 302.956C117.799 306.391 112.476 309.303 106.537 310.923C101.469 312.312 96.2831 312.727 91.2491 310.942C82.6382 307.894 73.6742 307.333 64.7222 306.504C57.8874 305.877 51.8614 303.401 46.648 298.998C41.6936 294.821 39.4546 289.5 39.5303 282.964C39.6739 271.882 44.119 262.714 51.3402 254.666C53.294 252.492 55.4811 250.517 57.4093 248.316C60.6118 244.69 63.8926 241.122 66.8093 237.269C70.6978 232.14 74.6108 227.067 79.5856 222.928C79.9772 222.596 80.2673 222.124 80.8356 221.45C79.8173 221.351 79.1542 221.133 78.5573 221.241C71.7265 222.336 65.0582 220.99 58.5338 219.434C45.8306 216.419 34.0921 211.079 23.3906 203.606C18.5615 200.242 14.1007 196.464 10.5437 191.73C4.87929 184.158 6.67894 176.379 15.1037 172.125C20.1142 169.603 25.1467 167.19 30.4842 164.575C29.1682 163.305 27.9172 162.388 26.9748 161.189C18.8551 150.735 19.1929 137.105 29.4254 128.518C37.4218 121.796 46.62 118.303 57.4128 118.891C71.6425 119.66 84.7545 123.769 97.2133 130.46C99.4473 131.663 101.685 132.785 103.947 133.962C104.118 133.755 104.262 133.546 104.431 133.365C103.692 132.444 102.924 131.549 102.212 130.629C98.3477 125.532 94.1801 120.609 90.7055 115.234C86.1465 108.222 84.0748 100.352 83.9131 91.8937C83.6292 75.3027 89.9072 61.2376 99.8953 48.4682C103.034 44.4633 106.352 40.6549 110.547 37.7198C112.715 36.1746 114.127 34.0844 115.257 31.6588C116.776 28.3892 118.241 25.0903 120.126 22.0523C122.824 17.678 126.642 14.7261 131.904 13.8032C134.887 13.2901 137.513 14.1606 140.015 15.4023C150.103 20.3191 156.798 28.3143 159.602 39.0966C161.327 45.6864 162.421 52.5441 162.872 59.3462C163.384 67.1738 162.897 75.0914 162.79 82.9452C162.589 95.3162 162.01 107.697 163.696 120.018C163.901 121.453 164.078 122.914 164.364 124.353C164.519 125.087 164.892 125.776 165.355 126.874C165.64 113.834 168.12 101.645 172.652 89.9242C176.97 78.7861 183.171 68.8622 191.574 60.2475C194.508 57.2293 196.694 53.4512 199.033 49.8951C201.371 46.3391 203.293 42.4685 205.762 38.999C209.206 34.1735 213.898 30.9376 219.866 29.8846C227.924 28.4402 242.61 32.8619 244.847 45.476C245.729 50.4404 246.394 55.4489 247.277 60.4132C248.831 69.0139 250.765 77.5775 252.075 86.2211C254.142 99.635 252.782 112.654 246.821 125.038C243.647 131.652 239.306 137.271 233.817 142.087C227.459 147.671 221.205 153.34 216.5 160.478C216.009 161.236 215.519 161.968 215.053 162.755C214.965 162.912 215.035 163.158 215.092 163.698C216.88 162.836 218.658 162.188 220.209 161.208C229.288 155.557 239.163 151.96 249.41 149.106C265.787 144.56 281.135 137.735 295.335 128.301C311.614 117.481 324.134 103.451 331.772 85.4369C337.728 71.3575 343.234 57.0966 348.556 42.7467C353.693 28.9269 358.908 15.1645 366.578 2.48013C372.419 -7.21753 379.351 -16.0323 387.532 -23.8765C388.32 -24.6488 389.289 -25.2516 390.153 -25.9128L390.032 -23.2L389.952 -23.2305ZM147.431 167.36C134.743 156.164 121.292 146.361 106.979 137.785C93.6368 129.789 79.9383 122.532 64.0864 120.723C55.7325 119.759 47.4096 119.307 39.6904 123.431C36.4372 125.17 33.1757 127.097 30.3516 129.474C18.2735 139.621 22.1995 156.616 30.8037 162.84C31.4561 163.299 31.9096 163.992 32.4742 164.609C29.3858 166.275 26.655 167.768 23.8996 169.207C21.0064 170.719 18.0642 172.122 15.1979 173.637C8.08511 177.437 6.33091 184.195 11.2982 190.499C14.1254 194.096 17.4492 197.42 21.0374 200.244C31.6982 208.631 43.8019 214.23 56.8889 217.692C63.7517 219.505 70.7555 220.57 77.9104 220.055C81.0697 219.819 84.0786 219.334 86.8752 217.574C101.884 208.096 117.703 200.377 134.872 195.571C136.561 195.108 138.228 194.536 139.32 194.181C139.976 190.954 140.494 188.366 141.188 184.871C139.846 179.348 140.748 176.616 147.485 167.362L147.431 167.36ZM140.283 195.542C139.96 195.528 139.745 195.518 139.528 195.563C126.598 199.454 114.006 204.222 101.772 210.002C87.7228 216.67 76.0858 225.975 67.403 239.045C64.6332 243.228 60.8958 246.775 57.5249 250.554C54.9174 253.506 52.0766 256.26 49.5999 259.298C43.9307 266.339 40.8263 274.409 40.6369 283.497C40.5045 289.493 42.5944 294.538 47.27 298.326C52.2561 302.396 57.9328 304.856 64.4477 305.415C73.617 306.2 82.8263 306.691 91.679 309.75C94.3291 310.675 97.4251 310.651 100.309 310.564C106.184 310.369 111.456 308.02 116.455 305.147C128.774 298.053 139.138 288.933 146.209 276.41C148.955 271.554 150.744 266.439 150.863 260.739C150.907 257.942 151.408 255.139 152.015 252.393C155.723 235.603 163.873 221.191 175.572 208.686C176.053 208.169 176.429 207.567 176.916 206.916C173.949 206.461 171.304 206.02 168.628 205.686C167.397 205.523 166.161 205.468 164.919 205.574C155.084 206.428 146.76 203.582 140.285 195.489L140.283 195.542ZM204.473 178.539C205.641 175.9 206.381 173.78 207.49 171.837C208.599 169.895 210.102 168.186 211.394 166.359C211.594 166.099 211.716 165.782 211.864 165.465C215.683 157.669 221.244 151.242 227.562 145.361C230.426 142.689 233.059 139.765 235.665 136.84C241.931 129.691 243.495 121.176 243.016 111.977C242.629 104.962 240.965 98.2139 239.302 91.4386C236.862 81.5606 236.411 71.7442 238.553 61.7203C239.944 55.2425 240.456 48.5908 239.65 41.9074C239.277 38.7959 238.126 36.2417 235.146 34.871C233.116 33.9194 231.058 32.9935 228.938 32.2532C223.37 30.3636 218.67 31.3653 214.823 36.1729C211.145 40.7996 208.151 45.7798 205.917 51.2244C204.288 55.1619 202.685 59.1275 200.951 63.0333C198.827 67.81 195.461 71.4817 190.905 74.0778C188.474 75.4767 186.067 76.9573 183.686 78.4392C179.256 81.2293 176.231 85.1046 174.316 90.0252C170.392 100.185 168.067 110.685 167.049 121.459C166.651 125.559 167.029 129.774 167.547 133.861C168.744 143.226 174.034 150.755 179.272 158.228C179.93 159.172 181.199 159.686 182.219 160.351C184.496 161.798 186.973 162.984 188.996 164.689C191.591 166.85 194.163 168.929 197.045 170.699C199.087 171.975 200.665 174.009 202.39 175.755C203.059 176.457 203.587 177.288 204.476 178.485L204.473 178.539ZM148.57 72.2735C148.421 70.7866 148.378 69.3314 148.117 67.9473C147.164 63.3565 147.151 58.8077 148.323 54.2578C149.331 50.3465 150.287 46.4059 151.455 42.5555C152.841 38.0151 153.017 33.4478 151.711 28.949C151.152 26.9864 150.146 24.7886 148.67 23.4849C145.667 20.8213 142.386 18.3607 138.864 16.4545C134.449 14.078 129.797 14.5975 125.91 17.8693C123.896 19.5828 122.105 21.7368 120.712 23.9893C119.086 26.662 118.194 29.7711 116.673 32.5023C115.443 34.7352 114.124 37.1793 112.173 38.6803C105.371 43.9484 100.309 50.6665 95.7127 57.7822C89.2942 67.7502 85.7711 78.5738 85.5881 90.5419C85.4751 99.122 87.6006 106.995 91.9023 114.345C96.654 122.469 102.827 129.499 109.365 136.195C111.244 138.109 113.375 139.819 115.595 141.344C125.728 148.281 135.776 155.322 145.023 163.431C146.265 164.536 147.679 165.433 149.11 166.52C155.643 161.24 163.026 158.635 171.255 158.167C171.041 157.538 171.026 157.269 170.869 157.154C170.196 156.559 169.495 155.989 168.794 155.42C159.295 147.515 150.974 138.559 144.392 128.039C137.107 116.358 133.278 103.834 134.626 89.8727C135.522 80.6276 139.306 75.4404 148.542 72.2992L148.57 72.2735ZM288.02 212.186C287.951 211.322 287.849 209.972 287.775 208.623C287.34 201.471 283.885 196.258 277.51 193.148C274.691 191.785 271.695 190.79 268.725 189.797C264.934 188.498 261.519 186.623 258.713 183.753C256.989 181.981 255.125 180.31 253.596 178.385C248.699 172.327 242.627 167.858 235.705 164.347C226.546 159.714 215.86 162.172 210.15 170.718C208.595 173.017 207.481 175.659 206.451 178.25C203.144 186.634 199.678 194.958 194.348 202.256C191.281 206.452 188.984 210.898 188.141 215.92C186.603 225.083 188.321 233.637 195.688 239.859C202.846 245.91 211.01 250.526 219.945 253.561C222.066 254.275 224.574 254.171 226.87 253.977C230.518 253.655 233.308 251.438 235.916 249.078C243.125 242.51 251.506 238.63 261.268 237.585C264.594 237.222 267.963 236.511 271.084 235.331C280.884 231.622 287.409 223.489 288.074 212.189L288.02 212.186ZM193.987 200.679C193.832 200.537 193.678 200.369 193.523 200.228C191.043 201.517 188.681 203.188 186.033 204.039C180.599 205.788 176.801 209.495 173.306 213.645C167.649 220.417 162.986 227.826 159.292 235.843C152.472 250.584 150.438 266.049 153.742 281.913C156.426 294.762 161.489 306.776 168.253 318.057C170.257 321.403 171.9 325.002 173.298 328.67C175.225 333.735 177.1 338.771 180.32 343.22C182.88 346.779 186.067 349.531 190.283 350.957C194.126 352.285 196.721 351.432 198.945 348.032C201.053 344.816 201.375 341.197 200.322 337.652C199.318 334.216 197.823 330.92 196.299 327.676C193.448 321.575 189.887 315.737 187.583 309.445C183.766 299.075 184.651 288.86 190.884 279.449C193.249 275.894 195.902 272.514 198.345 269.016C200.414 266.067 202.589 263.177 204.29 260.023C206.05 256.764 206.99 253.173 206.436 249.3C203.584 247.477 200.807 245.766 198.116 243.95C194.509 241.556 191.462 238.648 189.292 234.811C184.053 225.535 185.481 211.603 192.147 203.315C192.83 202.484 193.385 201.513 193.99 200.625L193.987 200.679ZM177.159 158.537C177.092 158.238 177.104 157.97 177.004 157.804C176.45 156.945 175.895 156.113 175.313 155.28C167.65 144.227 163.295 132.03 161.71 118.664C160.303 106.76 160.618 94.8516 161.122 82.9247C161.536 73.0123 161.896 63.1244 160.666 53.2733C159.857 46.6705 158.829 40.1388 156.006 34.0115C155.614 33.1597 155.056 32.3813 154.381 31.2209C154.129 32.044 153.954 32.3592 153.968 32.6558C154.234 38.1579 152.9 43.3465 151.243 48.5208C149.019 55.5536 147.759 62.6833 150.015 70.0502C150.321 71.0327 149.973 72.2014 149.919 73.4101C148.906 73.7956 148.107 74.2175 147.264 74.4222C142.337 75.6561 139.072 78.8748 137.68 83.5495C136.541 87.3742 135.766 91.4843 135.803 95.4691C135.948 105.514 138.73 114.977 143.694 123.756C149.283 133.64 156.489 142.25 164.784 149.966C167.498 152.482 170.352 154.87 173.235 157.205C174.301 158.06 175.463 159.162 177.132 158.536L177.159 158.537ZM203.663 181.625C201.208 176.321 197.761 172.75 192.93 170.624C184.906 167.091 176.959 167.867 169.11 171.286C168.204 171.676 167.393 172.366 166.638 173.006C164.117 175.235 161.595 177.464 159.125 179.749C157.916 180.906 156.678 182.116 155.755 183.502C149.728 192.545 154.69 201.378 162.912 202.901C165.127 203.323 167.349 203.583 169.532 204.111C178.665 206.321 186.592 203.579 193.829 198.196C195.054 197.281 196.316 196.127 197.022 194.785C199.368 190.449 201.477 185.995 203.664 181.598L203.663 181.625ZM208.23 250.106C207.959 250.148 207.688 250.19 207.417 250.231C208.365 258.563 203.896 264.635 199.269 270.645C198.583 271.53 197.846 272.385 197.212 273.326C195.111 276.381 192.88 279.35 190.988 282.549C188.05 287.478 186.652 292.879 186.88 298.648C187.084 303.744 188.264 308.668 190.508 313.262C193.885 320.221 197.372 327.132 200.831 334.068C200.882 334.151 201.151 334.136 201.606 334.21C201.088 331.334 200.671 328.597 200.093 325.88C198.745 319.281 197.316 312.677 197.483 305.902C197.719 295.175 200.376 285.066 205.137 275.455C206.733 272.243 208.251 268.973 209.504 265.611C211.033 261.507 211.008 257.227 209.849 253.031C209.572 251.996 208.751 251.098 208.174 250.157L208.23 250.106ZM243.684 126.594C243.91 126.361 244.189 126.132 244.335 125.869C244.774 125.081 245.16 124.264 245.545 123.474C251.566 110.958 252.475 97.7846 250.196 84.3074C248.745 75.7921 246.941 67.3419 245.354 58.8743C244.505 54.369 243.766 49.8147 242.917 45.3093C242.762 44.5489 242.308 43.8559 241.99 43.142C241.433 44.1668 241.394 45.0532 241.354 45.9396C241.191 49.6193 241.214 53.3343 240.863 56.9788C240.39 61.5599 239.409 66.0645 238.909 70.6443C238.07 78.6001 239.692 86.2887 241.613 93.9367C244.311 104.661 246.253 115.432 243.71 126.622L243.684 126.594ZM187.96 166.204C185.511 162.57 178.162 160.197 173.492 159.908C163.267 159.265 154.574 162.887 147.265 169.882C144.426 172.609 142.976 176.15 142.108 179.933C141.641 181.958 141.848 183.959 143.813 185.769C144.675 185.753 145.924 186.105 146.805 185.66C149.636 184.332 152.522 182.981 155 181.126C158.371 178.558 161.488 175.629 164.528 172.643C167.286 169.939 170.589 168.283 174.277 167.667C178.777 166.926 183.337 166.671 187.96 166.204ZM283.273 194.885C279.238 186.981 274.024 180.183 266.716 175.067C260.19 170.524 246.928 165.546 242.591 166.241C247.625 169.238 251.369 173.414 255.056 177.642C256.822 179.686 258.613 181.757 260.693 183.411C262.849 185.148 265.226 186.761 267.763 187.816C272.995 189.987 278.56 191.338 283.274 194.858L283.273 194.885ZM228.542 255.72C228.888 255.79 229.315 255.889 229.743 255.935C237.18 256.939 243.988 255.143 250.324 251.281C257.986 246.616 265.676 241.953 273.312 237.26C274.391 236.608 275.343 235.789 276.344 235.054C271.349 237.226 266.285 238.535 261.036 239.162C251.566 240.302 243.528 244.331 236.387 250.579C234.063 252.602 231.228 254.01 228.514 255.746L228.542 255.72ZM214.474 33.7352C210.972 35.6247 208.58 37.9673 206.705 40.7904C204.541 44.0581 202.559 47.4685 200.709 50.9386C198.359 55.3554 195.543 59.3746 191.892 62.7914C187.258 67.1334 183.74 72.3863 180.46 77.7573C180.17 78.2289 180.117 78.8186 179.894 79.5891C183.884 77.0217 187.542 74.6547 191.279 72.3182C194.713 70.1566 197.318 67.2583 199.119 63.6784C200.24 61.4676 201.308 59.2276 202.191 56.9255C205.234 49.0409 208.698 41.3635 214.262 34.8561C214.376 34.7266 214.36 34.4837 214.502 33.7096L214.474 33.7352ZM151.147 187.872C149.729 185.871 148.303 187.072 146.925 187.199C145.412 187.32 143.905 187.334 142.396 187.374C140.606 191.305 141.234 194.724 144.328 197.768C146.777 200.191 149.719 201.803 153.014 202.757C154.741 203.264 156.414 204.361 158.868 203.663C152.471 199.853 151.337 193.882 151.174 187.873L151.147 187.872Z" fill="#C89663"/>
</g>
</g>
<defs>
<clipPath id="clip0_2_5806">
<rect width="300.499" height="373.208" fill="white" transform="translate(0 344.503) rotate(-87.4504)"/>
</clipPath>
<clipPath id="clip1_2_5806">
<rect width="344.844" height="299.988" fill="white" transform="translate(0 344.503) rotate(-87.4504)"/>
</clipPath>
</defs>
</svg>
