<svg width="570" height="547" viewBox="0 0 570 547" fill="none" xmlns="http://www.w3.org/2000/svg">
<g opacity="0.4" clip-path="url(#clip0_2_803)">
<path d="M205.541 401.151C201.88 405.746 198.854 409.972 195.422 413.795C190.064 419.781 184.056 425.103 176.659 428.409C173.692 429.727 170.345 430.476 167.118 430.907C159.201 431.951 151.232 432.8 143.275 433.466C139.685 433.753 135.981 433.802 132.422 433.285C123.247 431.929 116.56 427.05 112.753 418.427C107.558 406.657 106.556 394.834 111.927 382.843C114.649 376.778 118.837 371.747 123.497 367.131C132.513 358.203 142.316 350.13 152.888 343.128C157.246 340.234 162.335 338.439 167.094 336.184C167.917 335.797 168.771 335.532 170.067 335.036C169.259 334.718 168.92 334.527 168.564 334.435C150.208 329.815 134.239 320.761 121.024 307.386C110.589 296.796 102.571 284.444 99.0189 269.671C97.9031 265.084 97.3483 260.471 98.2551 255.795C98.5565 254.275 98.9291 252.734 99.5016 251.309C101.726 245.601 105.963 243.345 111.889 245.061C114.641 245.868 117.244 247.275 119.762 248.684C122.814 250.434 125.675 252.524 128.672 254.4C131.977 256.462 135.557 257.979 139.458 258.164C146.036 258.486 151.452 261.351 156.32 265.39C162.446 270.497 168.339 275.886 174.465 280.993C179.023 284.763 183.601 288.518 188.533 291.759C192.917 294.639 197.793 296.79 202.483 299.248C202.995 299.518 203.644 299.574 204.468 299.389C203.834 298.829 203.245 298.209 202.573 297.677C193.099 290.569 186.211 281.288 180.436 271.092C173.639 259.11 169.951 246.086 167.562 232.651C166.305 225.645 166.321 218.595 167.213 211.555C168.035 205.143 170.314 199.309 174.116 194.063C174.84 193.051 175.597 192.045 176.482 191.179C181.38 186.45 185.488 185.995 191.395 189.463C193.362 190.63 195.291 191.824 197.253 193.024C201.07 195.355 205.13 196.006 209.525 195.142C213.186 194.428 216.9 193.908 220.564 193.279C232.101 191.261 240.412 196.626 247.323 205.051C252.674 211.583 255.694 219.351 258.255 227.246C263.094 242.197 265.357 257.517 264.394 273.269C264.333 274.153 264.455 275.051 264.519 276.192C266.205 274.259 267.664 272.575 269.137 270.911C271.971 267.749 275.655 266.178 279.749 265.502C281.276 265.246 282.85 265.016 284.388 265.1C289.573 265.379 293.823 263.142 297.966 260.431C320.095 245.864 336.855 226.315 350.511 203.893C357.511 192.356 364.311 180.702 371.297 169.146C377.609 158.711 385.303 149.312 393.777 140.599C397.231 137.05 401.226 134.012 405.003 130.752C409.866 126.541 414.729 122.329 419.647 118.194C420.708 117.289 421.576 115.711 423.794 116.379C422.399 118.596 420.537 119.96 418.785 121.477C410.059 129.154 401.15 136.615 392.697 144.589C384.757 152.108 378.366 160.978 372.69 170.32C365.384 182.279 358.399 194.442 351.032 206.358C343.388 218.734 334.839 230.454 324.478 240.781C317.107 248.123 309.273 254.9 300.575 260.675C299.552 261.35 298.584 262.102 297.803 263.357C298.972 263.128 300.168 262.936 301.314 262.635C314.732 259.24 326.036 263.848 336.404 271.879C339.425 274.232 340.684 277.847 340.575 281.574C340.471 285.067 339.727 288.555 339.059 291.988C338.776 293.494 338.034 294.924 337.41 296.357C334.333 303.545 331.791 310.871 329.945 318.48C328.155 325.846 325.073 332.662 319.938 338.313C317.015 341.511 313.606 344.274 310.391 347.188C309.656 347.86 308.764 348.354 307.482 349.274C309.01 349.829 309.944 350.202 310.908 350.495C318.686 352.853 324.885 357.416 330.347 363.375C337.912 371.62 342.578 381.279 345.565 391.91C347.861 400.082 350.151 408.287 353.643 416.065C355.071 419.27 356.399 422.575 357.225 425.951C358.763 432.379 356.42 437.477 351.157 441.454C344.218 446.691 336.998 447.292 329.253 443.404C324.514 441.039 320.45 437.756 317.279 433.658C312.059 426.945 307.151 419.98 302.358 412.933C300.577 410.329 299.538 407.222 297.879 403.777C297.632 404.968 297.381 405.669 297.333 406.37C296.704 415.394 294.413 423.96 290.295 432.04C287.623 437.286 286.193 442.889 285.468 448.708C284.852 453.669 284.307 458.607 283.559 463.546C282.018 473.601 277.534 482.261 270.596 489.641C269.202 491.133 267.414 492.358 265.658 493.385C262.677 495.088 259.399 494.195 257.123 491.223C254.416 487.69 253.04 483.55 251.982 479.327C251.349 476.827 250.852 474.315 250.213 471.443C248.895 472.475 247.856 473.249 246.872 474.1C243.966 476.676 240.603 477.118 236.942 476.297C231.687 475.113 227.341 472.205 223.85 468.308C208.072 450.63 201.746 429.969 204.799 406.462C205.018 404.827 205.251 403.212 205.527 401.132L205.541 401.151ZM260.559 300.697C259.377 293.956 260.349 287.553 261.817 281.113C262.649 277.504 263.057 273.707 263.094 270.002C263.287 254.832 261.027 240.001 255.929 225.699C252.932 217.277 249.492 209.085 242.819 202.691C237.079 197.192 230.654 193.689 222.414 194.849C218.304 195.421 214.19 195.909 210.113 196.69C205.179 197.651 200.621 196.952 196.319 194.389C194.352 193.222 192.423 192.027 190.456 190.86C184.688 187.466 181.575 188.54 176.899 193.052C176.158 193.757 175.62 194.664 175.022 195.528C171.638 200.387 169.553 205.764 168.771 211.625C167.897 218.247 167.796 224.895 168.901 231.488C171.418 246.394 175.673 260.693 183.533 273.795C188.339 281.789 194.232 288.714 201.116 294.957C207.453 300.723 214.802 303.332 223.203 303.447C224.196 303.459 225.203 303.084 226.16 302.803C229.531 301.805 232.822 300.17 236.267 299.842C242.22 299.251 248.248 299.331 254.261 299.392C256.268 299.401 258.281 300.187 260.513 300.672L260.559 300.697ZM251.032 468.625C251.434 470.277 251.696 471.248 251.925 472.214C252.622 475.247 253.229 478.317 254.055 481.287C254.994 484.698 256.398 487.948 258.731 490.677C260.487 492.72 262.431 493.209 264.83 492.068C265.929 491.54 267.111 490.924 267.917 490.028C270.461 487.189 272.936 484.256 275.304 481.254C276.946 479.178 277.561 476.681 277.915 474.023C278.664 468.359 278.209 462.835 276.575 457.403C275.785 454.726 274.924 452.07 274.082 449.401C271.584 441.432 270.977 433.352 272.541 425.105C273.923 417.858 276.981 411.292 280.436 404.875C282.698 400.674 285.04 396.504 287.27 392.298C289.431 388.199 290.596 383.802 290.871 379.173C291.036 376.332 290.837 373.55 289.47 370.996C284.679 362.094 279.227 353.723 271.289 347.222C270.415 346.487 269.56 345.739 268.787 344.904C267.479 343.525 266.266 342.077 265.227 340.911C262.882 344.996 260.836 349.215 258.201 353.017C254.071 359.019 248.286 363.4 241.966 366.832C236.037 370.041 229.659 371.979 222.907 368.828C222.767 368.754 222.51 368.881 222.302 368.914C218.186 372.793 214.853 377.239 212.713 382.539C207.898 394.537 205.175 406.945 205.516 419.908C205.971 437.395 212.504 452.607 223.529 465.96C226.903 470.058 231.194 473.294 236.515 474.692C240.735 475.807 244.528 475.317 247.481 471.635C248.328 470.594 249.531 469.847 251.005 468.587L251.032 468.625ZM217.017 328.245C213.449 329.21 210.27 330.071 206.877 330.998C204.584 333.135 202.624 336.423 198.391 335.694L196.292 332.767C189.824 332.801 183.426 333.537 177.138 334.832C166.397 337.031 156.632 341.399 148.092 348.363C142.458 352.954 136.796 357.507 131.236 362.161C125.574 366.916 120.42 372.176 116.302 378.315C107.22 391.838 107.861 411.566 117.897 423.862C123.064 430.177 129.758 432.965 137.826 430.394C142.242 428.994 146.528 427.05 150.694 425.018C156.287 422.31 161.828 420.943 168.102 422.7C176.263 424.986 183.684 422.242 189.884 417.187C194.075 413.776 197.438 409.25 200.754 404.903C204.22 400.36 206.692 395.199 208.46 389.702C210.789 382.442 213.789 375.512 219.306 369.991C220.014 369.28 220.662 368.526 221.337 367.81C220.991 367.247 220.796 366.895 220.568 366.537C218.598 363.547 218.481 362.009 220.866 359.314C222.175 357.825 223.966 356.483 225.818 355.792C229.109 354.561 230.796 352.106 232.229 349.456C229.873 347.989 227.703 346.62 225.226 345.065C222.078 345.324 219.874 343.342 218.772 340.31C217.9 337.922 217.486 335.323 217.079 332.776C216.839 331.269 217.028 329.714 217.009 328.193L217.017 328.245ZM272.092 269.979C270.534 271.647 268.848 273.175 267.457 274.954C261.327 282.855 260.679 291.893 262.265 301.298C262.39 302.078 262.906 302.837 263.391 303.474C268.013 309.514 269.042 316.365 267.455 323.528C266.58 327.399 266.293 331.283 265.837 335.173C265.591 337.377 266.12 339.286 267.368 341.026C270.975 346.057 275.872 349.207 281.863 350.529C295.768 353.591 307.417 349.668 317.055 339.223C322.607 333.184 326.141 326.19 328.346 318.352C329.892 312.87 331.602 307.415 333.425 301.995C334.534 298.651 336.237 295.489 337.214 292.124C338.14 288.969 338.772 285.648 338.975 282.374C339.26 277.68 337.22 273.785 333.242 271.309C329.551 269.032 325.696 266.93 321.706 265.245C316.038 262.879 310.024 262.211 303.974 263.596C296.679 265.265 289.345 266.556 281.831 266.789C278.372 266.895 275.094 267.942 272.078 269.96L272.092 269.979ZM220.201 305.687C219.16 305.449 218.511 305.19 217.837 305.181C215.346 305.142 212.842 305.085 210.365 305.268C201.056 305.948 192.491 303.865 184.43 299.132C176.137 294.276 169.371 287.833 163.504 280.339C160.438 276.427 157.65 272.256 154.717 268.248C151.181 263.398 146.583 260.382 140.402 260.007C135.858 259.732 131.67 258.217 127.837 255.782C124.691 253.78 121.625 251.605 118.386 249.757C116.074 248.432 113.614 247.184 111.048 246.475C106.122 245.143 102.799 246.975 100.854 251.7C99.4966 255.02 98.8835 258.53 99.2587 262.084C99.595 265.261 100.057 268.492 100.9 271.566C104.759 285.394 112.322 297.03 122.373 307.085C134.655 319.362 149.414 327.575 165.917 332.684C168.453 333.472 171.278 333.936 173.884 333.69C181.511 332.97 189.106 331.839 196.881 330.84C200.744 319.293 210.004 312.362 220.176 305.734L220.201 305.687ZM278.257 351.725C280.178 354.402 282.101 356.962 283.909 359.605C286.425 363.275 289.121 366.873 291.265 370.752C294.724 376.989 296.322 383.866 297.097 390.927C297.889 398.093 299.266 405.186 303.275 411.261C308.137 418.607 313.352 425.757 318.75 432.718C321.723 436.582 325.577 439.611 329.974 441.903C338.628 446.413 346.152 444.377 352.723 438.101C354.622 436.304 355.224 434.193 354.3 431.611C353.239 428.636 351.942 425.858 349.467 423.781C345.674 420.593 341.905 417.358 338.054 414.211C331.333 408.72 326.226 402.043 323.238 393.875C321.198 388.242 320.964 382.298 320.809 376.384C320.702 372.436 320.679 368.484 320.227 364.58C319.63 359.504 317.472 355.201 312.71 352.765C309.319 351.027 306.07 349.649 301.852 351.284C298.298 352.674 294.144 352.902 290.251 352.971C286.378 353.026 282.482 352.2 278.29 351.73L278.257 351.725ZM279.266 471.664C279.548 471.693 279.83 471.723 280.093 471.766C280.673 469.584 281.43 467.447 281.799 465.213C282.526 460.811 283.173 456.379 283.617 451.947C284.418 444.132 286.336 436.703 289.746 429.537C297.159 413.968 297.713 397.727 293.748 381.165C293.519 380.199 293.096 379.286 292.56 377.73C292.255 378.76 292.078 379.119 292.07 379.472C291.893 385.449 289.742 390.815 286.917 395.969C284.363 400.611 281.808 405.252 279.365 409.929C272.431 423.215 271.106 436.967 275.993 451.217C278.262 457.816 280.18 464.492 279.286 471.65L279.266 471.664ZM319.244 356.016C319.371 356.678 319.366 357.116 319.528 357.463C321.978 362.455 322.153 367.832 322.271 373.25C322.363 377.5 322.449 381.783 322.938 385.98C323.959 394.719 327.677 402.248 333.95 408.408C336.971 411.368 340.271 414.07 343.519 416.78C347.183 419.829 350.974 422.73 353.488 426.922C354.215 428.139 354.852 429.391 355.56 430.62C355.768 430.587 355.962 430.535 356.17 430.501C355.976 428.816 356.053 427.023 355.522 425.435C354.26 421.735 352.538 418.161 351.275 414.461C348.776 407.217 346.205 399.995 344.113 392.633C340.895 381.357 335.859 371.182 327.595 362.771C325.139 360.275 322.663 357.793 319.225 356.03L319.244 356.016ZM263.158 304.684C259.105 308.894 255.369 312.616 251.822 316.52C245.906 323.022 242.683 330.49 243.825 339.518C243.977 340.741 243.345 342.122 242.922 343.352C242.328 345.11 241.477 346.792 240.949 348.561C240.548 349.862 240.474 351.334 241.773 352.257C243.119 353.203 244.558 352.866 245.906 352.16C246.535 351.825 247.148 351.385 247.722 350.974C254.976 345.772 260.267 338.965 263.834 330.845C267.164 323.244 267.894 315.451 264.687 307.584C264.316 306.663 263.778 305.832 263.191 304.689L263.158 304.684ZM261.999 303.835C257.472 300.797 253.182 300.311 248.65 300.983C245.503 301.444 242.814 302.909 240.068 304.415C233.294 308.143 228.381 313.578 224.913 320.381C224.072 321.998 223.588 323.909 223.44 325.724C223.124 329.687 225.19 331.073 228.798 329.557C229.268 329.364 229.786 329.196 230.193 328.875C232.172 327.311 234.433 326.906 236.885 326.769C240.492 326.586 243.657 324.896 245.719 322.114C249.18 317.402 253.169 313.266 257.387 309.286C259.002 307.78 260.291 305.9 262.018 303.822L261.999 303.835ZM256.709 352.957C256.52 352.774 256.33 352.591 256.122 352.422C255.611 352.76 255.086 353.078 254.574 353.416C249.647 356.892 244.257 358.469 238.174 357.705C235.201 357.318 232.182 357.31 229.181 357.29C226.756 357.262 224.444 357.878 222.566 359.543C219.781 362.004 219.936 364.847 222.893 367.071C225.461 368.995 228.33 369.399 231.434 368.998C238.845 368.057 244.842 364.335 250.251 359.471C252.528 357.433 254.561 355.135 256.695 352.938L256.709 352.957ZM211.053 303.964C210.321 303.388 210.252 303.293 210.159 303.243C209.565 303.061 208.951 302.893 208.371 302.73C200.303 300.493 192.653 297.261 186.034 292.073C178.859 286.473 171.821 280.66 164.777 274.879C161.94 272.54 159.234 270.02 156.466 267.574C156.274 267.711 156.11 267.887 155.933 268.043C156.563 268.923 157.156 269.83 157.825 270.682C160.552 274.201 163.349 277.698 166.057 281.231C170.657 287.2 176.12 292.232 182.395 296.334C190.012 301.298 198.178 304.682 207.5 304.224C208.485 304.183 209.468 304.058 211.025 303.926L211.053 303.964ZM232.136 303.094C232.122 302.872 232.089 302.664 232.061 302.423C231.194 302.669 230.305 302.843 229.479 303.146C220.544 306.57 212.79 311.842 206.058 318.581C203.145 321.51 200.651 324.862 199.171 328.82C198.512 330.568 198.035 332.328 198.821 334.111C201.517 334.234 202.363 334.12 203.8 332.163C206.367 328.67 208.8 325.072 211.08 321.38C212.852 318.517 214.737 315.891 217.696 314.116C219.29 313.147 220.794 312.01 222.163 310.768C225.295 307.942 228.006 304.608 232.175 303.066L232.136 303.094ZM222.938 329.994C220.399 323.705 224.182 318.877 227.202 313.671C226.665 313.853 226.411 313.862 226.271 313.991C219.882 320.6 216.861 328.27 219.049 337.504C219.361 338.787 219.984 340.02 220.618 341.187C222.754 345.013 226.87 344.408 229.002 340.793C229.471 339.993 229.65 338.909 230.298 338.358C233.125 335.954 232.165 333.282 231.287 330.32C228.442 331 225.762 332.719 222.933 330.027L222.938 329.994ZM184.371 422.068C178.802 424.527 173.069 425.423 167.14 423.824C162.359 422.532 157.904 423.352 153.511 425.228C148.584 427.371 143.644 429.494 138.712 431.67C138.636 431.725 138.631 431.96 138.563 432.27C139.425 432.26 140.224 432.324 141.032 432.237C150.422 431.267 159.815 430.381 169.188 429.307C175.053 428.634 179.844 425.575 184.371 422.068ZM264.17 333.617C263.375 334.853 262.753 335.763 262.196 336.684C258.846 342.359 254.669 347.324 249.332 351.238C248.011 352.185 246.54 353.125 245.008 353.615C242.105 354.538 240.162 353.122 239.741 350.151C239.647 349.494 239.501 348.846 239.374 348.184C233.331 350.143 233.292 350.171 230.137 355.793C233.006 355.995 235.776 355.978 238.495 356.374C251.399 358.242 264.157 347.703 264.17 333.617ZM227.577 345.03C231.124 348.279 235.04 348.889 238.789 346.721C241.909 344.889 242.968 341.233 241.92 336.134C240.479 335.661 239.143 335.172 237.809 334.767C235.624 334.104 234.275 334.608 233.246 336.244C231.392 339.195 229.478 342.103 227.572 345.063L227.577 345.03ZM223.207 314.567C220.092 315.033 217.167 315.885 215.099 318.093C212.134 321.233 210.679 325.347 208.41 328.972C208.566 329.15 208.728 329.295 208.884 329.472C211.705 328.637 214.526 327.801 216.725 327.151C219.051 322.674 221.062 318.769 223.22 314.586L223.207 314.567ZM225.096 313.038C225.109 312.855 225.136 312.69 225.149 312.507C230.684 308.828 236.232 305.167 241.766 301.488C233.124 302.531 226.69 307.26 220.681 313.713C222.482 313.435 223.801 313.213 225.115 313.024L225.096 313.038Z" fill="#C89663"/>
<path d="M398.883 137.778C398.572 138.233 398.307 138.712 397.941 139.091C393.593 143.859 388 146.77 382.297 149.527C380.626 150.349 378.991 151.262 377.41 152.25C367.924 158.098 358.583 164.188 348.957 169.759C336.664 176.866 323.492 181.737 309.338 183.661C299.015 185.069 288.602 184.977 278.381 183.212C266.142 181.099 253.995 178.428 241.878 175.677C230.024 172.969 218.849 168.095 207.444 163.993C193.777 159.08 179.961 154.768 165.587 152.506C163.728 152.217 161.909 151.783 160.102 151.284C159.212 151.053 158.39 150.513 157.541 150.137C158.104 148.256 159.519 148.168 160.693 147.905C171.844 145.47 183.002 142.884 194.222 140.746C210.266 137.698 226.476 136.297 242.8 137.276C262.064 138.435 280.941 142.044 299.415 147.679C305.826 149.627 312.235 151.693 318.779 153.14C334.751 156.66 350.793 157.205 366.857 153.215C374.017 151.439 380.571 148.332 387.017 144.955C390.234 143.257 393.2 141.129 396.271 139.187C397.083 138.663 397.841 138.062 398.625 137.499C398.727 137.6 398.814 137.682 398.916 137.783L398.883 137.778ZM370.968 154.582C370.896 154.402 370.811 154.202 370.74 154.022C370.556 154.009 370.37 153.91 370.195 153.949C369.798 154.002 369.415 154.074 369.04 154.198C357.018 157.722 344.78 158.157 332.412 157.035C321.439 156.041 310.909 153.078 300.467 149.792C280.995 143.656 261.084 139.775 240.698 138.871C214.35 137.694 188.69 142.57 163.246 148.797C162.63 148.949 162.053 149.276 161.44 149.513C162.761 150.304 164.067 150.67 165.387 150.853C180.161 153.147 194.352 157.538 208.397 162.614C219.783 166.73 230.978 171.59 242.818 174.279C254.269 176.87 265.715 179.494 277.275 181.428C291.28 183.781 305.338 183.662 319.263 180.164C329.365 177.64 338.84 173.597 347.931 168.612C350.305 167.315 352.555 165.846 355.085 164.322C354.6 164.09 354.48 164.003 354.408 164.025C353.853 164.22 353.298 164.416 352.756 164.631C342.818 168.716 332.395 170.631 321.701 171.319C310.428 172.047 299.169 171.867 288.069 170.008C274.177 167.691 260.248 165.283 246.546 162.018C223.607 156.543 200.608 151.43 176.989 149.977C176.688 149.961 176.395 149.795 176.104 149.713C190.207 149.939 204.142 151.184 217.86 154.148C231.171 157.028 244.389 160.263 257.666 163.138C273.584 166.581 289.552 169.611 305.895 170.172C324.972 170.827 343.458 168.518 360.763 159.873C364.182 158.174 367.538 156.347 370.916 154.591L370.968 154.582Z" fill="#C89663"/>
<path d="M197.566 335.069C175.616 342.411 156.991 355.479 138.629 368.995C155.118 353.433 188.731 334.309 197.566 335.069Z" fill="#C89663"/>
<path d="M170.177 376.493C185.079 362.678 201.415 350.499 218.875 339.889C219.045 340.086 219.202 340.263 219.372 340.46C218.866 340.967 218.396 341.565 217.822 341.977C211.921 346.035 205.939 349.978 200.093 354.112C193.047 359.078 186.056 364.121 179.133 369.259C176.041 371.535 173.173 374.083 170.21 376.498L170.177 376.493Z" fill="#C89663"/>
<path d="M218.899 251.416C224.028 268.389 229.116 285.304 238.05 300.794C237.783 300.986 237.506 301.126 237.225 301.299C236.599 300.589 235.859 299.961 235.363 299.188C228.659 288.587 220.403 264.588 218.899 251.416Z" fill="#C89663"/>
<path d="M185.903 249.417C182.447 244.597 179.966 239.28 177.705 233.864C174.996 227.378 172.234 220.901 171.076 213.911C170.499 210.357 170.342 206.704 170.194 203.103C170.123 201.185 170.569 199.301 171.975 197.018C172.253 198.093 172.549 198.547 172.465 198.955C171.065 206.823 172.421 214.453 174.804 221.897C177.816 231.351 181.66 240.469 185.903 249.417Z" fill="#C89663"/>
<path d="M231.743 431.425C230.004 411.905 231.497 378.019 238.45 367.993C237.232 373.124 235.784 378.217 234.809 383.406C233.832 388.711 233.165 394.085 232.686 399.439C232.224 404.695 232.09 410.004 231.942 415.294C231.797 420.67 231.803 426.053 231.724 431.439L231.743 431.425Z" fill="#C89663"/>
<path d="M249.117 414.389C249.322 394.953 249.159 375.49 253.695 356.394C254.272 356.472 254.396 356.442 254.489 356.491C254.568 356.521 254.67 356.622 254.692 356.693C254.728 356.986 254.797 357.284 254.781 357.585C254.748 357.984 254.645 358.406 254.561 358.814C253.75 363.827 252.587 368.832 252.176 373.877C251.228 385.447 250.642 397.076 249.91 408.665C249.793 410.603 249.788 412.576 249.736 414.525C249.525 414.473 249.328 414.441 249.117 414.389Z" fill="#C89663"/>
<path d="M137.178 281.175C155.956 296.528 176.64 307.993 200.85 312.209C176.089 309.083 155.404 297.618 137.178 281.175Z" fill="#C89663"/>
<path d="M126.548 431.561C128.262 430.679 130.087 429.949 131.684 428.862C136.972 425.243 142.274 421.644 147.337 417.752C151.011 414.914 154.351 411.65 157.773 408.501C161.715 404.863 165.601 401.149 169.501 397.454C170.179 396.823 170.843 396.173 171.839 395.865C168.549 399.238 165.379 402.699 161.987 405.971C157.374 410.409 152.714 414.823 147.889 419.007C142.417 423.743 136.824 428.391 130.053 431.277C129.055 431.703 128.007 432.02 126.968 432.389C126.828 432.113 126.688 431.837 126.548 431.561Z" fill="#C89663"/>
<path d="M178.34 401.05C191.045 384.495 204.471 368.582 219.478 354.025C205.77 369.706 192.048 385.369 178.34 401.05Z" fill="#C89663"/>
<path d="M244.803 290.448C239.101 271.019 238.73 250.981 238.481 230.914C239.835 250.826 240.849 270.749 244.803 290.448Z" fill="#C89663"/>
<path d="M310.67 302.152C299.458 310.888 272.582 319.967 266.771 316.836C267.526 316.555 268.032 316.25 268.565 316.186C281.743 314.556 294.183 310.443 306.237 304.984C307.826 304.249 309.199 303.092 310.689 302.139L310.67 302.152Z" fill="#C89663"/>
<path d="M281.169 358.008C285.712 359.413 310.085 383.497 315.273 391.217C303.907 380.136 292.535 369.088 281.169 358.008Z" fill="#C89663"/>
<path d="M223.007 301.155C213.831 295.513 206.754 288.192 200.369 280.258C193.998 272.344 188.469 263.826 183.886 254.687C184.531 255.586 185.189 256.504 185.834 257.403C186.473 258.335 187.069 259.327 187.708 260.259C192.654 267.399 197.284 274.825 202.657 281.63C208.296 288.766 214.868 295.059 222.433 300.234C222.568 300.341 222.634 300.554 222.974 301.15L223.007 301.155Z" fill="#C89663"/>
<path d="M244.121 389.559C245.418 380.78 246.696 372.014 248.055 362.755C242.955 365.747 237.881 364.693 232.761 363.616C238.689 363.477 244.957 364.861 249.649 359.846C249.868 359.949 249.967 359.965 250.041 360.028C250.115 360.091 250.216 360.192 250.205 360.258C250.087 361.183 249.987 362.094 249.802 363.009C248.122 371.86 246.428 380.693 244.747 389.544C244.545 389.544 244.323 389.559 244.107 389.54L244.121 389.559Z" fill="#C89663"/>
<path d="M283.598 281.134C288.268 276.249 293.171 271.69 299.227 268.535C302.604 266.779 305.875 264.752 309.316 263.124C311.824 261.934 313.094 262.008 315.353 262.531C311.565 264.118 307.726 265.394 304.195 267.26C300.555 269.175 297.154 271.586 293.717 273.906C290.28 276.226 286.966 278.718 283.598 281.134Z" fill="#C89663"/>
<path d="M155.34 279.301C145.944 274.686 129.645 260.365 127.194 254.361C131.745 258.685 136.175 263.126 140.871 267.289C145.566 271.452 150.499 275.3 155.34 279.301Z" fill="#C89663"/>
<path d="M124.742 290.789C115.693 286.011 100.519 269.581 98.0291 261.866C99.4923 262.815 100.291 264.414 101.279 265.792C102.363 267.303 103.422 268.86 104.544 270.344C105.666 271.827 106.826 273.283 108.082 274.671C109.392 276.135 110.842 277.47 112.197 278.874C113.496 280.201 114.733 281.602 116.057 282.883C117.395 284.182 118.777 285.422 120.158 286.661C121.507 287.895 122.894 289.102 124.761 290.775L124.742 290.789Z" fill="#C89663"/>
<path d="M170.982 423.039C181.045 414.924 188.271 404.268 196.675 394.649C193.359 400.33 189.291 405.448 185.116 410.498C181.029 415.428 177.071 420.497 171.769 424.096C171.508 423.733 171.242 423.402 170.963 423.053L170.982 423.039Z" fill="#C89663"/>
<path d="M205.84 317.752C204.954 318.012 204.035 318.468 203.121 318.486C200.033 318.586 196.886 318.845 193.841 318.479C185.798 317.528 177.963 315.616 170.265 313.085C169.512 312.843 168.808 312.508 168.131 312.009C180.549 314.573 192.717 318.851 205.751 316.86C205.788 317.153 205.824 317.446 205.84 317.752Z" fill="#C89663"/>
<path d="M326.838 325.546C325.883 326.114 325 326.863 323.98 327.219C314.946 330.424 305.717 332.669 296.135 333.372C295.946 333.392 295.752 333.241 295.144 333.04C300.786 331.774 306.07 330.737 311.291 329.368C316.407 328.015 321.46 326.332 326.544 324.772C326.637 325.023 326.744 325.294 326.857 325.532L326.838 325.546Z" fill="#C89663"/>
<path d="M224.176 468.278C221.695 464.496 220.895 444.708 222.631 434.803C223.149 445.872 223.651 456.837 224.176 468.278Z" fill="#C89663"/>
<path d="M268.188 490.529C268.311 478.131 266.121 465.944 265.012 453.648C267.379 465.273 269.576 476.905 269.497 488.837C269.484 489.426 269.033 490.01 268.785 490.593C268.588 490.561 268.391 490.528 268.194 490.496L268.188 490.529Z" fill="#C89663"/>
<path d="M186.518 357.33C199.296 346.776 213.96 337.157 218.276 336.871C207.041 344.118 195.944 351.236 186.518 357.33Z" fill="#C89663"/>
<path d="M131.818 384.191C124.334 390.688 116.849 397.185 109.365 403.682C109.212 403.589 109.077 403.482 108.91 403.371C109.052 402.921 109.046 402.347 109.363 402.061C116.239 395.363 123.721 389.389 131.851 384.196L131.818 384.191Z" fill="#C89663"/>
<path d="M326.609 421.087C333.136 427.239 340.56 434.195 348.019 441.242C347.698 442.168 347.103 441.986 346.456 441.407C343.984 439.213 341.443 437.125 339.053 434.842C334.252 430.29 329.668 425.555 326.609 421.087Z" fill="#C89663"/>
<path d="M272.674 374.411C278.091 381.359 284.025 398.565 282.605 403.899C281.047 402.091 281.64 399.928 281.068 398.079C280.411 396.03 280.005 393.889 279.405 391.799C278.835 389.833 278.181 387.869 277.507 385.919C276.817 383.866 276.159 381.817 275.326 379.808C274.524 377.921 273.541 376.106 272.693 374.397L272.674 374.411Z" fill="#C89663"/>
<path d="M279.317 374.339C273.994 364.775 269.472 354.752 262.289 345.827C266.738 347.908 276.331 364.113 279.317 374.339Z" fill="#C89663"/>
<path d="M199.47 195.026C201.355 203.03 203.24 211.033 205.125 219.036C204.983 219.08 204.822 219.138 204.68 219.182C203.794 216.574 202.837 213.987 202.023 211.356C201.181 208.687 200.339 206.017 199.776 203.293C199.195 200.582 197.693 197.923 198.693 195.033C198.948 195.024 199.221 195.002 199.476 194.993L199.47 195.026Z" fill="#C89663"/>
<path d="M220.467 277.286C225.065 285.313 229.094 293.517 234.914 300.784C233.374 301.425 232.961 300.244 232.388 299.525C227.92 293.78 224.414 287.518 221.767 280.756C221.317 279.602 220.899 278.454 220.481 277.305L220.467 277.286Z" fill="#C89663"/>
<path d="M233.818 221.138C231.952 213.121 232.529 198.891 235.154 195.763C234.858 198.988 234.572 201.539 234.404 204.093C234.231 206.882 234.175 209.673 234.086 212.459C233.986 215.109 233.919 217.763 233.818 221.138Z" fill="#C89663"/>
<path d="M278.016 351.348C285.773 356.183 292.549 362.156 298.666 368.949C291.62 363.285 284.573 357.622 277.513 351.94C277.682 351.732 277.852 351.523 278.016 351.348Z" fill="#C89663"/>
<path d="M242.768 343.057C248.19 337.402 253.347 332.024 258.807 326.341C255.106 333.022 250.107 338.054 244.637 342.672C244.282 342.985 243.606 342.891 242.768 343.057Z" fill="#C89663"/>
<path d="M265.841 314.085C273.51 311.887 280.791 309.794 287.806 307.775C284.638 310.511 269.174 315.257 265.841 314.085Z" fill="#C89663"/>
<path d="M304.212 360.193C309.925 361.976 319.795 368.829 321.186 372.263C315.688 368.356 310.178 364.43 304.212 360.193Z" fill="#C89663"/>
<path d="M286.31 272.672C290.89 267.621 300.21 261.864 304.168 262.009C297.897 265.753 291.703 269.442 286.31 272.672Z" fill="#C89663"/>
<path d="M178.438 319.592C186.681 320.458 194.844 322.222 203.243 321.325C201.496 322.809 199.424 322.789 197.401 322.676C190.979 322.329 184.63 321.437 178.438 319.592Z" fill="#C89663"/>
<path d="M253.91 300.397C246.996 304.052 242.396 310.045 237.689 315.969C239.721 309.791 249.5 300.229 253.91 300.397Z" fill="#C89663"/>
<path d="M217.835 440.24C218.233 447.544 218.586 454.3 218.97 461.584C216.814 458.699 216.33 446.91 217.835 440.24Z" fill="#C89663"/>
<path d="M198.944 210.377C195.233 203.626 192.577 194.466 193.194 191.649C193.298 191.632 193.388 191.596 193.487 191.613C193.585 191.629 193.75 191.656 193.758 191.708C195.498 197.933 197.205 204.152 198.925 210.391L198.944 210.377Z" fill="#C89663"/>
<path d="M217.851 308.676C212.829 312.625 210.45 317.835 207.409 322.566C208.625 316.624 214.028 309.043 217.851 308.676Z" fill="#C89663"/>
<path d="M108.654 269.771C104.478 265.524 100.456 261.168 98.2025 255.601C98.413 255.45 98.6044 255.313 98.815 255.162C102.096 260.02 105.373 264.912 108.654 269.771Z" fill="#C89663"/>
<path d="M352.501 440.056C348.405 437.78 345.006 434.657 342.222 430.774C345.834 433.629 349.46 436.502 353.072 439.357C352.884 439.579 352.695 439.801 352.52 440.042L352.501 440.056Z" fill="#C89663"/>
<path d="M327.925 320.798C324.184 323.22 319.998 324.253 315.636 324.717C319.618 323.077 323.563 321.262 327.925 320.798Z" fill="#C89663"/>
<path d="M243.111 339.857C244.668 338.189 246.212 336.503 247.77 334.835C249.385 333.127 251.027 331.457 252.82 329.592C251.208 333.325 245.793 339.353 243.111 339.857Z" fill="#C89663"/>
<path d="M108.535 398.078C111.225 394.151 115.069 391.509 119.6 388.492C115.714 392.206 112.385 395.404 109.037 398.616C108.881 398.439 108.705 398.275 108.549 398.097L108.535 398.078Z" fill="#C89663"/>
<path d="M239.982 308.416C242.492 304.965 244.793 301.345 249.273 300.276C246.176 302.989 243.079 305.703 239.982 308.416Z" fill="#C89663"/>
<path d="M222.412 336.657C225.558 337.326 228.362 337.922 231.002 338.491C229.203 339.984 226.501 339.489 222.412 336.657Z" fill="#C89663"/>
<path d="M235.615 342.336C234.237 338.314 234.717 335.912 236.96 334.594C236.534 337.072 236.048 339.708 235.615 342.336Z" fill="#C89663"/>
<path d="M233.733 343.31C232.576 340.201 232.101 337.558 233.854 334.911C233.806 337.552 233.758 340.193 233.733 343.31Z" fill="#C89663"/>
</g>
<defs>
<clipPath id="clip0_2_803">
<rect width="350.204" height="450.146" fill="white" transform="translate(204.092 546.922) rotate(-125.646)"/>
</clipPath>
</defs>
</svg>
