<svg width="244" height="26" viewBox="0 0 244 26" fill="none" xmlns="http://www.w3.org/2000/svg">
<path d="M19.68 25.08C19.52 25.1 19.35 25.11 19.17 25.11C19.01 25.11 18.85 25.11 18.69 25.11C17.61 25.11 16.48 25 15.3 24.78C14.12 24.58 12.95 24.31 11.79 23.97C10.65 23.63 9.57999 23.26 8.57999 22.86L6.05999 21.84C5.85999 21.94 5.65999 22.03 5.45999 22.11C5.27999 22.19 5.07999 22.27 4.85999 22.35C4.19999 22.57 3.42999 22.68 2.54999 22.68C2.22999 22.68 1.91999 22.65 1.61999 22.59C1.31999 22.55 1.06999 22.48 0.869985 22.38C0.649985 22.26 0.469985 22.09 0.329985 21.87C0.209985 21.63 0.149985 21.4 0.149985 21.18C0.149985 20.96 0.209985 20.78 0.329985 20.64C0.409985 20.56 0.489985 20.52 0.569985 20.52C0.649985 20.5 0.669985 20.54 0.629985 20.64C0.569985 20.96 0.699985 21.25 1.01999 21.51C1.35999 21.75 1.66999 21.91 1.94999 21.99C2.20999 22.07 2.52999 22.11 2.90999 22.11C3.46999 22.11 3.99999 22.01 4.49999 21.81L5.18999 21.51C4.72999 21.31 4.25999 21.13 3.77999 20.97C3.29999 20.79 2.85999 20.63 2.45999 20.49C2.15999 20.39 1.76999 20.29 1.28999 20.19C0.829985 20.07 0.459985 20.04 0.179985 20.1H0.149985C0.0899854 20.1 0.0499854 20.07 0.0299854 20.01C0.00998536 19.95 0.0399854 19.89 0.119985 19.83C0.219985 19.75 0.419985 19.71 0.719985 19.71C1.03999 19.71 1.38999 19.76 1.76999 19.86C2.14999 19.94 2.42999 20 2.60999 20.04L5.96999 20.97C6.44999 20.57 6.91999 20.1 7.37999 19.56C7.83999 19.02 8.26999 18.44 8.66999 17.82C9.38999 16.72 10.09 15.46 10.77 14.04C11.47 12.6 12.19 11.14 12.93 9.66C13.69 8.16 14.52 6.8 15.42 5.58C15.88 4.94 16.42 4.31 17.04 3.69C17.66 3.07 18.34 2.57 19.08 2.19C19.52 1.97 19.97 1.79 20.43 1.65C20.89 1.51 21.37 1.44 21.87 1.44C22.91 1.44 23.7 1.71 24.24 2.25C24.78 2.79 25.05 3.47 25.05 4.29C25.05 4.49 25.03 4.7 24.99 4.92C24.97 5.14 24.92 5.36 24.84 5.58C24.54 6.56 23.99 7.4 23.19 8.1C22.39 8.78 21.51 9.29 20.55 9.63C20.43 9.67 20.36 9.69 20.34 9.69C20.24 9.69 20.19 9.65 20.19 9.57C20.19 9.45 20.27 9.36 20.43 9.3C21.33 8.96 22.14 8.43 22.86 7.71C23.6 6.99 24.06 6.14 24.24 5.16C24.26 5.04 24.27 4.93 24.27 4.83C24.29 4.71 24.3 4.61 24.3 4.53C24.3 3.71 24.01 3.11 23.43 2.73C22.87 2.33 22.22 2.13 21.48 2.13C20.72 2.13 20.02 2.31 19.38 2.67C18.68 3.07 17.99 3.74 17.31 4.68C16.65 5.6 16 6.67 15.36 7.89C14.74 9.09 14.13 10.33 13.53 11.61C12.95 12.87 12.38 14.06 11.82 15.18C11.28 16.3 10.75 17.23 10.23 17.97C9.78999 18.61 9.29999 19.21 8.75999 19.77C8.21999 20.33 7.63999 20.83 7.01999 21.27L8.90999 21.81C10.31 22.21 11.83 22.59 13.47 22.95C15.11 23.33 16.67 23.52 18.15 23.52C18.83 23.52 19.48 23.47 20.1 23.37C20.72 23.27 21.28 23.1 21.78 22.86C22.6 22.48 23.26 21.96 23.76 21.3C24.26 20.64 24.51 19.94 24.51 19.2C24.51 18.68 24.37 18.17 24.09 17.67C23.83 17.17 23.41 16.7 22.83 16.26C22.51 16.02 22.18 15.81 21.84 15.63C21.5 15.43 21.19 15.28 20.91 15.18C20.77 15.12 20.7 15.06 20.7 15C20.7 14.96 20.73 14.93 20.79 14.91C20.87 14.89 20.92 14.88 20.94 14.88C21.62 15.04 22.3 15.35 22.98 15.81C24.02 16.55 24.72 17.41 25.08 18.39C25.28 18.91 25.38 19.45 25.38 20.01C25.38 20.81 25.18 21.57 24.78 22.29C24.38 23.01 23.83 23.59 23.13 24.03C22.13 24.63 20.98 24.98 19.68 25.08ZM28.8049 22.44C28.1849 22.44 27.7349 22.26 27.4549 21.9C27.1949 21.54 27.0649 21.1 27.0649 20.58C27.0649 19.92 27.1949 19.2 27.4549 18.42C27.7349 17.64 28.0549 16.9 28.4149 16.2C28.7749 15.48 29.0649 14.92 29.2849 14.52C29.7249 13.78 30.1649 13.32 30.6049 13.14C31.0649 12.96 31.6249 12.87 32.2849 12.87C32.0849 12.93 31.8249 13.17 31.5049 13.59C31.1849 13.99 30.8449 14.49 30.4849 15.09C30.1449 15.69 29.8149 16.34 29.4949 17.04C29.1949 17.72 28.9449 18.39 28.7449 19.05C28.5649 19.69 28.4749 20.24 28.4749 20.7C28.4749 21.04 28.5349 21.32 28.6549 21.54C28.7949 21.76 29.0049 21.87 29.2849 21.87C29.5249 21.87 29.8049 21.78 30.1249 21.6C30.4449 21.4 30.7349 21.16 30.9949 20.88C31.8749 19.9 32.5849 18.83 33.1249 17.67C33.6849 16.49 34.3049 15.32 34.9849 14.16C35.4249 13.42 35.8649 12.96 36.3049 12.78C36.7649 12.6 37.3249 12.51 37.9849 12.51C37.7849 12.57 37.5149 12.82 37.1749 13.26C36.8349 13.68 36.4749 14.21 36.0949 14.85C35.7349 15.49 35.3949 16.18 35.0749 16.92C34.7549 17.64 34.4849 18.34 34.2649 19.02C34.0649 19.7 33.9649 20.28 33.9649 20.76C33.9649 21.08 34.0249 21.35 34.1449 21.57C34.2849 21.77 34.4849 21.87 34.7449 21.87C34.9849 21.87 35.2649 21.77 35.5849 21.57C35.9049 21.37 36.1949 21.14 36.4549 20.88C36.9149 20.38 37.3349 19.83 37.7149 19.23C38.0949 18.63 38.4749 17.99 38.8549 17.31C38.9149 17.23 38.9649 17.19 39.0049 17.19C39.0849 17.19 39.1249 17.25 39.1249 17.37C39.1249 17.47 39.1049 17.55 39.0649 17.61C38.7049 18.27 38.3249 18.93 37.9249 19.59C37.5249 20.25 37.0349 20.87 36.4549 21.45C36.1349 21.77 35.7549 22.04 35.3149 22.26C34.8949 22.46 34.4749 22.52 34.0549 22.44C33.4949 22.34 33.0949 22.12 32.8549 21.78C32.6149 21.42 32.4949 20.99 32.4949 20.49C32.4949 20.09 32.5549 19.67 32.6749 19.23C32.4349 19.61 32.1749 19.99 31.8949 20.37C31.6349 20.75 31.3349 21.11 30.9949 21.45C30.7149 21.73 30.3749 21.97 29.9749 22.17C29.5949 22.35 29.2049 22.44 28.8049 22.44ZM45.0755 22.47C44.4355 22.47 43.9355 22.32 43.5755 22.02C43.2355 21.7 42.9855 21.31 42.8255 20.85C42.6655 20.39 42.5655 19.92 42.5255 19.44C42.5055 18.96 42.4955 18.55 42.4955 18.21C42.1555 18.61 41.7755 19.07 41.3555 19.59C40.9555 20.11 40.5755 20.61 40.2155 21.09C39.8755 21.55 39.6055 21.94 39.4055 22.26H37.9355C38.2155 22.06 38.6055 21.71 39.1055 21.21C39.6255 20.69 40.1855 20.12 40.7855 19.5C41.3855 18.86 41.9555 18.26 42.4955 17.7L42.6755 15.39C42.6955 15.29 42.7055 15.14 42.7055 14.94C42.7255 14.72 42.7355 14.49 42.7355 14.25C42.7355 14.11 42.7355 13.97 42.7355 13.83C42.7355 13.69 42.7155 13.56 42.6755 13.44C42.6155 13.08 42.4455 12.9 42.1655 12.9C41.9655 12.9 41.7955 13 41.6555 13.2C41.4355 13.48 41.2055 13.81 40.9655 14.19C40.7455 14.57 40.5955 14.83 40.5155 14.97L38.8355 18.12C38.7555 18.3 38.6755 18.39 38.5955 18.39C38.5355 18.39 38.5055 18.33 38.5055 18.21C38.5055 18.07 38.5555 17.9 38.6555 17.7C38.9355 17.18 39.1755 16.71 39.3755 16.29C39.5755 15.87 39.8155 15.4 40.0955 14.88C40.3555 14.42 40.5955 13.99 40.8155 13.59C41.0555 13.17 41.3355 12.84 41.6555 12.6C41.9955 12.34 42.4155 12.21 42.9155 12.21C43.4755 12.21 43.8555 12.41 44.0555 12.81C44.2555 13.19 44.3555 13.65 44.3555 14.19C44.3555 14.57 44.3455 14.97 44.3255 15.39C44.3255 15.79 44.3055 16.13 44.2655 16.41C44.7855 15.81 45.3255 15.14 45.8855 14.4C46.4455 13.66 46.8755 13.07 47.1755 12.63H48.6155C48.3755 12.81 48.0055 13.15 47.5055 13.65C47.0055 14.15 46.4655 14.71 45.8855 15.33C45.3055 15.93 44.7455 16.51 44.2055 17.07C44.1855 17.33 44.1655 17.6 44.1455 17.88C44.1455 18.14 44.1455 18.41 44.1455 18.69C44.1455 19.25 44.1755 19.79 44.2355 20.31C44.2955 20.65 44.4055 21.01 44.5655 21.39C44.7455 21.75 45.0355 21.94 45.4355 21.96C45.7155 21.96 46.0155 21.84 46.3355 21.6C46.6755 21.34 46.9455 21.1 47.1455 20.88C47.6055 20.38 48.0255 19.84 48.4055 19.26C48.7855 18.66 49.1655 18.01 49.5455 17.31C49.6055 17.19 49.6755 17.13 49.7555 17.13C49.8355 17.13 49.8755 17.19 49.8755 17.31C49.8755 17.41 49.8355 17.54 49.7555 17.7C49.3955 18.36 49.0155 19.01 48.6155 19.65C48.2155 20.27 47.7255 20.87 47.1455 21.45C46.5055 22.13 45.8155 22.47 45.0755 22.47ZM50.3088 22.44C49.6888 22.44 49.2388 22.26 48.9588 21.9C48.6988 21.54 48.5688 21.1 48.5688 20.58C48.5688 19.92 48.6988 19.2 48.9588 18.42C49.2388 17.64 49.5588 16.9 49.9188 16.2C50.2788 15.48 50.5688 14.92 50.7888 14.52C51.2288 13.78 51.6688 13.32 52.1088 13.14C52.5688 12.96 53.1288 12.87 53.7888 12.87C53.5888 12.93 53.3288 13.17 53.0088 13.59C52.6888 13.99 52.3488 14.49 51.9888 15.09C51.6488 15.69 51.3188 16.34 50.9988 17.04C50.6988 17.72 50.4488 18.39 50.2488 19.05C50.0688 19.69 49.9788 20.24 49.9788 20.7C49.9788 21.04 50.0388 21.32 50.1588 21.54C50.2988 21.76 50.5088 21.87 50.7888 21.87C51.0288 21.87 51.3088 21.78 51.6288 21.6C51.9488 21.4 52.2388 21.16 52.4988 20.88C53.3788 19.9 54.0888 18.83 54.6288 17.67C55.1888 16.49 55.8088 15.32 56.4888 14.16C56.9288 13.42 57.3688 12.96 57.8088 12.78C58.2688 12.6 58.8288 12.51 59.4888 12.51C59.2888 12.57 59.0188 12.82 58.6788 13.26C58.3388 13.68 57.9788 14.21 57.5988 14.85C57.2388 15.49 56.8988 16.18 56.5788 16.92C56.2588 17.64 55.9888 18.34 55.7688 19.02C55.5688 19.7 55.4688 20.28 55.4688 20.76C55.4688 21.08 55.5288 21.35 55.6488 21.57C55.7888 21.77 55.9888 21.87 56.2488 21.87C56.4888 21.87 56.7688 21.77 57.0888 21.57C57.4088 21.37 57.6988 21.14 57.9588 20.88C58.4188 20.38 58.8388 19.83 59.2188 19.23C59.5988 18.63 59.9788 17.99 60.3588 17.31C60.4188 17.23 60.4688 17.19 60.5088 17.19C60.5888 17.19 60.6288 17.25 60.6288 17.37C60.6288 17.47 60.6088 17.55 60.5688 17.61C60.2088 18.27 59.8288 18.93 59.4288 19.59C59.0288 20.25 58.5388 20.87 57.9588 21.45C57.6388 21.77 57.2588 22.04 56.8188 22.26C56.3988 22.46 55.9788 22.52 55.5588 22.44C54.9988 22.34 54.5988 22.12 54.3588 21.78C54.1188 21.42 53.9988 20.99 53.9988 20.49C53.9988 20.09 54.0588 19.67 54.1788 19.23C53.9388 19.61 53.6788 19.99 53.3988 20.37C53.1388 20.75 52.8388 21.11 52.4988 21.45C52.2188 21.73 51.8788 21.97 51.4788 22.17C51.0988 22.35 50.7088 22.44 50.3088 22.44ZM66.0094 21.72C65.6694 22 65.3294 22.2 64.9894 22.32C64.6694 22.46 64.3694 22.53 64.0894 22.53C63.5894 22.53 63.1694 22.36 62.8294 22.02C62.5094 21.66 62.3494 21.19 62.3494 20.61C62.3494 20.27 62.4294 19.86 62.5894 19.38C62.8494 18.66 63.2394 17.97 63.7594 17.31C64.2794 16.65 64.7794 15.98 65.2594 15.3C65.5594 14.9 65.7094 14.51 65.7094 14.13C65.7094 13.93 65.6494 13.76 65.5294 13.62C65.4294 13.48 65.2394 13.4 64.9594 13.38C64.7994 13.34 64.6194 13.32 64.4194 13.32C64.2194 13.32 64.0194 13.32 63.8194 13.32H62.9794C62.8594 13.32 62.7494 13.32 62.6494 13.32C62.5494 13.32 62.4594 13.31 62.3794 13.29C62.2994 13.79 62.1294 14.35 61.8694 14.97C61.6294 15.59 61.3494 16.21 61.0294 16.83C60.7094 17.45 60.3994 18.01 60.0994 18.51C60.0194 18.63 59.9494 18.69 59.8894 18.69C59.8294 18.69 59.7994 18.63 59.7994 18.51C59.7994 18.37 59.8294 18.26 59.8894 18.18C60.3094 17.36 60.7094 16.56 61.0894 15.78C61.4894 14.98 61.7594 14.15 61.8994 13.29C61.4394 13.03 61.1294 12.58 60.9694 11.94C60.9494 11.84 60.9294 11.75 60.9094 11.67C60.9094 11.57 60.9094 11.48 60.9094 11.4C60.9094 11.04 60.9794 10.74 61.1194 10.5C61.2794 10.24 61.4594 10.11 61.6594 10.11C61.9394 10.11 62.1694 10.38 62.3494 10.92C62.3894 11.06 62.4194 11.22 62.4394 11.4C62.4594 11.56 62.4694 11.72 62.4694 11.88C62.4694 12.06 62.4594 12.23 62.4394 12.39C62.4394 12.53 62.4294 12.65 62.4094 12.75C62.5494 12.79 62.7294 12.82 62.9494 12.84C63.1894 12.86 63.4494 12.87 63.7294 12.87C64.1494 12.87 64.5894 12.86 65.0494 12.84C65.5094 12.8 65.8994 12.78 66.2194 12.78C66.5994 12.78 66.8594 12.86 66.9994 13.02C67.1394 13.18 67.2094 13.38 67.2094 13.62C67.2094 13.92 67.1294 14.25 66.9694 14.61C66.8294 14.95 66.6894 15.24 66.5494 15.48C66.2894 15.96 66.0394 16.39 65.7994 16.77C65.5794 17.13 65.3294 17.52 65.0494 17.94C64.6294 18.58 64.3194 19.17 64.1194 19.71C63.9394 20.23 63.8494 20.67 63.8494 21.03C63.8494 21.65 64.0794 21.96 64.5394 21.96C64.9194 21.96 65.4094 21.69 66.0094 21.15C66.3894 20.81 66.7394 20.41 67.0594 19.95C67.3994 19.47 67.6994 18.99 67.9594 18.51C68.2394 18.01 68.4694 17.6 68.6494 17.28C68.6894 17.22 68.7294 17.19 68.7694 17.19C68.8494 17.19 68.8894 17.27 68.8894 17.43C68.8894 17.55 68.8594 17.66 68.7994 17.76C68.4594 18.38 68.0694 19.06 67.6294 19.8C67.1894 20.54 66.6494 21.18 66.0094 21.72ZM69.3204 22.44C68.7604 22.44 68.3504 22.26 68.0904 21.9C67.8304 21.52 67.7004 21.06 67.7004 20.52C67.7004 20.36 67.7104 20.2 67.7304 20.04C67.7704 19.86 67.8104 19.68 67.8504 19.5C68.0704 18.7 68.4104 17.81 68.8704 16.83C69.3504 15.83 69.8104 14.94 70.2504 14.16C70.5104 13.72 70.7504 13.41 70.9704 13.23C71.1904 13.03 71.4304 12.89 71.6904 12.81C71.9504 12.71 72.2604 12.6 72.6204 12.48C72.7204 12.44 72.8204 12.41 72.9204 12.39C73.0204 12.37 73.1304 12.35 73.2504 12.33C72.8504 12.73 72.4404 13.21 72.0204 13.77C71.6204 14.33 71.1804 15.1 70.7004 16.08C70.4404 16.6 70.1804 17.18 69.9204 17.82C69.6804 18.46 69.4704 19.06 69.2904 19.62C69.1104 20.18 69.0104 20.62 68.9904 20.94C68.9704 21.32 69.0204 21.59 69.1404 21.75C69.2604 21.91 69.4204 21.99 69.6204 21.99C69.9604 21.99 70.2804 21.87 70.5804 21.63C70.9004 21.39 71.1804 21.14 71.4204 20.88C71.8604 20.38 72.2704 19.83 72.6504 19.23C73.0504 18.63 73.4404 17.99 73.8204 17.31C73.8804 17.23 73.9304 17.19 73.9704 17.19C74.0504 17.19 74.0904 17.25 74.0904 17.37C74.0904 17.47 74.0704 17.55 74.0304 17.61C73.6704 18.27 73.2904 18.93 72.8904 19.59C72.4904 20.25 72.0004 20.87 71.4204 21.45C71.1604 21.71 70.8504 21.94 70.4904 22.14C70.1504 22.34 69.7604 22.44 69.3204 22.44ZM72.9804 10.65C72.7604 10.65 72.5704 10.57 72.4104 10.41C72.2704 10.25 72.2004 10.06 72.2004 9.84C72.2004 9.56 72.3104 9.31 72.5304 9.09C72.7704 8.87 73.0304 8.74 73.3104 8.7C73.5304 8.7 73.7104 8.78 73.8504 8.94C74.0104 9.08 74.0904 9.27 74.0904 9.51C74.0904 9.77 73.9804 10.03 73.7604 10.29C73.5404 10.53 73.2804 10.65 72.9804 10.65ZM76.0666 22.86C75.3066 22.86 74.6466 22.62 74.0866 22.14C73.5466 21.64 73.2766 20.88 73.2766 19.86C73.2766 19.22 73.3866 18.56 73.6066 17.88C73.8466 17.18 74.1066 16.56 74.3866 16.02C74.9066 15.04 75.5566 14.19 76.3366 13.47C77.1366 12.73 78.0866 12.36 79.1866 12.36C80.2466 12.36 80.9866 12.65 81.4066 13.23C81.8266 13.81 82.0366 14.52 82.0366 15.36C82.0366 15.7 82.0066 16.05 81.9466 16.41C81.7866 17.39 81.4566 18.34 80.9566 19.26C81.0966 19.46 81.2766 19.63 81.4966 19.77C81.7366 19.89 81.9966 19.95 82.2766 19.95C82.7566 19.95 83.1666 19.82 83.5066 19.56C83.8466 19.3 84.1366 18.98 84.3766 18.6C84.6366 18.2 84.8566 17.83 85.0366 17.49C85.1566 17.27 85.2666 17.16 85.3666 17.16C85.4266 17.16 85.4566 17.2 85.4566 17.28C85.4566 17.36 85.3966 17.54 85.2766 17.82C84.9366 18.5 84.5366 19.09 84.0766 19.59C83.6166 20.09 83.0166 20.34 82.2766 20.34C81.5966 20.34 81.0766 20.1 80.7166 19.62C80.1566 20.54 79.4766 21.31 78.6766 21.93C77.8766 22.55 77.0066 22.86 76.0666 22.86ZM76.1266 22.5C77.1066 22.5 78.0766 22.02 79.0366 21.06C79.3166 20.78 79.5666 20.49 79.7866 20.19C80.0266 19.87 80.2366 19.55 80.4166 19.23C80.1566 18.93 79.9666 18.61 79.8466 18.27C79.7466 17.91 79.6966 17.57 79.6966 17.25C79.6966 16.75 79.7866 16.31 79.9666 15.93C80.1466 15.53 80.3966 15.33 80.7166 15.33C80.8766 15.33 81.0266 15.41 81.1666 15.57C81.3266 15.73 81.4266 15.98 81.4666 16.32C81.5266 16.04 81.5566 15.74 81.5566 15.42C81.5566 14.66 81.4166 14.06 81.1366 13.62C80.8566 13.16 80.3866 12.93 79.7266 12.93C79.3266 12.93 78.9166 13.09 78.4966 13.41C78.0766 13.71 77.6766 14.08 77.2966 14.52C76.9366 14.96 76.6166 15.41 76.3366 15.87C76.0566 16.33 75.8466 16.71 75.7066 17.01C75.3666 17.75 75.1166 18.41 74.9566 18.99C74.8166 19.57 74.7466 20.08 74.7466 20.52C74.7466 21.16 74.8766 21.65 75.1366 21.99C75.4166 22.33 75.7466 22.5 76.1266 22.5ZM85.9045 22.44C85.2845 22.44 84.8345 22.26 84.5545 21.9C84.2945 21.54 84.1645 21.1 84.1645 20.58C84.1645 19.92 84.2945 19.2 84.5545 18.42C84.8345 17.64 85.1545 16.9 85.5145 16.2C85.8745 15.48 86.1645 14.92 86.3845 14.52C86.8245 13.78 87.2645 13.32 87.7045 13.14C88.1645 12.96 88.7245 12.87 89.3845 12.87C89.1845 12.93 88.9245 13.17 88.6045 13.59C88.2845 13.99 87.9445 14.49 87.5845 15.09C87.2445 15.69 86.9145 16.34 86.5945 17.04C86.2945 17.72 86.0445 18.39 85.8445 19.05C85.6645 19.69 85.5745 20.24 85.5745 20.7C85.5745 21.04 85.6345 21.32 85.7545 21.54C85.8945 21.76 86.1045 21.87 86.3845 21.87C86.6245 21.87 86.9045 21.78 87.2245 21.6C87.5445 21.4 87.8345 21.16 88.0945 20.88C88.9745 19.9 89.6845 18.83 90.2245 17.67C90.7845 16.49 91.4045 15.32 92.0845 14.16C92.5245 13.42 92.9645 12.96 93.4045 12.78C93.8645 12.6 94.4245 12.51 95.0845 12.51C94.8845 12.57 94.6145 12.82 94.2745 13.26C93.9345 13.68 93.5745 14.21 93.1945 14.85C92.8345 15.49 92.4945 16.18 92.1745 16.92C91.8545 17.64 91.5845 18.34 91.3645 19.02C91.1645 19.7 91.0645 20.28 91.0645 20.76C91.0645 21.08 91.1245 21.35 91.2445 21.57C91.3845 21.77 91.5845 21.87 91.8445 21.87C92.0845 21.87 92.3645 21.77 92.6845 21.57C93.0045 21.37 93.2945 21.14 93.5545 20.88C94.0145 20.38 94.4345 19.83 94.8145 19.23C95.1945 18.63 95.5745 17.99 95.9545 17.31C96.0145 17.23 96.0645 17.19 96.1045 17.19C96.1845 17.19 96.2245 17.25 96.2245 17.37C96.2245 17.47 96.2045 17.55 96.1645 17.61C95.8045 18.27 95.4245 18.93 95.0245 19.59C94.6245 20.25 94.1345 20.87 93.5545 21.45C93.2345 21.77 92.8545 22.04 92.4145 22.26C91.9945 22.46 91.5745 22.52 91.1545 22.44C90.5945 22.34 90.1945 22.12 89.9545 21.78C89.7145 21.42 89.5945 20.99 89.5945 20.49C89.5945 20.09 89.6545 19.67 89.7745 19.23C89.5345 19.61 89.2745 19.99 88.9945 20.37C88.7345 20.75 88.4345 21.11 88.0945 21.45C87.8145 21.73 87.4745 21.97 87.0745 22.17C86.6945 22.35 86.3045 22.44 85.9045 22.44ZM96.5951 22.5C96.1751 22.5 95.7851 22.42 95.4251 22.26C95.0851 22.08 94.8051 21.78 94.5851 21.36C94.4251 21 94.3451 20.61 94.3451 20.19C94.3451 19.75 94.4251 19.34 94.5851 18.96C94.7451 18.62 94.9251 18.32 95.1251 18.06C95.3251 17.8 95.5451 17.65 95.7851 17.61C95.9651 17.21 96.2151 16.75 96.5351 16.23C96.8551 15.69 97.2151 15.15 97.6151 14.61C98.0351 14.07 98.4551 13.59 98.8751 13.17C99.4151 12.63 99.9951 12.2 100.615 11.88C101.235 11.56 101.855 11.4 102.475 11.4C102.955 11.4 103.395 11.5 103.795 11.7C104.135 11.86 104.305 12.09 104.305 12.39C104.305 12.53 104.255 12.65 104.155 12.75C104.075 12.85 103.985 12.9 103.885 12.9C103.765 12.9 103.645 12.83 103.525 12.69C103.305 12.41 102.935 12.2 102.415 12.06C102.335 12.04 102.255 12.03 102.175 12.03C102.095 12.01 102.015 12 101.935 12C101.395 12 100.995 12.18 100.735 12.54C100.475 12.9 100.345 13.34 100.345 13.86C100.345 14.36 100.455 14.94 100.675 15.6C100.895 16.24 101.005 16.96 101.005 17.76C101.005 18.4 100.875 19.05 100.615 19.71C100.475 20.03 100.305 20.34 100.105 20.64C99.9251 20.94 99.6951 21.21 99.4151 21.45L98.9951 21.75C99.0551 21.77 99.1151 21.79 99.1751 21.81C99.2351 21.81 99.2951 21.81 99.3551 21.81C99.6951 21.81 100.075 21.71 100.495 21.51C100.915 21.29 101.285 21.02 101.605 20.7C102.085 20.24 102.495 19.75 102.835 19.23C103.195 18.71 103.525 18.17 103.825 17.61C103.845 17.53 103.895 17.49 103.975 17.49C104.075 17.49 104.125 17.57 104.125 17.73C104.125 17.81 104.095 17.9 104.035 18C103.735 18.56 103.365 19.15 102.925 19.77C102.505 20.37 102.065 20.88 101.605 21.3C101.245 21.62 100.855 21.86 100.435 22.02C100.035 22.16 99.6951 22.23 99.4151 22.23C99.2151 22.23 99.0551 22.21 98.9351 22.17C98.8151 22.13 98.7051 22.07 98.6051 21.99C98.3251 22.13 98.0051 22.25 97.6451 22.35C97.3051 22.45 96.9551 22.5 96.5951 22.5ZM97.7351 21.72C98.1351 21.44 98.4451 21.08 98.6651 20.64C98.9051 20.2 99.0851 19.73 99.2051 19.23C99.3651 18.63 99.4551 18.05 99.4751 17.49C99.5151 16.91 99.5351 16.4 99.5351 15.96V15.03C99.5351 14.61 99.5851 14.18 99.6851 13.74C99.8051 13.28 99.9651 12.94 100.165 12.72C99.9051 12.78 99.5851 13.01 99.2051 13.41C98.8251 13.79 98.4451 14.24 98.0651 14.76C97.6851 15.28 97.3351 15.8 97.0151 16.32C96.7151 16.84 96.4851 17.27 96.3251 17.61C96.7051 17.59 96.9651 17.7 97.1051 17.94C97.2451 18.16 97.2851 18.32 97.2251 18.42C97.0651 18.38 96.9551 18.36 96.8951 18.36C96.5951 18.36 96.3151 18.47 96.0551 18.69C95.7951 18.89 95.5751 19.19 95.3951 19.59C95.2151 19.97 95.1251 20.34 95.1251 20.7C95.1251 21.18 95.2651 21.53 95.5451 21.75C95.8251 21.97 96.1551 22.08 96.5351 22.08C96.9751 22.08 97.3751 21.96 97.7351 21.72ZM107.561 24.99C107.341 24.99 107.021 24.96 106.601 24.9C106.181 24.84 105.801 24.71 105.461 24.51C105.101 24.31 104.921 23.99 104.921 23.55C104.921 23.31 104.981 23.12 105.101 22.98C105.181 22.88 105.261 22.83 105.341 22.83C105.421 22.83 105.451 22.88 105.431 22.98C105.351 23.28 105.461 23.56 105.761 23.82C106.041 24.1 106.321 24.28 106.601 24.36C106.921 24.44 107.261 24.48 107.621 24.48C108.401 24.48 109.121 24.28 109.781 23.88C110.461 23.48 111.061 22.98 111.581 22.38C110.841 21.86 110.181 21.21 109.601 20.43C109.041 19.65 108.761 18.77 108.761 17.79C108.761 17.49 108.791 17.19 108.851 16.89C109.071 15.81 109.621 14.97 110.501 14.37C110.961 14.05 111.481 13.89 112.061 13.89C112.441 13.89 112.781 13.96 113.081 14.1C113.401 14.22 113.621 14.37 113.741 14.55V14.58C113.741 14.66 113.701 14.74 113.621 14.82C113.541 14.88 113.481 14.89 113.441 14.85C113.301 14.59 113.031 14.46 112.631 14.46C112.411 14.46 112.171 14.51 111.911 14.61C111.651 14.69 111.411 14.84 111.191 15.06C110.931 15.28 110.721 15.56 110.561 15.9C110.401 16.22 110.271 16.56 110.171 16.92C110.051 17.34 109.991 17.75 109.991 18.15C109.991 18.95 110.181 19.67 110.561 20.31C110.941 20.95 111.411 21.5 111.971 21.96C112.691 21.06 113.361 20.04 113.981 18.9C114.621 17.76 115.201 16.65 115.721 15.57C116.261 14.47 116.741 13.55 117.161 12.81C118.721 10.07 120.221 7.95 121.661 6.45C123.121 4.93 124.471 4.17 125.711 4.17C125.971 4.17 126.221 4.2 126.461 4.26C126.541 4.28 126.561 4.33 126.521 4.41C126.481 4.49 126.421 4.52 126.341 4.5C126.261 4.48 126.181 4.47 126.101 4.47C126.041 4.45 125.971 4.44 125.891 4.44C125.291 4.44 124.641 4.74 123.941 5.34C123.241 5.92 122.521 6.73 121.781 7.77C121.041 8.79 120.301 9.97 119.561 11.31C119.821 11.15 120.121 11.04 120.461 10.98C120.821 10.9 121.191 10.86 121.571 10.86C122.151 10.86 122.731 10.92 123.311 11.04C123.911 11.16 124.411 11.3 124.811 11.46C125.711 10.76 126.431 9.89 126.971 8.85C127.531 7.81 127.811 6.81 127.811 5.85C127.811 4.89 127.561 4.12 127.061 3.54C126.561 2.96 125.931 2.52 125.171 2.22C124.411 1.92 123.611 1.72 122.771 1.62C121.931 1.52 121.161 1.47 120.461 1.47C119.341 1.47 118.221 1.59 117.101 1.83C116.001 2.07 114.981 2.42 114.041 2.88C113.101 3.32 112.301 3.86 111.641 4.5C111.101 5.02 110.591 5.71 110.111 6.57C109.631 7.43 109.391 8.3 109.391 9.18C109.391 9.54 109.451 9.89 109.571 10.23C109.771 10.79 110.131 11.23 110.651 11.55C111.171 11.85 111.771 12 112.451 12C112.711 12 112.981 11.97 113.261 11.91C113.541 11.85 113.821 11.78 114.101 11.7H114.161C114.221 11.7 114.251 11.73 114.251 11.79C114.251 11.87 114.201 11.93 114.101 11.97C113.561 12.15 113.001 12.24 112.421 12.24C111.741 12.24 111.101 12.11 110.501 11.85C109.901 11.57 109.411 11.16 109.031 10.62C108.651 10.08 108.461 9.41 108.461 8.61C108.461 7.99 108.541 7.42 108.701 6.9C108.881 6.38 109.121 5.89 109.421 5.43C110.081 4.45 111.011 3.64 112.211 3C113.411 2.36 114.741 1.88 116.201 1.56C117.661 1.24 119.111 1.08 120.551 1.08C121.231 1.08 122.011 1.13 122.891 1.23C123.791 1.33 124.681 1.52 125.561 1.8C126.441 2.06 127.211 2.44 127.871 2.94C128.551 3.44 129.021 4.08 129.281 4.86C129.401 5.24 129.461 5.65 129.461 6.09C129.461 6.89 129.261 7.7 128.861 8.52C128.461 9.32 127.961 10.02 127.361 10.62C126.901 11.12 126.341 11.56 125.681 11.94C126.621 12.4 127.321 13.03 127.781 13.83C128.241 14.61 128.471 15.45 128.471 16.35C128.471 17.29 128.231 18.23 127.751 19.17C127.271 20.11 126.561 20.96 125.621 21.72C124.701 22.48 123.551 23.06 122.171 23.46C121.531 23.64 120.841 23.78 120.101 23.88C119.381 23.98 118.641 24.03 117.881 24.03C117.101 24.03 116.321 23.97 115.541 23.85C114.761 23.73 114.011 23.54 113.291 23.28C113.171 23.24 113.041 23.19 112.901 23.13C112.761 23.07 112.631 23 112.511 22.92C111.431 23.88 110.261 24.51 109.001 24.81C108.521 24.93 108.041 24.99 107.561 24.99ZM120.791 13.08C121.431 13.08 122.041 12.98 122.621 12.78C123.221 12.56 123.781 12.26 124.301 11.88C123.921 11.64 123.491 11.48 123.011 11.4C122.531 11.3 121.981 11.25 121.361 11.25C120.781 11.25 120.321 11.37 119.981 11.61C119.641 11.85 119.471 12.1 119.471 12.36C119.471 12.56 119.571 12.73 119.771 12.87C119.991 13.01 120.331 13.08 120.791 13.08ZM122.021 22.89C123.041 22.45 123.891 21.87 124.571 21.15C125.271 20.41 125.801 19.6 126.161 18.72C126.521 17.84 126.701 16.98 126.701 16.14C126.701 15.38 126.551 14.67 126.251 14.01C125.971 13.35 125.531 12.8 124.931 12.36C124.311 12.66 123.631 12.91 122.891 13.11C122.171 13.31 121.431 13.41 120.671 13.41C120.111 13.41 119.691 13.34 119.411 13.2C119.131 13.04 118.941 12.88 118.841 12.72C118.581 13.22 118.331 13.74 118.091 14.28C117.851 14.82 117.601 15.36 117.341 15.9C116.821 16.98 116.191 18.12 115.451 19.32C114.731 20.52 113.881 21.59 112.901 22.53C113.021 22.61 113.141 22.67 113.261 22.71C113.381 22.77 113.501 22.82 113.621 22.86C114.281 23.1 114.981 23.28 115.721 23.4C116.461 23.52 117.201 23.58 117.941 23.58C118.721 23.58 119.461 23.51 120.161 23.37C120.881 23.25 121.501 23.09 122.021 22.89ZM128.587 22.08C128.467 22.22 128.347 22.29 128.227 22.29C128.147 22.29 128.097 22.26 128.077 22.2C128.057 22.12 128.077 22.04 128.137 21.96C128.477 21.58 128.887 21.06 129.367 20.4C129.847 19.74 130.327 19.01 130.807 18.21C131.287 17.41 131.707 16.59 132.067 15.75C132.427 14.89 132.647 14.07 132.727 13.29C132.267 13.03 131.957 12.58 131.797 11.94C131.777 11.84 131.757 11.75 131.737 11.67C131.737 11.57 131.737 11.48 131.737 11.4C131.737 11.04 131.807 10.74 131.947 10.5C132.107 10.24 132.287 10.11 132.487 10.11C132.767 10.11 132.997 10.38 133.177 10.92C133.217 11.06 133.247 11.22 133.267 11.4C133.287 11.56 133.297 11.72 133.297 11.88C133.297 12.06 133.287 12.23 133.267 12.39C133.267 12.53 133.257 12.65 133.237 12.75C133.377 12.79 133.557 12.82 133.777 12.84C134.017 12.86 134.277 12.87 134.557 12.87C134.977 12.87 135.417 12.86 135.877 12.84C136.337 12.8 136.727 12.78 137.047 12.78C137.427 12.78 137.687 12.86 137.827 13.02C137.967 13.18 138.037 13.38 138.037 13.62C138.037 13.92 137.957 14.25 137.797 14.61C137.657 14.95 137.517 15.24 137.377 15.48C137.117 15.96 136.867 16.39 136.627 16.77C136.407 17.13 136.157 17.52 135.877 17.94C135.457 18.58 135.147 19.17 134.947 19.71C134.767 20.23 134.677 20.67 134.677 21.03C134.677 21.65 134.907 21.96 135.367 21.96C135.747 21.96 136.237 21.69 136.837 21.15C137.217 20.81 137.567 20.41 137.887 19.95C138.227 19.47 138.527 18.99 138.787 18.51C139.067 18.01 139.297 17.6 139.477 17.28C139.517 17.22 139.557 17.19 139.597 17.19C139.677 17.19 139.717 17.27 139.717 17.43C139.717 17.55 139.687 17.66 139.627 17.76C139.287 18.38 138.897 19.06 138.457 19.8C138.017 20.54 137.477 21.18 136.837 21.72C136.497 22 136.157 22.2 135.817 22.32C135.497 22.46 135.197 22.53 134.917 22.53C134.417 22.53 133.997 22.36 133.657 22.02C133.337 21.66 133.177 21.19 133.177 20.61C133.177 20.27 133.257 19.86 133.417 19.38C133.677 18.66 134.067 17.97 134.587 17.31C135.107 16.65 135.607 15.98 136.087 15.3C136.387 14.9 136.537 14.51 136.537 14.13C136.537 13.93 136.477 13.76 136.357 13.62C136.257 13.48 136.067 13.4 135.787 13.38C135.627 13.34 135.447 13.32 135.247 13.32C135.047 13.32 134.847 13.32 134.647 13.32H133.807C133.687 13.32 133.577 13.32 133.477 13.32C133.377 13.32 133.287 13.31 133.207 13.29C133.107 14.05 132.867 14.87 132.487 15.75C132.127 16.61 131.697 17.46 131.197 18.3C130.717 19.14 130.237 19.89 129.757 20.55C129.297 21.21 128.907 21.72 128.587 22.08ZM140.131 22.44C139.571 22.44 139.161 22.26 138.901 21.9C138.641 21.52 138.511 21.06 138.511 20.52C138.511 20.36 138.521 20.2 138.541 20.04C138.581 19.86 138.621 19.68 138.661 19.5C138.881 18.7 139.221 17.81 139.681 16.83C140.161 15.83 140.621 14.94 141.061 14.16C141.321 13.72 141.561 13.41 141.781 13.23C142.001 13.03 142.241 12.89 142.501 12.81C142.761 12.71 143.071 12.6 143.431 12.48C143.531 12.44 143.631 12.41 143.731 12.39C143.831 12.37 143.941 12.35 144.061 12.33C143.661 12.73 143.251 13.21 142.831 13.77C142.431 14.33 141.991 15.1 141.511 16.08C141.251 16.6 140.991 17.18 140.731 17.82C140.491 18.46 140.281 19.06 140.101 19.62C139.921 20.18 139.821 20.62 139.801 20.94C139.781 21.32 139.831 21.59 139.951 21.75C140.071 21.91 140.231 21.99 140.431 21.99C140.771 21.99 141.091 21.87 141.391 21.63C141.711 21.39 141.991 21.14 142.231 20.88C142.671 20.38 143.081 19.83 143.461 19.23C143.861 18.63 144.251 17.99 144.631 17.31C144.691 17.23 144.741 17.19 144.781 17.19C144.861 17.19 144.901 17.25 144.901 17.37C144.901 17.47 144.881 17.55 144.841 17.61C144.481 18.27 144.101 18.93 143.701 19.59C143.301 20.25 142.811 20.87 142.231 21.45C141.971 21.71 141.661 21.94 141.301 22.14C140.961 22.34 140.571 22.44 140.131 22.44ZM143.791 10.65C143.571 10.65 143.381 10.57 143.221 10.41C143.081 10.25 143.011 10.06 143.011 9.84C143.011 9.56 143.121 9.31 143.341 9.09C143.581 8.87 143.841 8.74 144.121 8.7C144.341 8.7 144.521 8.78 144.661 8.94C144.821 9.08 144.901 9.27 144.901 9.51C144.901 9.77 144.791 10.03 144.571 10.29C144.351 10.53 144.091 10.65 143.791 10.65ZM151.737 22.47C151.057 22.47 150.567 22.24 150.267 21.78C149.967 21.3 149.817 20.71 149.817 20.01C149.817 19.31 149.937 18.62 150.177 17.94L150.477 17.07L149.367 18.78C149.087 19.22 148.717 19.72 148.257 20.28C147.817 20.82 147.347 21.29 146.847 21.69C146.207 22.21 145.627 22.47 145.107 22.47C144.607 22.47 144.217 22.26 143.937 21.84C143.677 21.42 143.547 20.89 143.547 20.25C143.547 19.81 143.607 19.37 143.727 18.93C144.027 17.81 144.487 16.79 145.107 15.87C145.727 14.93 146.507 14.12 147.447 13.44C147.847 13.14 148.357 12.9 148.977 12.72C149.597 12.52 150.217 12.42 150.837 12.42C151.077 12.42 151.317 12.44 151.557 12.48C151.797 12.52 152.017 12.57 152.217 12.63C152.377 12.27 152.557 11.87 152.757 11.43C152.977 10.99 153.187 10.56 153.387 10.14C153.607 9.7 153.787 9.34 153.927 9.06C154.327 8.24 154.827 7.26 155.427 6.12C156.027 4.98 156.727 3.92 157.527 2.94C158.147 2.16 158.857 1.48 159.657 0.900002C160.477 0.300001 161.267 8.34465e-07 162.027 8.34465e-07C162.487 8.34465e-07 162.827 0.140001 163.047 0.420001C163.287 0.700001 163.407 1.04 163.407 1.44C163.407 1.8 163.337 2.13 163.197 2.43C162.877 3.15 162.367 3.91 161.667 4.71C160.987 5.51 160.247 6.29 159.447 7.05C158.667 7.79 157.967 8.46 157.347 9.06C156.827 9.56 156.367 10 155.967 10.38C155.567 10.74 155.197 11.1 154.857 11.46C154.517 11.82 154.147 12.22 153.747 12.66C153.307 13.66 152.897 14.66 152.517 15.66C152.157 16.66 151.857 17.59 151.617 18.45C151.397 19.31 151.287 20.03 151.287 20.61C151.287 21.43 151.537 21.87 152.037 21.93C152.377 21.93 152.697 21.82 152.997 21.6C153.297 21.38 153.557 21.14 153.777 20.88C154.237 20.38 154.657 19.83 155.037 19.23C155.417 18.63 155.797 17.99 156.177 17.31C156.237 17.23 156.297 17.19 156.357 17.19C156.437 17.19 156.477 17.25 156.477 17.37C156.477 17.47 156.457 17.55 156.417 17.61C156.057 18.27 155.667 18.93 155.247 19.59C154.847 20.25 154.357 20.87 153.777 21.45C153.517 21.71 153.217 21.95 152.877 22.17C152.537 22.37 152.157 22.47 151.737 22.47ZM154.227 11.61C154.687 11.09 155.117 10.63 155.517 10.23C155.917 9.81 156.407 9.3 156.987 8.7C157.547 8.14 158.187 7.48 158.907 6.72C159.647 5.96 160.337 5.19 160.977 4.41C161.637 3.63 162.117 2.94 162.417 2.34C162.657 1.86 162.777 1.47 162.777 1.17C162.777 0.670001 162.527 0.420001 162.027 0.420001C161.407 0.420001 160.757 0.710001 160.077 1.29C159.417 1.85 158.767 2.62 158.127 3.6C157.587 4.44 157.077 5.36 156.597 6.36C156.117 7.34 155.677 8.29 155.277 9.21C154.877 10.13 154.527 10.93 154.227 11.61ZM145.737 21.54C146.097 21.54 146.527 21.3 147.027 20.82C147.547 20.32 148.077 19.71 148.617 18.99C149.177 18.25 149.687 17.53 150.147 16.83C150.287 16.63 150.467 16.3 150.687 15.84C150.927 15.38 151.177 14.89 151.437 14.37C151.697 13.83 151.917 13.36 152.097 12.96C151.977 12.92 151.857 12.9 151.737 12.9C151.637 12.9 151.527 12.9 151.407 12.9C150.787 12.9 150.167 13.07 149.547 13.41C148.947 13.73 148.407 14.16 147.927 14.7C147.247 15.44 146.677 16.24 146.217 17.1C145.757 17.94 145.437 18.68 145.257 19.32C145.157 19.68 145.107 20.05 145.107 20.43C145.107 20.73 145.147 20.99 145.227 21.21C145.327 21.43 145.497 21.54 145.737 21.54ZM162.38 22.47C161.74 22.47 161.3 22.27 161.06 21.87C160.82 21.45 160.7 20.99 160.7 20.49C160.7 20.39 160.71 20.22 160.73 19.98C160.77 19.72 160.81 19.48 160.85 19.26C160.57 19.64 160.23 20.06 159.83 20.52C159.45 20.98 159.06 21.37 158.66 21.69C158.02 22.21 157.44 22.47 156.92 22.47C156.42 22.47 156.03 22.26 155.75 21.84C155.49 21.42 155.36 20.89 155.36 20.25C155.36 19.43 155.54 18.6 155.9 17.76C156.26 16.92 156.73 16.13 157.31 15.39C157.91 14.63 158.57 13.98 159.29 13.44C159.71 13.14 160.22 12.9 160.82 12.72C161.44 12.52 162.06 12.42 162.68 12.42C163.38 12.42 163.99 12.53 164.51 12.75C165.05 12.95 165.42 13.24 165.62 13.62C165.2 14.16 164.77 14.83 164.33 15.63C163.89 16.41 163.51 17.12 163.19 17.76C162.97 18.2 162.73 18.75 162.47 19.41C162.21 20.05 162.08 20.6 162.08 21.06C162.08 21.26 162.13 21.46 162.23 21.66C162.33 21.86 162.52 21.96 162.8 21.96C163.12 21.96 163.43 21.84 163.73 21.6C164.03 21.36 164.28 21.12 164.48 20.88C164.94 20.38 165.36 19.83 165.74 19.23C166.12 18.63 166.5 17.99 166.88 17.31C166.94 17.23 167 17.19 167.06 17.19C167.14 17.19 167.18 17.25 167.18 17.37C167.18 17.47 167.16 17.55 167.12 17.61C166.78 18.27 166.4 18.93 165.98 19.59C165.56 20.25 165.06 20.87 164.48 21.45C164.2 21.73 163.87 21.97 163.49 22.17C163.11 22.37 162.74 22.47 162.38 22.47ZM157.58 21.54C157.96 21.54 158.37 21.34 158.81 20.94C159.27 20.52 159.71 20.02 160.13 19.44C160.57 18.84 160.96 18.27 161.3 17.73C161.66 17.17 161.94 16.74 162.14 16.44C162.56 15.78 162.95 15.23 163.31 14.79C163.67 14.35 164.23 14.01 164.99 13.77C165.03 13.77 165.06 13.77 165.08 13.77C165.12 13.75 165.16 13.74 165.2 13.74C165.02 13.46 164.72 13.25 164.3 13.11C163.88 12.97 163.47 12.9 163.07 12.9C162.45 12.9 161.85 13.07 161.27 13.41C160.69 13.75 160.16 14.18 159.68 14.7C159.22 15.24 158.77 15.83 158.33 16.47C157.89 17.11 157.53 17.76 157.25 18.42C156.99 19.08 156.86 19.71 156.86 20.31C156.86 20.63 156.91 20.92 157.01 21.18C157.13 21.42 157.32 21.54 157.58 21.54ZM168.243 22.44C167.523 22.44 167.023 22.23 166.743 21.81C166.463 21.39 166.323 20.86 166.323 20.22C166.323 19.56 166.423 18.84 166.623 18.06C166.843 17.28 167.093 16.52 167.373 15.78C167.673 15.04 167.953 14.39 168.213 13.83C168.493 13.27 168.683 12.88 168.783 12.66C169.143 11.9 169.583 11.04 170.103 10.08C170.643 9.12 171.243 8.14 171.903 7.14C172.583 6.14 173.293 5.19 174.033 4.29C174.793 3.39 175.573 2.61 176.373 1.95C177.193 1.29 178.003 0.840001 178.803 0.6C179.023 0.540001 179.223 0.510001 179.403 0.510001C179.743 0.510001 180.023 0.610001 180.243 0.810001C180.483 0.990001 180.603 1.31 180.603 1.77C180.603 2.09 180.523 2.49 180.363 2.97C180.103 3.67 179.663 4.45 179.043 5.31C178.423 6.15 177.693 7.03 176.853 7.95C176.013 8.85 175.123 9.74 174.183 10.62C173.263 11.5 172.363 12.32 171.483 13.08C170.603 13.84 169.823 14.49 169.143 15.03C168.963 15.41 168.793 15.78 168.633 16.14C168.493 16.5 168.363 16.85 168.243 17.19C168.183 17.37 168.093 17.64 167.973 18C167.853 18.36 167.743 18.76 167.643 19.2C167.543 19.64 167.493 20.06 167.493 20.46C167.493 20.86 167.573 21.21 167.733 21.51C167.893 21.79 168.183 21.93 168.603 21.93C168.943 21.93 169.253 21.82 169.533 21.6C169.833 21.38 170.103 21.14 170.343 20.88C171.183 19.92 171.933 18.81 172.593 17.55C172.673 17.41 172.733 17.34 172.773 17.34C172.813 17.34 172.833 17.4 172.833 17.52C172.833 17.7 172.793 17.89 172.713 18.09C172.333 18.79 171.983 19.38 171.663 19.86C171.363 20.34 170.923 20.87 170.343 21.45C170.083 21.71 169.773 21.94 169.413 22.14C169.073 22.34 168.683 22.44 168.243 22.44ZM169.473 14.34C170.093 13.8 170.813 13.16 171.633 12.42C172.453 11.66 173.293 10.85 174.153 9.99C175.013 9.13 175.823 8.27 176.583 7.41C177.363 6.55 178.033 5.74 178.593 4.98C179.173 4.22 179.563 3.56 179.763 3C179.943 2.48 180.033 2.08 180.033 1.8C180.033 1.28 179.803 1.02 179.343 1.02C179.083 1.02 178.773 1.12 178.413 1.32C178.053 1.5 177.723 1.74 177.423 2.04C176.923 2.52 176.333 3.21 175.653 4.11C174.993 4.99 174.293 6 173.553 7.14C172.813 8.28 172.083 9.47 171.363 10.71C170.663 11.95 170.033 13.16 169.473 14.34ZM179.695 24.9C179.455 24.78 179.265 24.61 179.125 24.39C179.005 24.17 178.945 23.95 178.945 23.73C178.945 23.51 179.005 23.33 179.125 23.19C179.205 23.11 179.285 23.06 179.365 23.04C179.445 23.04 179.475 23.09 179.455 23.19C179.395 23.49 179.525 23.77 179.845 24.03C180.185 24.31 180.485 24.48 180.745 24.54C180.905 24.56 181.055 24.58 181.195 24.6C181.355 24.64 181.505 24.66 181.645 24.66C182.225 24.66 182.785 24.56 183.325 24.36C184.045 24.12 184.755 23.62 185.455 22.86C186.175 22.12 186.845 21.29 187.465 20.37C188.045 19.49 188.645 18.43 189.265 17.19C189.905 15.93 190.565 14.63 191.245 13.29H185.125C185.065 13.29 185.035 13.27 185.035 13.23C185.035 13.13 185.105 13.01 185.245 12.87C185.405 12.71 185.545 12.63 185.665 12.63H191.575C192.215 11.39 192.885 10.19 193.585 9.03C194.285 7.87 195.015 6.82 195.775 5.88C196.555 4.92 197.365 4.16 198.205 3.6C197.445 3.52 196.665 3.41 195.865 3.27C195.085 3.13 194.395 3 193.795 2.88C192.935 2.72 192.085 2.58 191.245 2.46C190.425 2.34 189.615 2.28 188.815 2.28C188.135 2.28 187.475 2.34 186.835 2.46C186.215 2.58 185.615 2.78 185.035 3.06C184.555 3.32 184.105 3.76 183.685 4.38C183.285 4.98 183.085 5.6 183.085 6.24C183.085 6.5 183.125 6.75 183.205 6.99C183.305 7.23 183.455 7.46 183.655 7.68C183.695 7.7 183.685 7.74 183.625 7.8C183.585 7.84 183.535 7.85 183.475 7.83C183.095 7.49 182.815 7.11 182.635 6.69C182.455 6.25 182.365 5.81 182.365 5.37C182.365 4.71 182.525 4.09 182.845 3.51C183.185 2.93 183.605 2.49 184.105 2.19C184.605 1.91 185.125 1.71 185.665 1.59C186.225 1.47 186.805 1.41 187.405 1.41C187.965 1.41 188.535 1.45 189.115 1.53C189.695 1.61 190.295 1.71 190.915 1.83C191.815 2.01 192.755 2.21 193.735 2.43C194.735 2.63 195.685 2.8 196.585 2.94C196.965 3 197.345 3.05 197.725 3.09C198.125 3.13 198.515 3.16 198.895 3.18C199.535 2.88 200.155 2.73 200.755 2.73C200.835 2.73 201.005 2.74 201.265 2.76C201.525 2.78 201.655 2.87 201.655 3.03C201.655 3.25 201.495 3.41 201.175 3.51C200.875 3.59 200.545 3.64 200.185 3.66C199.825 3.66 199.565 3.66 199.405 3.66H199.105C198.865 3.82 198.625 4.02 198.385 4.26C198.145 4.48 197.905 4.73 197.665 5.01C196.785 6.05 195.985 7.23 195.265 8.55C194.545 9.87 193.855 11.23 193.195 12.63H200.515L200.755 12.21C201.915 10.19 203.195 8.24 204.595 6.36C205.995 4.48 207.365 2.58 208.705 0.660001C208.765 0.560001 208.865 0.520001 209.005 0.540001C209.165 0.540001 209.215 0.590001 209.155 0.690001C208.355 1.73 207.565 2.88 206.785 4.14C206.025 5.4 205.305 6.68 204.625 7.98C203.945 9.26 203.315 10.48 202.735 11.64C202.615 11.84 202.465 12.17 202.285 12.63H204.325C204.365 12.63 204.385 12.65 204.385 12.69C204.385 12.77 204.305 12.89 204.145 13.05C204.005 13.21 203.875 13.29 203.755 13.29H201.985C201.725 13.95 201.425 14.7 201.085 15.54C200.765 16.36 200.465 17.19 200.185 18.03C199.905 18.85 199.685 19.58 199.525 20.22C199.405 20.72 199.345 21.17 199.345 21.57C199.345 22.15 199.475 22.57 199.735 22.83C199.955 23.05 200.235 23.16 200.575 23.16C200.975 23.16 201.385 23 201.805 22.68C202.305 22.3 202.815 21.8 203.335 21.18C203.855 20.54 204.325 19.91 204.745 19.29C205.165 18.65 205.465 18.16 205.645 17.82C205.765 17.64 205.875 17.55 205.975 17.55C206.035 17.55 206.065 17.59 206.065 17.67C206.065 17.75 206.035 17.85 205.975 17.97C205.755 18.41 205.445 18.95 205.045 19.59C204.645 20.23 204.185 20.87 203.665 21.51C203.145 22.13 202.595 22.65 202.015 23.07C201.735 23.27 201.415 23.43 201.055 23.55C200.715 23.69 200.355 23.76 199.975 23.76C199.435 23.76 198.935 23.6 198.475 23.28C197.855 22.82 197.545 22.04 197.545 20.94C197.565 19.7 197.835 18.42 198.355 17.1C198.875 15.78 199.465 14.51 200.125 13.29H192.895C192.275 14.59 191.645 15.87 191.005 17.13C190.385 18.37 189.725 19.49 189.025 20.49C188.345 21.47 187.555 22.35 186.655 23.13C185.775 23.91 184.775 24.5 183.655 24.9C183.035 25.12 182.295 25.23 181.435 25.23C181.095 25.23 180.775 25.2 180.475 25.14C180.175 25.1 179.915 25.02 179.695 24.9ZM212.156 22.47C211.516 22.47 211.076 22.27 210.836 21.87C210.596 21.45 210.476 20.99 210.476 20.49C210.476 20.39 210.486 20.22 210.506 19.98C210.546 19.72 210.586 19.48 210.626 19.26C210.346 19.64 210.006 20.06 209.606 20.52C209.226 20.98 208.836 21.37 208.436 21.69C207.796 22.21 207.216 22.47 206.696 22.47C206.196 22.47 205.806 22.26 205.526 21.84C205.266 21.42 205.136 20.89 205.136 20.25C205.136 19.43 205.316 18.6 205.676 17.76C206.036 16.92 206.506 16.13 207.086 15.39C207.686 14.63 208.346 13.98 209.066 13.44C209.486 13.14 209.996 12.9 210.596 12.72C211.216 12.52 211.836 12.42 212.456 12.42C213.156 12.42 213.766 12.53 214.286 12.75C214.826 12.95 215.196 13.24 215.396 13.62C214.976 14.16 214.546 14.83 214.106 15.63C213.666 16.41 213.286 17.12 212.966 17.76C212.746 18.2 212.506 18.75 212.246 19.41C211.986 20.05 211.856 20.6 211.856 21.06C211.856 21.26 211.906 21.46 212.006 21.66C212.106 21.86 212.296 21.96 212.576 21.96C212.896 21.96 213.206 21.84 213.506 21.6C213.806 21.36 214.056 21.12 214.256 20.88C214.716 20.38 215.136 19.83 215.516 19.23C215.896 18.63 216.276 17.99 216.656 17.31C216.716 17.23 216.776 17.19 216.836 17.19C216.916 17.19 216.956 17.25 216.956 17.37C216.956 17.47 216.936 17.55 216.896 17.61C216.556 18.27 216.176 18.93 215.756 19.59C215.336 20.25 214.836 20.87 214.256 21.45C213.976 21.73 213.646 21.97 213.266 22.17C212.886 22.37 212.516 22.47 212.156 22.47ZM207.356 21.54C207.736 21.54 208.146 21.34 208.586 20.94C209.046 20.52 209.486 20.02 209.906 19.44C210.346 18.84 210.736 18.27 211.076 17.73C211.436 17.17 211.716 16.74 211.916 16.44C212.336 15.78 212.726 15.23 213.086 14.79C213.446 14.35 214.006 14.01 214.766 13.77C214.806 13.77 214.836 13.77 214.856 13.77C214.896 13.75 214.936 13.74 214.976 13.74C214.796 13.46 214.496 13.25 214.076 13.11C213.656 12.97 213.246 12.9 212.846 12.9C212.226 12.9 211.626 13.07 211.046 13.41C210.466 13.75 209.936 14.18 209.456 14.7C208.996 15.24 208.546 15.83 208.106 16.47C207.666 17.11 207.306 17.76 207.026 18.42C206.766 19.08 206.636 19.71 206.636 20.31C206.636 20.63 206.686 20.92 206.786 21.18C206.906 21.42 207.096 21.54 207.356 21.54ZM217.598 22.47C216.898 22.47 216.398 22.22 216.098 21.72C215.798 21.22 215.648 20.66 215.648 20.04C215.648 19.6 215.708 19.17 215.828 18.75C216.028 18.05 216.278 17.35 216.578 16.65C216.898 15.93 217.198 15.25 217.478 14.61C217.518 14.51 217.588 14.34 217.688 14.1C217.788 13.84 217.848 13.59 217.868 13.35V13.26C217.868 13.1 217.818 12.98 217.718 12.9C217.638 12.82 217.548 12.78 217.448 12.78C217.288 12.78 217.158 12.82 217.058 12.9C217.018 12.94 216.968 12.96 216.908 12.96C216.848 12.96 216.818 12.93 216.818 12.87C216.818 12.69 216.918 12.56 217.118 12.48C217.398 12.34 217.688 12.27 217.988 12.27C218.348 12.27 218.658 12.39 218.918 12.63C219.198 12.85 219.338 13.19 219.338 13.65C219.338 14.23 219.208 14.81 218.948 15.39C218.688 15.95 218.428 16.51 218.168 17.07C217.948 17.53 217.728 18.01 217.508 18.51C217.288 18.99 217.128 19.45 217.028 19.89C216.968 20.15 216.938 20.41 216.938 20.67C216.938 20.99 217.018 21.27 217.178 21.51C217.338 21.73 217.618 21.84 218.018 21.84C218.538 21.84 219.028 21.67 219.488 21.33C219.948 20.99 220.368 20.56 220.748 20.04C221.148 19.52 221.488 18.99 221.768 18.45C222.048 17.89 222.258 17.41 222.398 17.01C222.378 16.85 222.348 16.61 222.308 16.29C222.268 15.95 222.248 15.57 222.248 15.15C222.248 14.83 222.268 14.5 222.308 14.16C222.348 13.8 222.408 13.44 222.488 13.08C222.548 12.86 222.668 12.58 222.848 12.24C223.028 11.9 223.258 11.73 223.538 11.73C223.758 11.69 223.928 11.77 224.048 11.97C224.168 12.15 224.228 12.4 224.228 12.72C224.228 13.34 224.108 14.07 223.868 14.91C223.628 15.75 223.308 16.58 222.908 17.4C222.888 17.98 222.968 18.43 223.148 18.75C223.348 19.07 223.608 19.23 223.928 19.23C224.408 19.23 224.848 18.97 225.248 18.45C225.668 17.93 226.018 17.38 226.298 16.8C226.438 16.54 226.558 16.41 226.658 16.41C226.718 16.41 226.748 16.45 226.748 16.53C226.748 16.67 226.698 16.83 226.598 17.01C226.398 17.41 226.178 17.82 225.938 18.24C225.718 18.64 225.438 18.97 225.098 19.23C224.778 19.49 224.378 19.62 223.898 19.62C223.478 19.62 223.158 19.48 222.938 19.2C222.718 18.92 222.578 18.59 222.518 18.21C222.258 18.67 221.988 19.11 221.708 19.53C221.448 19.95 221.188 20.31 220.928 20.61C220.488 21.15 219.988 21.6 219.428 21.96C218.888 22.3 218.278 22.47 217.598 22.47ZM228.772 22.5C227.612 22.5 226.792 22.2 226.312 21.6C226.072 21.34 225.902 21.03 225.802 20.67C225.702 20.31 225.652 19.94 225.652 19.56C225.652 19.08 225.712 18.6 225.832 18.12C225.952 17.62 226.102 17.16 226.282 16.74C226.562 16.08 226.932 15.42 227.392 14.76C227.852 14.08 228.402 13.51 229.042 13.05C229.702 12.59 230.422 12.36 231.202 12.36C231.722 12.36 232.132 12.49 232.432 12.75C232.732 13.01 232.882 13.41 232.882 13.95C232.882 14.57 232.692 15.2 232.312 15.84C231.932 16.46 231.452 16.98 230.872 17.4C230.292 17.82 229.692 18.03 229.072 18.03C228.512 18.03 228.022 17.83 227.602 17.43C227.482 17.75 227.382 18.11 227.302 18.51C227.222 18.89 227.182 19.28 227.182 19.68C227.182 20.3 227.302 20.84 227.542 21.3C227.802 21.76 228.262 21.99 228.922 21.99C229.402 21.99 229.862 21.87 230.302 21.63C230.762 21.37 231.172 21.06 231.532 20.7C231.932 20.28 232.312 19.83 232.672 19.35C233.032 18.87 233.382 18.31 233.722 17.67C233.762 17.61 233.792 17.58 233.812 17.58C233.892 17.58 233.932 17.67 233.932 17.85C233.932 17.97 233.892 18.1 233.812 18.24C233.512 18.78 233.162 19.33 232.762 19.89C232.362 20.43 231.952 20.9 231.532 21.3C231.152 21.66 230.742 21.95 230.302 22.17C229.862 22.39 229.352 22.5 228.772 22.5ZM227.752 16.98C227.892 17.18 228.052 17.33 228.232 17.43C228.432 17.51 228.632 17.55 228.832 17.55C229.312 17.55 229.812 17.37 230.332 17.01C230.852 16.63 231.272 16.19 231.592 15.69C231.732 15.47 231.852 15.18 231.952 14.82C232.072 14.46 232.132 14.12 232.132 13.8C232.132 13.52 232.072 13.28 231.952 13.08C231.852 12.86 231.642 12.75 231.322 12.75C230.962 12.75 230.532 12.97 230.032 13.41C229.552 13.85 229.092 14.42 228.652 15.12C228.512 15.36 228.352 15.64 228.172 15.96C228.012 16.28 227.872 16.62 227.752 16.98ZM239.264 22.44C238.684 22.44 238.224 22.26 237.884 21.9C237.564 21.54 237.404 21.09 237.404 20.55C237.404 20.29 237.454 19.99 237.554 19.65C237.834 18.77 238.274 17.9 238.874 17.04C239.494 16.16 240.004 15.29 240.404 14.43C240.544 14.15 240.614 13.9 240.614 13.68C240.614 13.46 240.544 13.3 240.404 13.2C240.284 13.08 240.134 13.02 239.954 13.02C239.694 13.02 239.364 13.13 238.964 13.35C238.584 13.55 238.144 13.94 237.644 14.52C237.344 14.88 237.004 15.32 236.624 15.84C236.244 16.36 235.934 16.83 235.694 17.25C235.294 17.93 234.934 18.62 234.614 19.32C234.294 20 234.014 20.63 233.774 21.21C233.574 21.67 233.334 21.97 233.054 22.11C232.774 22.23 232.504 22.28 232.244 22.26C231.984 22.24 231.784 22.24 231.644 22.26C232.204 21.16 232.754 20 233.294 18.78C233.834 17.56 234.294 16.34 234.674 15.12C234.854 14.56 235.004 14.02 235.124 13.5C235.244 12.96 235.294 12.61 235.274 12.45V12.39C235.274 12.23 235.354 12.19 235.514 12.27C235.774 12.41 235.954 12.62 236.054 12.9C236.154 13.16 236.204 13.46 236.204 13.8C236.204 14.18 236.154 14.59 236.054 15.03C235.954 15.45 235.834 15.83 235.694 16.17C235.954 15.81 236.234 15.45 236.534 15.09C236.834 14.71 237.164 14.35 237.524 14.01C237.944 13.59 238.394 13.23 238.874 12.93C239.354 12.61 239.874 12.45 240.434 12.45C240.974 12.45 241.364 12.57 241.604 12.81C241.864 13.05 241.994 13.37 241.994 13.77C241.994 14.19 241.874 14.67 241.634 15.21C241.374 15.83 241.054 16.45 240.674 17.07C240.314 17.69 239.984 18.29 239.684 18.87C239.624 18.99 239.524 19.18 239.384 19.44C239.264 19.68 239.154 19.95 239.054 20.25C239.014 20.39 238.974 20.54 238.934 20.7C238.894 20.84 238.874 20.99 238.874 21.15C238.874 21.35 238.914 21.54 238.994 21.72C239.094 21.88 239.274 21.96 239.534 21.96C239.874 21.96 240.194 21.85 240.494 21.63C240.814 21.39 241.084 21.14 241.304 20.88C241.764 20.38 242.184 19.83 242.564 19.23C242.964 18.61 243.354 17.96 243.734 17.28C243.794 17.2 243.834 17.16 243.854 17.16C243.934 17.16 243.974 17.25 243.974 17.43C243.974 17.55 243.954 17.64 243.914 17.7C243.554 18.36 243.174 19.01 242.774 19.65C242.374 20.27 241.884 20.87 241.304 21.45C241.044 21.71 240.744 21.94 240.404 22.14C240.064 22.34 239.684 22.44 239.264 22.44Z" fill="#3B2317"/>
</svg>
