<svg width="154" height="119" viewBox="0 0 154 119" fill="none" xmlns="http://www.w3.org/2000/svg">
<path d="M115.605 16.1847L67.3742 15.7253C66.0636 15.7313 64.869 16.4362 64.2405 17.5746C63.612 18.7129 63.645 20.1117 64.3271 21.244C65.0092 22.3764 66.2368 23.0703 67.5474 23.0643L106.855 23.4042L34.652 95.6075C33.2386 97.0209 33.2606 99.3345 34.7012 100.775C36.1418 102.216 38.4554 102.238 39.8688 100.824L112.038 28.6551L112.412 67.9289C112.409 68.9011 112.798 69.8409 113.492 70.535C114.187 71.2292 115.126 71.6188 116.099 71.6154C117.072 71.6481 118.006 71.2693 118.672 70.5721C119.355 69.8961 119.731 68.9684 119.716 67.9984L119.256 19.7675C119.236 17.7512 117.586 16.1014 115.57 16.081L115.605 16.1847Z" fill="#3B2317"/>
</svg>
