<svg width="511" height="502" viewBox="0 0 511 502" fill="none" xmlns="http://www.w3.org/2000/svg">
<g opacity="0.4" clip-path="url(#clip0_2_1027)">
<path d="M253.015 275.527C249.973 274.314 247.476 273.38 245.022 272.321C241.648 270.851 239.482 268.108 237.578 265.104C232.911 257.786 226.133 252.625 219.232 247.717C207.966 239.655 195.153 234.569 182.347 229.588C168.659 224.263 155.171 218.523 142.445 211.12C133.691 206.005 125.033 200.743 117.123 194.397C109.863 188.586 102.549 182.76 95.7943 176.407C89.1885 170.184 83.0049 163.476 77.0209 156.616C65.4138 143.308 54.4842 129.411 44.2393 115.03C36.862 104.693 29.9188 94.0452 22.6924 83.6096C16.2044 74.2445 8.95539 65.5261 0.959059 57.4009C-8.50382 47.7993 -18.7274 39.1069 -29.7952 31.382C-30.6235 30.7903 -31.4241 30.0916 -32.1712 29.4068C-32.376 29.2281 -32.4161 28.8982 -32.5187 28.6775C-31.7284 27.4336 -31.0925 28.2835 -30.4666 28.7314C-21.9234 34.6137 -13.946 41.1821 -6.2097 48.0644C8.94869 61.5876 21.1901 77.5138 32.2248 94.4845C44.336 113.116 57.798 130.763 71.9609 147.907C79.4057 156.927 87.0315 165.778 95.5272 173.782C102.433 180.3 109.815 186.348 117.259 192.287C128.85 201.518 141.428 209.315 154.785 215.695C165.879 220.985 177.306 225.517 188.676 230.228C198.334 234.232 207.924 238.275 216.672 244.073C220.175 246.41 223.603 248.909 227.19 251.45C226.188 249.592 225.242 247.783 224.228 246.014C220.808 240.047 219.106 233.58 218.869 226.786C218.623 219.1 219.156 211.536 222.5 204.359C228.393 191.706 242.045 186.021 253.911 187.495C260.991 188.364 268.062 189.357 275.151 190.103C283.104 190.948 290.426 193.307 295.949 199.306C298.994 202.619 301.364 206.555 303.98 210.247C304.621 211.167 305.076 212.187 305.817 213.554C306.825 211.911 307.622 210.509 308.531 209.204C311.273 205.273 315.166 202.803 319.364 200.699C323.968 198.392 328.645 196.115 332.953 193.32C342.64 186.993 349.385 178.099 354.331 167.733C355.739 164.767 357.398 161.889 359.15 159.092C361.282 155.709 364.145 153.029 367.733 151.211C372.743 148.702 376.736 149.99 379.47 154.899C381.344 158.239 382.098 161.847 381.972 165.637C381.824 170.128 380.914 174.479 379.343 178.647C377.608 183.228 376.614 187.9 375.965 192.741C374.356 204.806 370.713 216.31 365.262 227.217C364.029 229.681 362.365 231.965 360.743 234.613C361.497 234.387 362.136 234.256 362.68 234.009C378.85 226.228 395.555 225.764 412.556 230.637C418.145 232.237 422.966 235.395 426.109 240.4C430.527 247.401 436.558 252.893 442.442 258.553C446.92 262.854 449.825 267.945 451.164 273.964C452.487 280.002 451.03 285.318 447.053 290.138C440.569 297.982 432.105 301.968 422.305 303.576C419.552 304.025 416.764 304.213 413.995 304.681C409.911 305.377 405.822 306.004 401.831 307.044C395.915 308.599 389.991 310.05 383.836 310.151C383.45 310.142 383.076 310.307 382.316 310.464C382.919 311.088 383.218 311.611 383.674 311.878C390.685 316.095 395.645 322.325 400.156 328.883C407.813 339.989 413.278 352.067 415.318 365.514C415.678 367.959 415.815 370.47 415.703 372.929C415.309 380.746 409.693 385.152 401.996 383.712C399.353 383.208 396.777 382.401 394.148 381.844C391.537 381.303 388.866 380.906 386.156 380.441C386.098 380.62 385.838 380.918 385.906 381.141C388.871 393.002 379.436 407.873 363.025 406.759C351.716 406.001 343.15 400.82 335.522 392.95C327.048 384.245 321.523 373.852 316.849 362.858C316.471 361.939 316.007 361.042 315.578 360.143C315.353 360.176 315.144 360.19 314.918 360.223C314.901 361.257 314.903 362.307 314.886 363.341C314.766 369.004 314.947 374.734 314.457 380.369C313.694 388.912 310.286 396.425 304.789 403.099C297.531 411.905 288.413 417.844 277.696 421.404C270.317 423.846 262.847 425.717 254.92 425.518C252.675 425.459 250.356 426.614 248.172 427.462C245.309 428.601 242.618 430.218 239.694 431.239C235.351 432.758 231.003 432.667 226.786 430.396C224.242 429.027 222.83 426.812 221.682 424.369C217.279 415.02 217.116 405.473 221.309 396.121C223.86 390.416 227.018 384.88 230.588 379.737C234.7 373.822 239.583 368.415 244.175 362.853C251.317 354.141 258.793 345.688 264.535 335.951C265.571 334.201 266.46 332.355 267.256 330.428C260.542 338.234 252.835 344.848 244.23 350.349C233.914 356.946 222.741 361.255 210.469 362.803C206.719 363.267 203.085 364.65 199.471 365.822C195.652 367.078 191.991 368.832 188.109 369.934C182.992 371.401 177.91 371.062 173.016 368.626C163.808 364.032 159.326 351.993 163.737 342.766C165.682 338.696 168.222 334.883 170.365 330.886C174.188 323.8 177.703 316.577 181.672 309.586C187.847 298.752 196.258 290.166 207.613 284.671C213.661 281.724 220.014 280.156 226.716 279.843C234.482 279.476 242.224 279.022 249.691 276.592C250.65 276.282 251.591 275.956 252.943 275.497L253.015 275.527ZM317.936 302.194C315.452 308.122 309.529 309.835 303.329 311.077C306.874 329.64 311.845 347.546 319.218 364.729C323.551 374.835 328.64 384.487 336.55 392.373C341.96 397.75 347.527 402.87 355.315 404.357C358.862 405.028 362.488 405.57 366.069 405.451C380.411 404.989 387.365 390.443 384.549 381.005C384.367 380.387 384.493 379.678 384.48 378.979C390.071 380.089 395.441 381.039 400.755 382.203C409.517 384.114 414.755 380.066 414.542 371.064C414.433 367.167 413.832 363.234 412.924 359.426C410.562 349.467 406.259 340.305 400.686 331.77C396.014 324.646 390.649 318.129 383.571 313.198C380.905 311.33 378.126 310.117 374.79 309.73C359.331 307.939 344.209 304.672 329.805 298.591C327.93 297.807 325.993 297.133 324.572 296.581C322.338 298.465 320.484 300.026 317.936 302.194ZM324.572 295.041C336.239 300.011 348.044 303.66 360.131 306.572C374.228 309.96 388.132 310.001 402.04 305.489C406.425 304.072 411.144 303.7 415.711 302.901C419.189 302.299 422.686 301.975 426.101 301.219C434.329 299.419 441.247 295.363 446.665 288.817C450.011 284.756 451.412 280.145 450.408 274.943C449.25 269.017 446.606 263.891 442.167 259.657C435.969 253.756 429.506 248.083 424.903 240.691C423.447 238.339 421.359 236.484 418.893 234.988C415.311 232.779 411.497 231.286 407.434 230.493C394.072 227.878 380.88 228.262 368.004 233.019C362.591 235.013 357.927 237.989 354.047 242.436C351.563 245.282 348.546 247.762 345.459 249.984C333.784 258.476 320.682 263.494 306.368 265.39C305.882 265.457 305.42 265.611 304.37 265.875C308.323 268.636 310.688 272.24 314.28 274.851C320.911 279.655 324.887 286.336 324.523 295.096L324.572 295.041ZM269.113 270.272C267.81 270.938 267.306 271.252 266.779 271.48C263.814 272.661 260.864 273.823 257.899 275.004C257.235 275.276 256.489 275.379 255.862 275.684C248.905 278.921 241.545 280.364 233.973 280.998C230.179 281.325 226.399 281.86 222.644 282.517C213.923 284.017 207.806 289.297 202.894 296.317C199.479 301.17 196.934 306.454 194.499 311.8C190.454 320.757 185.076 328.649 177.295 334.934C172.649 338.68 168.576 343.122 165.357 348.276C163.762 350.818 163.097 353.383 164.513 356.159C165.427 358.005 166.359 359.868 167.492 361.577C170.383 365.968 174.233 367.984 179.629 366.761C184.923 365.581 189.925 363.719 194.669 361.14C198.01 359.304 201.327 357.381 204.708 355.612C209.238 353.24 214.049 352.425 219.133 353.289C221.578 353.719 224.065 353.988 226.517 354.26C231.191 354.767 235.501 353.775 239.591 351.38C248.313 346.309 256.095 340.023 263.04 332.779C265.719 329.971 267.907 326.637 269.902 323.299C274.284 315.947 274.73 307.619 275.232 299.339C275.288 298.373 274.882 297.297 274.386 296.438C272.614 293.319 271.821 289.906 271.406 286.398C271.305 285.687 271.373 284.895 271.068 284.267C269.029 280.064 267.997 275.722 269.08 270.309L269.113 270.272ZM248.044 378.977C247.457 379.875 246.727 380.974 245.978 382.058C244.337 384.427 243.017 387.143 240.959 389.05C237.353 392.392 233.394 395.426 229.351 398.255C226.043 400.58 223.489 403.431 221.52 406.89C220.269 409.076 219.401 411.498 220.028 414.011C220.922 417.61 221.767 421.264 223.207 424.651C224.873 428.53 228.232 430.806 232.506 430.832C235.132 430.83 237.864 430.33 240.363 429.496C243.067 428.577 245.485 426.821 248.158 425.712C250.32 424.813 252.665 423.779 254.908 423.803C262.811 423.916 270.28 422.011 277.675 419.55C287.996 416.104 296.724 410.349 303.725 401.875C308.818 395.701 311.809 388.741 312.918 380.893C314.114 372.532 313.7 364.174 312.901 355.808C312.65 353.163 312.029 350.492 311.26 347.953C307.991 337.267 304.824 326.54 302.828 315.523C302.549 314.001 302.081 312.545 301.773 311.358C297.832 310.574 294.079 310.215 290.586 309.068C287.184 307.967 284.042 306.044 280.441 304.344C280.73 305.743 280.938 306.744 281.147 307.745C283.115 317.328 283.984 326.968 283.376 336.761C282.476 351.247 278.059 364.238 267.594 374.802C262.172 380.263 256.27 381.765 249.029 379.051C248.85 378.993 248.625 379.025 248.011 379.014L248.044 378.977ZM304.21 250.987C308.843 245.002 311.886 238.809 310.263 231.461C308.392 223.044 305.322 215.023 300.639 207.725C299.523 205.997 297.661 204.635 295.9 203.458C293.094 201.6 289.841 201.645 286.595 201.794C279.247 202.133 272.151 201.283 265.598 197.629C263.524 196.474 261.465 195.3 259.406 194.126C253.754 190.832 247.656 189.476 241.226 190.681C234.605 191.917 229.61 195.686 225.936 201.361C222.659 206.432 221.901 211.735 224.327 217.261C225.571 220.083 227.223 222.737 228.905 225.319C231.037 228.589 232.449 232.083 232.837 235.96C233.061 238.221 233.409 240.491 233.425 242.766C233.46 249.941 235.37 256.622 238.367 263.072C242.106 271.152 251.126 275.549 259.671 273.011C262.209 272.244 264.666 271.045 266.974 269.716C275.106 264.982 283.47 260.81 292.649 258.334C297.341 257.054 301.02 254.004 304.228 251.004L304.21 250.987ZM288.954 260.615C288.966 260.789 288.978 260.963 289.024 261.135C291.598 261.644 294.289 261.829 296.714 262.733C301.512 264.527 306.279 264.1 311.063 263.129C319.11 261.499 326.804 258.808 334.151 255.125C347.692 248.328 358.079 238.154 364.769 224.624C369.785 214.517 373.034 203.653 374.419 192.407C375.003 187.641 376.218 183.13 377.639 178.57C378.964 174.383 379.8 169.968 380.341 165.589C380.829 161.722 379.786 157.994 377.65 154.655C375.693 151.636 373.428 150.774 369.997 151.811C366.583 152.829 364.263 155.262 362.951 158.345C361.622 161.446 360.835 164.79 360.028 168.083C358.594 174.01 357.803 180.103 355.94 185.884C352.775 195.674 346.224 202.542 336.237 205.756C332.588 206.93 328.886 207.828 325.211 208.882C322.326 209.707 319.418 210.447 316.619 211.511C313.087 212.853 310.214 215.13 307.896 218.351C308.881 221.243 309.843 224.049 310.789 226.873C312.053 230.762 312.813 234.702 311.902 238.79C309.416 249.795 302.453 256.533 291.797 259.687C290.854 259.978 289.929 260.286 289.005 260.594L288.954 260.615ZM247.534 377.156C248.696 377.515 249.494 377.654 250.217 377.99C254.571 379.954 258.843 379.455 262.585 376.821C265.426 374.843 268.153 372.471 270.314 369.769C274.119 364.995 277.024 359.599 278.827 353.7C283.994 336.841 282.717 319.964 278.817 303.123C278.574 302.124 277.831 301.247 277.33 300.318C277.123 300.367 276.9 300.434 276.693 300.483C276.612 301.592 276.495 302.703 276.429 303.793C275.616 316.225 271.718 327.57 265.106 338.153C259.33 347.402 252.352 355.7 245.243 363.883C239.271 370.764 233.352 377.66 228.597 385.439C225.48 390.552 222.472 395.727 220.967 401.623C220.734 402.567 220.608 403.538 220.421 404.654C220.953 404.495 221.216 404.495 221.313 404.383C224.722 399.689 229.424 396.517 234.069 393.262C238.932 389.87 243.191 385.853 245.499 380.165C245.92 379.156 246.72 378.314 247.515 377.14L247.534 377.156ZM271.106 268.701C269.92 273.368 270.136 277.555 271.948 281.529C275.555 289.461 282.032 293.803 290.231 295.944C291.106 296.183 292.082 296.117 293.006 296.072C295.885 295.93 298.764 295.787 301.636 295.541C303.272 295.395 304.961 295.263 306.522 294.79C309.746 293.802 312.604 292.068 314.142 288.953C316.143 284.931 315.799 280.928 313.029 277.299C311.646 275.502 309.963 273.935 308.564 272.156C302.941 264.956 295.289 262.375 286.505 262.443C285.385 262.449 284.191 262.652 283.188 263.088C279.143 264.867 275.142 266.783 271.088 268.685L271.106 268.701ZM360.528 160.557C360.312 160.466 360.114 160.392 359.898 160.302C358.684 162.519 357.363 164.71 356.24 166.974C353.403 172.593 350.584 178.228 346.54 183.088C340.229 190.657 332.496 196.362 323.57 200.502C320.667 201.836 317.809 203.308 315.084 204.927C311.516 207.024 309.074 210.236 307.405 213.99C306.979 214.929 306.425 216.052 307.577 217.024C308.786 215.752 309.86 214.559 311.043 213.429C314.298 210.338 318.467 209.093 322.66 207.934C327.025 206.729 331.45 205.642 335.786 204.28C345.351 201.288 351.826 194.845 354.663 185.392C357.101 177.262 358.628 168.861 360.547 160.573L360.528 160.557ZM164.128 346.189C164.291 346.265 164.454 346.342 164.617 346.418C165.106 345.895 165.707 345.469 166.053 344.885C168.838 340.04 173.175 336.648 177.213 332.962C181.02 329.501 184.991 326.116 187.474 321.466C190.173 316.382 192.853 311.281 195.442 306.134C198.876 299.267 202.681 292.69 208.656 287.647C209.485 286.961 210.274 286.207 211.513 285.125C210.512 285.333 210.11 285.343 209.736 285.508C200.577 289.576 193.012 295.69 187.158 303.788C182.31 310.471 178.523 317.817 174.824 325.175C171.911 330.957 168.69 336.602 165.651 342.339C165.016 343.555 164.635 344.894 164.163 346.186L164.128 346.189ZM273.756 288.252C273.541 288.687 273.378 288.873 273.39 289.047C273.4 289.449 273.499 289.863 273.578 290.26C274.662 294.844 277.109 298.617 280.525 301.73C286.782 307.452 294.324 309.708 302.671 309.651C306.994 309.622 310.716 307.987 314.079 305.449C315.759 304.162 316.995 302.52 316.412 299.881C313.498 297.207 309.612 296.962 305.864 296.936C301.66 296.905 297.445 297.487 293.246 297.526C291.041 297.535 288.691 297.221 286.612 296.522C282.564 295.185 278.838 293.178 275.841 290.072C275.22 289.431 274.501 288.902 273.775 288.269L273.756 288.252ZM221.715 213.113C216.798 225.175 223.891 250.308 233.352 256.041C232.899 251.975 232.404 247.807 231.978 243.634C231.687 240.66 231.673 237.632 231.14 234.709C230.697 232.324 229.933 229.854 228.756 227.745C226.164 223.124 222.88 218.882 221.715 213.113ZM249.418 188.622C249.446 188.777 249.491 188.914 249.519 189.07C251.577 189.719 253.678 190.242 255.676 191.035C257.764 191.874 259.86 192.818 261.795 193.982C268.844 198.232 276.319 200.791 284.68 200.418C288.363 200.256 292.065 200.111 295.651 201.602C293.567 199.554 291.584 197.43 289.236 195.873C285.109 193.124 280.304 192.241 275.467 191.657C268.21 190.765 260.933 189.821 253.676 188.929C252.282 188.761 250.859 188.699 249.453 188.619L249.418 188.622ZM179.058 368.393C182.141 369.445 185.215 369.08 188.127 368.147C191.674 367.015 195.134 365.643 198.555 364.204C202.486 362.555 206.493 361.234 210.759 360.893C216.575 360.429 222.14 358.863 227.588 356.866C228.306 356.608 228.979 356.212 230.233 355.602C226.798 355.292 224.014 355.287 221.315 354.734C214.213 353.289 207.83 354.928 201.722 358.545C194.623 362.771 187.346 366.712 179.023 368.395L179.058 368.393ZM316.299 278.776C318.371 285.008 315.626 289.921 312.153 294.69C313.227 297.593 317.12 296.927 317.925 299.727C321.304 298.448 323.172 295.818 323.036 292.291C322.822 286.861 320.112 282.562 316.316 278.757L316.299 278.776Z" fill="#C89663"/>
<path d="M66.1682 141.278C68.9985 145.288 70.5888 149.855 71.7494 154.539C73.6822 162.321 77.0106 169.519 80.476 176.672C87.7544 191.709 97.0965 205.432 106.592 219.093C116.416 233.205 121.369 249.064 123.705 265.817C125.435 278.305 126.332 290.919 128.027 303.409C129.599 314.875 131.726 326.268 133.609 337.678C134.06 340.431 134.545 343.182 134.892 345.942C135.007 346.862 134.742 347.843 134.667 348.793C134.409 348.863 134.169 348.949 133.912 349.019C133.227 348.225 132.389 347.494 131.89 346.6C127.07 338.067 121.978 329.658 117.58 320.905C108.804 303.414 98.1952 287.044 87.5356 270.696C81.3729 261.221 76.2085 251.242 72.7717 240.41C70.6922 233.81 69.8975 227.054 70.2693 220.201C70.6506 213.488 71.3318 206.807 71.7131 200.093C72.1987 191.832 72.8074 183.581 72.8026 175.318C72.7858 164.062 71.0707 153.061 65.9082 142.854C65.6868 142.431 65.6534 141.943 65.5341 141.479C65.7222 141.413 65.9452 141.346 66.1333 141.281L66.1682 141.278ZM128.571 338.001C128.757 337.901 128.924 337.784 129.126 337.666C128.916 336.892 128.738 336.081 128.492 335.31C119.063 307.254 111.608 278.627 104.653 249.879C100.992 234.755 95.5717 220.259 88.3233 206.428C83.6721 197.552 79.2228 188.556 75.844 179.086C75.6689 178.573 75.3056 178.125 74.6554 177.066C74.5631 178.788 74.5276 179.805 74.4759 180.842C74.0769 188.064 73.6779 195.286 73.2091 202.513C72.8403 208.385 72.2973 214.269 71.9819 220.155C71.5561 228.01 72.7589 235.614 75.4183 243.014C78.8086 252.396 83.4503 261.133 88.7351 269.547C96.3013 281.623 104.086 293.561 111.299 305.853C116.888 315.384 121.701 325.353 126.886 335.121C127.408 336.101 127.998 337.042 128.553 337.985L128.571 338.001ZM132.273 344.508C132.533 344.473 132.809 344.419 133.069 344.384C132.882 343.171 132.747 341.973 132.508 340.781C131.115 333.47 129.358 326.201 128.381 318.826C126.156 301.908 124.435 284.938 122.296 267.996C120.049 250.238 114.894 233.483 104.374 218.666C93.9684 203.981 84.4217 188.8 76.6044 172.54C76.4598 172.217 76.0783 172.015 75.8153 171.753C75.6458 171.834 75.4414 171.918 75.2719 172C76.1248 174.743 76.7036 177.575 77.8607 180.158C81.7867 188.926 85.6453 197.733 89.9776 206.299C97.0962 220.278 102.454 234.884 106.277 250.084C110.437 266.627 114.511 283.193 118.948 299.682C122.704 313.643 126.908 327.504 130.957 341.393C131.275 342.457 131.815 343.454 132.252 344.457L132.273 344.508Z" fill="#C89663"/>
<path d="M364.913 164.252C362.279 197.413 346.498 223.952 322.847 246.507C325.916 242.991 329.038 239.488 332.069 235.94C343.204 222.88 351.966 208.404 357.88 192.231C360.892 184.044 362.871 175.612 363.821 166.97C363.929 165.982 364.125 165.006 364.251 164.035C364.467 164.125 364.665 164.199 364.881 164.29L364.913 164.252Z" fill="#C89663"/>
<path d="M409.537 281.979C383.29 287.062 356.913 288.951 330.316 284.814C330.318 284.586 330.318 284.324 330.32 284.096C333.983 284.409 337.669 284.807 341.343 285.031C345.16 285.281 348.985 285.408 352.808 285.499C356.631 285.591 360.446 285.578 364.276 285.512C368.001 285.452 371.721 285.324 375.435 285.09C379.252 284.849 383.063 284.504 386.871 284.124C390.679 283.744 394.48 283.26 398.263 282.759C401.994 282.279 405.739 281.746 409.487 281.247C409.503 281.491 409.52 281.735 409.537 281.979Z" fill="#C89663"/>
<path d="M316.754 278.256C323.895 277.966 330.471 277.871 337.001 277.342C343.581 276.792 350.14 275.929 356.673 274.944C363.189 273.978 369.65 272.701 376.167 271.735C357.674 277.292 338.717 279.66 319.036 279.625C321.968 284.346 321.924 288.83 319.536 293.334C320.654 288.181 320.925 283.173 316.754 278.256Z" fill="#C89663"/>
<path d="M354.499 219.595C351.058 224.064 347.936 228.844 344.104 232.972C335.264 242.463 326.298 251.91 315.162 258.808C311.517 261.068 307.423 262.64 303.499 264.394C302.598 264.787 301.471 264.688 300.446 264.81C300.394 264.568 300.34 264.292 300.289 264.05C300.781 263.825 301.234 263.531 301.747 263.357C309.403 261.123 315.961 256.916 322.138 252.017C330.973 245.012 338.661 236.842 346.423 228.737C349.202 225.853 351.457 222.479 353.973 219.333C354.155 219.425 354.336 219.518 354.515 219.576L354.499 219.595Z" fill="#C89663"/>
<path d="M316.464 302.942C340.41 311.319 360.283 325.942 378.239 343.513C371.809 338.328 365.345 333.145 358.931 327.942C352.502 322.757 345.576 318.253 338.326 314.384C331.038 310.482 323.473 307.125 316.014 303.533C316.177 303.347 316.302 303.128 316.462 302.907L316.464 302.942Z" fill="#C89663"/>
<path d="M285.104 404.535C301.012 379.09 306.903 351.819 300.379 322.201C304.363 336.427 304.801 350.771 302.183 365.233C299.563 379.661 293.515 392.605 285.104 404.535Z" fill="#C89663"/>
<path d="M287.443 372.427C289.582 362.234 291.05 351.945 292.001 341.535C292.989 330.631 292.603 319.873 289.137 309.376C289.025 309.016 288.964 308.635 288.903 308.254C289.105 308.135 289.309 308.051 289.511 307.933C289.965 308.69 290.645 309.414 290.807 310.243C291.793 314.676 292.934 319.081 293.486 323.56C294.669 333.179 293.326 342.723 292.052 352.263C291.136 359.1 289.742 365.847 287.459 372.408L287.443 372.427Z" fill="#C89663"/>
<path d="M349.903 311.378C371.96 320.565 391.892 332.715 406.315 352.381C390.976 333.915 371.144 321.688 349.903 311.378Z" fill="#C89663"/>
<path d="M196.652 317.94C196.979 317.34 197.048 317.073 197.183 316.994C214.431 307.827 231.439 298.222 247.679 287.355C247.778 287.278 248.013 287.385 248.576 287.417C232.413 299.661 215.115 309.374 196.633 317.924L196.652 317.94Z" fill="#C89663"/>
<path d="M357.155 375.452C341.942 359.586 328.307 342.476 316.816 323.698C329.286 341.692 343.188 358.609 357.155 375.452Z" fill="#C89663"/>
<path d="M381.18 239.044C366.051 244.391 350.648 249.826 335.383 255.217C339.524 251.261 372.106 239.745 381.18 239.044Z" fill="#C89663"/>
<path d="M272.228 283.052C271.814 284.165 271.755 284.834 271.377 285.193C260.953 295.596 249.458 304.671 237.144 312.769C248.628 303.029 260.115 293.324 272.212 283.07L272.228 283.052Z" fill="#C89663"/>
<path d="M163.934 357.423C179.244 349.351 193.671 339.884 208.232 330.077C202.24 336.679 170.305 356.625 163.934 357.423Z" fill="#C89663"/>
<path d="M323.473 289.198C326.607 290.229 329.716 291.402 332.908 292.254C336.28 293.164 339.725 293.876 343.165 294.519C346.517 295.15 349.892 295.605 353.265 296.024C356.745 296.472 360.236 296.831 363.724 297.155C367.125 297.468 370.502 297.695 373.986 298.212C373.396 298.287 372.797 298.485 372.199 298.456C359.443 298.303 346.859 296.825 334.415 294.06C331.019 293.292 327.756 291.919 324.438 290.761C323.954 290.601 323.556 290.155 323.132 289.851L323.419 289.184L323.473 289.198Z" fill="#C89663"/>
<path d="M269.151 198.632C274.228 202.21 283.686 225.31 284.431 235.431C282.173 229.299 280.12 223.083 277.642 217.053C275.147 211.042 272.191 205.184 269.17 198.648L269.151 198.632Z" fill="#C89663"/>
<path d="M287.509 260.993C288.022 260.293 288.14 259.97 288.374 259.814C292.376 257.145 294.656 253.367 295.687 248.728C297.078 242.437 297.464 236.056 297.27 229.626C297.25 228.822 297.195 228.021 297.175 227.217C297.366 227.186 297.572 227.137 297.763 227.107C298.04 228.856 298.406 230.617 298.562 232.393C299.072 238.31 298.491 244.162 297.207 249.956C296.324 253.937 294.089 257.099 291.179 259.87C290.274 260.718 289.265 261.312 287.475 260.995L287.509 260.993Z" fill="#C89663"/>
<path d="M256.196 244.973C247.005 232.692 240.347 219.049 234.601 204.924C241.8 218.286 248.981 231.63 256.196 244.973Z" fill="#C89663"/>
<path d="M385.171 380.368C376.898 369.216 367.831 358.747 358.59 348.815C367.544 355.58 384.756 375.582 385.171 380.368Z" fill="#C89663"/>
<path d="M264.285 227.06C271.269 236.006 275.669 246.073 278.848 256.712C279.322 258.273 279.455 259.962 279.567 261.6C279.596 262.281 279.137 262.995 278.441 263.567C277.944 260.904 277.651 258.158 276.88 255.584C274.062 246.374 270.171 237.603 265.515 229.182C265.117 228.474 264.683 227.768 264.285 227.06Z" fill="#C89663"/>
<path d="M245.441 328.104C240.588 334.455 234.489 340.504 227.807 345.98C225.187 348.118 222.491 350.156 219.717 352.094C218.329 353.046 216.757 353.87 214.825 353.528C226.812 346.783 236.021 336.794 245.457 328.085L245.441 328.104Z" fill="#C89663"/>
<path d="M253.288 258.265C243.906 251.126 236.362 242.445 230.888 232.031C231.066 231.826 231.245 231.622 231.424 231.417C231.884 231.754 232.547 231.971 232.787 232.41C236.736 239.724 242.252 245.881 247.552 252.21C249.342 254.33 251.365 256.259 253.272 258.283L253.288 258.265Z" fill="#C89663"/>
<path d="M450.57 282.688C449.865 283.121 449.206 283.726 448.435 283.971C438.526 287.057 428.371 288.583 417.962 288.447C428.786 286.717 439.639 285.143 450.106 281.792C450.267 282.096 450.41 282.384 450.57 282.688Z" fill="#C89663"/>
<path d="M338.872 204.09C332.815 214.338 327.705 225.118 320.682 234.818C325.563 225.543 330.406 216.234 335.359 206.988C336.042 205.717 337.27 204.723 338.244 203.607C338.449 203.786 338.651 203.93 338.872 204.09Z" fill="#C89663"/>
<path d="M343.027 374.692C352.541 389.647 356.121 395.655 365.965 405.458C364.67 406.491 363.92 405.509 363.187 404.771C358.315 399.831 354.073 394.393 350.482 388.473C348.017 384.421 345.772 380.266 343.441 376.134C343.261 375.814 343.235 375.431 343.027 374.692Z" fill="#C89663"/>
<path d="M251.101 424.709C259.77 416.052 267.386 406.574 273.985 396.306C271.469 404.074 256.691 422.738 251.101 424.709Z" fill="#C89663"/>
<path d="M350.615 271.362C342.057 274.479 319.395 277.447 315.254 276.029C327.226 274.449 338.903 272.907 350.615 271.362Z" fill="#C89663"/>
<path d="M314.737 305.335C324.698 311.471 333.904 318.587 341.527 327.665C337.841 324.448 334.301 321.064 330.435 318.051C325.979 314.589 321.233 311.496 316.631 308.2C315.747 307.56 314.974 306.754 314.155 306.039C314.366 305.798 314.561 305.574 314.772 305.332L314.737 305.335Z" fill="#C89663"/>
<path d="M301.824 304.422C290.881 306.965 278.486 303.654 275.488 296.416C279.29 299.276 282.851 302.711 287.777 303.306C292.544 303.894 297.336 304.078 301.824 304.422Z" fill="#C89663"/>
<path d="M402.666 252.42C411.107 247.857 424.837 244.075 429.057 245.103C425.871 246.649 422.855 246.573 420.128 247.405C417.178 248.305 414.184 249.067 411.232 249.932C408.382 250.755 405.532 251.578 402.682 252.401L402.666 252.42Z" fill="#C89663"/>
<path d="M241.485 397.506C235.1 405.273 226.81 411.278 220.956 419.639C220.832 417.827 221.692 416.316 222.866 415.046C225.264 412.485 227.7 409.957 230.268 407.578C233.939 404.161 237.74 400.858 241.485 397.506Z" fill="#C89663"/>
<path d="M279.897 265.394C286.117 266.234 291.226 267.972 295.292 271.881C298.835 275.301 302.115 278.983 305.496 282.588C305.968 283.099 306.244 283.798 306.333 284.597C304.52 282.654 302.625 280.804 300.911 278.784C295.56 272.476 289.204 267.846 280.949 266.181C280.788 266.139 280.653 265.956 279.897 265.394Z" fill="#C89663"/>
<path d="M302.756 296.289C301.488 296.69 300.838 296.909 300.015 297.174C296.869 294.691 293.554 292.289 290.465 289.627C287.393 286.946 284.497 284.026 281.718 281.01C288.461 286.174 294.175 292.667 302.74 296.307L302.756 296.289Z" fill="#C89663"/>
<path d="M252.884 306.382C259.359 299.94 265.964 293.348 272.342 287.018C272.017 289.946 259.735 302.365 252.884 306.382Z" fill="#C89663"/>
<path d="M318.023 332.388C313.66 327.992 306.322 313.624 306.805 310.178C310.57 317.626 314.236 324.889 318.023 332.388Z" fill="#C89663"/>
<path d="M275.593 265.44C277.363 265.968 279.192 266.352 280.887 267.077C287.001 269.693 292.749 272.841 297.018 278.172C297.516 278.803 298.133 279.374 298.601 280.078C291.758 273.713 284.086 268.787 274.849 266.33C275.306 265.844 275.519 265.637 275.733 265.43L275.628 265.437L275.593 265.44Z" fill="#C89663"/>
<path d="M292.604 309.387C294.879 311.93 297.284 325.335 297.063 335.171C295.507 326.243 294.071 317.779 292.604 309.387Z" fill="#C89663"/>
<path d="M275.698 265.433C273.834 258.924 271.953 252.398 269.975 245.494C273.68 251.546 275.464 257.921 277.009 264.381C276.41 264.842 275.992 265.133 275.609 265.421L275.714 265.414L275.698 265.433Z" fill="#C89663"/>
<path d="M258.001 423.979L269.935 410.305C266.83 415.592 263.799 420.944 258.523 424.434C258.355 424.288 258.169 424.125 258.001 423.979Z" fill="#C89663"/>
<path d="M376.707 363.871C382.046 368.727 386.339 374.406 390 380.584C387.835 379.382 386.91 377.134 385.474 375.323C384.016 373.46 382.606 371.542 381.183 369.678C379.702 367.73 378.205 365.8 376.707 363.871Z" fill="#C89663"/>
<path d="M275.714 201.148C278.908 203.05 282.469 210.582 283.843 217.614C281.016 211.871 278.374 206.517 275.714 201.148Z" fill="#C89663"/>
<path d="M182.584 352.627C177.466 356.124 172.316 359.658 166.221 361.419C171.318 357.87 176.956 355.318 182.584 352.627Z" fill="#C89663"/>
<path d="M221.861 354.523C226.105 351.05 230.35 347.577 235.142 343.664C230.235 350 225.056 354.395 221.861 354.523Z" fill="#C89663"/>
<path d="M349.391 391.716C353.322 396.457 357.136 401.031 361.083 405.753C357.406 403.954 351.091 396.345 349.391 391.716Z" fill="#C89663"/>
<path d="M326.423 217.642C327.94 213.198 329.803 208.958 333.093 205.601C333.312 205.727 333.549 205.868 333.751 206.012C331.304 209.906 328.873 213.782 326.425 217.677L326.423 217.642Z" fill="#C89663"/>
<path d="M425.408 241.918C421.39 243.065 417.374 244.247 413.355 245.394C417.025 242.993 420.917 241.276 425.216 240.898L425.408 241.918Z" fill="#C89663"/>
</g>
<defs>
<clipPath id="clip0_2_1027">
<rect width="309" height="408.228" fill="white" transform="translate(0 232.815) rotate(-48.8898)"/>
</clipPath>
</defs>
</svg>
