<svg width="30" height="22" viewBox="0 0 30 22" fill="none" xmlns="http://www.w3.org/2000/svg">
<path d="M29.7604 11.3369C29.6473 11.1369 29.4958 10.9615 29.3146 10.8209C29.1335 10.6804 28.9263 10.5776 28.7053 10.5184C27.7025 10.2604 26.6638 10.174 25.6326 10.2626C26.2263 7.62399 25.8385 5.54177 25.4482 4.328C25.312 3.89921 25.022 3.53682 24.6347 3.31148C24.2474 3.08614 23.7905 3.01399 23.3532 3.1091C21.9957 3.41541 20.7107 3.98495 19.5698 4.78588C18.7759 3.04821 17.5755 1.52982 16.0713 0.360525C15.7626 0.126549 15.3867 0 15.0002 0C14.6138 0 14.2378 0.126549 13.9292 0.360525C12.4258 1.53034 11.2259 3.04862 10.4319 4.78588C9.29074 3.98466 8.0052 3.4151 6.64728 3.1091C6.20996 3.01411 5.75314 3.08647 5.366 3.31208C4.97885 3.53769 4.68917 3.90035 4.55348 4.32927C4.1632 5.54305 3.77546 7.62527 4.36915 10.2639C3.33791 10.1752 2.2992 10.2617 1.29647 10.5197C1.0754 10.5788 0.868254 10.6817 0.687098 10.8222C0.505942 10.9628 0.3544 11.1382 0.241303 11.3382C0.122445 11.5438 0.0454894 11.7712 0.0149313 12.007C-0.0156269 12.2429 0.000824309 12.4825 0.0633243 12.7119C0.484118 14.2825 1.77955 17.2677 5.71035 19.6351C9.64115 22.0026 13.1308 22 15.0009 22C16.8709 22 20.3555 22 24.2888 19.6351C28.2222 17.2702 29.5151 14.2825 29.9359 12.7106C29.9987 12.4814 30.0156 12.2419 29.9855 12.006C29.9554 11.7702 29.8789 11.5427 29.7604 11.3369ZM20.147 6.25546C21.1937 5.4614 22.3955 4.89911 23.6735 4.60554C23.7414 4.5916 23.812 4.60351 23.8717 4.63895C23.9313 4.6744 23.9758 4.73085 23.9964 4.79739C24.4973 6.36033 24.9893 9.59366 22.6502 13.6865C21.7112 15.3008 20.5077 16.7438 19.0906 17.9545C20.0669 16.2445 20.8487 13.9333 20.8487 10.8944C20.8606 9.32045 20.6238 7.7546 20.147 6.25546ZM6.00529 4.80123C6.02517 4.73398 6.06931 4.67663 6.12905 4.64043C6.18878 4.60423 6.25981 4.59178 6.32819 4.60554C7.60621 4.89911 8.80804 5.4614 9.85472 6.25546C9.37797 7.7546 9.1411 9.32045 9.15298 10.8944C9.15298 13.9333 9.93481 16.247 10.9086 17.9507C9.49119 16.7403 8.28767 15.2972 7.34903 13.6826C5.01242 9.59366 5.5044 6.36033 6.00529 4.80123ZM6.49346 18.3165C3.02286 16.2304 1.89778 13.6583 1.53547 12.3051C1.52597 12.2708 1.52343 12.2348 1.52802 12.1995C1.53261 12.1641 1.54422 12.13 1.56216 12.0992C1.58977 12.0498 1.63534 12.0132 1.68929 11.9969C2.71672 11.74 3.78497 11.6935 4.83062 11.8601C5.15317 12.7586 5.55435 13.6266 6.02944 14.4539C7.33373 16.7184 9.11232 18.6701 11.2417 20.1736C9.56299 19.8393 7.95577 19.2107 6.49346 18.3165ZM15.0009 20.3194C13.8974 19.5264 10.6785 16.7126 10.6785 10.8944C10.6785 5.34864 13.5948 2.53739 14.8483 1.58581C14.8923 1.5526 14.9458 1.53465 15.0009 1.53465C15.0559 1.53465 15.1094 1.5526 15.1534 1.58581C16.4069 2.53739 19.3232 5.34864 19.3232 10.8944C19.3232 16.7484 16.1209 19.5277 15.0009 20.3194ZM28.4637 12.3103C28.1014 13.6583 26.9763 16.2304 23.5057 18.3216C22.0418 19.214 20.4333 19.8405 18.7537 20.1723C20.883 18.6688 22.6616 16.7171 23.9659 14.4526C24.4431 13.626 24.8464 12.7584 25.1711 11.8601C26.2179 11.6948 27.2871 11.7431 28.315 12.002C28.3689 12.0183 28.4145 12.055 28.4421 12.1043C28.4596 12.1353 28.4708 12.1695 28.4749 12.2048C28.4791 12.2402 28.4761 12.2761 28.4663 12.3103H28.4637Z" fill="#513C27"/>
</svg>
